<?xml version="1.0" encoding="UTF-8" standalone="no"?><svg xmlns="http://www.w3.org/2000/svg" xmlns:xlink="http://www.w3.org/1999/xlink" clip-rule="evenodd" stroke-miterlimit="10" viewBox="0 0 1280 720"><desc>SVG generated by Keynote</desc><defs></defs><g transform="matrix(1.00, 0.00, -0.00, -1.00, 0.0, 720.0)"><g><clipPath id="clip0x7fe008200c70"><path d="M 0.0 720.0 L 1280.0 720.0 L 1280.0 0.0 L 0.0 0.0 Z M 0.0 720.0 "></path></clipPath><g clip-path="url(#clip0x7fe008200c70)"><image xlink:href="../../F70249D0-1089-46AB-B2F4-0AC6C6ADA60D/assets/47297D0B68A5EDE64084E8699645709A.jpeg" width="1024.00" height="768.00" transform="matrix(1.25, 0.00, -0.00, -1.25, 0.0, 840.0)"></image></g></g><image xlink:href="../../F70249D0-1089-46AB-B2F4-0AC6C6ADA60D/assets/E1481400D83B5463371A2DC766F68B6B.png" width="1460.00" height="301.00" transform="matrix(1.00, 0.00, -0.00, -1.00, -90.0, 811.0)" opacity="0.90"></image><g><clipPath id="clip0x7fe00530f830"><path d="M 0.0 721.0 L 1280.0 721.0 L 1280.0 600.0 L 0.0 600.0 Z M 0.0 721.0 "></path></clipPath><g clip-path="url(#clip0x7fe00530f830)"><image xlink:href="../../F70249D0-1089-46AB-B2F4-0AC6C6ADA60D/assets/07DF2D3527432983BA0804A4D6BE2172.png" width="1280.00" height="117.00" transform="matrix(1.16, 0.00, -0.00, -1.00, -100.0, 720.0)"></image></g></g><g><clipPath id="clip0x7fe008201df0"><path d="M 1199.0 704.0 L 1264.0 704.0 L 1264.0 640.0 L 1199.0 640.0 Z M 1199.0 704.0 "></path></clipPath><g clip-path="url(#clip0x7fe008201df0)"><image xlink:href="../../F70249D0-1089-46AB-B2F4-0AC6C6ADA60D/assets/6C8289717C816EE4C01D217FAD1E53AE.png" width="340.00" height="172.00" transform="matrix(0.32, 0.00, -0.00, -0.32, 1204.0, 701.0)"></image></g></g><text xml:space="preserve" font-family="HelveticaNeue-UltraLight,Helvetica Neue" font-size="20.0" fill="#1A1A1A" transform="matrix(1.00, 0.00, -0.00, -1.00, 391.6, 9.8)">T</text><text xml:space="preserve" font-family="HelveticaNeue-UltraLight,Helvetica Neue" font-size="20.0" fill="#1A1A1A" transform="matrix(1.00, 0.00, -0.00, -1.00, 401.6, 9.8)">h</text><text xml:space="preserve" font-family="HelveticaNeue-UltraLight,Helvetica Neue" font-size="20.0" fill="#1A1A1A" transform="matrix(1.00, 0.00, -0.00, -1.00, 411.6, 9.8)">o</text><text xml:space="preserve" font-family="HelveticaNeue-UltraLight,Helvetica Neue" font-size="20.0" fill="#1A1A1A" transform="matrix(1.00, 0.00, -0.00, -1.00, 422.0, 9.8)">m</text><text xml:space="preserve" font-family="HelveticaNeue-UltraLight,Helvetica Neue" font-size="20.0" fill="#1A1A1A" transform="matrix(1.00, 0.00, -0.00, -1.00, 437.6, 9.8)">a</text><text xml:space="preserve" font-family="HelveticaNeue-UltraLight,Helvetica Neue" font-size="20.0" fill="#1A1A1A" transform="matrix(1.00, 0.00, -0.00, -1.00, 447.2, 9.8)">s</text><text xml:space="preserve" font-family="HelveticaNeue-UltraLight,Helvetica Neue" font-size="20.0" fill="#1A1A1A" transform="matrix(1.00, 0.00, -0.00, -1.00, 456.5, 9.8)"> </text><text xml:space="preserve" font-family="HelveticaNeue-UltraLight,Helvetica Neue" font-size="20.0" fill="#1A1A1A" transform="matrix(1.00, 0.00, -0.00, -1.00, 462.0, 9.8)">H</text><text xml:space="preserve" font-family="HelveticaNeue-UltraLight,Helvetica Neue" font-size="20.0" fill="#1A1A1A" transform="matrix(1.00, 0.00, -0.00, -1.00, 475.0, 9.8)">รถ</text><text xml:space="preserve" font-family="HelveticaNeue-UltraLight,Helvetica Neue" font-size="20.0" fill="#1A1A1A" transform="matrix(1.00, 0.00, -0.00, -1.00, 485.4, 9.8)">l</text><text xml:space="preserve" font-family="HelveticaNeue-UltraLight,Helvetica Neue" font-size="20.0" fill="#1A1A1A" transform="matrix(1.00, 0.00, -0.00, -1.00, 488.0, 9.8)">l</text><text xml:space="preserve" font-family="HelveticaNeue-UltraLight,Helvetica Neue" font-size="20.0" fill="#1A1A1A" transform="matrix(1.00, 0.00, -0.00, -1.00, 490.6, 9.8)">t</text><text xml:space="preserve" font-family="HelveticaNeue-UltraLight,Helvetica Neue" font-size="20.0" fill="#1A1A1A" transform="matrix(1.00, 0.00, -0.00, -1.00, 495.4, 9.8)"> </text><text xml:space="preserve" font-family="HelveticaNeue-UltraLight,Helvetica Neue" font-size="20.0" fill="#1A1A1A" transform="matrix(1.00, 0.00, -0.00, -1.00, 500.9, 9.8)"> </text><text xml:space="preserve" font-family="HelveticaNeue-UltraLight,Helvetica Neue" font-size="20.0" fill="#1A1A1A" transform="matrix(1.00, 0.00, -0.00, -1.00, 506.5, 9.8)">/</text><text xml:space="preserve" font-family="HelveticaNeue-UltraLight,Helvetica Neue" font-size="20.0" fill="#1A1A1A" transform="matrix(1.00, 0.00, -0.00, -1.00, 513.2, 9.8)">/</text><text xml:space="preserve" font-family="HelveticaNeue-UltraLight,Helvetica Neue" font-size="20.0" fill="#1A1A1A" transform="matrix(1.00, 0.00, -0.00, -1.00, 519.8, 9.8)"> </text><text xml:space="preserve" font-family="HelveticaNeue-UltraLight,Helvetica Neue" font-size="20.0" fill="#1A1A1A" transform="matrix(1.00, 0.00, -0.00, -1.00, 525.4, 9.8)"> </text><text xml:space="preserve" font-family="HelveticaNeue-UltraLight,Helvetica Neue" font-size="20.0" fill="#1A1A1A" transform="matrix(1.00, 0.00, -0.00, -1.00, 530.9, 9.8)">O</text><text xml:space="preserve" font-family="HelveticaNeue-UltraLight,Helvetica Neue" font-size="20.0" fill="#1A1A1A" transform="matrix(1.00, 0.00, -0.00, -1.00, 545.4, 9.8)">v</text><text xml:space="preserve" font-family="HelveticaNeue-UltraLight,Helvetica Neue" font-size="20.0" fill="#1A1A1A" transform="matrix(1.00, 0.00, -0.00, -1.00, 553.5, 9.8)">i</text><text xml:space="preserve" font-family="HelveticaNeue-UltraLight,Helvetica Neue" font-size="20.0" fill="#1A1A1A" transform="matrix(1.00, 0.00, -0.00, -1.00, 556.1, 9.8)">s</text><text xml:space="preserve" font-family="HelveticaNeue-UltraLight,Helvetica Neue" font-size="20.0" fill="#1A1A1A" transform="matrix(1.00, 0.00, -0.00, -1.00, 565.4, 9.8)">:</text><text xml:space="preserve" font-family="HelveticaNeue-UltraLight,Helvetica Neue" font-size="20.0" fill="#1A1A1A" transform="matrix(1.00, 0.00, -0.00, -1.00, 570.9, 9.8)"> </text><text xml:space="preserve" font-family="HelveticaNeue-UltraLight,Helvetica Neue" font-size="20.0" fill="#1A1A1A" transform="matrix(1.00, 0.00, -0.00, -1.00, 576.5, 9.8)">A</text><text xml:space="preserve" font-family="HelveticaNeue-UltraLight,Helvetica Neue" font-size="20.0" fill="#1A1A1A" transform="matrix(1.00, 0.00, -0.00, -1.00, 588.0, 9.8)"> </text><text xml:space="preserve" font-family="HelveticaNeue-UltraLight,Helvetica Neue" font-size="20.0" fill="#1A1A1A" transform="matrix(1.00, 0.00, -0.00, -1.00, 593.5, 9.8)">F</text><text xml:space="preserve" font-family="HelveticaNeue-UltraLight,Helvetica Neue" font-size="20.0" fill="#1A1A1A" transform="matrix(1.00, 0.00, -0.00, -1.00, 603.2, 9.8)">r</text><text xml:space="preserve" font-family="HelveticaNeue-UltraLight,Helvetica Neue" font-size="20.0" fill="#1A1A1A" transform="matrix(1.00, 0.00, -0.00, -1.00, 608.3, 9.8)">a</text><text xml:space="preserve" font-family="HelveticaNeue-UltraLight,Helvetica Neue" font-size="20.0" fill="#1A1A1A" transform="matrix(1.00, 0.00, -0.00, -1.00, 618.0, 9.8)">m</text><text xml:space="preserve" font-family="HelveticaNeue-UltraLight,Helvetica Neue" font-size="20.0" fill="#1A1A1A" transform="matrix(1.00, 0.00, -0.00, -1.00, 633.5, 9.8)">e</text><text xml:space="preserve" font-family="HelveticaNeue-UltraLight,Helvetica Neue" font-size="20.0" fill="#1A1A1A" transform="matrix(1.00, 0.00, -0.00, -1.00, 643.5, 9.8)">w</text><text xml:space="preserve" font-family="HelveticaNeue-UltraLight,Helvetica Neue" font-size="20.0" fill="#1A1A1A" transform="matrix(1.00, 0.00, -0.00, -1.00, 657.2, 9.8)">o</text><text xml:space="preserve" font-family="HelveticaNeue-UltraLight,Helvetica Neue" font-size="20.0" fill="#1A1A1A" transform="matrix(1.00, 0.00, -0.00, -1.00, 667.6, 9.8)">r</text><text xml:space="preserve" font-family="HelveticaNeue-UltraLight,Helvetica Neue" font-size="20.0" fill="#1A1A1A" transform="matrix(1.00, 0.00, -0.00, -1.00, 672.8, 9.8)">k</text><text xml:space="preserve" font-family="HelveticaNeue-UltraLight,Helvetica Neue" font-size="20.0" fill="#1A1A1A" transform="matrix(1.00, 0.00, -0.00, -1.00, 681.7, 9.8)"> </text><text xml:space="preserve" font-family="HelveticaNeue-UltraLight,Helvetica Neue" font-size="20.0" fill="#1A1A1A" transform="matrix(1.00, 0.00, -0.00, -1.00, 687.2, 9.8)">f</text><text xml:space="preserve" font-family="HelveticaNeue-UltraLight,Helvetica Neue" font-size="20.0" fill="#1A1A1A" transform="matrix(1.00, 0.00, -0.00, -1.00, 691.3, 9.8)">o</text><text xml:space="preserve" font-family="HelveticaNeue-UltraLight,Helvetica Neue" font-size="20.0" fill="#1A1A1A" transform="matrix(1.00, 0.00, -0.00, -1.00, 701.7, 9.8)">r</text><text xml:space="preserve" font-family="HelveticaNeue-UltraLight,Helvetica Neue" font-size="20.0" fill="#1A1A1A" transform="matrix(1.00, 0.00, -0.00, -1.00, 706.9, 9.8)"> </text><text xml:space="preserve" font-family="HelveticaNeue-UltraLight,Helvetica Neue" font-size="20.0" fill="#1A1A1A" transform="matrix(1.00, 0.00, -0.00, -1.00, 712.4, 9.8)">V</text><text xml:space="preserve" font-family="HelveticaNeue-UltraLight,Helvetica Neue" font-size="20.0" fill="#1A1A1A" transform="matrix(1.00, 0.00, -0.00, -1.00, 723.2, 9.8)">i</text><text xml:space="preserve" font-family="HelveticaNeue-UltraLight,Helvetica Neue" font-size="20.0" fill="#1A1A1A" transform="matrix(1.00, 0.00, -0.00, -1.00, 725.8, 9.8)">s</text><text xml:space="preserve" font-family="HelveticaNeue-UltraLight,Helvetica Neue" font-size="20.0" fill="#1A1A1A" transform="matrix(1.00, 0.00, -0.00, -1.00, 735.0, 9.8)">u</text><text xml:space="preserve" font-family="HelveticaNeue-UltraLight,Helvetica Neue" font-size="20.0" fill="#1A1A1A" transform="matrix(1.00, 0.00, -0.00, -1.00, 745.0, 9.8)">a</text><text xml:space="preserve" font-family="HelveticaNeue-UltraLight,Helvetica Neue" font-size="20.0" fill="#1A1A1A" transform="matrix(1.00, 0.00, -0.00, -1.00, 754.7, 9.8)">l</text><text xml:space="preserve" font-family="HelveticaNeue-UltraLight,Helvetica Neue" font-size="20.0" fill="#1A1A1A" transform="matrix(1.00, 0.00, -0.00, -1.00, 757.3, 9.8)"> </text><text xml:space="preserve" font-family="HelveticaNeue-UltraLight,Helvetica Neue" font-size="20.0" fill="#1A1A1A" transform="matrix(1.00, 0.00, -0.00, -1.00, 762.8, 9.8)">A</text><text xml:space="preserve" font-family="HelveticaNeue-UltraLight,Helvetica Neue" font-size="20.0" fill="#1A1A1A" transform="matrix(1.00, 0.00, -0.00, -1.00, 774.3, 9.8)">n</text><text xml:space="preserve" font-family="HelveticaNeue-UltraLight,Helvetica Neue" font-size="20.0" fill="#1A1A1A" transform="matrix(1.00, 0.00, -0.00, -1.00, 784.3, 9.8)">a</text><text xml:space="preserve" font-family="HelveticaNeue-UltraLight,Helvetica Neue" font-size="20.0" fill="#1A1A1A" transform="matrix(1.00, 0.00, -0.00, -1.00, 793.9, 9.8)">l</text><text xml:space="preserve" font-family="HelveticaNeue-UltraLight,Helvetica Neue" font-size="20.0" fill="#1A1A1A" transform="matrix(1.00, 0.00, -0.00, -1.00, 796.5, 9.8)">y</text><text xml:space="preserve" font-family="HelveticaNeue-UltraLight,Helvetica Neue" font-size="20.0" fill="#1A1A1A" transform="matrix(1.00, 0.00, -0.00, -1.00, 804.7, 9.8)">s</text><text xml:space="preserve" font-family="HelveticaNeue-UltraLight,Helvetica Neue" font-size="20.0" fill="#1A1A1A" transform="matrix(1.00, 0.00, -0.00, -1.00, 813.9, 9.8)">i</text><text xml:space="preserve" font-family="HelveticaNeue-UltraLight,Helvetica Neue" font-size="20.0" fill="#1A1A1A" transform="matrix(1.00, 0.00, -0.00, -1.00, 816.5, 9.8)">s</text><text xml:space="preserve" font-family="HelveticaNeue-UltraLight,Helvetica Neue" font-size="20.0" fill="#1A1A1A" transform="matrix(1.00, 0.00, -0.00, -1.00, 825.8, 9.8)"> </text><text xml:space="preserve" font-family="HelveticaNeue-UltraLight,Helvetica Neue" font-size="20.0" fill="#1A1A1A" transform="matrix(1.00, 0.00, -0.00, -1.00, 831.4, 9.8)">o</text><text xml:space="preserve" font-family="HelveticaNeue-UltraLight,Helvetica Neue" font-size="20.0" fill="#1A1A1A" transform="matrix(1.00, 0.00, -0.00, -1.00, 841.7, 9.8)">f</text><text xml:space="preserve" font-family="HelveticaNeue-UltraLight,Helvetica Neue" font-size="20.0" fill="#1A1A1A" transform="matrix(1.00, 0.00, -0.00, -1.00, 845.8, 9.8)"> </text><text xml:space="preserve" font-family="HelveticaNeue-UltraLight,Helvetica Neue" font-size="20.0" fill="#1A1A1A" transform="matrix(1.00, 0.00, -0.00, -1.00, 851.4, 9.8)">O</text><text xml:space="preserve" font-family="HelveticaNeue-UltraLight,Helvetica Neue" font-size="20.0" fill="#1A1A1A" transform="matrix(1.00, 0.00, -0.00, -1.00, 865.8, 9.8)">c</text><text xml:space="preserve" font-family="HelveticaNeue-UltraLight,Helvetica Neue" font-size="20.0" fill="#1A1A1A" transform="matrix(1.00, 0.00, -0.00, -1.00, 875.8, 9.8)">e</text><text xml:space="preserve" font-family="HelveticaNeue-UltraLight,Helvetica Neue" font-size="20.0" fill="#1A1A1A" transform="matrix(1.00, 0.00, -0.00, -1.00, 885.8, 9.8)">a</text><text xml:space="preserve" font-family="HelveticaNeue-UltraLight,Helvetica Neue" font-size="20.0" fill="#1A1A1A" transform="matrix(1.00, 0.00, -0.00, -1.00, 895.4, 9.8)">n</text><text xml:space="preserve" font-family="HelveticaNeue-UltraLight,Helvetica Neue" font-size="20.0" fill="#1A1A1A" transform="matrix(1.00, 0.00, -0.00, -1.00, 905.4, 9.8)"> </text><text xml:space="preserve" font-family="HelveticaNeue-UltraLight,Helvetica Neue" font-size="20.0" fill="#1A1A1A" transform="matrix(1.00, 0.00, -0.00, -1.00, 911.0, 9.8)">F</text><text xml:space="preserve" font-family="HelveticaNeue-UltraLight,Helvetica Neue" font-size="20.0" fill="#1A1A1A" transform="matrix(1.00, 0.00, -0.00, -1.00, 920.6, 9.8)">o</text><text xml:space="preserve" font-family="HelveticaNeue-UltraLight,Helvetica Neue" font-size="20.0" fill="#1A1A1A" transform="matrix(1.00, 0.00, -0.00, -1.00, 931.0, 9.8)">r</text><text xml:space="preserve" font-family="HelveticaNeue-UltraLight,Helvetica Neue" font-size="20.0" fill="#1A1A1A" transform="matrix(1.00, 0.00, -0.00, -1.00, 936.2, 9.8)">e</text><text xml:space="preserve" font-family="HelveticaNeue-UltraLight,Helvetica Neue" font-size="20.0" fill="#1A1A1A" transform="matrix(1.00, 0.00, -0.00, -1.00, 946.2, 9.8)">c</text><text xml:space="preserve" font-family="HelveticaNeue-UltraLight,Helvetica Neue" font-size="20.0" fill="#1A1A1A" transform="matrix(1.00, 0.00, -0.00, -1.00, 956.2, 9.8)">a</text><text xml:space="preserve" font-family="HelveticaNeue-UltraLight,Helvetica Neue" font-size="20.0" fill="#1A1A1A" transform="matrix(1.00, 0.00, -0.00, -1.00, 965.8, 9.8)">s</text><text xml:space="preserve" font-family="HelveticaNeue-UltraLight,Helvetica Neue" font-size="20.0" fill="#1A1A1A" transform="matrix(1.00, 0.00, -0.00, -1.00, 975.0, 9.8)">t</text><text xml:space="preserve" font-family="HelveticaNeue-UltraLight,Helvetica Neue" font-size="20.0" fill="#1A1A1A" transform="matrix(1.00, 0.00, -0.00, -1.00, 979.9, 9.8)"> </text><text xml:space="preserve" font-family="HelveticaNeue-UltraLight,Helvetica Neue" font-size="20.0" fill="#1A1A1A" transform="matrix(1.00, 0.00, -0.00, -1.00, 985.4, 9.8)">E</text><text xml:space="preserve" font-family="HelveticaNeue-UltraLight,Helvetica Neue" font-size="20.0" fill="#1A1A1A" transform="matrix(1.00, 0.00, -0.00, -1.00, 996.2, 9.8)">n</text><text xml:space="preserve" font-family="HelveticaNeue-UltraLight,Helvetica Neue" font-size="20.0" fill="#1A1A1A" transform="matrix(1.00, 0.00, -0.00, -1.00, 1006.2, 9.8)">s</text><text xml:space="preserve" font-family="HelveticaNeue-UltraLight,Helvetica Neue" font-size="20.0" fill="#1A1A1A" transform="matrix(1.00, 0.00, -0.00, -1.00, 1015.4, 9.8)">e</text><text xml:space="preserve" font-family="HelveticaNeue-UltraLight,Helvetica Neue" font-size="20.0" fill="#1A1A1A" transform="matrix(1.00, 0.00, -0.00, -1.00, 1025.4, 9.8)">m</text><text xml:space="preserve" font-family="HelveticaNeue-UltraLight,Helvetica Neue" font-size="20.0" fill="#1A1A1A" transform="matrix(1.00, 0.00, -0.00, -1.00, 1041.0, 9.8)">b</text><text xml:space="preserve" font-family="HelveticaNeue-UltraLight,Helvetica Neue" font-size="20.0" fill="#1A1A1A" transform="matrix(1.00, 0.00, -0.00, -1.00, 1051.7, 9.8)">l</text><text xml:space="preserve" font-family="HelveticaNeue-UltraLight,Helvetica Neue" font-size="20.0" fill="#1A1A1A" transform="matrix(1.00, 0.00, -0.00, -1.00, 1054.3, 9.8)">e</text><text xml:space="preserve" font-family="HelveticaNeue-UltraLight,Helvetica Neue" font-size="20.0" fill="#1A1A1A" transform="matrix(1.00, 0.00, -0.00, -1.00, 1064.3, 9.8)">s</text><text xml:space="preserve" font-family="HelveticaNeue-UltraLight,Helvetica Neue" font-size="20.0" fill="#1A1A1A" transform="matrix(1.00, 0.00, -0.00, -1.00, 1073.6, 9.8)"> </text><text xml:space="preserve" font-family="HelveticaNeue-UltraLight,Helvetica Neue" font-size="20.0" fill="#1A1A1A" transform="matrix(1.00, 0.00, -0.00, -1.00, 1079.1, 9.8)"> </text><text xml:space="preserve" font-family="HelveticaNeue-UltraLight,Helvetica Neue" font-size="20.0" fill="#1A1A1A" transform="matrix(1.00, 0.00, -0.00, -1.00, 1084.7, 9.8)">/</text><text xml:space="preserve" font-family="HelveticaNeue-UltraLight,Helvetica Neue" font-size="20.0" fill="#1A1A1A" transform="matrix(1.00, 0.00, -0.00, -1.00, 1091.4, 9.8)">/</text><text xml:space="preserve" font-family="HelveticaNeue-UltraLight,Helvetica Neue" font-size="20.0" fill="#1A1A1A" transform="matrix(1.00, 0.00, -0.00, -1.00, 1098.0, 9.8)"> </text><text xml:space="preserve" font-family="HelveticaNeue-UltraLight,Helvetica Neue" font-size="20.0" fill="#1A1A1A" transform="matrix(1.00, 0.00, -0.00, -1.00, 1103.6, 9.8)">1</text><text xml:space="preserve" font-family="HelveticaNeue-UltraLight,Helvetica Neue" font-size="20.0" fill="#1A1A1A" transform="matrix(1.00, 0.00, -0.00, -1.00, 1114.7, 9.8)">3</text><text xml:space="preserve" font-family="HelveticaNeue-UltraLight,Helvetica Neue" font-size="20.0" fill="#1A1A1A" transform="matrix(1.00, 0.00, -0.00, -1.00, 1125.8, 9.8)">t</text><text xml:space="preserve" font-family="HelveticaNeue-UltraLight,Helvetica Neue" font-size="20.0" fill="#1A1A1A" transform="matrix(1.00, 0.00, -0.00, -1.00, 1130.6, 9.8)">h</text><text xml:space="preserve" font-family="HelveticaNeue-UltraLight,Helvetica Neue" font-size="20.0" fill="#1A1A1A" transform="matrix(1.00, 0.00, -0.00, -1.00, 1140.6, 9.8)"> </text><text xml:space="preserve" font-family="HelveticaNeue-UltraLight,Helvetica Neue" font-size="20.0" fill="#1A1A1A" transform="matrix(1.00, 0.00, -0.00, -1.00, 1146.2, 9.8)">J</text><text xml:space="preserve" font-family="HelveticaNeue-UltraLight,Helvetica Neue" font-size="20.0" fill="#1A1A1A" transform="matrix(1.00, 0.00, -0.00, -1.00, 1155.5, 9.8)">a</text><text xml:space="preserve" font-family="HelveticaNeue-UltraLight,Helvetica Neue" font-size="20.0" fill="#1A1A1A" transform="matrix(1.00, 0.00, -0.00, -1.00, 1165.1, 9.8)">n</text><text xml:space="preserve" font-family="HelveticaNeue-UltraLight,Helvetica Neue" font-size="20.0" fill="#1A1A1A" transform="matrix(1.00, 0.00, -0.00, -1.00, 1175.1, 9.8)"> </text><text xml:space="preserve" font-family="HelveticaNeue-UltraLight,Helvetica Neue" font-size="20.0" fill="#1A1A1A" transform="matrix(1.00, 0.00, -0.00, -1.00, 1180.6, 9.8)">2</text><text xml:space="preserve" font-family="HelveticaNeue-UltraLight,Helvetica Neue" font-size="20.0" fill="#1A1A1A" transform="matrix(1.00, 0.00, -0.00, -1.00, 1191.8, 9.8)">0</text><text xml:space="preserve" font-family="HelveticaNeue-UltraLight,Helvetica Neue" font-size="20.0" fill="#1A1A1A" transform="matrix(1.00, 0.00, -0.00, -1.00, 1202.9, 9.8)">1</text><text xml:space="preserve" font-family="HelveticaNeue-UltraLight,Helvetica Neue" font-size="20.0" fill="#1A1A1A" transform="matrix(1.00, 0.00, -0.00, -1.00, 1214.0, 9.8)">5</text><text xml:space="preserve" font-family="HelveticaNeue-UltraLight,Helvetica Neue" font-size="20.0" fill="#1A1A1A" transform="matrix(1.00, 0.00, -0.00, -1.00, 1225.1, 9.8)"> </text><text xml:space="preserve" font-family="HelveticaNeue-UltraLight,Helvetica Neue" font-size="20.0" fill="#1A1A1A" transform="matrix(1.00, 0.00, -0.00, -1.00, 1230.7, 9.8)">/</text><text xml:space="preserve" font-family="HelveticaNeue-UltraLight,Helvetica Neue" font-size="20.0" fill="#1A1A1A" transform="matrix(1.00, 0.00, -0.00, -1.00, 1237.3, 9.8)">/</text><text xml:space="preserve" font-family="HelveticaNeue-UltraLight,Helvetica Neue" font-size="20.0" fill="#1A1A1A" transform="matrix(1.00, 0.00, -0.00, -1.00, 1244.0, 9.8)"> </text><text xml:space="preserve" font-family="HelveticaNeue-UltraLight,Helvetica Neue" font-size="20.0" fill="#1A1A1A" transform="matrix(1.00, 0.00, -0.00, -1.00, 1249.6, 9.8)"> </text><text xml:space="preserve" font-family="HelveticaNeue-UltraLight,Helvetica Neue" font-size="20.0" fill="#1A1A1A" transform="matrix(1.00, 0.00, -0.00, -1.00, 1255.1, 9.8)"> </text><text xml:space="preserve" font-family="HelveticaNeue-UltraLight,Helvetica Neue" font-size="60.0" fill="#EAEAEA" transform="matrix(1.00, 0.00, -0.00, -1.00, 39.0, 646.4)">O</text><text xml:space="preserve" font-family="HelveticaNeue-UltraLight,Helvetica Neue" font-size="60.0" fill="#EAEAEA" transform="matrix(1.00, 0.00, -0.00, -1.00, 82.3, 646.4)">u</text><text xml:space="preserve" font-family="HelveticaNeue-UltraLight,Helvetica Neue" font-size="60.0" fill="#EAEAEA" transform="matrix(1.00, 0.00, -0.00, -1.00, 112.3, 646.4)">t</text><text xml:space="preserve" font-family="HelveticaNeue-UltraLight,Helvetica Neue" font-size="60.0" fill="#EAEAEA" transform="matrix(1.00, 0.00, -0.00, -1.00, 126.7, 646.4)">l</text><text xml:space="preserve" font-family="HelveticaNeue-UltraLight,Helvetica Neue" font-size="60.0" fill="#EAEAEA" transform="matrix(1.00, 0.00, -0.00, -1.00, 134.5, 646.4)">o</text><text xml:space="preserve" font-family="HelveticaNeue-UltraLight,Helvetica Neue" font-size="60.0" fill="#EAEAEA" transform="matrix(1.00, 0.00, -0.00, -1.00, 165.7, 646.4)">o</text><text xml:space="preserve" font-family="HelveticaNeue-UltraLight,Helvetica Neue" font-size="60.0" fill="#EAEAEA" transform="matrix(1.00, 0.00, -0.00, -1.00, 196.8, 646.4)">k</text><text xml:space="preserve" font-family="HelveticaNeue-UltraLight,Helvetica Neue" font-size="20.0" fill="#282828" transform="matrix(1.00, 0.00, -0.00, -1.00, 1253.5, 9.8)">1</text><text xml:space="preserve" font-family="HelveticaNeue-UltraLight,Helvetica Neue" font-size="20.0" fill="#282828" transform="matrix(1.00, 0.00, -0.00, -1.00, 1264.6, 9.8)">5</text><image xlink:href="../../EEBD781E-ED1C-4218-9711-5453105B6EC3/assets/85B6F6D6C5D9FE452477718B0559A2D2.png" width="473.00" height="321.00" transform="matrix(1.00, 0.00, -0.00, -1.00, 16.3, 582.7)" opacity="0.50"></image><image xlink:href="../../EEBD781E-ED1C-4218-9711-5453105B6EC3/assets/EAEDD6465646134882A1B1EB8C704F10.png" width="776.00" height="518.00" transform="matrix(0.59, 0.00, -0.00, -0.59, 24.3, 576.7)"></image><image xlink:href="../../EEBD781E-ED1C-4218-9711-5453105B6EC3/assets/E5C6F398822F42EF34B009C6D207DC22.png" width="830.00" height="308.00" transform="matrix(1.00, 0.00, -0.00, -1.00, 427.7, 353.4)" opacity="0.50"></image><image xlink:href="../../EEBD781E-ED1C-4218-9711-5453105B6EC3/assets/2BF8F99E7EA23A40AD9A5072D3B0E700.png" width="1920.00" height="572.00" transform="matrix(0.42, 0.00, -0.00, -0.51, 436.0, 347.0)"></image></g></svg>