<?xml version="1.0" encoding="UTF-8" standalone="no"?><svg xmlns="http://www.w3.org/2000/svg" xmlns:xlink="http://www.w3.org/1999/xlink" clip-rule="evenodd" stroke-miterlimit="10" viewBox="0 0 34 34"><desc>SVG generated by Keynote</desc><defs><linearGradient id="gradSh1.1" x1="0.0" y1="0.0" x2="100.0" y2="0.0" gradientUnits="userSpaceOnUse" gradientTransform="matrix(0.00, -0.32, -0.32, 0.00, 17.0, 33.0)"><stop offset="0.00000" stop-color="#EFEFEF"></stop><stop offset="0.01833" stop-color="#EEEEEE"></stop><stop offset="1.00000" stop-color="#D2D2D2"></stop></linearGradient></defs><g transform="matrix(1.00, 0.00, -0.00, -1.00, 0.0, 34.0)"><g><clipPath id="clip0x7fe00862a090"><path d="M 27.6 27.6 C 33.5 21.7 33.5 12.3 27.6 6.4 C 21.7 0.5 12.3 0.5 6.4 6.4 C 0.5 12.3 0.5 21.7 6.4 27.6 C 12.3 33.5 21.7 33.5 27.6 27.6 "></path></clipPath><g clip-path="url(#clip0x7fe00862a090)"><path d="M 27.6 27.6 C 33.5 21.7 33.5 12.3 27.6 6.4 C 21.7 0.5 12.3 0.5 6.4 6.4 C 0.5 12.3 0.5 21.7 6.4 27.6 C 12.3 33.5 21.7 33.5 27.6 27.6 " fill="url(#gradSh1.1)"></path></g></g><path d="M 25.6 4.4 C 31.5 10.3 31.5 19.7 25.6 25.6 C 19.7 31.5 10.3 31.5 4.4 25.6 C -1.5 19.7 -1.5 10.3 4.4 4.4 C 10.3 -1.5 19.7 -1.5 25.6 4.4 " fill="none" stroke="#000000" stroke-width="1.00" transform="matrix(1.00, 0.00, 0.00, -1.00, 2.0, 32.0)"></path></g></svg>