<?xml version="1.0" encoding="UTF-8" standalone="no"?><svg xmlns="http://www.w3.org/2000/svg" xmlns:xlink="http://www.w3.org/1999/xlink" clip-rule="evenodd" stroke-miterlimit="10" viewBox="0 0 1280 720"><desc>SVG generated by Keynote</desc><defs></defs><g transform="matrix(1.00, 0.00, -0.00, -1.00, 0.0, 720.0)"><g><clipPath id="clip0x7fe008efa370"><path d="M 0.0 720.0 L 1280.0 720.0 L 1280.0 0.0 L 0.0 0.0 Z M 0.0 720.0 "></path></clipPath><g clip-path="url(#clip0x7fe008efa370)"><image xlink:href="../../F70249D0-1089-46AB-B2F4-0AC6C6ADA60D/assets/47297D0B68A5EDE64084E8699645709A.jpeg" width="1024.00" height="768.00" transform="matrix(1.25, 0.00, -0.00, -1.25, 0.0, 840.0)"></image></g></g><image xlink:href="../../F70249D0-1089-46AB-B2F4-0AC6C6ADA60D/assets/E1481400D83B5463371A2DC766F68B6B.png" width="1460.00" height="301.00" transform="matrix(1.00, 0.00, -0.00, -1.00, -90.0, 811.0)" opacity="0.90"></image><g><clipPath id="clip0x7fe005f2e640"><path d="M 0.0 721.0 L 1280.0 721.0 L 1280.0 600.0 L 0.0 600.0 Z M 0.0 721.0 "></path></clipPath><g clip-path="url(#clip0x7fe005f2e640)"><image xlink:href="../../F70249D0-1089-46AB-B2F4-0AC6C6ADA60D/assets/07DF2D3527432983BA0804A4D6BE2172.png" width="1280.00" height="117.00" transform="matrix(1.16, 0.00, -0.00, -1.00, -100.0, 720.0)"></image></g></g><g><clipPath id="clip0x7fe006293ae0"><path d="M 1199.0 704.0 L 1264.0 704.0 L 1264.0 640.0 L 1199.0 640.0 Z M 1199.0 704.0 "></path></clipPath><g clip-path="url(#clip0x7fe006293ae0)"><image xlink:href="../../F70249D0-1089-46AB-B2F4-0AC6C6ADA60D/assets/6C8289717C816EE4C01D217FAD1E53AE.png" width="340.00" height="172.00" transform="matrix(0.32, 0.00, -0.00, -0.32, 1204.0, 701.0)"></image></g></g><text xml:space="preserve" font-family="HelveticaNeue-UltraLight,Helvetica Neue" font-size="20.0" fill="#1A1A1A" transform="matrix(1.00, 0.00, -0.00, -1.00, 391.6, 9.8)">T</text><text xml:space="preserve" font-family="HelveticaNeue-UltraLight,Helvetica Neue" font-size="20.0" fill="#1A1A1A" transform="matrix(1.00, 0.00, -0.00, -1.00, 401.6, 9.8)">h</text><text xml:space="preserve" font-family="HelveticaNeue-UltraLight,Helvetica Neue" font-size="20.0" fill="#1A1A1A" transform="matrix(1.00, 0.00, -0.00, -1.00, 411.6, 9.8)">o</text><text xml:space="preserve" font-family="HelveticaNeue-UltraLight,Helvetica Neue" font-size="20.0" fill="#1A1A1A" transform="matrix(1.00, 0.00, -0.00, -1.00, 422.0, 9.8)">m</text><text xml:space="preserve" font-family="HelveticaNeue-UltraLight,Helvetica Neue" font-size="20.0" fill="#1A1A1A" transform="matrix(1.00, 0.00, -0.00, -1.00, 437.6, 9.8)">a</text><text xml:space="preserve" font-family="HelveticaNeue-UltraLight,Helvetica Neue" font-size="20.0" fill="#1A1A1A" transform="matrix(1.00, 0.00, -0.00, -1.00, 447.2, 9.8)">s</text><text xml:space="preserve" font-family="HelveticaNeue-UltraLight,Helvetica Neue" font-size="20.0" fill="#1A1A1A" transform="matrix(1.00, 0.00, -0.00, -1.00, 456.5, 9.8)"> </text><text xml:space="preserve" font-family="HelveticaNeue-UltraLight,Helvetica Neue" font-size="20.0" fill="#1A1A1A" transform="matrix(1.00, 0.00, -0.00, -1.00, 462.0, 9.8)">H</text><text xml:space="preserve" font-family="HelveticaNeue-UltraLight,Helvetica Neue" font-size="20.0" fill="#1A1A1A" transform="matrix(1.00, 0.00, -0.00, -1.00, 475.0, 9.8)">ö</text><text xml:space="preserve" font-family="HelveticaNeue-UltraLight,Helvetica Neue" font-size="20.0" fill="#1A1A1A" transform="matrix(1.00, 0.00, -0.00, -1.00, 485.4, 9.8)">l</text><text xml:space="preserve" font-family="HelveticaNeue-UltraLight,Helvetica Neue" font-size="20.0" fill="#1A1A1A" transform="matrix(1.00, 0.00, -0.00, -1.00, 488.0, 9.8)">l</text><text xml:space="preserve" font-family="HelveticaNeue-UltraLight,Helvetica Neue" font-size="20.0" fill="#1A1A1A" transform="matrix(1.00, 0.00, -0.00, -1.00, 490.6, 9.8)">t</text><text xml:space="preserve" font-family="HelveticaNeue-UltraLight,Helvetica Neue" font-size="20.0" fill="#1A1A1A" transform="matrix(1.00, 0.00, -0.00, -1.00, 495.4, 9.8)"> </text><text xml:space="preserve" font-family="HelveticaNeue-UltraLight,Helvetica Neue" font-size="20.0" fill="#1A1A1A" transform="matrix(1.00, 0.00, -0.00, -1.00, 500.9, 9.8)"> </text><text xml:space="preserve" font-family="HelveticaNeue-UltraLight,Helvetica Neue" font-size="20.0" fill="#1A1A1A" transform="matrix(1.00, 0.00, -0.00, -1.00, 506.5, 9.8)">/</text><text xml:space="preserve" font-family="HelveticaNeue-UltraLight,Helvetica Neue" font-size="20.0" fill="#1A1A1A" transform="matrix(1.00, 0.00, -0.00, -1.00, 513.2, 9.8)">/</text><text xml:space="preserve" font-family="HelveticaNeue-UltraLight,Helvetica Neue" font-size="20.0" fill="#1A1A1A" transform="matrix(1.00, 0.00, -0.00, -1.00, 519.8, 9.8)"> </text><text xml:space="preserve" font-family="HelveticaNeue-UltraLight,Helvetica Neue" font-size="20.0" fill="#1A1A1A" transform="matrix(1.00, 0.00, -0.00, -1.00, 525.4, 9.8)"> </text><text xml:space="preserve" font-family="HelveticaNeue-UltraLight,Helvetica Neue" font-size="20.0" fill="#1A1A1A" transform="matrix(1.00, 0.00, -0.00, -1.00, 530.9, 9.8)">O</text><text xml:space="preserve" font-family="HelveticaNeue-UltraLight,Helvetica Neue" font-size="20.0" fill="#1A1A1A" transform="matrix(1.00, 0.00, -0.00, -1.00, 545.4, 9.8)">v</text><text xml:space="preserve" font-family="HelveticaNeue-UltraLight,Helvetica Neue" font-size="20.0" fill="#1A1A1A" transform="matrix(1.00, 0.00, -0.00, -1.00, 553.5, 9.8)">i</text><text xml:space="preserve" font-family="HelveticaNeue-UltraLight,Helvetica Neue" font-size="20.0" fill="#1A1A1A" transform="matrix(1.00, 0.00, -0.00, -1.00, 556.1, 9.8)">s</text><text xml:space="preserve" font-family="HelveticaNeue-UltraLight,Helvetica Neue" font-size="20.0" fill="#1A1A1A" transform="matrix(1.00, 0.00, -0.00, -1.00, 565.4, 9.8)">:</text><text xml:space="preserve" font-family="HelveticaNeue-UltraLight,Helvetica Neue" font-size="20.0" fill="#1A1A1A" transform="matrix(1.00, 0.00, -0.00, -1.00, 570.9, 9.8)"> </text><text xml:space="preserve" font-family="HelveticaNeue-UltraLight,Helvetica Neue" font-size="20.0" fill="#1A1A1A" transform="matrix(1.00, 0.00, -0.00, -1.00, 576.5, 9.8)">A</text><text xml:space="preserve" font-family="HelveticaNeue-UltraLight,Helvetica Neue" font-size="20.0" fill="#1A1A1A" transform="matrix(1.00, 0.00, -0.00, -1.00, 588.0, 9.8)"> </text><text xml:space="preserve" font-family="HelveticaNeue-UltraLight,Helvetica Neue" font-size="20.0" fill="#1A1A1A" transform="matrix(1.00, 0.00, -0.00, -1.00, 593.5, 9.8)">F</text><text xml:space="preserve" font-family="HelveticaNeue-UltraLight,Helvetica Neue" font-size="20.0" fill="#1A1A1A" transform="matrix(1.00, 0.00, -0.00, -1.00, 603.2, 9.8)">r</text><text xml:space="preserve" font-family="HelveticaNeue-UltraLight,Helvetica Neue" font-size="20.0" fill="#1A1A1A" transform="matrix(1.00, 0.00, -0.00, -1.00, 608.3, 9.8)">a</text><text xml:space="preserve" font-family="HelveticaNeue-UltraLight,Helvetica Neue" font-size="20.0" fill="#1A1A1A" transform="matrix(1.00, 0.00, -0.00, -1.00, 618.0, 9.8)">m</text><text xml:space="preserve" font-family="HelveticaNeue-UltraLight,Helvetica Neue" font-size="20.0" fill="#1A1A1A" transform="matrix(1.00, 0.00, -0.00, -1.00, 633.5, 9.8)">e</text><text xml:space="preserve" font-family="HelveticaNeue-UltraLight,Helvetica Neue" font-size="20.0" fill="#1A1A1A" transform="matrix(1.00, 0.00, -0.00, -1.00, 643.5, 9.8)">w</text><text xml:space="preserve" font-family="HelveticaNeue-UltraLight,Helvetica Neue" font-size="20.0" fill="#1A1A1A" transform="matrix(1.00, 0.00, -0.00, -1.00, 657.2, 9.8)">o</text><text xml:space="preserve" font-family="HelveticaNeue-UltraLight,Helvetica Neue" font-size="20.0" fill="#1A1A1A" transform="matrix(1.00, 0.00, -0.00, -1.00, 667.6, 9.8)">r</text><text xml:space="preserve" font-family="HelveticaNeue-UltraLight,Helvetica Neue" font-size="20.0" fill="#1A1A1A" transform="matrix(1.00, 0.00, -0.00, -1.00, 672.8, 9.8)">k</text><text xml:space="preserve" font-family="HelveticaNeue-UltraLight,Helvetica Neue" font-size="20.0" fill="#1A1A1A" transform="matrix(1.00, 0.00, -0.00, -1.00, 681.7, 9.8)"> </text><text xml:space="preserve" font-family="HelveticaNeue-UltraLight,Helvetica Neue" font-size="20.0" fill="#1A1A1A" transform="matrix(1.00, 0.00, -0.00, -1.00, 687.2, 9.8)">f</text><text xml:space="preserve" font-family="HelveticaNeue-UltraLight,Helvetica Neue" font-size="20.0" fill="#1A1A1A" transform="matrix(1.00, 0.00, -0.00, -1.00, 691.3, 9.8)">o</text><text xml:space="preserve" font-family="HelveticaNeue-UltraLight,Helvetica Neue" font-size="20.0" fill="#1A1A1A" transform="matrix(1.00, 0.00, -0.00, -1.00, 701.7, 9.8)">r</text><text xml:space="preserve" font-family="HelveticaNeue-UltraLight,Helvetica Neue" font-size="20.0" fill="#1A1A1A" transform="matrix(1.00, 0.00, -0.00, -1.00, 706.9, 9.8)"> </text><text xml:space="preserve" font-family="HelveticaNeue-UltraLight,Helvetica Neue" font-size="20.0" fill="#1A1A1A" transform="matrix(1.00, 0.00, -0.00, -1.00, 712.4, 9.8)">V</text><text xml:space="preserve" font-family="HelveticaNeue-UltraLight,Helvetica Neue" font-size="20.0" fill="#1A1A1A" transform="matrix(1.00, 0.00, -0.00, -1.00, 723.2, 9.8)">i</text><text xml:space="preserve" font-family="HelveticaNeue-UltraLight,Helvetica Neue" font-size="20.0" fill="#1A1A1A" transform="matrix(1.00, 0.00, -0.00, -1.00, 725.8, 9.8)">s</text><text xml:space="preserve" font-family="HelveticaNeue-UltraLight,Helvetica Neue" font-size="20.0" fill="#1A1A1A" transform="matrix(1.00, 0.00, -0.00, -1.00, 735.0, 9.8)">u</text><text xml:space="preserve" font-family="HelveticaNeue-UltraLight,Helvetica Neue" font-size="20.0" fill="#1A1A1A" transform="matrix(1.00, 0.00, -0.00, -1.00, 745.0, 9.8)">a</text><text xml:space="preserve" font-family="HelveticaNeue-UltraLight,Helvetica Neue" font-size="20.0" fill="#1A1A1A" transform="matrix(1.00, 0.00, -0.00, -1.00, 754.7, 9.8)">l</text><text xml:space="preserve" font-family="HelveticaNeue-UltraLight,Helvetica Neue" font-size="20.0" fill="#1A1A1A" transform="matrix(1.00, 0.00, -0.00, -1.00, 757.3, 9.8)"> </text><text xml:space="preserve" font-family="HelveticaNeue-UltraLight,Helvetica Neue" font-size="20.0" fill="#1A1A1A" transform="matrix(1.00, 0.00, -0.00, -1.00, 762.8, 9.8)">A</text><text xml:space="preserve" font-family="HelveticaNeue-UltraLight,Helvetica Neue" font-size="20.0" fill="#1A1A1A" transform="matrix(1.00, 0.00, -0.00, -1.00, 774.3, 9.8)">n</text><text xml:space="preserve" font-family="HelveticaNeue-UltraLight,Helvetica Neue" font-size="20.0" fill="#1A1A1A" transform="matrix(1.00, 0.00, -0.00, -1.00, 784.3, 9.8)">a</text><text xml:space="preserve" font-family="HelveticaNeue-UltraLight,Helvetica Neue" font-size="20.0" fill="#1A1A1A" transform="matrix(1.00, 0.00, -0.00, -1.00, 793.9, 9.8)">l</text><text xml:space="preserve" font-family="HelveticaNeue-UltraLight,Helvetica Neue" font-size="20.0" fill="#1A1A1A" transform="matrix(1.00, 0.00, -0.00, -1.00, 796.5, 9.8)">y</text><text xml:space="preserve" font-family="HelveticaNeue-UltraLight,Helvetica Neue" font-size="20.0" fill="#1A1A1A" transform="matrix(1.00, 0.00, -0.00, -1.00, 804.7, 9.8)">s</text><text xml:space="preserve" font-family="HelveticaNeue-UltraLight,Helvetica Neue" font-size="20.0" fill="#1A1A1A" transform="matrix(1.00, 0.00, -0.00, -1.00, 813.9, 9.8)">i</text><text xml:space="preserve" font-family="HelveticaNeue-UltraLight,Helvetica Neue" font-size="20.0" fill="#1A1A1A" transform="matrix(1.00, 0.00, -0.00, -1.00, 816.5, 9.8)">s</text><text xml:space="preserve" font-family="HelveticaNeue-UltraLight,Helvetica Neue" font-size="20.0" fill="#1A1A1A" transform="matrix(1.00, 0.00, -0.00, -1.00, 825.8, 9.8)"> </text><text xml:space="preserve" font-family="HelveticaNeue-UltraLight,Helvetica Neue" font-size="20.0" fill="#1A1A1A" transform="matrix(1.00, 0.00, -0.00, -1.00, 831.4, 9.8)">o</text><text xml:space="preserve" font-family="HelveticaNeue-UltraLight,Helvetica Neue" font-size="20.0" fill="#1A1A1A" transform="matrix(1.00, 0.00, -0.00, -1.00, 841.7, 9.8)">f</text><text xml:space="preserve" font-family="HelveticaNeue-UltraLight,Helvetica Neue" font-size="20.0" fill="#1A1A1A" transform="matrix(1.00, 0.00, -0.00, -1.00, 845.8, 9.8)"> </text><text xml:space="preserve" font-family="HelveticaNeue-UltraLight,Helvetica Neue" font-size="20.0" fill="#1A1A1A" transform="matrix(1.00, 0.00, -0.00, -1.00, 851.4, 9.8)">O</text><text xml:space="preserve" font-family="HelveticaNeue-UltraLight,Helvetica Neue" font-size="20.0" fill="#1A1A1A" transform="matrix(1.00, 0.00, -0.00, -1.00, 865.8, 9.8)">c</text><text xml:space="preserve" font-family="HelveticaNeue-UltraLight,Helvetica Neue" font-size="20.0" fill="#1A1A1A" transform="matrix(1.00, 0.00, -0.00, -1.00, 875.8, 9.8)">e</text><text xml:space="preserve" font-family="HelveticaNeue-UltraLight,Helvetica Neue" font-size="20.0" fill="#1A1A1A" transform="matrix(1.00, 0.00, -0.00, -1.00, 885.8, 9.8)">a</text><text xml:space="preserve" font-family="HelveticaNeue-UltraLight,Helvetica Neue" font-size="20.0" fill="#1A1A1A" transform="matrix(1.00, 0.00, -0.00, -1.00, 895.4, 9.8)">n</text><text xml:space="preserve" font-family="HelveticaNeue-UltraLight,Helvetica Neue" font-size="20.0" fill="#1A1A1A" transform="matrix(1.00, 0.00, -0.00, -1.00, 905.4, 9.8)"> </text><text xml:space="preserve" font-family="HelveticaNeue-UltraLight,Helvetica Neue" font-size="20.0" fill="#1A1A1A" transform="matrix(1.00, 0.00, -0.00, -1.00, 911.0, 9.8)">F</text><text xml:space="preserve" font-family="HelveticaNeue-UltraLight,Helvetica Neue" font-size="20.0" fill="#1A1A1A" transform="matrix(1.00, 0.00, -0.00, -1.00, 920.6, 9.8)">o</text><text xml:space="preserve" font-family="HelveticaNeue-UltraLight,Helvetica Neue" font-size="20.0" fill="#1A1A1A" transform="matrix(1.00, 0.00, -0.00, -1.00, 931.0, 9.8)">r</text><text xml:space="preserve" font-family="HelveticaNeue-UltraLight,Helvetica Neue" font-size="20.0" fill="#1A1A1A" transform="matrix(1.00, 0.00, -0.00, -1.00, 936.2, 9.8)">e</text><text xml:space="preserve" font-family="HelveticaNeue-UltraLight,Helvetica Neue" font-size="20.0" fill="#1A1A1A" transform="matrix(1.00, 0.00, -0.00, -1.00, 946.2, 9.8)">c</text><text xml:space="preserve" font-family="HelveticaNeue-UltraLight,Helvetica Neue" font-size="20.0" fill="#1A1A1A" transform="matrix(1.00, 0.00, -0.00, -1.00, 956.2, 9.8)">a</text><text xml:space="preserve" font-family="HelveticaNeue-UltraLight,Helvetica Neue" font-size="20.0" fill="#1A1A1A" transform="matrix(1.00, 0.00, -0.00, -1.00, 965.8, 9.8)">s</text><text xml:space="preserve" font-family="HelveticaNeue-UltraLight,Helvetica Neue" font-size="20.0" fill="#1A1A1A" transform="matrix(1.00, 0.00, -0.00, -1.00, 975.0, 9.8)">t</text><text xml:space="preserve" font-family="HelveticaNeue-UltraLight,Helvetica Neue" font-size="20.0" fill="#1A1A1A" transform="matrix(1.00, 0.00, -0.00, -1.00, 979.9, 9.8)"> </text><text xml:space="preserve" font-family="HelveticaNeue-UltraLight,Helvetica Neue" font-size="20.0" fill="#1A1A1A" transform="matrix(1.00, 0.00, -0.00, -1.00, 985.4, 9.8)">E</text><text xml:space="preserve" font-family="HelveticaNeue-UltraLight,Helvetica Neue" font-size="20.0" fill="#1A1A1A" transform="matrix(1.00, 0.00, -0.00, -1.00, 996.2, 9.8)">n</text><text xml:space="preserve" font-family="HelveticaNeue-UltraLight,Helvetica Neue" font-size="20.0" fill="#1A1A1A" transform="matrix(1.00, 0.00, -0.00, -1.00, 1006.2, 9.8)">s</text><text xml:space="preserve" font-family="HelveticaNeue-UltraLight,Helvetica Neue" font-size="20.0" fill="#1A1A1A" transform="matrix(1.00, 0.00, -0.00, -1.00, 1015.4, 9.8)">e</text><text xml:space="preserve" font-family="HelveticaNeue-UltraLight,Helvetica Neue" font-size="20.0" fill="#1A1A1A" transform="matrix(1.00, 0.00, -0.00, -1.00, 1025.4, 9.8)">m</text><text xml:space="preserve" font-family="HelveticaNeue-UltraLight,Helvetica Neue" font-size="20.0" fill="#1A1A1A" transform="matrix(1.00, 0.00, -0.00, -1.00, 1041.0, 9.8)">b</text><text xml:space="preserve" font-family="HelveticaNeue-UltraLight,Helvetica Neue" font-size="20.0" fill="#1A1A1A" transform="matrix(1.00, 0.00, -0.00, -1.00, 1051.7, 9.8)">l</text><text xml:space="preserve" font-family="HelveticaNeue-UltraLight,Helvetica Neue" font-size="20.0" fill="#1A1A1A" transform="matrix(1.00, 0.00, -0.00, -1.00, 1054.3, 9.8)">e</text><text xml:space="preserve" font-family="HelveticaNeue-UltraLight,Helvetica Neue" font-size="20.0" fill="#1A1A1A" transform="matrix(1.00, 0.00, -0.00, -1.00, 1064.3, 9.8)">s</text><text xml:space="preserve" font-family="HelveticaNeue-UltraLight,Helvetica Neue" font-size="20.0" fill="#1A1A1A" transform="matrix(1.00, 0.00, -0.00, -1.00, 1073.6, 9.8)"> </text><text xml:space="preserve" font-family="HelveticaNeue-UltraLight,Helvetica Neue" font-size="20.0" fill="#1A1A1A" transform="matrix(1.00, 0.00, -0.00, -1.00, 1079.1, 9.8)"> </text><text xml:space="preserve" font-family="HelveticaNeue-UltraLight,Helvetica Neue" font-size="20.0" fill="#1A1A1A" transform="matrix(1.00, 0.00, -0.00, -1.00, 1084.7, 9.8)">/</text><text xml:space="preserve" font-family="HelveticaNeue-UltraLight,Helvetica Neue" font-size="20.0" fill="#1A1A1A" transform="matrix(1.00, 0.00, -0.00, -1.00, 1091.4, 9.8)">/</text><text xml:space="preserve" font-family="HelveticaNeue-UltraLight,Helvetica Neue" font-size="20.0" fill="#1A1A1A" transform="matrix(1.00, 0.00, -0.00, -1.00, 1098.0, 9.8)"> </text><text xml:space="preserve" font-family="HelveticaNeue-UltraLight,Helvetica Neue" font-size="20.0" fill="#1A1A1A" transform="matrix(1.00, 0.00, -0.00, -1.00, 1103.6, 9.8)">1</text><text xml:space="preserve" font-family="HelveticaNeue-UltraLight,Helvetica Neue" font-size="20.0" fill="#1A1A1A" transform="matrix(1.00, 0.00, -0.00, -1.00, 1114.7, 9.8)">3</text><text xml:space="preserve" font-family="HelveticaNeue-UltraLight,Helvetica Neue" font-size="20.0" fill="#1A1A1A" transform="matrix(1.00, 0.00, -0.00, -1.00, 1125.8, 9.8)">t</text><text xml:space="preserve" font-family="HelveticaNeue-UltraLight,Helvetica Neue" font-size="20.0" fill="#1A1A1A" transform="matrix(1.00, 0.00, -0.00, -1.00, 1130.6, 9.8)">h</text><text xml:space="preserve" font-family="HelveticaNeue-UltraLight,Helvetica Neue" font-size="20.0" fill="#1A1A1A" transform="matrix(1.00, 0.00, -0.00, -1.00, 1140.6, 9.8)"> </text><text xml:space="preserve" font-family="HelveticaNeue-UltraLight,Helvetica Neue" font-size="20.0" fill="#1A1A1A" transform="matrix(1.00, 0.00, -0.00, -1.00, 1146.2, 9.8)">J</text><text xml:space="preserve" font-family="HelveticaNeue-UltraLight,Helvetica Neue" font-size="20.0" fill="#1A1A1A" transform="matrix(1.00, 0.00, -0.00, -1.00, 1155.5, 9.8)">a</text><text xml:space="preserve" font-family="HelveticaNeue-UltraLight,Helvetica Neue" font-size="20.0" fill="#1A1A1A" transform="matrix(1.00, 0.00, -0.00, -1.00, 1165.1, 9.8)">n</text><text xml:space="preserve" font-family="HelveticaNeue-UltraLight,Helvetica Neue" font-size="20.0" fill="#1A1A1A" transform="matrix(1.00, 0.00, -0.00, -1.00, 1175.1, 9.8)"> </text><text xml:space="preserve" font-family="HelveticaNeue-UltraLight,Helvetica Neue" font-size="20.0" fill="#1A1A1A" transform="matrix(1.00, 0.00, -0.00, -1.00, 1180.6, 9.8)">2</text><text xml:space="preserve" font-family="HelveticaNeue-UltraLight,Helvetica Neue" font-size="20.0" fill="#1A1A1A" transform="matrix(1.00, 0.00, -0.00, -1.00, 1191.8, 9.8)">0</text><text xml:space="preserve" font-family="HelveticaNeue-UltraLight,Helvetica Neue" font-size="20.0" fill="#1A1A1A" transform="matrix(1.00, 0.00, -0.00, -1.00, 1202.9, 9.8)">1</text><text xml:space="preserve" font-family="HelveticaNeue-UltraLight,Helvetica Neue" font-size="20.0" fill="#1A1A1A" transform="matrix(1.00, 0.00, -0.00, -1.00, 1214.0, 9.8)">5</text><text xml:space="preserve" font-family="HelveticaNeue-UltraLight,Helvetica Neue" font-size="20.0" fill="#1A1A1A" transform="matrix(1.00, 0.00, -0.00, -1.00, 1225.1, 9.8)"> </text><text xml:space="preserve" font-family="HelveticaNeue-UltraLight,Helvetica Neue" font-size="20.0" fill="#1A1A1A" transform="matrix(1.00, 0.00, -0.00, -1.00, 1230.7, 9.8)">/</text><text xml:space="preserve" font-family="HelveticaNeue-UltraLight,Helvetica Neue" font-size="20.0" fill="#1A1A1A" transform="matrix(1.00, 0.00, -0.00, -1.00, 1237.3, 9.8)">/</text><text xml:space="preserve" font-family="HelveticaNeue-UltraLight,Helvetica Neue" font-size="20.0" fill="#1A1A1A" transform="matrix(1.00, 0.00, -0.00, -1.00, 1244.0, 9.8)"> </text><text xml:space="preserve" font-family="HelveticaNeue-UltraLight,Helvetica Neue" font-size="20.0" fill="#1A1A1A" transform="matrix(1.00, 0.00, -0.00, -1.00, 1249.6, 9.8)"> </text><text xml:space="preserve" font-family="HelveticaNeue-UltraLight,Helvetica Neue" font-size="20.0" fill="#1A1A1A" transform="matrix(1.00, 0.00, -0.00, -1.00, 1255.1, 9.8)"> </text><text xml:space="preserve" font-family="HelveticaNeue-UltraLight,Helvetica Neue" font-size="60.0" fill="#EAEAEA" transform="matrix(1.00, 0.00, -0.00, -1.00, 39.0, 646.4)">O</text><text xml:space="preserve" font-family="HelveticaNeue-UltraLight,Helvetica Neue" font-size="60.0" fill="#EAEAEA" transform="matrix(1.00, 0.00, -0.00, -1.00, 82.3, 646.4)">v</text><text xml:space="preserve" font-family="HelveticaNeue-UltraLight,Helvetica Neue" font-size="60.0" fill="#EAEAEA" transform="matrix(1.00, 0.00, -0.00, -1.00, 106.7, 646.4)">i</text><text xml:space="preserve" font-family="HelveticaNeue-UltraLight,Helvetica Neue" font-size="60.0" fill="#EAEAEA" transform="matrix(1.00, 0.00, -0.00, -1.00, 114.5, 646.4)">s</text><text xml:space="preserve" font-family="HelveticaNeue-UltraLight,Helvetica Neue" font-size="20.4" fill="#282828" transform="matrix(1.00, 0.00, -0.00, -1.00, 39.0, 521.1)">•</text><text xml:space="preserve" font-family="HelveticaNeue-UltraLight,Helvetica Neue" font-size="34.0" fill="#282828" transform="matrix(1.00, 0.00, -0.00, -1.00, 63.0, 516.2)">V</text><text xml:space="preserve" font-family="HelveticaNeue-UltraLight,Helvetica Neue" font-size="34.0" fill="#282828" transform="matrix(1.00, 0.00, -0.00, -1.00, 81.3, 516.2)">i</text><text xml:space="preserve" font-family="HelveticaNeue-UltraLight,Helvetica Neue" font-size="34.0" fill="#282828" transform="matrix(1.00, 0.00, -0.00, -1.00, 85.7, 516.2)">s</text><text xml:space="preserve" font-family="HelveticaNeue-UltraLight,Helvetica Neue" font-size="34.0" fill="#282828" transform="matrix(1.00, 0.00, -0.00, -1.00, 101.5, 516.2)">u</text><text xml:space="preserve" font-family="HelveticaNeue-UltraLight,Helvetica Neue" font-size="34.0" fill="#282828" transform="matrix(1.00, 0.00, -0.00, -1.00, 118.5, 516.2)">a</text><text xml:space="preserve" font-family="HelveticaNeue-UltraLight,Helvetica Neue" font-size="34.0" fill="#282828" transform="matrix(1.00, 0.00, -0.00, -1.00, 134.8, 516.2)">l</text><text xml:space="preserve" font-family="HelveticaNeue-UltraLight,Helvetica Neue" font-size="34.0" fill="#282828" transform="matrix(1.00, 0.00, -0.00, -1.00, 139.2, 516.2)">i</text><text xml:space="preserve" font-family="HelveticaNeue-UltraLight,Helvetica Neue" font-size="34.0" fill="#282828" transform="matrix(1.00, 0.00, -0.00, -1.00, 143.6, 516.2)">z</text><text xml:space="preserve" font-family="HelveticaNeue-UltraLight,Helvetica Neue" font-size="34.0" fill="#282828" transform="matrix(1.00, 0.00, -0.00, -1.00, 157.5, 516.2)">a</text><text xml:space="preserve" font-family="HelveticaNeue-UltraLight,Helvetica Neue" font-size="34.0" fill="#282828" transform="matrix(1.00, 0.00, -0.00, -1.00, 173.8, 516.2)">t</text><text xml:space="preserve" font-family="HelveticaNeue-UltraLight,Helvetica Neue" font-size="34.0" fill="#282828" transform="matrix(1.00, 0.00, -0.00, -1.00, 182.0, 516.2)">i</text><text xml:space="preserve" font-family="HelveticaNeue-UltraLight,Helvetica Neue" font-size="34.0" fill="#282828" transform="matrix(1.00, 0.00, -0.00, -1.00, 186.5, 516.2)">o</text><text xml:space="preserve" font-family="HelveticaNeue-UltraLight,Helvetica Neue" font-size="34.0" fill="#282828" transform="matrix(1.00, 0.00, -0.00, -1.00, 204.1, 516.2)">n</text><text xml:space="preserve" font-family="HelveticaNeue-UltraLight,Helvetica Neue" font-size="34.0" fill="#282828" transform="matrix(1.00, 0.00, -0.00, -1.00, 221.1, 516.2)"> </text><text xml:space="preserve" font-family="HelveticaNeue-UltraLight,Helvetica Neue" font-size="34.0" fill="#282828" transform="matrix(1.00, 0.00, -0.00, -1.00, 230.6, 516.2)">o</text><text xml:space="preserve" font-family="HelveticaNeue-UltraLight,Helvetica Neue" font-size="34.0" fill="#282828" transform="matrix(1.00, 0.00, -0.00, -1.00, 248.2, 516.2)">f</text><text xml:space="preserve" font-family="HelveticaNeue-UltraLight,Helvetica Neue" font-size="34.0" fill="#282828" transform="matrix(1.00, 0.00, -0.00, -1.00, 255.1, 516.2)"> </text><text xml:space="preserve" font-family="HelveticaNeue-UltraLight,Helvetica Neue" font-size="34.0" fill="#282828" transform="matrix(1.00, 0.00, -0.00, -1.00, 264.6, 516.2)">o</text><text xml:space="preserve" font-family="HelveticaNeue-UltraLight,Helvetica Neue" font-size="34.0" fill="#282828" transform="matrix(1.00, 0.00, -0.00, -1.00, 282.2, 516.2)">c</text><text xml:space="preserve" font-family="HelveticaNeue-UltraLight,Helvetica Neue" font-size="34.0" fill="#282828" transform="matrix(1.00, 0.00, -0.00, -1.00, 299.2, 516.2)">e</text><text xml:space="preserve" font-family="HelveticaNeue-UltraLight,Helvetica Neue" font-size="34.0" fill="#282828" transform="matrix(1.00, 0.00, -0.00, -1.00, 316.2, 516.2)">a</text><text xml:space="preserve" font-family="HelveticaNeue-UltraLight,Helvetica Neue" font-size="34.0" fill="#282828" transform="matrix(1.00, 0.00, -0.00, -1.00, 332.6, 516.2)">n</text><text xml:space="preserve" font-family="HelveticaNeue-UltraLight,Helvetica Neue" font-size="34.0" fill="#282828" transform="matrix(1.00, 0.00, -0.00, -1.00, 349.6, 516.2)"> </text><text xml:space="preserve" font-family="HelveticaNeue-UltraLight,Helvetica Neue" font-size="34.0" fill="#282828" transform="matrix(1.00, 0.00, -0.00, -1.00, 359.0, 516.2)">f</text><text xml:space="preserve" font-family="HelveticaNeue-UltraLight,Helvetica Neue" font-size="34.0" fill="#282828" transform="matrix(1.00, 0.00, -0.00, -1.00, 366.0, 516.2)">o</text><text xml:space="preserve" font-family="HelveticaNeue-UltraLight,Helvetica Neue" font-size="34.0" fill="#282828" transform="matrix(1.00, 0.00, -0.00, -1.00, 383.6, 516.2)">r</text><text xml:space="preserve" font-family="HelveticaNeue-UltraLight,Helvetica Neue" font-size="34.0" fill="#282828" transform="matrix(1.00, 0.00, -0.00, -1.00, 392.4, 516.2)">e</text><text xml:space="preserve" font-family="HelveticaNeue-UltraLight,Helvetica Neue" font-size="34.0" fill="#282828" transform="matrix(1.00, 0.00, -0.00, -1.00, 409.4, 516.2)">c</text><text xml:space="preserve" font-family="HelveticaNeue-UltraLight,Helvetica Neue" font-size="34.0" fill="#282828" transform="matrix(1.00, 0.00, -0.00, -1.00, 426.4, 516.2)">a</text><text xml:space="preserve" font-family="HelveticaNeue-UltraLight,Helvetica Neue" font-size="34.0" fill="#282828" transform="matrix(1.00, 0.00, -0.00, -1.00, 442.8, 516.2)">s</text><text xml:space="preserve" font-family="HelveticaNeue-UltraLight,Helvetica Neue" font-size="34.0" fill="#282828" transform="matrix(1.00, 0.00, -0.00, -1.00, 458.5, 516.2)">t</text><text xml:space="preserve" font-family="HelveticaNeue-UltraLight,Helvetica Neue" font-size="34.0" fill="#282828" transform="matrix(1.00, 0.00, -0.00, -1.00, 466.7, 516.2)">s</text><text xml:space="preserve" font-family="HelveticaNeue-UltraLight,Helvetica Neue" font-size="34.0" fill="#282828" transform="matrix(1.00, 0.00, -0.00, -1.00, 482.5, 516.2)"> </text><text xml:space="preserve" font-family="HelveticaNeue-UltraLight,Helvetica Neue" font-size="20.4" fill="#282828" transform="matrix(1.00, 0.00, -0.00, -1.00, 69.0, 464.6)">•</text><text xml:space="preserve" font-family="HelveticaNeue-UltraLight,Helvetica Neue" font-size="34.0" fill="#282828" transform="matrix(1.00, 0.00, -0.00, -1.00, 93.0, 459.7)">B</text><text xml:space="preserve" font-family="HelveticaNeue-UltraLight,Helvetica Neue" font-size="34.0" fill="#282828" transform="matrix(1.00, 0.00, -0.00, -1.00, 113.8, 459.7)">a</text><text xml:space="preserve" font-family="HelveticaNeue-UltraLight,Helvetica Neue" font-size="34.0" fill="#282828" transform="matrix(1.00, 0.00, -0.00, -1.00, 130.1, 459.7)">s</text><text xml:space="preserve" font-family="HelveticaNeue-UltraLight,Helvetica Neue" font-size="34.0" fill="#282828" transform="matrix(1.00, 0.00, -0.00, -1.00, 145.9, 459.7)">e</text><text xml:space="preserve" font-family="HelveticaNeue-UltraLight,Helvetica Neue" font-size="34.0" fill="#282828" transform="matrix(1.00, 0.00, -0.00, -1.00, 162.9, 459.7)">d</text><text xml:space="preserve" font-family="HelveticaNeue-UltraLight,Helvetica Neue" font-size="34.0" fill="#282828" transform="matrix(1.00, 0.00, -0.00, -1.00, 181.1, 459.7)"> </text><text xml:space="preserve" font-family="HelveticaNeue-UltraLight,Helvetica Neue" font-size="34.0" fill="#282828" transform="matrix(1.00, 0.00, -0.00, -1.00, 190.6, 459.7)">o</text><text xml:space="preserve" font-family="HelveticaNeue-UltraLight,Helvetica Neue" font-size="34.0" fill="#282828" transform="matrix(1.00, 0.00, -0.00, -1.00, 208.2, 459.7)">n</text><text xml:space="preserve" font-family="HelveticaNeue-UltraLight,Helvetica Neue" font-size="34.0" fill="#282828" transform="matrix(1.00, 0.00, -0.00, -1.00, 225.2, 459.7)"> </text><text xml:space="preserve" font-family="HelveticaNeue-UltraLight,Helvetica Neue" font-size="34.0" fill="#282828" transform="matrix(1.00, 0.00, -0.00, -1.00, 234.7, 459.7)">e</text><text xml:space="preserve" font-family="HelveticaNeue-UltraLight,Helvetica Neue" font-size="34.0" fill="#282828" transform="matrix(1.00, 0.00, -0.00, -1.00, 251.7, 459.7)">n</text><text xml:space="preserve" font-family="HelveticaNeue-UltraLight,Helvetica Neue" font-size="34.0" fill="#282828" transform="matrix(1.00, 0.00, -0.00, -1.00, 268.7, 459.7)">s</text><text xml:space="preserve" font-family="HelveticaNeue-UltraLight,Helvetica Neue" font-size="34.0" fill="#282828" transform="matrix(1.00, 0.00, -0.00, -1.00, 284.4, 459.7)">e</text><text xml:space="preserve" font-family="HelveticaNeue-UltraLight,Helvetica Neue" font-size="34.0" fill="#282828" transform="matrix(1.00, 0.00, -0.00, -1.00, 301.4, 459.7)">m</text><text xml:space="preserve" font-family="HelveticaNeue-UltraLight,Helvetica Neue" font-size="34.0" fill="#282828" transform="matrix(1.00, 0.00, -0.00, -1.00, 327.9, 459.7)">b</text><text xml:space="preserve" font-family="HelveticaNeue-UltraLight,Helvetica Neue" font-size="34.0" fill="#282828" transform="matrix(1.00, 0.00, -0.00, -1.00, 346.1, 459.7)">l</text><text xml:space="preserve" font-family="HelveticaNeue-UltraLight,Helvetica Neue" font-size="34.0" fill="#282828" transform="matrix(1.00, 0.00, -0.00, -1.00, 350.6, 459.7)">e</text><text xml:space="preserve" font-family="HelveticaNeue-UltraLight,Helvetica Neue" font-size="34.0" fill="#282828" transform="matrix(1.00, 0.00, -0.00, -1.00, 367.6, 459.7)"> </text><text xml:space="preserve" font-family="HelveticaNeue-UltraLight,Helvetica Neue" font-size="34.0" fill="#282828" transform="matrix(1.00, 0.00, -0.00, -1.00, 377.0, 459.7)">s</text><text xml:space="preserve" font-family="HelveticaNeue-UltraLight,Helvetica Neue" font-size="34.0" fill="#282828" transform="matrix(1.00, 0.00, -0.00, -1.00, 392.7, 459.7)">i</text><text xml:space="preserve" font-family="HelveticaNeue-UltraLight,Helvetica Neue" font-size="34.0" fill="#282828" transform="matrix(1.00, 0.00, -0.00, -1.00, 397.2, 459.7)">m</text><text xml:space="preserve" font-family="HelveticaNeue-UltraLight,Helvetica Neue" font-size="34.0" fill="#282828" transform="matrix(1.00, 0.00, -0.00, -1.00, 423.6, 459.7)">u</text><text xml:space="preserve" font-family="HelveticaNeue-UltraLight,Helvetica Neue" font-size="34.0" fill="#282828" transform="matrix(1.00, 0.00, -0.00, -1.00, 440.6, 459.7)">l</text><text xml:space="preserve" font-family="HelveticaNeue-UltraLight,Helvetica Neue" font-size="34.0" fill="#282828" transform="matrix(1.00, 0.00, -0.00, -1.00, 445.0, 459.7)">a</text><text xml:space="preserve" font-family="HelveticaNeue-UltraLight,Helvetica Neue" font-size="34.0" fill="#282828" transform="matrix(1.00, 0.00, -0.00, -1.00, 461.4, 459.7)">t</text><text xml:space="preserve" font-family="HelveticaNeue-UltraLight,Helvetica Neue" font-size="34.0" fill="#282828" transform="matrix(1.00, 0.00, -0.00, -1.00, 469.6, 459.7)">i</text><text xml:space="preserve" font-family="HelveticaNeue-UltraLight,Helvetica Neue" font-size="34.0" fill="#282828" transform="matrix(1.00, 0.00, -0.00, -1.00, 474.0, 459.7)">o</text><text xml:space="preserve" font-family="HelveticaNeue-UltraLight,Helvetica Neue" font-size="34.0" fill="#282828" transform="matrix(1.00, 0.00, -0.00, -1.00, 491.7, 459.7)">n</text><text xml:space="preserve" font-family="HelveticaNeue-UltraLight,Helvetica Neue" font-size="34.0" fill="#282828" transform="matrix(1.00, 0.00, -0.00, -1.00, 508.7, 459.7)"> </text><text xml:space="preserve" font-family="HelveticaNeue-UltraLight,Helvetica Neue" font-size="20.4" fill="#282828" transform="matrix(1.00, 0.00, -0.00, -1.00, 69.0, 408.2)">•</text><text xml:space="preserve" font-family="HelveticaNeue-UltraLight,Helvetica Neue" font-size="34.0" fill="#282828" transform="matrix(1.00, 0.00, -0.00, -1.00, 93.0, 403.2)">U</text><text xml:space="preserve" font-family="HelveticaNeue-UltraLight,Helvetica Neue" font-size="34.0" fill="#282828" transform="matrix(1.00, 0.00, -0.00, -1.00, 114.5, 403.2)">n</text><text xml:space="preserve" font-family="HelveticaNeue-UltraLight,Helvetica Neue" font-size="34.0" fill="#282828" transform="matrix(1.00, 0.00, -0.00, -1.00, 131.5, 403.2)">c</text><text xml:space="preserve" font-family="HelveticaNeue-UltraLight,Helvetica Neue" font-size="34.0" fill="#282828" transform="matrix(1.00, 0.00, -0.00, -1.00, 148.5, 403.2)">e</text><text xml:space="preserve" font-family="HelveticaNeue-UltraLight,Helvetica Neue" font-size="34.0" fill="#282828" transform="matrix(1.00, 0.00, -0.00, -1.00, 165.5, 403.2)">r</text><text xml:space="preserve" font-family="HelveticaNeue-UltraLight,Helvetica Neue" font-size="34.0" fill="#282828" transform="matrix(1.00, 0.00, -0.00, -1.00, 174.3, 403.2)">t</text><text xml:space="preserve" font-family="HelveticaNeue-UltraLight,Helvetica Neue" font-size="34.0" fill="#282828" transform="matrix(1.00, 0.00, -0.00, -1.00, 182.5, 403.2)">a</text><text xml:space="preserve" font-family="HelveticaNeue-UltraLight,Helvetica Neue" font-size="34.0" fill="#282828" transform="matrix(1.00, 0.00, -0.00, -1.00, 198.8, 403.2)">i</text><text xml:space="preserve" font-family="HelveticaNeue-UltraLight,Helvetica Neue" font-size="34.0" fill="#282828" transform="matrix(1.00, 0.00, -0.00, -1.00, 203.3, 403.2)">n</text><text xml:space="preserve" font-family="HelveticaNeue-UltraLight,Helvetica Neue" font-size="34.0" fill="#282828" transform="matrix(1.00, 0.00, -0.00, -1.00, 220.3, 403.2)">t</text><text xml:space="preserve" font-family="HelveticaNeue-UltraLight,Helvetica Neue" font-size="34.0" fill="#282828" transform="matrix(1.00, 0.00, -0.00, -1.00, 228.5, 403.2)">y</text><text xml:space="preserve" font-family="HelveticaNeue-UltraLight,Helvetica Neue" font-size="34.0" fill="#282828" transform="matrix(1.00, 0.00, -0.00, -1.00, 242.3, 403.2)"> </text><text xml:space="preserve" font-family="HelveticaNeue-UltraLight,Helvetica Neue" font-size="34.0" fill="#282828" transform="matrix(1.00, 0.00, -0.00, -1.00, 251.7, 403.2)">i</text><text xml:space="preserve" font-family="HelveticaNeue-UltraLight,Helvetica Neue" font-size="34.0" fill="#282828" transform="matrix(1.00, 0.00, -0.00, -1.00, 256.2, 403.2)">n</text><text xml:space="preserve" font-family="HelveticaNeue-UltraLight,Helvetica Neue" font-size="34.0" fill="#282828" transform="matrix(1.00, 0.00, -0.00, -1.00, 273.2, 403.2)"> </text><text xml:space="preserve" font-family="HelveticaNeue-UltraLight,Helvetica Neue" font-size="34.0" fill="#282828" transform="matrix(1.00, 0.00, -0.00, -1.00, 282.6, 403.2)">m</text><text xml:space="preserve" font-family="HelveticaNeue-UltraLight,Helvetica Neue" font-size="34.0" fill="#282828" transform="matrix(1.00, 0.00, -0.00, -1.00, 309.1, 403.2)">o</text><text xml:space="preserve" font-family="HelveticaNeue-UltraLight,Helvetica Neue" font-size="34.0" fill="#282828" transform="matrix(1.00, 0.00, -0.00, -1.00, 326.7, 403.2)">d</text><text xml:space="preserve" font-family="HelveticaNeue-UltraLight,Helvetica Neue" font-size="34.0" fill="#282828" transform="matrix(1.00, 0.00, -0.00, -1.00, 345.0, 403.2)">e</text><text xml:space="preserve" font-family="HelveticaNeue-UltraLight,Helvetica Neue" font-size="34.0" fill="#282828" transform="matrix(1.00, 0.00, -0.00, -1.00, 362.0, 403.2)">l</text><text xml:space="preserve" font-family="HelveticaNeue-UltraLight,Helvetica Neue" font-size="34.0" fill="#282828" transform="matrix(1.00, 0.00, -0.00, -1.00, 366.4, 403.2)"> </text><text xml:space="preserve" font-family="HelveticaNeue-UltraLight,Helvetica Neue" font-size="34.0" fill="#282828" transform="matrix(1.00, 0.00, -0.00, -1.00, 375.8, 403.2)">o</text><text xml:space="preserve" font-family="HelveticaNeue-UltraLight,Helvetica Neue" font-size="34.0" fill="#282828" transform="matrix(1.00, 0.00, -0.00, -1.00, 393.5, 403.2)">r</text><text xml:space="preserve" font-family="HelveticaNeue-UltraLight,Helvetica Neue" font-size="34.0" fill="#282828" transform="matrix(1.00, 0.00, -0.00, -1.00, 402.3, 403.2)"> </text><text xml:space="preserve" font-family="HelveticaNeue-UltraLight,Helvetica Neue" font-size="34.0" fill="#282828" transform="matrix(1.00, 0.00, -0.00, -1.00, 411.8, 403.2)">s</text><text xml:space="preserve" font-family="HelveticaNeue-UltraLight,Helvetica Neue" font-size="34.0" fill="#282828" transform="matrix(1.00, 0.00, -0.00, -1.00, 427.5, 403.2)">t</text><text xml:space="preserve" font-family="HelveticaNeue-UltraLight,Helvetica Neue" font-size="34.0" fill="#282828" transform="matrix(1.00, 0.00, -0.00, -1.00, 435.7, 403.2)">a</text><text xml:space="preserve" font-family="HelveticaNeue-UltraLight,Helvetica Neue" font-size="34.0" fill="#282828" transform="matrix(1.00, 0.00, -0.00, -1.00, 452.0, 403.2)">r</text><text xml:space="preserve" font-family="HelveticaNeue-UltraLight,Helvetica Neue" font-size="34.0" fill="#282828" transform="matrix(1.00, 0.00, -0.00, -1.00, 460.8, 403.2)">t</text><text xml:space="preserve" font-family="HelveticaNeue-UltraLight,Helvetica Neue" font-size="34.0" fill="#282828" transform="matrix(1.00, 0.00, -0.00, -1.00, 469.0, 403.2)">i</text><text xml:space="preserve" font-family="HelveticaNeue-UltraLight,Helvetica Neue" font-size="34.0" fill="#282828" transform="matrix(1.00, 0.00, -0.00, -1.00, 473.5, 403.2)">n</text><text xml:space="preserve" font-family="HelveticaNeue-UltraLight,Helvetica Neue" font-size="34.0" fill="#282828" transform="matrix(1.00, 0.00, -0.00, -1.00, 490.5, 403.2)">g</text><text xml:space="preserve" font-family="HelveticaNeue-UltraLight,Helvetica Neue" font-size="34.0" fill="#282828" transform="matrix(1.00, 0.00, -0.00, -1.00, 508.1, 403.2)"> </text><text xml:space="preserve" font-family="HelveticaNeue-UltraLight,Helvetica Neue" font-size="34.0" fill="#282828" transform="matrix(1.00, 0.00, -0.00, -1.00, 517.6, 403.2)">c</text><text xml:space="preserve" font-family="HelveticaNeue-UltraLight,Helvetica Neue" font-size="34.0" fill="#282828" transform="matrix(1.00, 0.00, -0.00, -1.00, 534.6, 403.2)">o</text><text xml:space="preserve" font-family="HelveticaNeue-UltraLight,Helvetica Neue" font-size="34.0" fill="#282828" transform="matrix(1.00, 0.00, -0.00, -1.00, 552.2, 403.2)">n</text><text xml:space="preserve" font-family="HelveticaNeue-UltraLight,Helvetica Neue" font-size="34.0" fill="#282828" transform="matrix(1.00, 0.00, -0.00, -1.00, 569.2, 403.2)">d</text><text xml:space="preserve" font-family="HelveticaNeue-UltraLight,Helvetica Neue" font-size="34.0" fill="#282828" transform="matrix(1.00, 0.00, -0.00, -1.00, 587.5, 403.2)">i</text><text xml:space="preserve" font-family="HelveticaNeue-UltraLight,Helvetica Neue" font-size="34.0" fill="#282828" transform="matrix(1.00, 0.00, -0.00, -1.00, 591.9, 403.2)">t</text><text xml:space="preserve" font-family="HelveticaNeue-UltraLight,Helvetica Neue" font-size="34.0" fill="#282828" transform="matrix(1.00, 0.00, -0.00, -1.00, 600.1, 403.2)">i</text><text xml:space="preserve" font-family="HelveticaNeue-UltraLight,Helvetica Neue" font-size="34.0" fill="#282828" transform="matrix(1.00, 0.00, -0.00, -1.00, 604.5, 403.2)">o</text><text xml:space="preserve" font-family="HelveticaNeue-UltraLight,Helvetica Neue" font-size="34.0" fill="#282828" transform="matrix(1.00, 0.00, -0.00, -1.00, 622.1, 403.2)">n</text><text xml:space="preserve" font-family="HelveticaNeue-UltraLight,Helvetica Neue" font-size="34.0" fill="#282828" transform="matrix(1.00, 0.00, -0.00, -1.00, 639.1, 403.2)"> </text><text xml:space="preserve" font-family="ZapfDingbatsITC,Zapf Dingbats" font-size="34.0" fill="#282828" transform="matrix(1.00, 0.00, -0.00, -1.00, 648.6, 403.2)">➫</text><text xml:space="preserve" font-family="HelveticaNeue-UltraLight,Helvetica Neue" font-size="34.0" fill="#282828" transform="matrix(1.00, 0.00, -0.00, -1.00, 678.1, 403.2)"> </text><text xml:space="preserve" font-family="HelveticaNeue-UltraLight,Helvetica Neue" font-size="34.0" fill="#282828" transform="matrix(1.00, 0.00, -0.00, -1.00, 687.5, 403.2)">v</text><text xml:space="preserve" font-family="HelveticaNeue-UltraLight,Helvetica Neue" font-size="34.0" fill="#282828" transform="matrix(1.00, 0.00, -0.00, -1.00, 701.4, 403.2)">a</text><text xml:space="preserve" font-family="HelveticaNeue-UltraLight,Helvetica Neue" font-size="34.0" fill="#282828" transform="matrix(1.00, 0.00, -0.00, -1.00, 717.7, 403.2)">r</text><text xml:space="preserve" font-family="HelveticaNeue-UltraLight,Helvetica Neue" font-size="34.0" fill="#282828" transform="matrix(1.00, 0.00, -0.00, -1.00, 726.5, 403.2)">i</text><text xml:space="preserve" font-family="HelveticaNeue-UltraLight,Helvetica Neue" font-size="34.0" fill="#282828" transform="matrix(1.00, 0.00, -0.00, -1.00, 730.9, 403.2)">a</text><text xml:space="preserve" font-family="HelveticaNeue-UltraLight,Helvetica Neue" font-size="34.0" fill="#282828" transform="matrix(1.00, 0.00, -0.00, -1.00, 747.3, 403.2)">t</text><text xml:space="preserve" font-family="HelveticaNeue-UltraLight,Helvetica Neue" font-size="34.0" fill="#282828" transform="matrix(1.00, 0.00, -0.00, -1.00, 755.5, 403.2)">i</text><text xml:space="preserve" font-family="HelveticaNeue-UltraLight,Helvetica Neue" font-size="34.0" fill="#282828" transform="matrix(1.00, 0.00, -0.00, -1.00, 759.9, 403.2)">o</text><text xml:space="preserve" font-family="HelveticaNeue-UltraLight,Helvetica Neue" font-size="34.0" fill="#282828" transform="matrix(1.00, 0.00, -0.00, -1.00, 777.6, 403.2)">n</text><text xml:space="preserve" font-family="HelveticaNeue-UltraLight,Helvetica Neue" font-size="34.0" fill="#282828" transform="matrix(1.00, 0.00, -0.00, -1.00, 794.6, 403.2)"> </text><text xml:space="preserve" font-family="HelveticaNeue-UltraLight,Helvetica Neue" font-size="34.0" fill="#282828" transform="matrix(1.00, 0.00, -0.00, -1.00, 804.0, 403.2)">i</text><text xml:space="preserve" font-family="HelveticaNeue-UltraLight,Helvetica Neue" font-size="34.0" fill="#282828" transform="matrix(1.00, 0.00, -0.00, -1.00, 808.4, 403.2)">n</text><text xml:space="preserve" font-family="HelveticaNeue-UltraLight,Helvetica Neue" font-size="34.0" fill="#282828" transform="matrix(1.00, 0.00, -0.00, -1.00, 825.4, 403.2)"> </text><text xml:space="preserve" font-family="HelveticaNeue-UltraLight,Helvetica Neue" font-size="34.0" fill="#282828" transform="matrix(1.00, 0.00, -0.00, -1.00, 834.9, 403.2)">s</text><text xml:space="preserve" font-family="HelveticaNeue-UltraLight,Helvetica Neue" font-size="34.0" fill="#282828" transform="matrix(1.00, 0.00, -0.00, -1.00, 850.6, 403.2)">i</text><text xml:space="preserve" font-family="HelveticaNeue-UltraLight,Helvetica Neue" font-size="34.0" fill="#282828" transform="matrix(1.00, 0.00, -0.00, -1.00, 855.0, 403.2)">m</text><text xml:space="preserve" font-family="HelveticaNeue-UltraLight,Helvetica Neue" font-size="34.0" fill="#282828" transform="matrix(1.00, 0.00, -0.00, -1.00, 881.5, 403.2)">u</text><text xml:space="preserve" font-family="HelveticaNeue-UltraLight,Helvetica Neue" font-size="34.0" fill="#282828" transform="matrix(1.00, 0.00, -0.00, -1.00, 898.5, 403.2)">l</text><text xml:space="preserve" font-family="HelveticaNeue-UltraLight,Helvetica Neue" font-size="34.0" fill="#282828" transform="matrix(1.00, 0.00, -0.00, -1.00, 902.9, 403.2)">a</text><text xml:space="preserve" font-family="HelveticaNeue-UltraLight,Helvetica Neue" font-size="34.0" fill="#282828" transform="matrix(1.00, 0.00, -0.00, -1.00, 919.3, 403.2)">t</text><text xml:space="preserve" font-family="HelveticaNeue-UltraLight,Helvetica Neue" font-size="34.0" fill="#282828" transform="matrix(1.00, 0.00, -0.00, -1.00, 927.5, 403.2)">i</text><text xml:space="preserve" font-family="HelveticaNeue-UltraLight,Helvetica Neue" font-size="34.0" fill="#282828" transform="matrix(1.00, 0.00, -0.00, -1.00, 931.9, 403.2)">o</text><text xml:space="preserve" font-family="HelveticaNeue-UltraLight,Helvetica Neue" font-size="34.0" fill="#282828" transform="matrix(1.00, 0.00, -0.00, -1.00, 949.5, 403.2)">n</text><text xml:space="preserve" font-family="HelveticaNeue-UltraLight,Helvetica Neue" font-size="34.0" fill="#282828" transform="matrix(1.00, 0.00, -0.00, -1.00, 966.5, 403.2)"> </text><text xml:space="preserve" font-family="HelveticaNeue-UltraLight,Helvetica Neue" font-size="34.0" fill="#282828" transform="matrix(1.00, 0.00, -0.00, -1.00, 976.0, 403.2)">r</text><text xml:space="preserve" font-family="HelveticaNeue-UltraLight,Helvetica Neue" font-size="34.0" fill="#282828" transform="matrix(1.00, 0.00, -0.00, -1.00, 984.8, 403.2)">e</text><text xml:space="preserve" font-family="HelveticaNeue-UltraLight,Helvetica Neue" font-size="34.0" fill="#282828" transform="matrix(1.00, 0.00, -0.00, -1.00, 1001.8, 403.2)">s</text><text xml:space="preserve" font-family="HelveticaNeue-UltraLight,Helvetica Neue" font-size="34.0" fill="#282828" transform="matrix(1.00, 0.00, -0.00, -1.00, 1017.5, 403.2)">u</text><text xml:space="preserve" font-family="HelveticaNeue-UltraLight,Helvetica Neue" font-size="34.0" fill="#282828" transform="matrix(1.00, 0.00, -0.00, -1.00, 1034.5, 403.2)">l</text><text xml:space="preserve" font-family="HelveticaNeue-UltraLight,Helvetica Neue" font-size="34.0" fill="#282828" transform="matrix(1.00, 0.00, -0.00, -1.00, 1039.0, 403.2)">t</text><text xml:space="preserve" font-family="HelveticaNeue-UltraLight,Helvetica Neue" font-size="34.0" fill="#282828" transform="matrix(1.00, 0.00, -0.00, -1.00, 1047.1, 403.2)">s</text><text xml:space="preserve" font-family="HelveticaNeue-UltraLight,Helvetica Neue" font-size="20.0" fill="#282828" transform="matrix(1.00, 0.00, -0.00, -1.00, 1253.5, 9.8)">3</text><image xlink:href="../../E7547D0B-8E75-4117-B9FB-0BB26500293F/assets/9196232009091BF5B64D10419A402961.png" width="873.00" height="331.00" transform="matrix(1.00, 0.00, -0.00, -1.00, 377.2, 374.8)" opacity="0.50"></image><g><clipPath id="clip0x7fe006291bb0"><path d="M 385.0 369.0 L 1242.0 369.0 L 1242.0 54.0 L 385.0 54.0 Z M 385.2 368.8 "></path></clipPath><g clip-path="url(#clip0x7fe006291bb0)"><g><clipPath id="clip0x7fe0062925a0"><path d="M 387.9 50.8 C 387.1 51.0 385.9 51.6 385.2 52.3 L 384.0 53.5 L 384.0 210.0 C 384.0 316.5 384.1 366.6 384.5 366.6 C 384.8 366.6 385.7 367.2 386.0 368.0 L 386.0 369.0 L 813.4 369.0 L 1241.0 369.0 L 1241.0 368.0 C 1241.3 367.1 1241.9 366.6 1242.2 366.8 C 1242.5 367.0 1242.9 365.8 1243.1 364.1 C 1243.6 359.7 1243.2 54.3 1242.7 53.3 C 1242.4 52.8 1241.7 52.0 1241.0 51.6 C 1239.8 50.8 1188.6 50.7 814.5 50.6 C 580.7 50.6 388.7 50.7 387.9 50.8 "></path></clipPath><g clip-path="url(#clip0x7fe0062925a0)"><image xlink:href="../../E7547D0B-8E75-4117-B9FB-0BB26500293F/assets/08E269BD8BECF1238D91FAFDD242652C.png" width="2048.00" height="766.00" transform="matrix(0.42, 0.00, -0.00, -0.42, 382.0, 372.0)"></image></g></g></g></g></g></svg>