<?xml version="1.0" encoding="UTF-8" standalone="no"?><svg xmlns="http://www.w3.org/2000/svg" xmlns:xlink="http://www.w3.org/1999/xlink" clip-rule="evenodd" stroke-miterlimit="10" viewBox="0 0 394 35"><desc>SVG generated by Keynote</desc><defs></defs><g transform="matrix(1.00, 0.00, -0.00, -1.00, 0.0, 35.0)"><text xml:space="preserve" font-family="HelveticaNeue-UltraLight,Helvetica Neue" font-size="20.4" fill="#282828" transform="matrix(1.00, 0.00, -0.00, -1.00, 0.0, 13.1)">•</text><text xml:space="preserve" font-family="HelveticaNeue-UltraLight,Helvetica Neue" font-size="34.0" fill="#282828" transform="matrix(1.00, 0.00, -0.00, -1.00, 24.0, 8.2)">S</text><text xml:space="preserve" font-family="HelveticaNeue-UltraLight,Helvetica Neue" font-size="34.0" fill="#282828" transform="matrix(1.00, 0.00, -0.00, -1.00, 44.8, 8.2)">h</text><text xml:space="preserve" font-family="HelveticaNeue-UltraLight,Helvetica Neue" font-size="34.0" fill="#282828" transform="matrix(1.00, 0.00, -0.00, -1.00, 61.8, 8.2)">i</text><text xml:space="preserve" font-family="HelveticaNeue-UltraLight,Helvetica Neue" font-size="34.0" fill="#282828" transform="matrix(1.00, 0.00, -0.00, -1.00, 66.2, 8.2)">p</text><text xml:space="preserve" font-family="HelveticaNeue-UltraLight,Helvetica Neue" font-size="34.0" fill="#282828" transform="matrix(1.00, 0.00, -0.00, -1.00, 84.5, 8.2)"> </text><text xml:space="preserve" font-family="HelveticaNeue-UltraLight,Helvetica Neue" font-size="34.0" fill="#282828" transform="matrix(1.00, 0.00, -0.00, -1.00, 93.9, 8.2)">o</text><text xml:space="preserve" font-family="HelveticaNeue-UltraLight,Helvetica Neue" font-size="34.0" fill="#282828" transform="matrix(1.00, 0.00, -0.00, -1.00, 111.6, 8.2)">b</text><text xml:space="preserve" font-family="HelveticaNeue-UltraLight,Helvetica Neue" font-size="34.0" fill="#282828" transform="matrix(1.00, 0.00, -0.00, -1.00, 129.8, 8.2)">s</text><text xml:space="preserve" font-family="HelveticaNeue-UltraLight,Helvetica Neue" font-size="34.0" fill="#282828" transform="matrix(1.00, 0.00, -0.00, -1.00, 145.6, 8.2)">e</text><text xml:space="preserve" font-family="HelveticaNeue-UltraLight,Helvetica Neue" font-size="34.0" fill="#282828" transform="matrix(1.00, 0.00, -0.00, -1.00, 162.6, 8.2)">r</text><text xml:space="preserve" font-family="HelveticaNeue-UltraLight,Helvetica Neue" font-size="34.0" fill="#282828" transform="matrix(1.00, 0.00, -0.00, -1.00, 172.0, 8.2)">v</text><text xml:space="preserve" font-family="HelveticaNeue-UltraLight,Helvetica Neue" font-size="34.0" fill="#282828" transform="matrix(1.00, 0.00, -0.00, -1.00, 185.8, 8.2)">a</text><text xml:space="preserve" font-family="HelveticaNeue-UltraLight,Helvetica Neue" font-size="34.0" fill="#282828" transform="matrix(1.00, 0.00, -0.00, -1.00, 202.2, 8.2)">t</text><text xml:space="preserve" font-family="HelveticaNeue-UltraLight,Helvetica Neue" font-size="34.0" fill="#282828" transform="matrix(1.00, 0.00, -0.00, -1.00, 210.4, 8.2)">i</text><text xml:space="preserve" font-family="HelveticaNeue-UltraLight,Helvetica Neue" font-size="34.0" fill="#282828" transform="matrix(1.00, 0.00, -0.00, -1.00, 214.8, 8.2)">o</text><text xml:space="preserve" font-family="HelveticaNeue-UltraLight,Helvetica Neue" font-size="34.0" fill="#282828" transform="matrix(1.00, 0.00, -0.00, -1.00, 232.4, 8.2)">n</text><text xml:space="preserve" font-family="HelveticaNeue-UltraLight,Helvetica Neue" font-size="34.0" fill="#282828" transform="matrix(1.00, 0.00, -0.00, -1.00, 249.4, 8.2)">s</text><text xml:space="preserve" font-family="HelveticaNeue-UltraLight,Helvetica Neue" font-size="34.0" fill="#282828" transform="matrix(1.00, 0.00, -0.00, -1.00, 265.2, 8.2)"> </text><text xml:space="preserve" font-family="HelveticaNeue-UltraLight,Helvetica Neue" font-size="34.0" fill="#282828" transform="matrix(1.00, 0.00, -0.00, -1.00, 274.6, 8.2)">(</text><text xml:space="preserve" font-family="HelveticaNeue-UltraLight,Helvetica Neue" font-size="34.0" fill="#282828" transform="matrix(1.00, 0.00, -0.00, -1.00, 282.2, 8.2)">A</text><text xml:space="preserve" font-family="HelveticaNeue-UltraLight,Helvetica Neue" font-size="34.0" fill="#282828" transform="matrix(1.00, 0.00, -0.00, -1.00, 301.7, 8.2)">e</text><text xml:space="preserve" font-family="HelveticaNeue-UltraLight,Helvetica Neue" font-size="34.0" fill="#282828" transform="matrix(1.00, 0.00, -0.00, -1.00, 318.7, 8.2)">g</text><text xml:space="preserve" font-family="HelveticaNeue-UltraLight,Helvetica Neue" font-size="34.0" fill="#282828" transform="matrix(1.00, 0.00, -0.00, -1.00, 336.4, 8.2)">a</text><text xml:space="preserve" font-family="HelveticaNeue-UltraLight,Helvetica Neue" font-size="34.0" fill="#282828" transform="matrix(1.00, 0.00, -0.00, -1.00, 352.7, 8.2)">e</text><text xml:space="preserve" font-family="HelveticaNeue-UltraLight,Helvetica Neue" font-size="34.0" fill="#282828" transform="matrix(1.00, 0.00, -0.00, -1.00, 369.7, 8.2)">o</text><text xml:space="preserve" font-family="HelveticaNeue-UltraLight,Helvetica Neue" font-size="34.0" fill="#282828" transform="matrix(1.00, 0.00, -0.00, -1.00, 387.4, 8.2)">)</text></g></svg>