<?xml version="1.0" encoding="UTF-8" standalone="no"?><svg xmlns="http://www.w3.org/2000/svg" xmlns:xlink="http://www.w3.org/1999/xlink" clip-rule="evenodd" stroke-miterlimit="10" viewBox="0 0 245 34"><desc>SVG generated by Keynote</desc><defs></defs><g transform="matrix(1.00, 0.00, -0.00, -1.00, 0.0, 34.0)"><text xml:space="preserve" font-family="HelveticaNeue-UltraLight,Helvetica Neue" font-size="20.4" fill="#282828" transform="matrix(1.00, 0.00, -0.00, -1.00, 0.0, 13.1)">•</text><text xml:space="preserve" font-family="HelveticaNeue-UltraLight,Helvetica Neue" font-size="34.0" fill="#282828" transform="matrix(1.00, 0.00, -0.00, -1.00, 24.0, 8.2)">R</text><text xml:space="preserve" font-family="HelveticaNeue-UltraLight,Helvetica Neue" font-size="34.0" fill="#282828" transform="matrix(1.00, 0.00, -0.00, -1.00, 44.8, 8.2)">e</text><text xml:space="preserve" font-family="HelveticaNeue-UltraLight,Helvetica Neue" font-size="34.0" fill="#282828" transform="matrix(1.00, 0.00, -0.00, -1.00, 61.8, 8.2)">m</text><text xml:space="preserve" font-family="HelveticaNeue-UltraLight,Helvetica Neue" font-size="34.0" fill="#282828" transform="matrix(1.00, 0.00, -0.00, -1.00, 88.2, 8.2)">o</text><text xml:space="preserve" font-family="HelveticaNeue-UltraLight,Helvetica Neue" font-size="34.0" fill="#282828" transform="matrix(1.00, 0.00, -0.00, -1.00, 105.9, 8.2)">t</text><text xml:space="preserve" font-family="HelveticaNeue-UltraLight,Helvetica Neue" font-size="34.0" fill="#282828" transform="matrix(1.00, 0.00, -0.00, -1.00, 114.1, 8.2)">e</text><text xml:space="preserve" font-family="HelveticaNeue-UltraLight,Helvetica Neue" font-size="34.0" fill="#282828" transform="matrix(1.00, 0.00, -0.00, -1.00, 131.1, 8.2)"> </text><text xml:space="preserve" font-family="HelveticaNeue-UltraLight,Helvetica Neue" font-size="34.0" fill="#282828" transform="matrix(1.00, 0.00, -0.00, -1.00, 140.5, 8.2)">s</text><text xml:space="preserve" font-family="HelveticaNeue-UltraLight,Helvetica Neue" font-size="34.0" fill="#282828" transform="matrix(1.00, 0.00, -0.00, -1.00, 156.3, 8.2)">e</text><text xml:space="preserve" font-family="HelveticaNeue-UltraLight,Helvetica Neue" font-size="34.0" fill="#282828" transform="matrix(1.00, 0.00, -0.00, -1.00, 173.3, 8.2)">n</text><text xml:space="preserve" font-family="HelveticaNeue-UltraLight,Helvetica Neue" font-size="34.0" fill="#282828" transform="matrix(1.00, 0.00, -0.00, -1.00, 190.3, 8.2)">s</text><text xml:space="preserve" font-family="HelveticaNeue-UltraLight,Helvetica Neue" font-size="34.0" fill="#282828" transform="matrix(1.00, 0.00, -0.00, -1.00, 206.0, 8.2)">i</text><text xml:space="preserve" font-family="HelveticaNeue-UltraLight,Helvetica Neue" font-size="34.0" fill="#282828" transform="matrix(1.00, 0.00, -0.00, -1.00, 210.4, 8.2)">n</text><text xml:space="preserve" font-family="HelveticaNeue-UltraLight,Helvetica Neue" font-size="34.0" fill="#282828" transform="matrix(1.00, 0.00, -0.00, -1.00, 227.4, 8.2)">g</text></g></svg>