<?xml version="1.0" encoding="UTF-8" standalone="no"?><svg xmlns="http://www.w3.org/2000/svg" xmlns:xlink="http://www.w3.org/1999/xlink" clip-rule="evenodd" stroke-miterlimit="10" viewBox="0 0 442 35"><desc>SVG generated by Keynote</desc><defs></defs><g transform="matrix(1.00, 0.00, -0.00, -1.00, 0.0, 35.0)"><text xml:space="preserve" font-family="HelveticaNeue-UltraLight,Helvetica Neue" font-size="20.4" fill="#282828" transform="matrix(1.00, 0.00, -0.00, -1.00, 0.0, 13.1)">•</text><text xml:space="preserve" font-family="HelveticaNeue-UltraLight,Helvetica Neue" font-size="34.0" fill="#282828" transform="matrix(1.00, 0.00, -0.00, -1.00, 24.0, 8.2)">A</text><text xml:space="preserve" font-family="HelveticaNeue-UltraLight,Helvetica Neue" font-size="34.0" fill="#282828" transform="matrix(1.00, 0.00, -0.00, -1.00, 43.5, 8.2)">u</text><text xml:space="preserve" font-family="HelveticaNeue-UltraLight,Helvetica Neue" font-size="34.0" fill="#282828" transform="matrix(1.00, 0.00, -0.00, -1.00, 60.5, 8.2)">t</text><text xml:space="preserve" font-family="HelveticaNeue-UltraLight,Helvetica Neue" font-size="34.0" fill="#282828" transform="matrix(1.00, 0.00, -0.00, -1.00, 68.7, 8.2)">o</text><text xml:space="preserve" font-family="HelveticaNeue-UltraLight,Helvetica Neue" font-size="34.0" fill="#282828" transform="matrix(1.00, 0.00, -0.00, -1.00, 86.4, 8.2)">n</text><text xml:space="preserve" font-family="HelveticaNeue-UltraLight,Helvetica Neue" font-size="34.0" fill="#282828" transform="matrix(1.00, 0.00, -0.00, -1.00, 103.4, 8.2)">o</text><text xml:space="preserve" font-family="HelveticaNeue-UltraLight,Helvetica Neue" font-size="34.0" fill="#282828" transform="matrix(1.00, 0.00, -0.00, -1.00, 121.0, 8.2)">m</text><text xml:space="preserve" font-family="HelveticaNeue-UltraLight,Helvetica Neue" font-size="34.0" fill="#282828" transform="matrix(1.00, 0.00, -0.00, -1.00, 147.5, 8.2)">o</text><text xml:space="preserve" font-family="HelveticaNeue-UltraLight,Helvetica Neue" font-size="34.0" fill="#282828" transform="matrix(1.00, 0.00, -0.00, -1.00, 165.1, 8.2)">u</text><text xml:space="preserve" font-family="HelveticaNeue-UltraLight,Helvetica Neue" font-size="34.0" fill="#282828" transform="matrix(1.00, 0.00, -0.00, -1.00, 182.1, 8.2)">s</text><text xml:space="preserve" font-family="HelveticaNeue-UltraLight,Helvetica Neue" font-size="34.0" fill="#282828" transform="matrix(1.00, 0.00, -0.00, -1.00, 197.9, 8.2)"> </text><text xml:space="preserve" font-family="HelveticaNeue-UltraLight,Helvetica Neue" font-size="34.0" fill="#282828" transform="matrix(1.00, 0.00, -0.00, -1.00, 207.3, 8.2)">v</text><text xml:space="preserve" font-family="HelveticaNeue-UltraLight,Helvetica Neue" font-size="34.0" fill="#282828" transform="matrix(1.00, 0.00, -0.00, -1.00, 221.2, 8.2)">e</text><text xml:space="preserve" font-family="HelveticaNeue-UltraLight,Helvetica Neue" font-size="34.0" fill="#282828" transform="matrix(1.00, 0.00, -0.00, -1.00, 238.2, 8.2)">h</text><text xml:space="preserve" font-family="HelveticaNeue-UltraLight,Helvetica Neue" font-size="34.0" fill="#282828" transform="matrix(1.00, 0.00, -0.00, -1.00, 255.2, 8.2)">i</text><text xml:space="preserve" font-family="HelveticaNeue-UltraLight,Helvetica Neue" font-size="34.0" fill="#282828" transform="matrix(1.00, 0.00, -0.00, -1.00, 259.6, 8.2)">c</text><text xml:space="preserve" font-family="HelveticaNeue-UltraLight,Helvetica Neue" font-size="34.0" fill="#282828" transform="matrix(1.00, 0.00, -0.00, -1.00, 276.6, 8.2)">l</text><text xml:space="preserve" font-family="HelveticaNeue-UltraLight,Helvetica Neue" font-size="34.0" fill="#282828" transform="matrix(1.00, 0.00, -0.00, -1.00, 281.0, 8.2)">e</text><text xml:space="preserve" font-family="HelveticaNeue-UltraLight,Helvetica Neue" font-size="34.0" fill="#282828" transform="matrix(1.00, 0.00, -0.00, -1.00, 298.0, 8.2)">s</text><text xml:space="preserve" font-family="HelveticaNeue-UltraLight,Helvetica Neue" font-size="34.0" fill="#282828" transform="matrix(1.00, 0.00, -0.00, -1.00, 313.7, 8.2)"> </text><text xml:space="preserve" font-family="HelveticaNeue-UltraLight,Helvetica Neue" font-size="34.0" fill="#282828" transform="matrix(1.00, 0.00, -0.00, -1.00, 323.2, 8.2)">/</text><text xml:space="preserve" font-family="HelveticaNeue-UltraLight,Helvetica Neue" font-size="34.0" fill="#282828" transform="matrix(1.00, 0.00, -0.00, -1.00, 334.5, 8.2)">/</text><text xml:space="preserve" font-family="HelveticaNeue-UltraLight,Helvetica Neue" font-size="34.0" fill="#282828" transform="matrix(1.00, 0.00, -0.00, -1.00, 345.8, 8.2)"> </text><text xml:space="preserve" font-family="HelveticaNeue-UltraLight,Helvetica Neue" font-size="34.0" fill="#282828" transform="matrix(1.00, 0.00, -0.00, -1.00, 355.3, 8.2)">g</text><text xml:space="preserve" font-family="HelveticaNeue-UltraLight,Helvetica Neue" font-size="34.0" fill="#282828" transform="matrix(1.00, 0.00, -0.00, -1.00, 372.9, 8.2)">l</text><text xml:space="preserve" font-family="HelveticaNeue-UltraLight,Helvetica Neue" font-size="34.0" fill="#282828" transform="matrix(1.00, 0.00, -0.00, -1.00, 377.4, 8.2)">i</text><text xml:space="preserve" font-family="HelveticaNeue-UltraLight,Helvetica Neue" font-size="34.0" fill="#282828" transform="matrix(1.00, 0.00, -0.00, -1.00, 381.8, 8.2)">d</text><text xml:space="preserve" font-family="HelveticaNeue-UltraLight,Helvetica Neue" font-size="34.0" fill="#282828" transform="matrix(1.00, 0.00, -0.00, -1.00, 400.0, 8.2)">e</text><text xml:space="preserve" font-family="HelveticaNeue-UltraLight,Helvetica Neue" font-size="34.0" fill="#282828" transform="matrix(1.00, 0.00, -0.00, -1.00, 417.0, 8.2)">r</text><text xml:space="preserve" font-family="HelveticaNeue-UltraLight,Helvetica Neue" font-size="34.0" fill="#282828" transform="matrix(1.00, 0.00, -0.00, -1.00, 425.8, 8.2)">s</text></g></svg>