<?xml version="1.0" standalone="no"?>
<!DOCTYPE svg PUBLIC "-//W3C//DTD SVG 1.1//EN" "http://www.w3.org/Graphics/SVG/1.1/DTD/svg11.dtd" >
<svg xmlns="http://www.w3.org/2000/svg">
<metadata>
Created by Ivan Drinchev. Additions by Thomas Hollt. OFL license
<iconset grid="16"></iconset>
</metadata>
<defs>
<font id="MonoSocialIconsFont" horiz-adv-x="850" >
  <font-face 
    font-family="MonoSocialIconsFont"
    font-weight="400"
    font-stretch="normal"
    units-per-em="1024"
    panose-1="0 0 5 0 0 0 0 0 0 0"
    ascent="819"
    descent="-205"
    x-height="547"
    cap-height="781"
    bbox="-39 -234 1055 859"
    underline-thickness="50"
    underline-position="-52"
    unicode-range="U+0020-E500"
  />
<missing-glyph horiz-adv-x="293" 
 />
    <glyph glyph-name="fivehundredpx" unicode="fivehundredpx" 
d="M605 354q44 0 62 -27q19 -26 19 -64q0 -37 -19 -63q-18 -28 -62 -28q-21 0 -39 8q-15 7 -29 19q-17 15 -25 28q-11 -17 -23 -28q-12 -12 -29 -19q-18 -8 -41 -8t-39 8q-17 8 -23 16q-9 8 -14 25q-7 -15 -18 -25q-9 -8 -29 -16q-18 -8 -46 -8q-30 0 -46 12q-17 13 -26 27
q-11 18 -15 40h52q1 -8 7 -18q4 -7 12 -12q8 -6 22 -6q17 0 32 15t15 33t-10 34q-9 15 -31 15q-12 0 -19 -4t-12 -9q-5 -4 -10 -12h-52l29 146h139v-48h-104l-12 -55q3 3 13 9l16 6q10 3 24 3q20 0 33 -7t21 -17q10 -10 15 -24q5 17 14 27q7 9 23 19q16 8 39 8q25 0 41 -9
q19 -11 29 -21q11 -11 23 -30q9 14 25 30q13 11 29 20q16 10 39 10zM425 221q11 0 21 7q12 7 19 14q11 9 18 21q-7 11 -18 21q-5 5 -19 15q-10 7 -21 7q-21 0 -35 -12q-12 -14 -12 -31q0 -18 12 -30q14 -12 35 -12zM599 221q22 0 34 12t12 30q0 17 -12 31q-12 12 -34 12
q-12 0 -22 -7q-11 -7 -18 -15q-11 -10 -18 -21q7 -12 18 -21q9 -9 18 -14q10 -7 22 -7z" />
    <glyph glyph-name="aboutme" unicode="aboutme" 
d="M195 404v-29q11 17 27 24q16 10 37 10q26 0 39 -10q15 -9 21 -27q25 37 65 37q32 0 49 -17q17 -20 17 -53v-144h-36v132q0 21 -3 30q-4 10 -13 15q-9 6 -22 6q-22 0 -37 -15q-14 -14 -14 -46v-122h-36v136q0 23 -9 35t-29 12q-14 0 -28 -8q-13 -9 -18 -23q-6 -15 -6 -43
v-109h-36v209h32zM648 263l37 -5q-9 -32 -32 -50q-26 -17 -61 -17q-47 0 -74 28q-27 29 -27 79q0 54 28 82q27 29 71 29q42 0 69 -29q27 -28 27 -80v-9h-158q2 -36 20 -53q18 -18 44 -18q21 0 34 10t22 33zM530 320h118q-2 25 -13 39q-18 21 -45 21q-24 0 -41 -17t-19 -43z
" />
    <glyph glyph-name="addme" unicode="addme" 
d="M477 252v-156h-105v156h-157v105h157v157h105v-157h157v-105h-157z" />
    <glyph glyph-name="amazon" unicode="ama&#x7a;on" 
d="M572 255q-12 -12 -21 -19l-22 -19q-6 -4 -14 -1q-15 13 -19 20l-13 18q-25 -28 -52 -37q-22 -5 -40 -5q-34 0 -59 23q-25 22 -25 67q0 34 17 59q17 24 43 36q9 5 31 11q22 4 33 5q3 1 11 2t11 1l19 1v8v22q-2 11 -6 20q-4 7 -14 12q-9 3 -18 3h-3q-14 -1 -26 -10
q-11 -7 -16 -25q-1 -9 -10 -11l-55 7l-5 4q-4 1 -2 8q5 26 16 41q10 16 26 27q17 11 34 15q20 5 38 6h11q20 0 44 -6q26 -8 41 -23q21 -21 22 -45q2 -34 2 -55v-91q0 -21 7 -31q10 -16 15 -23q2 -6 2 -8q1 -4 -3 -7zM472 358v12q-14 0 -21 -1q-14 -2 -20 -3q-17 -4 -30 -17
q-12 -13 -12 -37q0 -20 9 -31q8 -12 25 -12l4 1h4q21 5 31 27q8 15 9 30q1 9 1 31zM684 189q-6 6 -25 7q-25 2 -45 -5q-12 -4 -23 -12q-5 -3 -3 -5q0 -3 4 -3l11 2q7 0 11 1q9 1 28 1q14 -1 18 -6q4 -3 2 -11q-1 -4 -5 -19l-6 -21q-3 -7 -7 -17q-1 -4 1 -5t7 2q18 16 25 39
q7 24 9 39v3q0 4 -2 10zM636 141q-10 -10 -22 -15q-42 -25 -92 -39q-51 -14 -98 -14q-76 0 -141 28q-66 27 -117 75q-4 4 -2 8t7 0q53 -32 122 -52q64 -19 137 -19q46 0 92 9q45 7 92 27q4 2 7 3l6 3q7 3 12 -3t-3 -11z" />
    <glyph glyph-name="aol" unicode="aol" 
d="M483 564q27 0 46 -18q18 -20 18 -45q0 -26 -18 -44q-19 -18 -46 -18q-25 0 -45 18q-19 18 -19 44t19 45q20 18 45 18zM229 173l10 3q12 4 26 9q16 7 30 16q15 11 29 26q17 21 25 38q2 2 2 7l3 19q4 55 21 87q16 30 50 50l5 2l5 -3q16 -9 31 -12l8 -1v-14q0 -2 1 -2
q0 -6 1 -7l1 -3l4 -2q18 -6 38 -6t33 4q16 4 27 9l9 4l27 -61l-8 -4q-32 -15 -50 -20q-21 -7 -42 -7q-13 0 -18 1l-18 2h-4h-3q-1 1 -2 1q-2 0 -3 -1q-2 -2 -3 -7q-1 -1 2 -3l2 -2q2 0 3 -1q96 -47 145 -147l5 -8l-67 -38l-5 9l-13 20q-6 8 -23 25q-9 8 -35 26
q-17 11 -47 25l-4 2q-3 0 -4 -3l-7 -9l-23 -28q-10 -12 -29 -28q-18 -15 -40 -25q-26 -13 -57 -20l-9 -3z" />
    <glyph glyph-name="appstorealt" unicode="appstorealt" 
d="M425 561q55 0 101 -21q48 -20 83 -56q36 -34 57 -83q20 -48 20 -101t-20 -102q-21 -47 -56 -84q-37 -35 -83 -56q-49 -20 -102 -20t-102 20q-48 21 -83 56q-37 37 -56 84q-21 48 -21 102t21 101q20 48 56 83q35 36 83 56q48 21 102 21zM425 64q50 0 91 19q43 18 75 50
t50 75q19 42 19 92t-19 92q-18 42 -50 74q-31 32 -75 51q-42 18 -91 18t-92 -18q-43 -19 -75 -51q-31 -31 -51 -74q-18 -44 -18 -92t18 -92q19 -44 51 -75q32 -32 75 -50q42 -19 92 -19zM477 274h78l-130 -131l-131 131h78v183h105v-183z" />
    <glyph glyph-name="appstore" unicode="appstore" 
d="M576 284l14 -27q6 -10 -2 -18q-9 -9 -13 -10l-12 -5q-4 -1 -14 4q-5 2 -17 26l-26 55q-10 21 -28 61l-19 44q-1 2 -6.5 15t-9.5 22q-11 24 -20 46q-7 16 -13 40q-5 18 1 21q4 1 13 -10q12 -16 20 -31l24 -40q10 -18 23 -38q3 -6 12 -21.5t15 -25.5l31 -57q15 -29 27 -51z
M386 437l31 -18q4 -1 6 -7q1 -3 -1 -9l-144 -250q-6 -11 -16 -4l-31 17q-5 3 -6 7q-2 5 2 10l143 249q1 4 7 6q3 1 9 -1zM229 244h-54q-5 0 -9 3q-3 3 -3 8v85q0 6 3 7q6 2 9 2h119zM359 244l67 105h31l45 -105h-143zM569 349h105q12 0 12 -9v-85q0 -11 -12 -11h-52z
M620 166l-12 -8q-6 -2 -11 -1q-6 2 -7 6l-19 29q-4 5 -2 10q2 6 6 7l18 9q11 6 18 -6l14 -28q3 -4 1 -11q-2 -6 -6 -7zM614 150q20 11 29 2q10 -7 13 -23q4 -15 2 -44q-2 5 -8 8l-12 6q-10 4 -15 7q-8 5 -12 11q-11 14 -6 22t9 11zM221 153l31 -18q10 -6 0 -13l-39 -27
q-5 -3 -8 -2q-3 3 -1 7l5 47q1 11 12 6z" />
    <glyph glyph-name="apple" unicode="apple" 
d="M495 501q-12 -15 -31 -25q-18 -10 -40 -8q-3 20 6 39q7 19 20 33t33 25q17 9 38 11q2 -23 -5 -40q-8 -20 -21 -35zM556 326q0 -28 10 -45q12 -20 22 -29q14 -12 23 -16l10 -5l-8 -22q-7 -18 -26 -45q-15 -23 -31 -40q-16 -16 -42 -18q-12 0 -21 3q-10 2 -17 6q-6 3 -18 7
q-10 3 -24 3t-23 -3l-18 -6q-2 -1 -17 -7q-7 -2 -21 -4q-22 -1 -42 19t-34 41t-28 52q-13 28 -18 61q-6 32 -3 65t19 59t42 43q25 14 57 16q12 0 24 -3l21 -6l19 -7q8 -4 16 -4t17 4l22 8q8 3 26 7q15 3 27 2q10 0 17 -1q3 -1 23 -7q9 -3 25 -14q13 -10 23 -24l-9 -6
q-5 -4 -18 -17q-8 -8 -17 -28q-8 -18 -8 -39z" />
    <glyph glyph-name="bebo" unicode="bebo" 
d="M448 92h-47q-39 0 -72 16q-32 14 -59 41q-26 27 -40 61q-15 34 -15 72v235q0 19 17 33q16 13 36 13t36 -13t16 -33v-235q0 -38 21 -61q23 -24 60 -24h47q20 0 36 6t29 17q12 9 20 24q8 14 8 31q0 35 -15 57t-32 22h-93q-20 0 -33 10t-13 29t13 29t33 10h93q29 0 54 -13
q26 -13 45 -36t30 -54q11 -33 11 -67q0 -33 -14 -66q-15 -32 -40 -54q-26 -22 -60 -36q-36 -14 -72 -14z" />
    <glyph glyph-name="behance" unicode="behance" 
d="M402 422q13 -19 13 -48q0 -30 -13 -46l-9 -9l-13 -9q23 -9 33 -28q12 -18 12 -45q0 -28 -13 -50q-8 -15 -20 -25q-15 -12 -33 -16q-12 -2 -19 -3t-21 -1h-130v314h139q52 -1 74 -34zM503 456h105v-53h-105v53zM268 325h48q10 0 18 3q12 7 13 8q11 8 11 30q0 12 -3 19
q-5 8 -12 11q-10 4 -15 5q-10 2 -19 2h-41v-78zM608 367q21 -11 34 -33q4 -7 10 -21q4 -11 6 -24l1 -11v-14q0 -12 1 -18h-144q2 -21 6 -31q4 -9 15 -17q3 -3 13 -7q10 -2 15 -2q9 0 16 4q5 3 13 9q3 3 6 3q3 3 4 15h53q-2 -14 -6 -23q-3 -6 -13 -20q-12 -15 -32 -25
q-20 -9 -42 -9q-40 0 -70 27t-30 88q0 58 27 89q27 30 71 30q27 0 46 -10zM531 312l-8 -13q-4 -6 -6 -26h89q-2 21 -4 26q-3 7 -10 13q-12 12 -30 12q-20 0 -31 -12zM268 194h48q18 0 29 7q19 10 19 39q0 13 -4 20q-5 6 -14 11q-6 2 -12 2h-66v-79z" />
    <glyph glyph-name="bing" unicode="bing" 
d="M425 414q51 0 91 -13q46 -14 75 -35q32 -23 50 -53q19 -31 19 -65q0 -36 -19 -65q-18 -30 -50 -53q-31 -22 -75 -36q-40 -13 -91 -13q-49 0 -91 13q-44 13 -74 34q-30 22 -50 52q-18 27 -20 63h-1v309h79v-189q19 12 42 25q19 10 38 16q20 7 37 8q26 2 40 2zM425 137
q31 0 58 9q28 9 47 24q20 15 32 35q12 19 12 43t-12 43q-12 20 -32 35q-19 15 -47 24q-27 9 -58 9t-59 -9t-47 -24q-20 -15 -32 -35q-12 -19 -12 -43t12 -43q12 -20 32 -35q19 -15 47 -24t59 -9zM524 249q0 -14 -8 -28q-6 -10 -22 -23q-14 -11 -31 -15q-18 -6 -38 -6
q-21 0 -39 6q-19 5 -32 15q-14 11 -21 23q-7 13 -7 28q0 31 28 52t71 21q41 0 70 -21t29 -52z" />
    <glyph glyph-name="blip" unicode="blip" 
d="M215 450v85q90 0 172 -35q79 -34 142 -95q62 -62 96 -142q35 -82 35 -172h-85q0 75 -28 140q-29 65 -78 114q-50 49 -114 77q-65 28 -140 28zM215 300v85q59 0 114 -23q54 -24 94 -64q41 -40 63 -93q24 -54 24 -114h-86q0 42 -15 81q-17 39 -45 67t-68 45q-38 16 -81 16z
M215 221l131 -130h-78l-26 -27l-53 53l26 26v78z" />
    <glyph glyph-name="blogger" unicode="blogger" 
d="M660 330l-1 -120q0 -31 -12 -58t-32 -47q-21 -21 -47 -31q-27 -12 -58 -12h-171q-31 0 -58 12q-26 10 -47 31q-21 19 -33 47q-12 27 -12 58v173q0 31 12 58q12 28 33 47q20 20 47 32t58 12h104q13 -1 31 -8q22 -10 33 -17q14 -9 30 -25q14 -16 21 -31l4 -8l4 -8l3 -13
q1 -8 3 -21l4 -24q2 -12 8 -17q4 -4 14 -5q6 -1 19 -1h19q10 -2 12 -4l7 -5l4 -8zM423 411h-82q-12 0 -20 -8q-9 -9 -9 -21t9 -19q7 -9 20 -9h82q12 0 21 9q8 8 8 19t-8 21q-10 8 -21 8zM341 184h168q11 0 20 9q8 8 8 19t-8 21q-10 8 -20 8h-168q-12 0 -20 -8q-9 -9 -9 -21
t9 -19q7 -9 20 -9z" />
    <glyph glyph-name="coroflot" unicode="coroflot" 
d="M364 270q1 28 -4 61q-6 26 -15 46q-10 19 -23 29t-28 9q-26 -3 -50 -1q-21 2 -18 17q2 8 7 9q4 1 12 1q5 0 13 2q5 1 7 12q1 6 -1 16l-2 13q0 6 3 11q4 6 13 10q9 5 15 3t11 -11q2 -5 4 -19q2 -12 0 -24q36 8 66 -5t56 -36q25 -22 44 -47q18 -24 27 -39l-9 -3q-2 0 -5 -1
t-5 -2q-26 40 -48 62t-43 35q-19 12 -37 15q-21 2 -29 1q21 -16 36 -40q13 -23 21 -47q7 -20 10 -42q2 -26 2 -28q-15 -1 -30 -7zM528 306q40 0 68 -28t28 -68q0 -21 -7 -36q-8 -18 -19 -29q-14 -14 -29 -21q-17 -8 -36 -9q4 12 4 31q0 41 -23 76q-24 33 -62 47q13 16 34 27
q19 10 42 10zM406 249q19 0 40 -8q18 -7 33 -22t22 -33q8 -21 8 -40t-8 -40q-7 -18 -22 -33t-33 -22q-21 -8 -40 -8t-40 8q-18 7 -33 22t-22 33q-8 21 -8 40t8 40q7 18 22 33t33 22q21 8 40 8zM375 163q10 0 16 7q7 6 7 16q0 9 -7 16q-6 6 -16 6q-9 0 -17 -6q-6 -8 -6 -16
q0 -10 6 -16q7 -7 17 -7z" />
    <glyph glyph-name="daytum" unicode="daytum" 
d="M647 503l-1 -1h-442l-1 1v51l1 1h442l1 -1v-51zM595 476h52v-418h-52v418zM438 424h53v-366h-53v366zM281 319h53v-261h-53v261zM517 319h52v-261h-52v261zM360 267h52v-209h-52v209zM203 215h52v-157h-52v157z" />
    <glyph glyph-name="delicious" unicode="delicious" 
d="M425 509h209v-209h-209v209zM215 300h210v-209h-210v209z" />
    <glyph glyph-name="designbump" unicode="designbump" 
d="M346 440l105 105l104 -105h-52v-156l-105 104v52h-52zM372 74h-104v236h-53l105 104l105 -104h-53v-236zM503 284l-105 -105v105h105zM581 74h-104v79h-52l104 104l105 -104h-53v-79zM451 74h-53v53h53v-53z" />
    <glyph glyph-name="designfloat" unicode="designfloat" 
d="M425 535q49 0 92 -18q43 -20 74 -51t51 -74q18 -44 18 -92t-18 -92q-20 -44 -51 -75q-32 -32 -74 -50q-42 -19 -92 -19t-92 19q-43 18 -75 50t-50 75q-19 42 -19 92t19 92q18 42 50 74t75 51q43 18 92 18zM425 88q43 0 83 17q39 17 67 45t45 68q16 36 16 82q0 45 -16 83
q-17 39 -45 67q-29 30 -67 46t-83 16q-46 0 -82 -16q-38 -16 -68 -46q-28 -28 -45 -67q-17 -40 -17 -83t17 -82q17 -40 45 -68t68 -45q39 -17 82 -17zM372 479v-52q-20 -11 -42 -36q-21 -24 -32 -65h-52q12 60 40 99q27 40 86 54zM604 326h-52q-21 80 -101 101v52
q61 -14 100 -53t53 -100zM532 300q0 -21 -8 -42q-9 -20 -23 -34q-16 -16 -34 -23q-19 -9 -42 -9t-42 9q-20 8 -34 23q-15 14 -23 34q-9 20 -9 42t9 42q7 18 23 34q14 14 34 23q21 8 42 8t42 -8q17 -8 34 -23q15 -17 23 -34q8 -21 8 -42zM425 216q35 0 59 25q24 24 24 59
t-24 59t-59 24t-59 -24q-25 -24 -25 -59t25 -59q24 -25 59 -25zM451 173l35 10q15 4 29 13q12 7 23 19q10 13 14 32h52q-14 -59 -54 -86q-39 -28 -99 -40v52zM246 247h52q4 -19 14 -32q7 -11 18 -19q14 -10 21 -13l21 -10v-52q-31 7 -50 16q-21 9 -36 24q-14 14 -25 36
q-9 21 -15 50z" />
    <glyph glyph-name="deviantart" unicode="deviantart" 
d="M419 231l-216 -62q-16 37 -14 76q2 22 5 33q4 15 15 32q9 12 28 30q21 16 45 25l-27 56l67 7l23 -45h3q87 15 147 4q56 -10 97 -31t68 -56l-216 -62l-50 101q18 5 35 3q22 -2 32 -3l21 -40l73 20q-31 19 -58 28t-62 12q-33 3 -75 -8zM334 259l-33 66q-23 -16 -32 -30
q-9 -18 -10 -27q-2 -14 3 -28z" />
    <glyph glyph-name="diggalt" unicode="diggalt" 
d="M294 209h-131v183h79v78h52v-261zM320 470h52v-52h-52v52zM320 392h52v-183h-52v183zM529 130h-131v53h79v26h-79v183h131v-262zM686 130h-131v53h79v26h-79v183h131v-262zM215 339v-78h27v78h-27zM477 339h-26v-78h26v78zM634 339h-26v-78h26v78z" />
    <glyph glyph-name="digg" unicode="digg" 
d="M634 264v-156h-231v156h-109v-26q26 -1 49 -20q21 -20 21 -45v-49q0 -6 -5 -11t-13 -5h-139q-8 0 -13 5t-5 11v49q0 14 7 25q9 12 19 20q12 9 25 13q12 5 28 7v26h-105v156q23 19 41 31q18 11 39 21q19 10 38 10q18 0 38 -10q23 -12 38 -21q13 -9 41 -31v-3h27v109h183
v-109h78v-153h-52zM555 474h-78v-79h78v79zM346 317v84q-24 21 -37 28q-17 10 -28 10t-28 -10q-16 -9 -38 -28v-84h131zM608 343h-183v26h-27v-52h53v-157h56v78h22v-78h52v157h53v56h-26v-30zM320 151v22q0 9 -7 16q-7 6 -19 6h-35q-11 0 -18 -6q-8 -8 -8 -16v-22h87z" />
    <glyph glyph-name="dribble" unicode="dribble" 
d="M425 63q-50 0 -92 19q-43 18 -75 50t-50 75q-19 42 -19 92q0 49 19 91q18 43 50 75q32 31 75 51q43 18 92 18q47 0 91 -18q44 -20 75 -51t51 -75q18 -44 18 -91q0 -49 -18 -92q-20 -43 -51 -75q-32 -32 -75 -50q-42 -19 -91 -19zM374 488q30 -38 43 -58q15 -22 35 -60
q31 15 56 30q30 20 53 39q-29 28 -63 41q-34 15 -73 15q-8 0 -26 -2q-9 -1 -25 -5zM231 329q4 -1 12 -1h13q82 0 159 27q-36 65 -80 118q-42 -23 -69 -60q-27 -36 -35 -84zM547 309q37 0 74 -9q0 59 -35 109q-54 -47 -117 -75q2 -3 7 -16t7 -16q11 3 32 5q22 2 32 2z
M244 289l-15 1q3 -72 52 -124q29 45 71 77q44 33 92 49q-6 18 -11 28q-39 -15 -87 -23t-90 -8h-12zM496 265q8 -23 17 -66q5 -23 11 -69q37 21 60 55q26 33 33 75q-24 6 -35 8q-24 2 -35 2q-19 0 -51 -5zM311 139q49 -36 114 -36q34 0 61 10q-6 71 -29 142q-43 -14 -82 -44
q-39 -32 -64 -72z" />
    <glyph glyph-name="drupal" unicode="drupal" 
d="M529 478l22 -16q19 -14 35 -34q19 -22 33 -56q15 -33 15 -78q0 -43 -17 -82q-16 -36 -46 -63t-66 -40q-37 -15 -79 -15q-44 0 -80 16q-39 16 -67 42q-29 27 -47 65q-17 39 -17 81q0 44 15 77q16 33 34 54q19 21 37 34q18 12 24 15l28 14q11 5 31 20q9 9 14 19q7 9 10 34
l25 -29q13 -14 25 -23q18 -11 35 -17q17 -8 36 -18zM260 395l4 -5q1 -1 13 1q10 1 38 16q23 13 39 26q15 12 28 26q8 9 10 13q0 1 1 3t1 3q0 4 -6 5q-4 1 0 3l7 4q5 2 7 4l7 7q5 4 7 13q0 18 -4 31q-3 -24 -10 -32q-7 -11 -16 -17q-13 -9 -29 -18l-16 -9q-1 -1 -6 -3t-9 -4
q-2 -1 -6 -4t-7.5 -5.5t-7.5 -4.5q-13 -9 -23 -18q-13 -13 -19 -24q-5 -8 -3 -11zM571 189q8 -1 15 4q6 4 15 16q7 12 12 29q4 15 4 27q0 11 -6 24t-23 13q-9 0 -20 -7l-25 -15l-24 -15q-11 -8 -20 -8q-11 0 -23 9l-27 18q-12 8 -32 18q-18 8 -37 8q-16 0 -30 -6t-24 -15
q-10 -10 -16 -22q-6 -13 -6 -26q-2 -31 20 -44q10 -6 16 -7q9 -3 29 -3q17 0 36 9q16 6 36 19l33 19q18 8 26 8q7 0 17 -8l20 -18q13 -13 19 -18q9 -9 15 -9zM460 187l-9 -9q-8 -6 -3 -11q2 -5 13 5q8 6 11 8q6 3 18 3t16 -3q5 -5 6 -8q4 -7 7 -5q6 1 4 9l-4 8q-1 4 -7 8
q-4 2 -10 4h-11h-9q-6 -2 -10 -3q-6 -1 -12 -6zM531 140q2 2 2 4v4q-2 6 -7 1q-11 -7 -22 -10q-17 -5 -37 -5q-24 0 -35 4q-10 4 -18 9q-1 1 -4 1q-2 0 -7 -3q-2 -2 -2 -4q0 -3 2 -5q17 -14 38 -15q22 -1 41 0q17 1 33 10z" />
    <glyph glyph-name="ebay" unicode="ebay" 
d="M654 193h-64v82l-19 39v40q0 19 -8 35q-9 15 -41 20l-11 22h69l45 -101l49 101h64l-84 -156v-82zM433 289q0 -19 8 -35q7 -14 27 -18l-3 -24q-1 -7 -7 -21q-4 -9 -14 -15q-9 -6 -24 -6q-31 0 -41 22h-1v-18h-46v34l1 1q33 14 34 38h-35v17h36q2 24 -4 41q-6 18 -32 29v80
h48v-89h1q7 10 17 15q8 4 22 4q12 0 19 -3q5 -2 13 -8q-19 -13 -19 -44zM501 410h11q7 0 10 -1l49 -95v-44v-16q1 -2 1 -8t1 -8h-46l-2 22q-6 -10 -19 -19q-10 -6 -27 -6q-9 0 -11 1v22q0 10 -2 40q-1 21 -14 35q12 11 31 12q26 2 40 1v13q0 11 -3 18t-17 7q-13 0 -15 -8
q-3 -8 -3 -18h-48q0 30 18 41q16 11 46 11zM332 247v-39q-16 -6 -25 -8q-17 -4 -31 -5q-22 -2 -37 -2q-43 0 -68 6t-39 17q-12 10 -17 25q-4 12 -4 31q0 16 3 29q5 15 17 24q13 10 39 16t69 6q26 0 37 -1q6 -1 16 -2.5t14 -1.5q11 -3 26 -8v-70h-132v-14q2 -10 5 -14
q4 -6 12 -11t22 -5q23 0 31 9q7 7 7 18h55zM239 322q-16 0 -23 -4q-8 -4 -12 -9q-2 -3 -4 -11v-11h80l-1 11q0 7 -4 12q-3 4 -12 9q-7 3 -24 3zM499 264q11 0 15 6q5 5 7 15q2 12 2 19v16l-17 -1q-5 -1 -13 -3q-6 -1 -9 -8q-3 -6 -3 -17q0 -9 3 -18t15 -9zM420 259
q0 19 -2 41q-1 16 -18 16q-15 0 -18 -16q-2 -22 -2 -41q0 -33 3 -46q5 -14 17 -14q13 0 16 14q4 12 4 46z" />
    <glyph glyph-name="email" unicode="email" 
d="M189 466v61h471v-61l-235 -168zM189 388l126 -90l-126 -90v180zM534 298l126 90v-180zM660 109h-471v60l153 110l83 -59l82 59l153 -110v-60z" />
    <glyph glyph-name="emberapp" unicode="emberapp" 
d="M634 317q0 -35 -6 -75q-8 -43 -29 -77q-23 -37 -64 -62q-42 -25 -111 -27q-22 2 -47 7q-29 5 -59 24q-30 18 -57 54q-28 35 -46 97q3 -5 7 -6q8 -5 14 -2q4 1 5 14q3 27 4 31q3 22 10 42q8 23 23 44q19 26 46 50l51 44q24 20 41 38q18 17 19 34q40 -29 82 -68
q34 -33 59 -67q28 -38 32 -72q2 2 10 16q3 5 7 15q2 11 1 16l3 -15q3 -15 5 -55zM610 294q2 12 1 18l-18 -22l-6 48q-1 22 -17 48q-17 26 -37 49q-25 26 -46 45q-28 24 -43 36q-9 -13 -27 -31q-15 -15 -38 -33l-44 -39q-20 -18 -39 -43q-21 -29 -25 -55q-7 -31 -8 -45
q-2 -14 -2 -19q-1 -7 -6 -12v-1q-2 -2 -2 -3t-3 -3q2 -5 11 -14q7 -6 7 -13q19 -51 62 -80q41 -28 98 -29q50 2 84 18q34 17 57 46q17 21 29 53q10 27 10 58q0 7 2 23zM593 249l14 16q-3 -14 -13 -42q-9 -21 -24 -39q-46 -61 -146 -64q-110 5 -162 104v5q1 13 8 46
q4 26 25 53q15 21 40 44l44 39q23 18 38 33q17 15 27 30q6 -4 12.5 -10t15.5 -13t15 -12q21 -19 46 -45q20 -23 37 -49q16 -26 17 -48z" />
    <glyph glyph-name="etsy" unicode="etsy" 
d="M346 313h116q23 0 35 4q15 5 21 11q9 8 14 25q4 18 6 38h17v-183h-17q-5 40 -10 49q-6 13 -21 21q-15 9 -45 9h-116v-148q0 -19 3 -29q1 -4 4 -14q1 -3 6 -8l6 -5q8 -5 30 -5h83q15 0 35 2q12 1 25 5q9 3 18 9q12 10 18 16q11 13 23 32l22 40h15l-42 -131h-377v27h18
q11 0 17 -1q7 -1 16 4l12 6q7 3 8 9l5 17q3 11 3 31v287q0 26 -4 37q-4 12 -10 18q-6 8 -19 9q-9 1 -28 1h-18v26h377l5 -105h-14q-6 28 -8 32q-5 13 -9 20q-10 15 -27 22q-12 5 -51 5h-142v-183z" />
    <glyph glyph-name="facebook" unicode="facebook" 
d="M569 409h-78q-7 0 -17 -6q-10 -7 -10 -20v-26h79v-104h-79v-210h-104v210h-79v104h79v52q0 19 9 39q9 19 26 33q17 16 38 24q23 9 48 9h88v-105z" />
    <glyph glyph-name="feedburner" unicode="feedburner" 
d="M483 437q14 -8 40 -26q19 -13 33 -33q15 -20 24 -45t9 -62q0 -32 -15 -62t-39 -54t-55 -39q-33 -14 -65 -14q-35 0 -63 15q-31 18 -50 44q-21 29 -33 67q-12 40 -12 89q0 33 11 75q9 36 29 77q14 31 40 68q22 31 47 48q-10 -29 -9 -48q3 -18 11 -36q5 -11 17 -33
q10 -16 13 -37q4 -19 -2 -47q-6 -26 -29 -65q23 -7 44 -1q22 6 35 22q15 18 20 41q5 26 -1 56zM415 136q50 1 82 24t44 55q12 33 3 67q-8 35 -39 59q-10 -45 -34 -80q-23 -33 -61 -31q-18 0 -34 10t-28 30q-12 22 -16 45q-5 26 3 56q-31 -52 -36 -97q-4 -41 10 -74
q15 -32 43 -48q30 -17 63 -16zM607 239q25 -13 39 -30t14 -35q0 -21 -19 -40q-19 -18 -50 -32q-35 -15 -75 -22q-46 -8 -91 -8q-46 0 -92 8q-40 7 -75 22q-30 13 -51 32q-18 20 -18 40t15 36q19 19 43 31q19 -64 64 -103q44 -35 105 -37q30 0 61 11q28 9 56 29q27 21 45 44
q20 27 29 54z" />
    <glyph glyph-name="flickr" unicode="flickr" 
d="M399 299q0 -20 -8 -41q-9 -19 -23 -33q-14 -16 -33 -23q-21 -8 -41 -8t-41 8q-19 7 -33 23q-16 14 -23 33q-8 21 -8 41t8 41q7 19 23 33q15 15 33 22q21 8 41 8t41 -8q18 -7 33 -22q14 -14 23 -33q8 -21 8 -41zM660 299q0 -20 -8 -41q-9 -19 -23 -33q-14 -16 -33 -23
q-21 -8 -41 -8q-19 0 -40 8q-19 7 -33 23q-16 14 -23 33q-8 21 -8 41t8 41q7 19 23 33q15 15 33 22q21 8 40 8q20 0 41 -8q18 -7 33 -22q14 -14 23 -33q8 -21 8 -41z" />
    <glyph glyph-name="foodspotting" unicode="foodspotting" 
d="M555 529h53q22 0 37 -15q15 -16 15 -37v-157q0 -22 -15 -37q-15 -16 -37 -16h-262q-21 0 -36 16q-16 15 -16 37v157q0 21 16 37q15 15 36 15h53l26 52h104zM189 529h53v-262h-53v262zM477 294q20 0 41 8q18 7 33 22q14 14 23 33q8 21 8 41t-8 41q-9 19 -23 33t-33 23
q-21 8 -41 8t-41 -8q-19 -9 -33 -23q-16 -14 -23 -33q-8 -21 -8 -41t8 -41q7 -19 23 -33q15 -15 33 -22q21 -8 41 -8zM529 398q0 -22 -15 -37t-37 -15t-37 15t-15 37t15 37t37 15t37 -15t15 -37zM296 215v-26h-67v-36h58v-27h-58v-65h-28v154h95zM624 61v16q-6 -9 -15 -14
q-8 -5 -17 -5q-17 0 -29 16q-13 16 -13 43q0 28 12 43t31 15q17 0 29 -15v55h27v-154h-25zM313 118q0 16 6 29q7 12 19 21q10 7 27 7q22 0 37 -16q15 -17 15 -42t-15 -42t-37 -17q-12 0 -27 7q-12 9 -19 21q-6 14 -6 32zM432 118q0 16 6 29q6 14 19 21q10 7 26 7
q23 0 38 -16q15 -17 15 -42t-15 -42t-37 -17q-6 0 -14 2l-13 5q-13 7 -19 21t-6 32zM578 119q0 -19 4 -26q5 -11 18 -11q10 0 16 8q6 9 6 26q0 19 -6 28t-16 9t-16 -9q-6 -8 -6 -25zM340 117q0 -16 7 -26q7 -9 18 -9t17 9q7 7 7 26q0 18 -7 25q-6 9 -17 9t-18 -9
q-7 -10 -7 -25zM459 117q0 -19 7 -26q8 -9 18 -9t17 9q7 7 7 26q0 18 -7 25q-7 9 -17 9t-18 -9q-7 -7 -7 -25z" />
    <glyph glyph-name="forrst" unicode="forrst" 
d="M446 171l87 43v21l-87 -43v43l43 22v21l-43 -21v42h-43v-85l-65 21v-21l65 -22v-107h-194l216 471l215 -471h-194v86z" />
    <glyph glyph-name="foursquare" unicode="foursquare" 
d="M660 328l-100 -80l15 -16l-150 -158l-130 137q-22 0 -41 10q-19 9 -34 24q-14 16 -23 36q-8 21 -8 43q0 23 8 45q9 19 24 36q15 15 34 24t42 9q35 0 63 -21q29 -23 39 -56l26 28l65 -67l153 164l17 19v-177zM421 222l-38 68q6 15 6 34q0 21 -7 38q-8 19 -20 31
q-12 13 -29 21q-18 8 -36 8t-36 -8q-17 -8 -30 -21q-11 -13 -19 -31q-7 -17 -7 -38t7 -38q9 -20 19 -31q13 -13 30 -21q15 -7 36 -7q5 0 15 2l16 4l90 -86l225 187v129z" />
    <glyph glyph-name="friendsfeed" unicode="friendsfeed" 
d="M539 412q-8 -11 -8 -28v-45h76v-76h-76v-183h-76v183h-78v-183h-77v183h-76v76h76v45q0 23 8 45q7 17 22 36q14 15 33 24t40 9h69v-51q8 12 13 18q13 15 33 24t40 9h68v-76h-68q-10 0 -19 -10zM455 339v45q0 20 6 38h-58q-11 0 -18 -10q-8 -11 -8 -28v-45h78z" />
    <glyph glyph-name="friendstar" unicode="friendstar" 
d="M512 317h-1q-5 0 -10 5q-4 4 -9 14q-4 15 -5 20q-1 4 -2 11t-1 11v20q1 20 7 33q4 10 16 12h2q7 0 14 -6q8 -6 12 -16q5 -9 9 -21q3 -12 3 -25q0 -56 -35 -58zM426 307q-10 2 -13 5q-6 6 -8 9q-9 16 -10 30q-3 17 2 35q8 23 16 27q7 4 15 4t16 -8q6 -6 15 -22
q6 -14 5 -28q-2 -21 -9 -37t-25 -16q-3 0 -4 1zM647 394q9 -10 12 -33q3 -19 -2 -49q-3 -20 -16 -46q-15 -30 -38 -53q-25 -25 -62 -44q-35 -18 -87 -20h-5q-63 0 -104 39q-43 41 -59 117q-4 25 -21 39q-17 15 -27 15h-49v49h67q17 0 35 -8q13 -6 29 -20q11 -11 21 -26
t14 -26l3 -8q1 -2 3 -8q6 -15 9 -32q1 -16 11 -32q8 -15 26 -26q19 -11 55 -14q35 -2 58 12q22 13 36 35q13 20 19 43q7 25 8 38q6 33 13 48q8 16 30 18h3q10 0 18 -8z" />
    <glyph glyph-name="gdgt" unicode="gdgt" 
d="M529 512l26 -26v-154l79 154v-157l-79 -131v-130l-26 -27h-261l-26 27v52h235v78h-235l-26 26v262l26 26h287zM477 434h-183v-157h183v157z" />
    <glyph glyph-name="github" unicode="github" 
d="M425 266q31 0 56 -9q27 -10 46 -24q18 -14 31 -35q11 -20 11 -43t-11 -43q-13 -21 -31 -35q-19 -14 -46 -24q-27 -8 -56 -8t-56 8q-25 9 -45 24q-21 16 -31 35q-12 20 -12 43q0 28 16 50q17 23 42 38q-6 13 -7 22q-3 12 -3 24q0 24 11 51q-20 17 -32 39q-12 24 -12 52
q0 24 9 45q9 22 25 38t38 25q20 10 46 10q34 0 63 -20l85 47v-79l-41 -22q7 -6 12 -20q4 -12 4 -24q0 -23 -9 -46q-11 -22 -26 -37q-14 -14 -38 -26q-22 -9 -47 -9h-4q-1 0 -3 -9q-1 -5 -1 -15q0 -9 1 -13q2 -8 3 -11l6 1h6zM417 486q-23 0 -39 -16q-17 -17 -17 -39t17 -39
q16 -16 39 -16q24 0 40 16t16 39t-16 39t-40 16zM425 113q27 0 46 12q18 13 18 30q0 18 -18 30q-19 13 -46 13q-26 0 -45 -13q-19 -12 -19 -30q0 -17 19 -30q20 -12 45 -12z" />
    <glyph glyph-name="githubalt" unicode="githubalt" 
d="M666 407q47 -55 47 -138q0 -71 -21 -115q-13 -24 -37 -45q-22 -19 -49 -30q-18 -6 -28 -9q-16 -5 -31 -8q-10 -2 -32 -4l-27 -3q-9 -1 -27 -1l-31 -1h-26q-16 0 -23 1l-24 2q-9 0 -27 2q-25 3 -53 11q-36 11 -69 30q-32 18 -50 55q-22 43 -22 115q0 82 47 138
q-9 29 -9 58q0 40 18 76q37 0 65 -14q13 -6 31 -18q4 -3 35 -24q51 12 107 12q48 0 97 -11q34 28 65 42q26 13 66 13q17 -39 17 -76q0 -29 -9 -58zM596 129q17 14 28 37q11 24 11 52q0 42 -24 71q-23 29 -64 29q-14 0 -25 -1q-15 -1 -43 -6q-8 -1 -26 -3q-9 -1 -28 -1
q-20 0 -29 1q-18 2 -26 3q-24 4 -43 6q-11 1 -24 1q-42 0 -65 -29q-24 -29 -24 -71q0 -28 11 -52q11 -23 28 -37q16 -12 42 -20q30 -9 49 -10q22 -3 51 -3h59q28 0 51 3q19 1 49 10q26 8 42 20zM314 285q14 0 24 -12q12 -14 16 -26q6 -21 3 -43q-1 -22 -18 -40
q-11 -12 -25 -12q-16 0 -26 12t-15 26q-4 21 -3 43q3 22 18 40q12 12 26 12zM536 285q14 0 24 -12t15 -26q7 -20 4 -43q-1 -22 -18 -40q-11 -12 -25 -12q-16 0 -26 12t-15 26q-4 21 -3 43q3 22 18 40q12 12 26 12z" />
    <glyph glyph-name="googlebuzz" unicode="googlebu&#x7a;&#x7a;" 
d="M358 267l-135 127q31 42 86 66q53 24 116 24q33 0 70 -8q32 -7 63 -25zM455 319l127 117q39 -26 58 -62q20 -37 20 -75q0 -70 -57 -121zM338 248l-84 -77q-65 54 -65 128q0 37 19 72zM264 92q-14 0 -19 1q-9 1 -15 3q10 6 23 22q3 4 16 28l1 3l165 151l147 -140
q-33 -23 -72 -35q-40 -12 -85 -12q-11 0 -33 2q-20 2 -32 5l-5 1l-5 -2q-40 -27 -86 -27z" />
    <glyph glyph-name="googleplus" unicode="googleplus" 
d="M388 311q0 -15 15 -28l32 -27q19 -16 33 -37q15 -21 15 -54q0 -51 -44 -90q-50 -41 -133 -41q-20 0 -48 5q-20 4 -47 16q-23 12 -36 31q-14 20 -14 47q0 19 11 43q11 20 31 34q20 15 46 23q48 14 97 16q-21 25 -21 47q0 8 3 14l2 7l2 6h-12q-3 -1 -10 -1q-50 0 -81 31
q-34 31 -34 78q0 45 30 79q30 36 75 45q20 4 29 5q20 2 30 2h139l-43 -25h-43q25 -17 35 -40q12 -25 12 -54q0 -24 -7 -41q-8 -20 -18 -30q-21 -21 -31 -30q-15 -14 -15 -31zM607 440v-81h-40v81h-81v41h81v81h40v-81h82v-41h-82zM341 338q31 0 44 19q14 20 14 51
q0 39 -20 82q-11 20 -27 33t-38 13q-29 0 -45 -22t-16 -52q0 -15 5 -40q5 -19 17 -41q12 -18 28 -31q17 -12 38 -12zM337 60q20 0 36 4q19 5 32 12q15 9 23 23q9 13 9 35q0 9 -1 13q-2 7 -3 12q-2 5 -6 11l-7 9q-1 3 -8 10l-9 8l-2 2t-2 1l-6 5l-10 7l-10 7l-10 7h-7
q-3 1 -9 1q-36 0 -67 -10q-26 -7 -44 -26q-18 -17 -18 -47q0 -22 11 -39q10 -15 30 -26q34 -19 78 -19z" />
    <glyph glyph-name="google" unicode="google" 
d="M528 73q45 39 45 90q0 33 -15 54q-12 17 -32 37q-26 21 -33 28q-15 12 -15 27q0 17 15 31q10 9 31 30q10 10 18 29q7 17 7 42q0 13 -3 27q-6 18 -10 27q-12 25 -35 39h43l43 26h-139q-9 0 -29 -2q-10 -1 -30 -5q-44 -9 -74 -45q-30 -34 -30 -79q0 -48 33 -78
q34 -31 81 -31h11q7 0 12 1l-2 -6q-2 -6 -3 -7q-2 -10 -2 -14q0 -22 20 -47q-48 -2 -97 -16q-26 -8 -46 -23q-19 -15 -30 -35q-12 -23 -12 -42q0 -27 14 -47t36 -30q24 -13 47 -17q28 -5 48 -5q83 0 133 41zM487 409q0 -32 -13 -51t-45 -19q-21 0 -37 13q-19 14 -28 31
q-12 22 -17 41q-6 21 -6 39q0 33 16 52q16 22 46 22q22 0 38 -13q15 -12 26 -33q20 -43 20 -82zM515 171q4 -6 6 -11q0 -1 1.5 -5t2.5 -6q1 -4 1 -13q0 -22 -9 -35q-9 -15 -23 -23q-13 -8 -32 -13q-16 -4 -36 -4q-18 0 -40 5q-24 5 -39 14q-19 11 -29 27q-12 17 -12 39
q0 29 18 47q19 18 44 25q33 10 68 10q13 0 16 -1l9 -6l11 -8l9 -7q3 -2 6.5 -4.5t4.5 -3.5l8 -8q6 -4 9 -9q1 -4 6 -10z" />
    <glyph glyph-name="researchgate" unicode="researchgate" 
d="M577 377q4 -6 4 -16h57q0 49 -22 71q-18 26 -72 26q-32 0 -51 -10q-16 -7 -33 -29q-10 -20 -16 -48q-3 -20 -3 -69q0 -51 3 -71q0 -23 13 -51q11 -25 30 -33q15 -10 45 -10q16 0 39 10q11 3 26 23v-26h44v165h-100v-45h43v-33q0 -16 -3 -22q-2 -2 -5.5 -7t-4.5 -6
q-2 -3 -7.5 -5.5t-6.5 -4.5q-3 -3 -13 -3q-13 0 -22 10q-8 9 -13 22q-2 6 -3.5 19t-2.5 20v48q0 61 9 85q11 26 32 26q10 0 16 -6l11 -11q6 -12 6 -19zM202 451v-307h61v130h36q14 0 26 -10q10 -10 10 -30l3 -57v-20q0 -7 6 -13h68q-9 4 -13 20v38q-4 7 -4 23v17
q-5 31 -12 38q-11 11 -36 16q28 4 39 27q13 17 13 51q0 39 -23 58q-19 19 -58 19h-116zM263 315v92h29q46 0 46 -43q0 -27 -13 -35q-16 -14 -36 -14h-26z" />
    <glyph glyph-name="googletalk" unicode="googletalk" 
d="M425 525q55 0 101 -15q50 -16 83 -40q37 -26 56 -60q21 -34 21 -73q0 -56 -40 -99q-40 -46 -102 -68q50 21 80 64q28 40 28 91q0 36 -17 72q-17 34 -48 59q-29 25 -72 40q-41 15 -89 15t-91 -15q-41 -13 -75 -40q-31 -25 -50 -59q-18 -33 -18 -70q0 -21 6 -41
q19 -42 65 -76t105 -47h1l-7 -26q-4 -12 -12 -27q-8 -16 -19 -31q42 3 71 16q32 13 51 27q21 14 40 37q-23 -47 -61 -70q-35 -21 -72 -29q-39 -9 -86 -4q26 17 44 44q16 25 24 47q-64 14 -107 51q-45 39 -61 85l-2 5q-4 12 -6 24q-3 12 -3 25q0 39 21 73q19 34 56 60
q33 24 83 40q48 15 102 15zM410 477q40 0 79 -11q35 -11 64 -32q25 -18 43 -46q16 -26 16 -57q0 -43 -30 -77q-31 -35 -79 -53q36 23 54 53q20 32 20 68q0 28 -14 56q-14 26 -36 47q-24 21 -55 34q-29 12 -68 17q1 1 6 1z" />
    <glyph glyph-name="gowallapin" unicode="gowallapin" 
d="M425 523q36 0 65 -13q30 -13 54 -37q22 -22 36 -53q14 -33 14 -66q0 -31 -10 -57q-11 -29 -28 -49q-17 -22 -42 -37q-23 -16 -52 -22l-37 -144l-37 144q-30 6 -53 22q-25 15 -42 37q-17 21 -27 49q-10 26 -10 57q0 36 13 66q14 31 36 53q24 24 54 37t66 13zM425 228
q28 0 49 10q24 11 40 27t27 40q10 21 10 49t-10 49q-11 24 -27 40t-40 27q-21 10 -49 10t-49 -10q-24 -11 -40 -27t-27 -40q-10 -21 -10 -49t10 -49q11 -24 27 -40t40 -27q21 -10 49 -10zM494 354q0 -29 -20 -49q-20 -21 -49 -21t-50 21q-20 20 -20 49q0 28 20 50
q22 20 50 20q29 0 49 -20q20 -22 20 -50z" />
    <glyph glyph-name="gowalla" unicode="gowalla" 
d="M363 170q-5 -25 -5 -50q0 -26 8 -52h-25q-7 24 -7 54t4 50l-18 3l-15 3q0 -15 -5 -32q-3 -9 -14 -14q-12 -5 -21 -5q-18 0 -29 11t-11 27q0 29 23 50q23 20 56 44l11 7q18 13 19 29q2 18 -1 30q-22 -30 -39 -47q-19 -19 -34 -27q-14 -10 -27 -13q-12 -3 -20 -3
q-24 0 -38 17q-16 19 -11 45q3 17 15 35q13 18 28 33q31 28 32 29q4 3 10.5 8t10.5 8t7 5q-19 15 -33 28q-22 22 -32 34q-14 17 -23 35t-9 34q0 23 19 33q19 12 38 12q14 0 26 -6q8 -4 22 -14q11 42 28 55t34 13h5q19 -1 31 -17q10 -13 13 -34q3 -23 2 -45q0 -25 -3 -50
l-6 -48l-1 -5q120 -19 185 -74q66 -54 85 -151q3 -12 3 -24l8 -7q5 -5 8 -7l9 -8q2 -1 5 -4l5 -5q-1 -13 -7 -26q-5 3 -14 12l-14 12l-1 1q-8 -38 -30 -59q-20 -20 -46 -32h-40l-15 13l26 5l13 4q14 3 28 13q16 11 27 28q12 17 14 47q-11 10 -22 13l-32 8q-18 3 -37 3
q-50 0 -67 -33q-12 -24 -15 -51q-2 -30 5 -50h-25q-7 24 -4 56q5 33 17 56q23 47 89 47q20 0 39 -3q19 -4 36 -9l6 -2l7 -3q-16 91 -80 141q-63 49 -182 66l-12 1l4 31l6 42q2 14 4 46q1 15 -1 41q-1 16 -10 28q-5 7 -13 8q-10 1 -18 -5q-7 -6 -13 -16q-6 -14 -8 -21l-5 -22
l11 -11q39 -41 33 -66q-3 -8 -5 -11q-3 -7 -13 -11q-8 -3 -15 -3q-19 0 -30 17q-10 16 -10 36v15q1 9 3 26q-19 18 -34 23q-16 5 -35 -7q-7 -4 -7 -13q0 -11 9 -27q11 -16 24 -33q15 -17 33 -33q17 -15 35 -27l17 -10l-17 -11l-27 -19q-28 -23 -34 -29q-21 -21 -30 -32
q-13 -16 -16 -32q-2 -15 5 -24q8 -8 20 -8q3 0 14 3q12 2 25 12q15 11 33 30q17 17 41 54l11 18l10 -19q5 -9 9 -24q4 -14 3 -30q0 -16 -7 -31q-8 -16 -23 -27l-11 -8l-21 -15q-14 -10 -18 -14l15 -3l16 -3q15 -5 33 -6q3 8 5 12q7 16 22 26q16 8 27 8q20 0 25 -17
q3 -8 2 -15q-2 -10 -5 -15q-12 -20 -39 -24q-14 -2 -17 -2zM292 518v-17q0 -11 4 -19q4 -9 11 -9l3 1h3l4 4q0 1 -5 13t-20 27zM370 198q0 -2 -1 -2h7q15 3 22 13q3 4 1 9h-2q-6 0 -14 -4q-8 -5 -13 -16zM272 153l3 2q2 10 2 21v31q-27 -23 -27 -42q0 -13 15 -13q6 0 7 1z
" />
    <glyph glyph-name="grooveshark" unicode="grooveshark" 
d="M425 560q55 0 101 -21q48 -20 83 -56q36 -34 57 -83q20 -48 20 -101t-20 -102q-21 -47 -56 -84q-37 -35 -83 -56q-49 -20 -102 -20t-102 20q-48 21 -83 56q-37 37 -56 84q-21 48 -21 102q0 55 21 101q20 48 56 83q35 36 83 56q48 21 102 21zM425 534q-49 0 -92 -18
q-43 -20 -74 -51t-51 -74q-18 -43 -18 -92q0 -40 14 -82q24 -1 54 6q29 7 49 24q20 19 29 42q9 22 12 50q3 29 2 55q-2 28 0 57q55 -17 91 -44q42 -32 76 -70q9 -9 20 -27l28 -42q11 -15 33 -43q16 -20 36 -35q11 24 19 53q7 25 7 56q0 50 -19 92q-18 42 -50 74
q-31 31 -75 51q-42 18 -91 18z" />
    <glyph glyph-name="heart" unicode="heart" 
d="M655 411q10 -30 1 -68t-28 -72t-47 -68q-30 -37 -55 -59q-27 -24 -54 -40q-26 -15 -41 -15t-41 15q-30 17 -56 40q-30 26 -59 59q-29 34 -50 68q-20 34 -31 72q-11 36 0 68q16 52 50 74t71 22q31 0 51 -13q20 -12 33 -27q13 -16 18 -28q6 -12 8 -12t8 12q6 14 19 28
q14 16 34 27q19 13 50 13q37 -2 70 -23q34 -22 49 -73z" />
    <glyph glyph-name="hyves" unicode="hyves" 
d="M559 531h33q4 0 9 -5q4 -3 10 -13q5 -7 6 -15t0 -12t-6 -7l-10 -5q-1 0 -5 -2t-5 -2q-5 -2 -7 -5q-5 -5 -6 -13q-1 -5 -1 -18v-21q1 -7 1 -20v-194l-1 -21q0 -14 3 -15q2 -3 9 -3q7 2 12 0q8 -3 16 -17t1 -24q-2 -3 -9 -6l-14 -4q-7 -4 -37 -14q-21 -6 -43 -4q-8 2 -13 5
q-8 6 -12 10q-6 6 -10 13q-4 6 -3 12q2 8 16 15q6 2 11 2q8 0 12 3q5 5 3 20l-2 25v24v14q1 7 -1 9q-2 1 -9 3h-14l-15 -2q-5 -1 -10 -1l-45 -6q-16 -3 -41 -11l-19 -5q-13 -3 -17 -10q-2 -3 -3 -10v-15l2 -17q1 -5 1 -13q2 -4 0 -12q-1 -6 1 -12q4 -5 12 -4q11 2 12 0
q9 -4 16 -12q8 -9 6 -20q-1 -9 -12 -15q-8 -6 -25 -11q-14 -4 -30 -6l-26 -3q-5 -1 -13 -1q-2 0 -10 2q-8 1 -20 13q-10 10 -9 20q2 9 10 13q12 6 17 7l6 2q3 0 5 2q3 5 2 16q0 8 -2 20q-2 18 -4 56q-1 20 -1 57l-2 58q-1 17 -1 59v22q0 11 -2 15q-2 2 -11 4q-6 0 -12 2
q-11 5 -14 11q-6 8 -10 17v9q8 14 26 20q18 5 39 9q20 4 30 5q19 2 27 1q12 -2 21 -6q8 -6 13 -18q2 -6 2 -12q1 -7 -2 -12q-3 -4 -9 -6l-12 -3q-2 -1 -6 -2t-6 -2q-5 -2 -7 -5q-2 -4 -2 -12v-18q0 -20 -2 -50q-1 -22 0 -51l2 -13q2 -11 4 -12q5 -2 11 0l11 3q11 2 28 6
t22 5q16 4 53 7l10 2l13 1l13 1q5 0 7 2q6 4 4 17l-2 18q-2 30 -2 39q0 11 2 37l2 20q1 12 -3 16q-2 3 -10 3q-8 2 -11 3q-12 5 -22 15t-5 27q1 3 7 7q4 4 10 6q18 8 36 11z" />
    <glyph glyph-name="icondock" unicode="icondock" 
d="M425 57q-12 0 -22 10l-141 155q-9 10 -14 12l-6 5l-3 -7q0 -1 -7 -12q-4 -8 -11 -14q-6 -6 -10 -6q-5 0 -8 4q-3 3 -5 15l-8 75q-2 14 6 21q8 8 20 8h4l77 -7q16 -1 19 -10q1 -1 1 -5q-1 -2 -6 -7q-13 -14 -27 -18l-7 -3l4 -6l6 -5l8 -8l65 -56q8 -6 14 -6q11 0 11 17
v150l-3 1q-22 12 -36 33q-13 20 -13 46q0 20 7 35q8 17 20 28q11 11 29 19q15 7 36 7t36 -7q18 -8 30 -19q11 -12 19 -28q7 -15 7 -35q0 -25 -12 -44q-12 -20 -34 -33l-3 -1v-149q0 -17 12 -17q2 0 8 2l5 4l62 53q10 9 13 13l5 6l-8 3q-13 4 -27 18q-7 7 -4 12q2 9 18 10
l78 7h3q12 0 20 -8q9 -9 7 -21l-8 -75q-3 -19 -13 -19q-5 0 -10 6q-8 6 -12 13q-6 10 -7 13l-2 7l-7 -5q-6 -2 -13 -12l-141 -155q-10 -10 -22 -10zM425 493q-23 0 -39 -16q-17 -17 -17 -38q0 -22 17 -39q16 -15 39 -15t39 15q16 16 16 39q0 22 -16 38t-39 16z" />
    <glyph glyph-name="icq" unicode="icq" 
d="M647 286l4 -5q14 -26 6 -58q-9 -31 -37 -46q-28 -14 -59 -4q-13 4 -22 9q6 -24 0 -45t-23 -32q-18 -11 -40 -5q-19 6 -38 27l-1 -4q-9 -33 -37 -46q-29 -14 -60 -5q-18 5 -31 15l-8 10q-6 9 -7 10q-15 29 -5 59l3 9l12 19q-21 -7 -47 -2q-12 1 -20 9q-5 2 -8 6l-5 7
q-10 19 -4 35q2 7 6 15q4 7 12 13l10 9l-5 1q-18 3 -30 15q-11 8 -16 17q-14 26 -2 53q10 28 39 43t59 8l16 -5l-5 7q-15 25 -10 56q4 28 26 41q19 10 40 4q25 -6 41 -31l6 -12l3 -5l1 5v1q0 15 12 27q14 12 26 19q29 14 60 6q31 -7 45 -32l2 -3q18 -28 7 -61l-7 -17l22 5
q5 1 16 1q7 0 17 -2q13 -5 17 -10q2 -4 19 -17v-1q0 -9 3 -18q4 -11 0 -21q-10 -25 -44 -41l12 -6q7 -2 11 -6q4 -3 10 -9zM438 442l7 -75q7 -3 19 -11l61 73l5 10q4 6 5 10l2 14q0 11 -5 23q-9 18 -31 22q-19 7 -38 -3q-8 -4 -16 -12q-7 -7 -9 -18l-1 -6zM322 473
q-1 -15 8 -35l3 -7l60 -64l10 3l-13 79q-2 8 -4 11l-4 10q-13 24 -31 28q-7 4 -15 0q-12 -7 -14 -25zM483 330l2 -4l83 10l11 2q8 2 11 4q25 10 32 28l1 7l-3 9q-6 12 -23 14q-21 2 -36 -5l-8 -3l-68 -56l-3 -3zM223 333q8 -15 26 -18l6 -1l98 12q3 10 10 20l-59 42l-18 8
q-20 5 -38 -6q-20 -8 -26 -28q-6 -16 1 -29zM389 269q13 -13 31 -13t31 13q8 7 11 15t3 17q0 17 -14 31q-12 12 -31 12q-18 0 -31 -12q-5 -5 -11 -15q-3 -7 -3 -16q0 -20 14 -32zM630 231l2 13q0 19 -10 29q-8 14 -25 19l-7 1l-27 -1l-76 -7l-2 -8l-5 -10l71 -57
q5 -8 18 -11q19 -7 38 3t23 29zM331 246l12 11q4 4 14 12l-2 5l-5 13l-54 -10q-9 -2 -20 -8q-24 -11 -28 -27l-1 -6l2 -7q5 -9 21 -10q19 -2 35 7l6 3zM514 153q1 18 -8 35l-4 6l-17 22l-29 28l-9 -4l-11 -4l10 -58l8 -22q12 -25 31 -29q10 -2 15 2q11 5 14 24zM411 137v26
q0 20 -3 38q-2 11 -4 35q-4 0 -10 2l-11 5l-57 -66q-6 -6 -10 -19l-3 -15q0 -4 2 -12l4 -11q7 -16 29 -22q21 -5 37 5q18 8 25 27z" />
    <glyph glyph-name="identica" unicode="identica" 
d="M626 268q8 -21 8 -41q0 -29 -15 -53q-14 -24 -39 -38l-23 -69l-45 60q-34 7 -57 36q-20 23 -22 59q-24 -9 -50 -9q-35 0 -60 13l-107 -35l28 115q-12 28 -12 62q0 32 12 60t33 49q19 20 48 34q27 12 58 12t59 -12q28 -14 48 -34q21 -22 32 -49q12 -28 12 -60
q0 -21 -4 -37h3q19 0 40 -8q17 -7 32 -22q13 -13 21 -33zM385 261q20 0 39 8q13 5 26 15q3 5 12 17l7 7q6 8 9 16q8 21 8 41q0 19 -8 40q-6 17 -22 34q-16 16 -32 22q-19 8 -39 8q-19 0 -40 -8q-17 -7 -32 -22q-14 -15 -21 -34q-8 -21 -8 -40q0 -23 7 -37l-23 -85l72 29
q20 -11 45 -11zM578 201q8 13 8 28q0 23 -16 38q-15 16 -37 16q-19 0 -30 -10q-4 -5 -14 -15l-2 -2q-6 -12 -6 -27q0 -20 12 -35t31 -18l20 -34l14 40q12 7 20 19z" />
    <glyph glyph-name="imessage" unicode="imessage" 
d="M425 534q50 0 91 -16q45 -17 75 -44q32 -27 50 -65q19 -37 19 -79q0 -43 -19 -80q-17 -35 -50 -65q-30 -27 -75 -44q-41 -16 -91 -16q-21 0 -41 3q-26 6 -39 10q-31 -22 -79 -22q-18 0 -33 3q19 1 35 14q15 13 19 32q-47 30 -71 71q-26 44 -26 94q0 42 19 79q18 38 50 65
q30 27 75 44q41 16 91 16z" />
    <glyph glyph-name="itunes" unicode="itunes" 
d="M665 401q21 -48 21 -102t-21 -102q-20 -48 -56 -83q-34 -36 -83 -57q-48 -20 -101 -20t-102 20q-48 21 -84 57q-35 35 -56 83q-20 49 -20 102t20 102q21 46 56 83q37 35 84 56q49 20 102 20t101 -20q48 -21 83 -56q37 -36 56 -83zM641 207q19 42 19 92t-19 92
q-18 42 -50 74q-31 31 -75 51q-42 18 -91 18t-92 -18q-43 -20 -74 -51t-51 -74q-18 -43 -18 -92t18 -92q20 -43 51 -75q32 -32 74 -50q42 -19 92 -19t91 19q43 18 75 50t50 75zM529 456v-233q2 -21 -11 -34q-13 -15 -31 -16q-20 -2 -33 10q-15 13 -16 31t11 34q14 17 32 18
q6 2 14 0q8 0 8 -2v125l-131 -30v-162q2 -21 -11 -34q-13 -15 -31 -16q-20 -2 -33 10q-15 13 -16 32q-2 20 10 34q14 17 32 18q6 2 14 0q9 0 9 -2v180z" />
    <glyph glyph-name="lastfm" unicode="lastfm" 
d="M468 239l-45 102q-11 28 -36 44q-26 17 -57 17q-19 0 -40 -8q-16 -6 -32 -22q-15 -15 -22 -33q-8 -19 -8 -39q0 -42 29 -73q31 -29 73 -29q29 0 53 15t37 40l18 -42q-20 -25 -48 -38q-30 -14 -60 -14q-28 0 -55 11q-24 10 -44 30q-19 20 -30 45q-11 27 -11 55q0 27 11 54
q11 26 30 45q20 20 44 30q27 11 55 11q43 0 77 -23q34 -22 52 -64l5 -12q1 -2 5 -10.5t6 -14.5l14 -33q3 -6 8 -18t8 -18q9 -20 21 -35q11 -12 38 -14q26 -2 42 12q16 13 16 34q0 20 -13 27q-15 9 -35 16q-42 13 -63 30t-21 49q0 31 20 51q22 20 56 20q45 0 68 -41l-30 -15
q-15 22 -40 22q-17 0 -27 -10t-10 -26q0 -21 18 -28q19 -9 44 -17q38 -12 54 -28q17 -17 17 -51q0 -35 -27 -58q-27 -24 -67 -24q-37 0 -58 18q-21 17 -35 49z" />
    <glyph glyph-name="linkedin" unicode="linkedin" 
d="M242 572q22 0 37 -15t15 -37t-15 -37q-15 -16 -37 -16t-37 16q-15 15 -15 37t15 37t37 15zM294 101h-104v340h104v-340zM589 420q31 -16 51 -52q20 -35 20 -70v-197h-105v197q0 8 -6 18q-5 9 -11 13q-8 5 -22 5q-15 0 -22 -4l-43 -21v-208h-105v340h105v-16q34 14 70 13
q40 -2 68 -18z" />
    <glyph glyph-name="meetup" unicode="meetup" 
d="M464 220q2 10 0 21l-1 19q-1 2 -1.5 6.5t-0.5 6.5v13l-6 1l-15 2q-8 0 -12 3q0 7 3 10q1 3 8 3l4 -1h4h9q2 14 1 23l-3 25q-4 31 -5 43q-1 20 5 41q1 -1 3 -1h1q12 0 17 -4q5 -3 11 -9q-3 -16 -3 -33q0 -24 1 -36q2 -18 2 -24q0 -15 -1 -22v-2h3q4 0 5 3v5q0 4 2 4
q4 -1 10 -5l8 -8l4 -5l4 -4l-9 -3q-4 -1 -12 -1q-5 0 -15 -2q-1 -19 0 -38v-29q-2 -1 -7 -1h-6h-4q-1 -1 -4 -1zM246 233q-6 17 -16 49q-8 24 -12 48q-4 -8 -6 -18q-1 -7 -1 -22l-1 -24q-2 -15 -5 -20l-2 1h-6q-2 -1 -6 -1q-3 -1 -12 -1h-5l-4 8q-5 7 -5 8l-9 14q-6 8 -9 13
q-2 -5 0 -13l2 -12q0 -8 -1 -13q-1 0 -4 -2t-5 -3q-10 -2 -15 -2h-5q-6 19 -8 46q0 33 1 52v21l12 3q4 1 13 1q5 0 6 -1q7 -9 11 -18l10 -21l6 -12l6 -11q7 28 11 48q6 26 19 42q0 -1 2 -1h1q8 0 10 -1l4 -1h6h4q7 -16 12 -39l10 -45q3 -11 7 -35q6 -22 10 -33q-1 1 -3 1
q-1 0 -9 -2l-7 -2q-1 -1 -3.5 -1.5t-3.5 -0.5zM672 148q-8 2 -11 2h-17q-2 5 -4 19l-3 23q-1 5 -2.5 15t-1.5 14q-3 12 -11 24l8 3q1 1 4 1l3 22q2 18 4 27q3 11 8 26t11 22q15 19 35 19q15 0 35 -12q10 -22 9 -41q-3 -16 -8 -30q-11 -20 -27 -35q-20 -15 -40 -19
q-3 -53 8 -80zM404 227q-14 0 -30 8q-15 7 -18 22q-2 63 36 93q17 -2 28 -11q0 -12 -1 -17l-2 -15q-1 -5 -3 -17q-2 -9 0 -21l-6 -1h-7h-10q-1 0 -5 1t-5 1q-4 -7 -3 -13q2 -8 4 -11q10 -12 22 -12t20 11q7 -3 9 -8q-10 -10 -29 -10zM700 344l-1 -1q-15 -15 -23 -40
q-4 -14 -11 -47q13 4 24 15q10 12 15 26q2 5 4 20q1 11 -7 26zM319 223q-9 0 -17 3q-18 8 -22 25q-4 15 -2 36q2 20 11 37q11 18 24 19h3q6 0 8 -1l7 -2l9 -3q2 -9 4 -31q1 -19 -3 -34q-1 1 -6 1h-2q-15 0 -27 3q-6 -22 2 -35q5 -6 11 -8h3q3 0 13 2t12 2q7 0 11 -6
q-5 -2 -19 -6q-14 -2 -20 -2zM562 228q-12 0 -19 9q-19 21 -13 87q5 -1 11 -3l10 -5q3 -3 6 -4v-9q0 -8 1 -12q0 -24 3 -48q18 8 21 29q3 13 5 41v8q0 -1 2 -1h2q8 0 12 -4l11 -7q2 -17 -3 -28q-4 -10 -10 -20q-1 -1 -3 -5q0 -2 -2 -4l-8 -8l-6 -9l-2 -3q-7 -4 -18 -4z
M393 318l-2 -5q0 -1 -0.5 -2.5t-1.5 -2.5l-5 -11q-2 -8 -2 -14q2 -3 7 -3h4q3 8 3 19q1 8 -1 19l-1 4zM308 289l1 -1h2l1 -1h3h1l2 1q2 10 1 14q0 6 -2 16q-11 -12 -12 -28v-1h3z" />
    <glyph glyph-name="metacafe" unicode="metacafe" 
d="M486 165l-8 -24q-8 -26 -13 -39l-275 198h274l84 255l106 -314h-67q-2 0 -8 18l-14 40q-13 43 -17 59q-4 -16 -17 -59l-13 -40q-6 -18 -8 -18h-125q29 -21 45 -34q14 -11 34 -26zM506 170l-69 52h85l26 80l27 -80h85l-69 -52l26 -86l-69 53l-69 -53z" />
    <glyph glyph-name="mixx" unicode="mixx" 
d="M407 221q-1 0 -6 6q-2 2 -8 16l-99 277q-3 8 2 19q5 9 14 12q2 1 8 1q19 0 23 -19l67 -285q3 -12 2 -19q0 -7 -3 -8zM565 264l1 -6v-6q0 -32 -12 -59q-12 -28 -32 -48q-19 -21 -47 -33q-29 -12 -59 -12q-46 0 -81 25q-36 24 -54 63q14 -47 53 -77q38 -30 88 -30
q30 0 57 12q27 11 47 32q20 20 32 47q11 28 11 58q0 21 -4 34zM425 182q-13 -6 -34 -8q-18 -2 -32 3q11 -5 21 -8q9 -4 24 -4q32 0 55 20q22 19 23 47q-6 -13 -22 -29q-15 -13 -35 -21zM428 139q-31 -4 -59 3q-27 7 -48 25q18 -21 41 -31q25 -11 53 -11q42 0 74 23
q31 24 42 59q-13 -25 -41 -45q-28 -19 -62 -23z" />
    <glyph glyph-name="mobileme" unicode="mobileme" 
d="M625 304q23 -8 41 -22q20 -15 20 -46q0 -17 -7 -32q-8 -19 -19 -33q-10 -15 -27 -24q-16 -10 -34 -10h-348q-17 0 -34 9q-14 6 -28 22q-11 12 -19 32q-7 17 -7 36t8 33q8 13 21 22q12 8 27 13q13 4 27 4q10 0 13 -1v5q0 34 21 58q22 24 52 24q16 0 29 -7q16 -9 25 -19
q10 36 44 60q34 23 75 23q25 0 48 -9q24 -11 39 -26q17 -17 27 -37q10 -21 10 -46q0 -10 -1 -15q0 -2 -1 -7t-2 -7z" />
    <glyph glyph-name="mrwong" unicode="mrwong" 
d="M526 205l16 -11q7 -4 14 -16q6 -10 9 -30q3 -16 1 -48q-1 -17 -6 -28q-4 -9 -10 -11q-6 0 -10 9q-4 8 -4 28q-2 44 -10 61q-7 17 -26 19h-19q-8 1 -27 1v-52q0 -27 -1 -34q0 -11 -5 -19q-4 -5 -11 -7q-5 -2 -10 3q-4 4 -4 13v97h-33q-17 0 -20 -1q-12 -2 -26 -23
q-13 -20 -10 -64q1 -15 -4 -24q-4 -7 -10 -7t-11 8q-4 7 -4 24q-2 15 0 29l2 24q1 12 5 21q6 15 26 31q18 15 51 17h34v64q-19 1 -39 12q-19 9 -23 31q0 2 -1.5 12t-2.5 16l-3 35q-20 0 -31 -1q-10 -1 -29 -1h-25q-11 0 -14 1q-5 2 -6 7q-2 5 0 11q2 7 6 11q5 5 10 5
q18 2 39 2l48 -1q-2 40 -2 55q2 29 2 30q2 11 6 20t12 7t14 -11q7 -9 4 -35l-2 -29q-1 -6 -1.5 -19t-0.5 -19h96v87q0 9 9 17q8 7 16 -7q2 -5 3 -14l3 -24q1 -9 1 -29l1 -30q29 0 40 -1q19 0 22 -1q16 -2 24 -4q9 -2 9 -11q0 -5 -4 -8q-1 0 -3 -1t-4.5 -2t-4.5 -1
q-2 -1 -8 -1t-8 -1h-15h-17l-30 -1v-25l-1 -15q-1 -18 -11 -39q-11 -18 -31 -24l-7 -1q-7 -2 -12 -3v-27q1 -11 1 -37q27 -2 44 -3q20 -1 29 -7zM384 385q2 -29 5 -41q5 -19 12 -23q10 -6 23 -7q10 -1 26 1q12 3 21 9q9 8 9 17v45l-53 -1h-43zM660 227q2 -7 -3 -9
q-4 -2 -9 -2l-12 2q-5 1 -13 3q-13 3 -17 5l-23 10q-2 1 -23 10q-3 1 -6 2.5l-5 2.5t-3 1l-10 2q-4 1 -12 5q-6 4 -8 7q-2 4 0 12q5 11 16 10q11 0 41 -11l29 -13q15 -6 27 -12q13 -6 21 -12q9 -6 10 -13zM212 201q-16 -5 -21 0q-3 4 -1 12q4 9 12 19l45 19q12 5 34 15
l25 10q10 4 17 6q5 1 18 4q8 2 10 -3q3 -4 -6 -14q-9 -12 -24 -22q-14 -10 -34 -19q-13 -6 -39 -16q-11 -4 -36 -11z" />
    <glyph glyph-name="msn" unicode="msn" 
d="M697 426q-1 -20 -7 -62q-5 -29 -17 -60q-7 16 -23 30q-15 12 -38 23q-19 9 -47 16q-28 5 -51 5q-48 0 -89 -21q-1 3 -4 6q8 29 32 64q24 33 51 59q30 29 57 47q30 19 53 24l8 2h8q21 0 37 -16q17 -17 24 -48t6 -69zM389 346q-11 -1 -27 -11q-13 -8 -31 -32
q-13 -19 -16 -42q-4 -21 -1 -43q-31 24 -63 65q-45 62 -61 90q-22 36 -29 56q-9 22 -8 30q0 9 1 10q2 3 10 3q10 0 30 -5q11 -4 37 -14q20 -9 40 -20q4 -2 38 -22l42 -28q20 -14 37 -34q0 -2 1 -3zM422 258q-12 26 -19 53t-8 41q-2 10 -2 13v10l1 3v3l2 3q2 0 6 -4t12 -17
q12 -20 19 -33q9 -18 24 -53q16 -40 20 -67q5 -33 6 -47v-8q-7 5 -24 30q-20 30 -37 73zM589 218l-14 -1q-5 -1 -15 -1q-39 0 -58 10q-22 11 -25 13l-6 20q-2 3 -4.5 10t-3.5 10q-2 5 -16 36l-15 30q35 20 82 20q21 0 48 -5q25 -7 43 -15q21 -10 35 -21q15 -12 21 -26
q1 -1 3 -5q0 -2 2 -6q-13 -27 -32 -46q-18 -18 -45 -23zM391 184q-10 0 -27 5q-15 4 -35 18q-5 23 -3 45q1 21 16 44q15 21 27 28q12 8 22 9q0 -1 4 -15t6 -22q7 -21 15 -41l8 -20l9 -18q-4 -9 -12 -19q-7 -9 -18 -12q-6 -2 -12 -2zM522 130q-17 12 -32 35l-2 25q-1 9 -7 31
q9 -5 31 -12q20 -6 48 -6l16 1q10 0 15 1q27 5 46 21q20 17 33 41q3 -21 0 -43q-3 -24 -10 -42q-9 -26 -17 -38q-12 -18 -21 -29q-12 -14 -20 -17q-7 -4 -13 -4q-11 0 -27 10q-11 6 -40 26zM474 148q2 -11 0 -25l-4 -27q-1 -10 -5 -22q-3 -10 -6 -11q-1 -1 -4 -1
q-14 0 -27 10q-13 9 -28 24q-18 18 -25 27q-11 12 -18 23q-13 15 -22 42q31 -18 56 -18q9 0 17 3q10 5 19 13q6 6 13 18q10 -18 18 -29q7 -11 15 -19l1 -4v-4z" />
    <glyph glyph-name="myspace" unicode="myspace" 
d="M520 401q-29 0 -50 21t-21 50t21 50q22 20 50 20t50 -20q20 -22 20 -50t-20 -50q-21 -21 -50 -21zM383 418q-23 0 -38 15q-16 16 -16 39t16 38q15 16 38 16t39 -16q15 -15 15 -38q0 -22 -15 -39q-16 -15 -39 -15zM279 431q-17 0 -29 12t-12 29t12 29t29 12t29 -12t12 -29
t-12 -29t-29 -12zM522 374q21 0 38 -7t31 -21q16 -16 22 -31q8 -18 8 -37v-180h-209v105h-104v78h-79v81q0 20 15 35t36 15q16 0 30 -11t18 -27q21 26 56 26q25 0 44 -16q18 -14 26 -38q14 14 31 21q15 7 37 7z" />
    <glyph glyph-name="newsvine" unicode="newsvine" 
d="M399 147l-63 47q-8 -5 -17 -5q-16 0 -27 11q-10 10 -10 26t10 26q11 11 27 11q14 0 25 -11t11 -26l-1 -3v-3l45 -34v110l-63 47q-8 -5 -17 -5q-16 0 -27 11q-10 10 -10 26t10 26q11 11 27 11q14 0 25 -11t11 -26l-1 -3v-3l45 -34v104l-64 46q-7 -4 -16 -4q-16 0 -27 11
q-10 10 -10 26t10 26q11 11 27 11q14 0 25 -11t11 -26l-1 -3v-4l45 -33v82h52v-156l44 33l-1 3v2q0 16 10 26q11 11 27 11q15 0 26 -11t11 -26t-11 -26t-26 -11q-10 0 -18 5l-62 -45v-103l44 33l-1 2v2q0 17 10 27t27 10q16 0 26 -10q11 -11 11 -27q0 -15 -11 -26t-26 -11
q-10 0 -19 6l-61 -46v-109l44 33l-1 2v2q0 16 10 26q11 11 27 11q15 0 26 -11t11 -26q0 -16 -10 -26q-11 -11 -27 -11q-10 0 -19 6l-61 -45v-37h-52v110z" />
    <glyph glyph-name="paypal" unicode="paypal" 
d="M285 523h215q24 0 48 -9q26 -11 41 -28q19 -21 26 -47q8 -29 0 -67q-8 -36 -23 -60t-40 -46q-21 -17 -53 -29q-31 -11 -62 -11h-90l-31 -124h-127zM496 387q7 25 -6 44q-14 18 -36 18h-62l-27 -124h59q25 0 45 19q23 18 27 43zM635 419q14 -17 22 -43q7 -24 -1 -61
q-8 -35 -23 -61q-17 -30 -41 -49q-24 -21 -53 -33t-62 -12h-90l-30 -132h-127l5 25h107l30 132h91q32 0 62 12q28 10 53 32q25 24 40 49q15 26 23 61q5 29 4 45t-10 35zM391 276h20l22 99h62q16 0 28 -9q-5 14 -15 24q-10 9 -28 9h-62z" />
    <glyph glyph-name="photobucket" unicode="photobucket" 
d="M519 456h141q11 0 19 -8q7 -7 7 -19v-261q0 -12 -7 -19t-19 -7h-141q-44 -26 -94 -26q-53 0 -94 26h-141q-12 0 -19 7q-8 8 -8 19v261q0 11 8 19t19 8q0 11 8 19q7 7 18 7h52q12 0 19 -7t7 -19h37q17 11 44 19q22 7 50 7t50 -7q26 -9 44 -19zM404 143q3 -1 10 -1h21
q8 0 11 1q1 1 5 1l10 2q1 0 5 1t5 2q13 3 19 7l2 1q1 0 2 1l9 5q1 0 8 5q32 21 51 55q20 35 20 76q0 40 -20 75q-19 34 -51 55l-8 6q-1 1 -4 2t-5 2q-2 2 -4 2l-10 4q-2 1 -5 2t-4 2l-20 4h-3l-2 1q-3 1 -11 1l-10 1q-7 0 -11 -1l-10 -1q-2 0 -3 -1h-2q-1 -1 -5 -1t-5 -1
q-4 0 -10 -2l-20 -8q-1 0 -3 -2l-9 -4l-9 -6q-32 -21 -51 -55t-19 -75q0 -42 19 -76t51 -55l9 -5q6 -4 9 -5l2 -1l1 -1q6 -3 20 -7q6 -3 20 -5q4 0 5 -1zM555 299h-26q0 44 -30 74t-74 30v26q29 0 50 -10q25 -11 42 -28t28 -41q10 -23 10 -51zM190 168h107q-27 27 -41 59
q-14 36 -14 72t14 72q14 31 41 58h-107v-261zM660 429h-107q28 -28 40 -58q15 -35 15 -72t-15 -72q-12 -31 -40 -59h107v261z" />
    <glyph glyph-name="picasa" unicode="picasa" 
d="M531 536v-175q0 2 -14 16q-13 13 -36 33l-47 42q-7 6 -23 20.5t-24 21.5l-37 33q-3 3 -6.5 6t-5.5 4.5t-4 2.5l-1 2q46 17 91 17q28 0 58 -6q29 -6 49 -17zM164 297q0 -12 2 -34q3 -14 8 -34l2 2q3 2 7.5 6t9.5 9l43 39q17 16 55 50l54 50q7 6 42 38l19 17l-2 2
q-2 2 -6.5 5.5t-8.5 7.5l-33 30q-18 17 -33 30l-16 15q-66 -34 -105 -96q-38 -62 -38 -137zM557 219h116q7 19 9 40q3 19 3 42q0 68 -35 126q-34 58 -93 94v-302zM295 74v225q-22 -21 -53 -48l-37 -34l-9 -9l-6 -6l-3 -2q17 -39 42 -72q27 -32 66 -54zM321 193v-135
q39 -17 81 -22h48q69 8 125 43q56 36 86 114h-340z" />
    <glyph glyph-name="pinterest" unicode="pinterest" 
d="M407 159q-4 3 -7 9q-3 8 -8 3q-9 -36 -21 -75q-12 -38 -29 -68h-32v1q-3 13 -1 39q2 25 3 38q3 19 9 38l13 42q8 21 12 42q4 19 4 39q0 14 -5 32t-2 34q1 16 14 30q10 13 26 21q14 8 28 3q15 -3 22 -21q9 -21 3 -44l-15 -45q-9 -26 -11 -41q-3 -19 13 -34q6 -5 21 -10
q14 -3 28 0q21 4 38 21q14 14 26 40q9 22 12 50q2 32 -2 53q-5 27 -15 46q-12 22 -30 32q-42 23 -80 19q-40 -4 -71 -25q-33 -22 -50 -55q-18 -34 -14 -70q2 -16 8 -26q6 -9 12 -22q4 -9 4 -21q-2 -11 -14 -22q-36 13 -52 40q-17 26 -15 68q0 44 20 79q21 37 52 58
q31 23 75 34q42 10 88 6q31 -3 57 -16q28 -12 48 -31q23 -21 35 -44q13 -23 16 -50q3 -24 0 -50q-2 -21 -11 -50q-7 -25 -21 -46q-14 -22 -31 -36q-12 -11 -31 -18q-22 -8 -40 -11q-19 -3 -42 -1q-20 3 -37 15z" />
    <glyph glyph-name="podcast" unicode="podcast" 
d="M425 456q-48 0 -90 -15q-40 -14 -73 -41q-32 -27 -51 -64q-19 -38 -21 -81v9q0 46 19 85q18 38 50 69t75 47q43 17 91 17q47 0 92 -17q42 -16 74 -47q31 -30 51 -69q18 -41 18 -85v-9q-2 43 -21 81q-20 38 -50 64q-32 26 -74 41t-90 15zM425 377q-31 0 -56 -9
q-28 -9 -47 -24q-21 -18 -32 -38q-13 -23 -14 -50v8q0 28 12 54q10 23 32 44q19 19 47 30t58 11t58 -11t47 -30q21 -21 32 -44q12 -26 12 -54q0 -6 -1 -8q-1 27 -14 50q-11 20 -32 38q-19 14 -46 24q-25 9 -56 9zM425 257q-20 0 -33 13q-14 12 -14 30q0 17 14 31
q14 12 33 12t33 -12q13 -13 13 -31t-13 -30q-13 -13 -33 -13zM425 64q-29 0 -49 35t-20 83q0 24 5 39q5 12 15 20q10 5 22 7q9 1 27 1t26 -1q14 -2 22 -7q10 -7 16 -20q5 -15 5 -39q0 -48 -20 -83t-49 -35z" />
    <glyph glyph-name="posterous" unicode="posterous" 
d="M250 34v395q0 45 -1 64l-2 56h54l4 -65h5l3 2q41 71 132 71q34 0 64 -14q29 -14 50 -38q22 -26 33 -59q11 -36 11 -77q0 -53 -15 -90q-15 -38 -39 -62q-23 -25 -54 -37t-62 -12q-39 0 -67 16q-31 15 -47 42l-1 2h-6l-1 -4v-190h-61zM424 510q-39 0 -69 -24
q-30 -25 -40 -64q-4 -15 -4 -28v-66q0 -17 3 -29q11 -39 40 -61q29 -23 67 -23q54 0 87 41q32 41 32 109q0 30 -8 59q-10 27 -24 46q-17 20 -37 30q-21 10 -47 10z" />
    <glyph glyph-name="qik" unicode="qik" 
d="M435 429h11q16 -3 19 -15q5 -14 -2 -22q-8 -8 -16 -12q-13 -5 -25 -2q-14 5 -15 16q-5 17 5 24q7 6 23 11zM587 298q3 -5 9 -17q4 -9 11 -17q7 -10 13 -15q7 -6 20 -9q-2 -9 -9 -15q-8 -6 -17 -9q-10 -3 -20 -2q-11 2 -18 7q-8 5 -13 14l-10 18q-8 12 -11 18l-10 16
q-2 -11 -6 -35q-1 -19 -6 -37l-21 1q-11 0 -18 3q-6 2 -11 9q-5 6 -3 17q0 5 3 28l8 50l9 54l7 42q0 2 1 2q27 2 39 -2q16 -4 14 -28q-1 -11 -7 -44q-5 -24 -6 -42q9 7 16 16l14 16l15 15l8 8q4 4 10 6q12 4 28 3q22 -2 34 -1l-15 -15l-22 -20q-3 -3 -11 -10t-11 -10
q-4 -4 -8.5 -9t-5.5 -6zM309 373q30 -2 47 -20q16 -18 15 -52q-1 -11 -5 -33t-5 -33l-6 -33q0 -5 -1.5 -16.5t-2.5 -17.5h-27q-12 0 -18 7q-4 6 -6 15t0 20l4 20q-6 -4 -9 -7q-6 -6 -10 -7l-9 -3l-8 -2q-38 -5 -59 17q-21 19 -19 51q2 22 8 35q8 15 18 26q12 14 37 26
q21 9 56 7zM403 362v2q22 0 31 -1q16 -2 20 -11q3 -8 2 -16l-2 -18q-2 -8 -4 -26t-4 -26l-8 -50q-15 -2 -30 0q-14 2 -20 9q-4 5 -4 16q1 7 3 19l8 53q1 7 3.5 24t4.5 25zM297 259q7 5 11 15q4 9 6 20q1 10 0 20q-2 10 -9 14l-4 2q-4 1 -7 2q-6 2 -11 0q-10 -2 -17 -6
q-6 -5 -11 -14t-6 -19q-1 -11 0 -21t10 -15q11 -5 20 -4q12 1 18 6z" />
    <glyph glyph-name="quora" unicode="quora" 
d="M634 311q-1 -55 -29 -102q-27 -46 -71 -75q11 -16 21 -23q9 -6 18 -10q7 -4 16 -2v-37q-15 -8 -31 -9q-14 -2 -29 3q-17 4 -30 21q-13 16 -22 31q-29 -9 -60 -9q-41 0 -80 17q-38 17 -65 45t-42 68q-16 35 -14 82q2 45 19 83q19 39 48 67q30 30 68 46q36 16 81 16t81 -16
q37 -16 65 -46q26 -28 42 -67q15 -40 14 -83zM537 315q1 31 -6 60q-7 27 -22 50q-13 21 -33 33q-19 13 -42 13q-24 0 -43 -13q-20 -13 -35 -33t-25 -50q-9 -25 -11 -60q-1 -29 7 -61q7 -28 21 -49q13 -20 33 -34q19 -12 42 -12q14 0 26 5l-4 9q-5 7 -5 8q-6 7 -12 12
q-5 2 -13 4q-5 1 -13 -1v37q18 6 33 5q15 -2 31 -9q18 -8 31 -30q19 25 28 51q10 30 12 65z" />
    <glyph glyph-name="reddit" unicode="reddit" 
d="M574 441q-26 0 -44 19q-18 20 -18 45t18 45q18 19 44 19t44 -19q17 -20 17 -45t-17 -45q-18 -19 -44 -19zM447 522l78 -17q0 10 5 22l-89 21q-7 0 -9 -2q-5 -3 -5 -8l-18 -118q0 -13 10 -14h2q10 0 11 10zM574 543q-14 0 -25 -11t-11 -27t11 -27t25 -11q15 0 26 11
q10 10 10 27t-10 27q-11 11 -26 11zM421 98q-49 0 -88 13q-41 13 -73 36q-30 21 -49 53q-18 30 -18 65q0 34 18 64q17 30 49 53t73 36q39 13 88 13t89 -13q40 -14 72 -36q31 -23 48 -53q18 -30 18 -64q0 -35 -18 -65q-19 -31 -48 -53q-32 -23 -72 -36t-89 -13zM214 307
q-10 5 -18 15q-8 11 -8 23q0 17 13 29q13 11 29 11q20 0 33 -16l21 15q-9 12 -23 20q-13 7 -31 7q-28 0 -47 -19q-20 -20 -20 -47q0 -21 12 -38q13 -18 32 -25q1 12 7 25zM619 411q-17 0 -33 -8q-14 -9 -24 -23l10 -6q1 -1 5 -3.5t6 -4.5q5 8 14 14q12 5 22 5q16 0 29 -11
q13 -12 13 -29q0 -16 -10 -26q-9 -11 -23 -14l4 -12q2 -8 3 -13q22 4 36 23q15 18 15 42q0 28 -19 47t-48 19zM421 405q-40 0 -79 -11q-36 -10 -65 -30q-27 -20 -43 -44q-16 -25 -16 -55q0 -29 16 -54q17 -26 43 -45q29 -20 65 -30q39 -11 79 -11t78 11q37 10 64 30
q27 18 44 45q16 25 16 54q0 30 -16 55t-44 44q-27 20 -64 30q-38 11 -78 11zM535 304q0 -14 -9 -21q-8 -9 -20 -9t-21 9q-9 7 -9 21q0 13 9 22q10 8 21 8q12 0 20 -8q9 -9 9 -22zM371 304q0 -14 -9 -21q-8 -9 -20 -9t-21 9q-9 7 -9 21q0 13 9 22q10 8 21 8q12 0 20 -8
q9 -9 9 -22zM500 218q-9 -9 -28 -15q-13 -4 -23 -5q-16 -2 -26 -2t-26 2q-9 1 -22 5q-20 7 -28 15q-9 9 -18 0q-4 -4 -4 -9q0 -6 4 -10q10 -10 17 -13q14 -6 22 -9t26 -5t29 -2q35 0 56 7q24 7 39 22q4 4 4 10q0 5 -4 9q-9 9 -18 0z" />
    <glyph glyph-name="retweet" unicode="retweet" 
d="M503 143h-235q-10 0 -18 8t-8 18v157h-79l131 131l131 -131h-79v-105h79zM346 457h236q12 0 19 -6t7 -17v-160h78l-131 -131l-130 131h78v104h-78z" />
    <glyph glyph-name="rss" unicode="rss" 
d="M190 437v98q99 0 183 -37q85 -38 149 -101q63 -63 101 -150q37 -84 37 -183h-98q0 76 -29 145q-30 67 -80 119q-52 51 -118 80q-69 29 -145 29zM190 256v96q61 0 112 -22t91 -62t62 -91t22 -113h-96q0 40 -15 75t-41 61t-61 41q-34 15 -74 15zM242 169q22 0 37 -15
q15 -16 15 -37q0 -22 -15 -37q-15 -16 -37 -16t-37 16q-15 15 -15 37q0 21 15 37q15 15 37 15z" />
    <glyph glyph-name="scribd" unicode="scribd" 
d="M483 158q0 -26 14 -52l-6 -6q-2 -3 -6 -7q-41 -41 -100 -41q-57 0 -101 32q-45 34 -67 97l1 1q-2 10 -2 14q0 22 15 39q15 15 37 15t37 -15q15 -17 15 -39q0 -23 -16 -39q31 -37 79 -37q35 0 57 21t22 53q0 20 -12 39q-8 12 -13 17q-10 10 -16 14q-19 14 -56 29
q-40 17 -59 30q-14 10 -20 15q-11 11 -16 17q-10 12 -13 19l-9 18q-4 12 -5 19q-2 14 -2 21q0 50 40 86q39 36 95 36q34 0 76 -17q31 -14 54 -40q18 -17 18 -40t-15 -39t-37 -16t-37 16t-15 39q0 14 4 22q-18 8 -42 8q-36 0 -55 -16q-21 -15 -21 -40q0 -22 19 -38
q18 -16 62 -36q46 -20 68 -36q13 -7 22 -18q11 -10 18 -19q17 -21 24 -43q0 -2 1 -3q-16 -13 -27 -34q-10 -20 -10 -46zM634 158q0 -26 -18 -44q-16 -18 -42 -18t-44 18q-17 19 -17 44t17 45q18 18 44 18t42 -18q18 -19 18 -45z" />
    <glyph glyph-name="sharethis" unicode="sharethis" 
d="M577 231q35 0 59 -24q24 -25 24 -60q0 -34 -24 -58q-24 -25 -59 -25t-59 25q-24 24 -24 58q0 4 1 5l-169 85q-23 -20 -53 -20q-35 0 -59 24t-24 59t24 59t59 24q13 0 28 -5q16 -7 25 -15l169 84q-1 1 -1 5q0 35 24 59t59 24t59 -24t24 -59t-24 -59t-59 -24q-30 0 -53 20
l-169 -85v-2q1 -1 1 -2l-1 -3v-2l169 -84q23 20 53 20z" />
    <glyph glyph-name="skype" unicode="skype" 
d="M380 541q62 6 107 -8q42 -13 77 -43q19 -16 24 -34q6 -17 2 -30q-3 -13 -13 -23q-10 -8 -22 -10q-12 -1 -25 9l-30 26q-20 16 -37 26q-19 11 -47 13q-27 0 -49 -13q-21 -12 -29 -29q-7 -16 2 -33q11 -18 44 -25l68 -16q37 -8 63 -19q31 -11 53 -30q24 -19 37 -50
q13 -30 5 -63q-9 -31 -31 -56t-56 -42q-35 -17 -71 -18q-40 -2 -65 1q-29 3 -50 10t-39 20q-16 11 -34 27q-17 16 -24 34q-6 17 -3 31q3 16 13 24q9 9 25 11q13 1 26 -7t22 -17q11 -10 18 -19t16 -15q4 -3 25 -12q16 -6 38 -9q20 -2 41 3q20 4 36 23q17 20 14 35
q-5 16 -19 26q-16 12 -37 17q-20 7 -43 10q-34 5 -60 14q-28 9 -57 28q-25 17 -40 42q-15 24 -12 56q3 33 16 56q12 25 31 41q19 17 42 26q22 11 48 12z" />
    <glyph glyph-name="slashdot" unicode="slashdot" 
d="M242 87l183 418h104l-183 -418h-104zM542 217q28 0 47 -19t19 -46t-19 -46t-47 -19q-27 0 -46 19t-19 46t19 46t46 19z" />
    <glyph glyph-name="slideshare" unicode="slideshare" 
d="M352 349q-23 0 -40 17t-17 41q0 25 17 42t40 17t40 -17q16 -16 16 -42q0 -25 -16 -41q-17 -17 -40 -17zM505 349q-22 0 -39 17t-17 41q0 25 17 42t39 17q23 0 40 -17q16 -16 16 -42q0 -25 -16 -41q-17 -17 -40 -17zM685 372q1 -1 1 -8q0 -4 -8 -22q-10 -21 -31 -36
q-14 -8 -44 -24l-13 -6q-7 -3 -14 -7l-1 -1v-87q0 -3 -3 -17q-2 -11 -11 -28q-8 -14 -22 -25t-35 -11q-20 0 -35 5q-16 6 -24 13q-9 8 -12 15q-4 7 -4 13v82q-10 2 -17 6l-3 2v-90q0 -10 -14 -21t-34 -11q-11 0 -24 6q-18 10 -26 17q-13 10 -22 22t-9 22v95h-2q-21 7 -40 18
q-11 5 -31 17q-15 11 -21 18l-5 5q-11 14 -15 21t-1 16l1 1q4 0 15 -6l20 -12q9 -6 29 -18q17 -8 27 -11q27 -5 54 -8q31 -3 54 -3h11q18 0 28 -7q9 -5 19 -15l6 -5v14q0 7 17 12q15 4 31 4h83q6 0 19 4q9 3 31 11l33 15q12 6 22 16q11 11 16 11q2 0 4 -2z" />
    <glyph glyph-name="smugmug" unicode="smugmug" 
d="M378 519q0 -14 -13 -24q-14 -11 -34 -11t-34 11t-14 24q0 15 14 26q13 10 34 10t34 -10t13 -26zM543 555q-20 0 -33 -10q-14 -11 -14 -26q0 -13 14 -24t33 -11q20 0 34 11q13 10 13 24q0 16 -13 26t-34 10zM634 413h-403q-4 -1 -8 -4l-8 -8l-8 -14q-22 -45 -26 -97
q-5 -54 13 -99q19 -45 63 -77q44 -31 123 -31q54 0 93 19q43 20 74 48q33 32 55 65q23 35 39 68q14 34 21 58t7 34q0 13 -6 21q-4 6 -12 11q-7 4 -17 6zM380 130q-9 0 -35 2q-18 3 -36 9q-17 7 -34 18q-17 12 -27 30q-12 20 -17 43q-5 28 -4 48q2 26 7 46q8 24 16 40h370
q-1 -4 -11 -34q-6 -17 -22 -48q-13 -26 -33 -54t-45 -50q-26 -23 -58 -36q-33 -14 -71 -14z" />
    <glyph glyph-name="soundcloud" unicode="soundcloud" 
d="M414 195v190q13 12 34 20t40 8q42 0 74 -29q32 -28 36 -69l11 3q8 2 14 2q27 0 43 -19q18 -18 18 -44q0 -24 -15 -42q-15 -19 -48 -20h-207zM338 374h8q11 0 14 -1v-178h-22v179zM394 361q4 7 10 13v-179h-33v176q15 -3 23 -10zM295 195v164q9 7 21 11v-175h-21zM251 302
l5 -2q3 22 17 39v-144h-22v107zM208 307l7 1q3 1 9 1h5v-114h-5h-9q-1 1 -3.5 1.5t-3.5 0.5v110zM165 252q0 26 21 44v-87q-21 17 -21 43z" />
    <glyph glyph-name="spotify" unicode="spotify" 
d="M656 465q0 -13 -9 -20q-7 -9 -20 -9l-3 1h-3q-43 17 -99 29q-47 10 -104 10q-56 0 -105 -10q-56 -12 -98 -29l-3 -1h-3q-12 0 -20 8q-8 10 -8 21q0 17 13 24q58 22 108 31q58 11 116 11q56 0 114 -11q50 -9 108 -31q16 -7 16 -24zM617 379q7 -7 7 -14l-4 -12
q-6 -8 -16 -8l-3 1h-2q-39 17 -87 28q-43 10 -94 10q-96 0 -180 -37q-1 -1 -6 -1q-10 0 -16 8l-4 11q0 7 7 14q52 22 95 31q52 11 104 11q51 0 103 -11q45 -9 96 -31zM245 268q-5 11 0 17l7 7q37 16 80 27q39 10 86 10q42 0 85 -8q42 -9 78 -28q5 -1 10 -9t0 -16
q-7 -16 -24 -8q-36 16 -71 24q-40 8 -78 8q-83 0 -152 -34q-6 -2 -10 -1q-7 1 -11 11zM427 236q41 0 82 -11q36 -11 73 -32q32 -20 60 -50q25 -28 44 -64q-28 -27 -68 -27h-46q-24 34 -62 54t-83 20q-44 0 -82 -20t-62 -54h-65q-29 0 -55 17q15 34 44 68q25 28 62 52
q32 21 74 35q41 12 84 12z" />
    <glyph glyph-name="squidoo" unicode="squidoo" 
d="M658 231q5 -36 -6 -68q-10 -29 -31 -55q-22 -24 -47 -37q-26 -14 -51 -14q-47 0 -83 17q-35 16 -55 64q-7 15 -7 36q0 14 -2 34q-3 16 -13 26q-11 11 -37 10l-71 -4q-37 -2 -66 6v55q0 -4 6 -7q3 -1 11 -3q19 -2 41 1q23 2 45 6q38 7 52 10q-35 13 -58 31q-20 15 -45 43
q-21 24 -31 64l-5 21q-4 12 -6 17q10 16 25 28l9 -30q3 -14 9 -28q5 -14 14 -25q9 -12 25 -19q24 -10 39 -14q15 -5 31 -9q13 -4 28 -4q-2 27 -5 40q-5 19 -12 34t-25 25q-9 5 -31 19q-16 11 -33 27q4 0 6 -1t7 -1h41q34 -15 53 -32q22 -19 35 -38q15 -22 20 -35
q7 -15 7 -24q18 13 30 30q12 16 17 29q4 16 -3 31q-7 14 -20 27q-12 12 -26 12h54q16 -7 26 -19t15 -26q4 -12 2 -31q-1 -15 -9 -29q-21 -39 -25 -58q-5 -23 21 -24l32 -4q21 -5 42 -15q21 -11 38 -32q18 -23 22 -57zM605 174q7 18 7 38q-2 21 -8 35q-9 19 -20 29
q-14 12 -31 18t-36 4q-16 -1 -34 -11q-17 -9 -29 -24q-12 -13 -20 -34q-8 -19 -6 -39q0 -21 7 -36q8 -17 20 -28q14 -12 31 -18t36 -4q19 3 35 12q13 7 29 23q11 13 19 35zM551 243q13 -4 22 -16q8 -11 8 -26q0 -17 -11 -31q-10 -12 -28 -12q-17 0 -29 12q-11 14 -11 31
q0 9 3 16q6 -1 18 -1q9 2 15 6q9 5 13 21z" />
    <glyph glyph-name="stackoverflow" unicode="stackoverflow" 
d="M599 607l88 -190l-47 -22l-89 190zM490 544l129 -165l-41 -32l-129 165zM399 458l162 -131l-33 -41l-162 132zM329 354l188 -91l-23 -47l-188 91zM215 35v235h-52v-288h418v288h-52v-235h-314zM284 237l204 -47l-12 -51l-203 47zM267 113h209v-52h-209v52z" />
    <glyph glyph-name="star" unicode="star" 
d="M203 360l-1 1q-18 20 -11 35t34 15h117l55 116q10 25 27 25q18 0 28 -25l56 -116h116q28 0 34 -15q7 -15 -11 -35l-1 -1l-88 -108l45 -131q9 -26 -2 -35q-12 -10 -36 2l-140 70l-140 -70q-26 -12 -36 -2q-11 9 -2 35l45 131z" />
    <glyph glyph-name="stumbleupon" unicode="stumbleupon" 
d="M584 131h-34q-18 0 -36 9q-16 8 -32 23q-14 14 -23 32q-8 19 -8 36v121q0 9 -2 11l-4 1q-8 2 -17 2h-143q-8 -7 -11 -16l6 -5q5 -5 13 -9l65 -26q27 -16 43 -43q18 -29 18 -55q0 -17 -7 -30q-8 -17 -19 -26q-12 -12 -28 -18q-15 -7 -34 -7h-168v78h168q3 0 5 2l4 3l-7 14
q-4 7 -13 14l-65 25l-19 12q-11 8 -19 17q-9 11 -16 23q-6 12 -6 29q0 14 6 31q9 20 19 31q12 15 28 25q16 9 35 9h145q35 0 54 -10q18 -10 30 -25q11 -16 14 -31q3 -16 3 -26v-121q2 -6 9 -13t13 -9h33q4 1 14 11q9 11 10 15v262h78v-263q0 -18 -9 -36q-9 -20 -24 -33
q-15 -15 -33 -24q-17 -10 -36 -10z" />
    <glyph glyph-name="technorati" unicode="technorati" 
d="M425 501q50 0 92 -16q44 -17 74 -43q32 -27 51 -64q18 -38 18 -79t-18 -79q-20 -36 -51 -63q-30 -26 -74 -43q-42 -16 -92 -16q-43 0 -80 12l-111 -80l17 134q-29 27 -45 61q-16 33 -16 74q0 42 19 79q17 36 50 64q30 26 75 43q41 16 91 16zM425 187q30 0 57 9
q27 10 46 24t31 36q11 20 11 43q0 22 -11 44q-13 21 -31 35q-19 14 -46 24q-27 9 -57 9t-57 -9q-26 -9 -46 -24q-21 -16 -31 -35q-12 -21 -12 -44t12 -43q10 -20 31 -36q20 -15 46 -24q27 -9 57 -9z" />
    <glyph glyph-name="tumblr" unicode="tumblr" 
d="M555 441v-78h-104v-130q0 -25 -1 -33q-1 -9 1 -18q7 -14 18 -21q17 -9 38 -9q37 0 75 23v-74l-31 -12q-18 -6 -27 -8q-27 -6 -56 -6q-13 0 -29 2q-6 1 -25 7q-18 6 -26 9q-12 7 -19 14q-17 17 -20 36t-3 45v175h-78v57q10 3 30 11q16 6 26 15q24 20 34 40q12 23 17 60h76
v-105h104z" />
    <glyph glyph-name="twitterbird" unicode="twitterbird" 
d="M673 462q-24 -33 -51 -52v-14q0 -51 -19 -102q-20 -53 -56 -93q-37 -41 -90 -68q-55 -26 -124 -26q-44 0 -83 12q-40 12 -73 34l12 -2h12q37 0 68 12q33 12 59 32q-36 2 -60 20t-35 51q6 -2 9 -2h10q14 0 26 3q-35 8 -58 35q-23 29 -23 65v1q3 -2 11 -5t11 -4
q11 -3 24 -3q-20 14 -32 36q-13 22 -13 48q0 28 14 51q37 -46 92 -75q53 -28 117 -31q-3 12 -3 23q0 20 8 39q7 18 22 33t33 22q19 8 39 8t41 -8q19 -9 33 -24q19 3 34 10q15 6 31 15q-12 -37 -45 -57q28 4 59 16z" />
    <glyph glyph-name="twitter" unicode="twitter" 
d="M608 117q0 -19 -17 -36t-36 -17h-156q-31 0 -58 10t-50 30t-36 49q-13 27 -13 68v262q0 20 16 36t36 16t36 -16t16 -36v-79h209q21 0 37 -16t16 -36t-16 -36t-37 -16h-209v-79q0 -19 17 -36q16 -16 35 -16h157q21 0 37 -16t16 -36z" />
    <glyph glyph-name="viddler" unicode="viddler" 
d="M546 514q24 0 45 -9q20 -9 36 -25q15 -17 24 -37q9 -21 9 -46t-9 -47q-9 -20 -24 -37q-17 -15 -36 -24q-21 -9 -45 -9h-91l56 -183h-191v56l-130 -41v159l130 -37v46h-26q-20 0 -38 9q-19 9 -32 24q-15 17 -22 36q-9 21 -9 45t11 46q10 22 28 38q17 17 40 26q21 10 46 10
q19 0 40 -8q17 -8 34 -23q14 -14 25 -33q10 -18 13 -39h4q3 21 13 39q11 19 25 33q17 15 34 23q21 8 40 8zM549 361q14 0 23 10q9 11 9 24q0 14 -9 23q-9 10 -23 10t-23 -10q-9 -9 -9 -23q0 -13 9 -24q9 -10 23 -10zM318 361q14 0 23 10q9 11 9 24q0 14 -9 23q-9 10 -23 10
t-23 -10q-9 -9 -9 -23q0 -13 9 -24q9 -10 23 -10z" />
    <glyph glyph-name="vimeo" unicode="vimeo" 
d="M208 327l-19 24q23 26 47 47q18 16 45 34q25 16 48 21q24 5 38 -11q13 -15 21 -39q5 -17 11 -53q5 -33 10 -51q9 -38 20 -67q9 -23 19 -23t28 22q22 30 37 59q9 16 11 34q0 16 -8 27q-7 9 -23 11t-35 -10q4 30 24 53t43 36t50 16t47 -6t30 -31q11 -23 5 -57
q-11 -53 -39 -101q-29 -49 -63 -86q-38 -41 -67 -65q-28 -23 -49 -36q-18 -11 -32 -10q-17 2 -28 8t-23 18q-8 9 -16 23q-2 3 -11 27q-8 22 -15 43l-16 50q-2 6 -16 49q-11 33 -13 38q-5 14 -9 20q-5 5 -14 4q-12 -2 -17 -5q-12 -5 -21 -13z" />
    <glyph glyph-name="virb" unicode="virb" 
d="M358 225l79 236h105l-131 -366h-104l-131 366h101zM673 408q0 -21 -15 -36q-16 -16 -38 -16t-37 16q-15 15 -15 36q0 22 15 38q15 15 37 15t38 -15q15 -16 15 -38z" />
    <glyph glyph-name="www" unicode="www" 
d="M489 467h152v-23l-55 -115q20 -7 31 -16q16 -11 24 -25q9 -19 13 -33q6 -17 6 -37q0 -25 -6 -46q-5 -22 -18 -38q-26 -33 -65 -33q-30 0 -52 20q-23 19 -33 54l35 15l9 -18q5 -8 12 -14q12 -12 30 -12t30 21q13 19 13 51q0 16 -3 33q-5 18 -11 25q-8 11 -19 19
q-13 8 -29 8h-30v9l73 114h-77l-88 -306h-5l-64 226l-65 -226h-4l-103 347h45l62 -223l42 150l-20 73h45l62 -223z" />
    <glyph glyph-name="wikipedia" unicode="wikipedia" 
d="M437 346l-23 -51l-11 26l-36 78l-4 9q-1 3 -3 7l-2 5q-6 13 -10 20q-2 5 -6 11q-3 5 -7 6q-1 1 -4 1.5t-5 0.5q-6 0 -6 3v11l1 2h93l3 -1v-11q0 -4 -5 -4l-7 -1q-7 -1 -10 -3t-2 -5q1 -5 9 -26zM686 474v-11q0 -4 -4 -4q-20 -1 -32 -10q-3 -3 -9 -11q-5 -8 -6 -15
l-48 -120l-20 -49q-1 -3 -8.5 -21.5t-11.5 -27.5l-17 -44q-7 -19 -14 -34q-16 -36 -32 0q-8 18 -21 51q-5 10 -14 32t-13 32l-9 22q4 9 11.5 26.5t11.5 26.5l60 -137l4 -1l95 251q6 14 -1 21l-8 5q-4 2 -11 2l-9 1q-2 0 -3 1t-1 3v11l1 1h108zM451 320l-1 -3l-13 29l38 84
q5 12 4 16q0 3 -2 7q-3 5 -17 5l-5 1q-2 0 -3 1t-1 3v11l1 1h88l1 -1v-11q0 -4 -4 -4q-3 0 -6 -0.5t-5.5 -1t-3.5 -0.5q-4 -2 -8 -9l-6 -10q-2 -5 -8 -15zM414 295l13 -31q-9 -19 -11 -23q-13 -31 -29 -64l-23 -50q-5 -10 -9.5 -15t-8.5 -4q-8 2 -15 18l-29 70
q-11 26 -33 80l-34 80q-17 39 -27 69q-7 16 -8 18l-5 9q-5 6 -25 7q-7 0 -7 3v11l1 1h118l1 -1v-10q0 -4 -5 -4l-12 -1q-16 0 -16 -10q0 -7 4 -15q10 -27 11 -29l15 -37q5 -13 17 -41l18 -43q6 -15 20.5 -49.5t22.5 -53.5l3 -1z" />
    <glyph glyph-name="windows" unicode="windows" 
d="M450 476l-43 -145q-14 9 -36 19q-21 8 -47 8q-37 0 -79 -16l41 142q20 8 42 13q13 3 37 5q22 0 35 -4q16 -4 29 -10zM537 276q-51 0 -91 28l42 145q18 -12 39 -19q23 -9 55 -9q38 0 78 15l-41 -140h-1v-1q-39 -19 -81 -19zM352 136q-17 11 -37 20q-22 8 -49 8
q-37 0 -76 -16l41 143l12 4q2 1 28 8q17 5 36 6q2 1 9 1q27 0 63 -17q3 -1 9 -5q4 -4 8 -5l-8 -29q-8 -26 -12 -41l-13 -43q-3 -8 -6.5 -20t-4.5 -14zM476 84q-13 0 -25 4q-9 2 -25 8l-21 10q-10 4 -14 7l41 144q18 -12 39 -19q23 -9 56 -9q39 0 77 13l-40 -138
q-48 -20 -88 -20z" />
    <glyph glyph-name="wordpress" unicode="wordpress" 
d="M584 313q0 -31 -18 -76l-24 -79l-85 253l10 1h9q5 0 8 1q11 2 9 11q-1 9 -10 9l-23 -2q-7 -1 -21 -1h-39q-13 0 -20 1l-22 2q-10 0 -11 -9q0 -10 9 -11q3 -1 8 -1h8q3 -1 9 -1l37 -100l-52 -155l-85 255l10 1h9q5 0 8 1q10 2 8 11q0 9 -10 9l-22 -2q-7 -1 -21 -1h-35
q32 48 83 77q53 29 114 29q47 0 86 -16q40 -16 73 -46h-3q-17 0 -29 -12q-11 -14 -11 -29t7 -28l16 -28q6 -8 13 -26q7 -15 7 -38zM631 414q29 -53 29 -113q0 -66 -32 -119q-31 -52 -85 -85l72 208q8 20 14 47q4 17 4 37l-1 13q0 8 -1 12zM190 301q0 48 20 96l112 -308
q-58 28 -96 86q-36 55 -36 126zM501 82l1 -1q0 -1 1 -2q-40 -14 -78 -14q-17 0 -34 3q-11 1 -33 7l71 205z" />
    <glyph glyph-name="xing" unicode="xing" 
d="M385 232l157 288h105l-157 -288l104 -183h-104zM228 415h105l52 -104l-78 -131h-105l78 131z" />
    <glyph glyph-name="yahoobuzz" unicode="yahoobu&#x7a;&#x7a;" 
d="M373 355h52q33 0 61 -12q28 -13 50 -34q20 -21 34 -49q12 -28 12 -62q0 -32 -12 -60q-14 -30 -34 -50q-22 -22 -50 -34q-27 -13 -61 -13t-61 13q-30 13 -50 34q-21 21 -33 50q-13 27 -13 60v314h78v-314q0 -32 24 -55q23 -23 55 -23t55 23t23 55q0 33 -23 56t-55 23h-52
v78z" />
    <glyph glyph-name="yahoo" unicode="yahoo" 
d="M585 381q-5 -2 -26 -18q-15 -12 -45 -38q-24 -21 -44 -41q-20 -22 -23 -30q-1 -2 -1 -18l1 -32q0 -22 1 -32q0 -17 1 -20q2 -1 14 -1h45q12 0 15 -1l-2 -25l-17 1h-32h-72h-22q-10 -1 -31 -1l-31 -1h-23l4 24l14 1q13 0 20 1q6 0 20 2q7 1 13 7q1 1 3 16q1 9 1 31v31
q0 4 -0.5 8.5t-1 7.5t-0.5 4t-1.5 3t-3.5 5.5t-4 7.5l-21 31q-3 5 -12.5 18t-15.5 20l-30 40q-15 20 -27 33q-12 15 -19 22h-69v26h236v-26h-73q8 -13 26 -41l26 -39q5 -7 13.5 -19t11.5 -16l18 -26l94 89h-55l-8 26h208l-19 -19l-1 1l-6 -8h-37q-3 0 -7 -2t-5 -2zM618 346
l13 -1q14 -2 22 -3l21 -2q7 -1 12 -1l-36 -154l-32 3v158zM646 123l-17 2l-16 1v38l20 -3l18 -1z" />
    <glyph glyph-name="yelp" unicode="yelp" 
d="M293 483l-6 7q-3 4 -4 8q0 5 4 10q5 7 16 15q9 8 22 12q19 6 26 7q13 3 25 3q12 1 19 0q30 -6 30 -28l1 -170q2 -11 -3 -18t-12 -9q-7 -1 -15 5q-8 5 -13 13zM471 291q-4 6 -2 18t8 18l50 60q8 8 17 8q10 0 21 -8l12 -13q8 -10 12 -16q6 -7 11 -16l6 -12q3 -7 1 -20
q-2 -12 -14 -14l-88 -17q-12 -2 -19 2q-11 3 -15 10zM273 326l95 -37q10 -4 16 -12q7 -8 5 -16q-2 -9 -9 -16q-8 -8 -16 -12l-91 -31q-9 -4 -18 2q-11 8 -12 18q-1 3 -1 17v27q0 22 1 35q3 13 12 21q10 8 18 4zM528 106l-49 90q-4 9 -6 17q-1 9 3 12t13 3q5 0 19 -2l79 -23
q11 -1 15 -12q5 -11 1 -23q-1 -4 -8 -16l-12 -20l-16 -24q-4 -8 -19 -10t-20 8zM320 120l63 75q6 8 16 12q10 5 16 5q7 -2 12 -9q4 -7 4 -17l-2 -105q-2 -12 -13 -19q-13 -7 -22 -3l-66 22q-9 5 -12 17q-3 15 4 22z" />
    <glyph glyph-name="youtube" unicode="youtube" 
d="M285 449h3l27 97h43l-50 -142v-100h-43v96l-51 146h43zM361 349v93q0 21 16 33q15 12 41 12t39 -13q15 -14 15 -33v-93q0 -23 -14 -35q-17 -14 -41 -14t-41 14q-15 13 -15 36zM574 304v20q-10 -12 -22 -17q-10 -6 -22 -6t-20 8q-7 10 -7 24v150h39v-137q0 -7 2 -9
q3 -3 8 -3q4 0 11 3q9 7 11 10v136h39v-179h-39zM401 443v-97q0 -8 4 -12q1 -1 5 -3q1 -1 7 -1q7 0 12 5q4 3 4 11v97q0 6 -4 9q-4 4 -12 4t-12 -4q-4 -3 -4 -9zM190 268h39v-188h38v188h40v31h-117v-31zM534 234q-10 10 -25 10q-9 0 -16 -4q-5 -2 -14 -11v70h-34v-219h34
v12q3 -5 7 -6l7 -5q9 -3 18 -3q15 0 23 9q8 8 8 26v90q0 20 -8 31zM660 157v41q0 22 -12 36q-14 12 -36 12q-24 0 -37 -13q-15 -13 -15 -35v-72q0 -23 13 -37q14 -14 36 -14q25 0 38 13q13 12 13 38v8h-35v-8q0 -14 -3 -18q-4 -4 -12 -4q-7 0 -12 5q-3 5 -3 17v31h65z
M385 242v-123q-5 -7 -11 -9q-4 -3 -9 -3q-1 0 -7 2q-2 6 -2 9v124h-34v-136q0 -14 6 -21q6 -8 18 -8q10 0 19 6q11 5 20 15v-18h34v162h-34zM507 201v-83q0 -8 -3 -11q-3 -4 -9 -4l-8 2q-4 2 -8 6v101q4 4 7 5q1 1 7 1q7 0 11 -4q3 -4 3 -13zM595 182v17q0 10 4 14q3 5 11 5
q7 0 12 -5q3 -5 3 -14v-17h-30z" />
    <glyph glyph-name="instagram" unicode="instagram" 
d="M607 60h-366q-23 0 -38 16q-16 16 -16 39v366q0 23 16 39q15 16 38 16h366q23 0 39 -16t16 -39v-366q0 -23 -16 -39t-39 -16zM607 408v54q0 7 -5 14q-5 5 -13 5h-55q-8 0 -13 -5q-5 -7 -5 -14v-54q0 -8 5 -13q5 -6 13 -6h55q9 0 13 6q5 5 5 13zM424 389q-38 0 -64 -26
q-27 -27 -27 -65q0 -21 7 -36q8 -18 19 -29q13 -13 29 -20q15 -7 36 -7t36 7q19 9 29 20q11 10 20 29q7 15 7 36t-7 36q-7 16 -20 29q-11 11 -29 19q-15 7 -36 7zM607 334h-41q5 -20 5 -36q0 -29 -11 -57q-12 -27 -32 -47t-47 -32q-28 -11 -57 -11t-57 11q-26 12 -46 32
t-32 47q-11 28 -11 57q0 16 5 36h-42v-201q0 -8 5 -13q7 -5 14 -5h329q8 0 13 5t5 13v201z" />
    <glyph glyph-name="circlefivehundredpx" unicode="circlefivehundredpx" 
d="M424 719q88 0 164 -33t133 -90t90 -133q33 -77 33 -163t-33 -163t-90 -134t-133 -90t-164 -33q-86 0 -163 33q-76 33 -133 90t-90 134t-33 163t33 163q33 76 90 133t133 90q77 33 163 33zM605 169q43 0 63 27q18 27 18 64t-19 65q-19 27 -62 27q-23 0 -39 -10
q-18 -12 -29 -21q-16 -16 -25 -30q-12 19 -23 30q-10 10 -29 21q-17 10 -42 10q-23 0 -39 -8q-15 -9 -23 -20q-10 -11 -13 -27q-6 14 -16 24q-8 10 -21 17t-33 7q-13 0 -24 -3l-16 -6q-10 -6 -13 -9l12 55h105v49h-140l-29 -147h52q5 8 10 12q4 4 12 9q7 4 19 4q22 0 31 -16
q10 -14 10 -33q0 -18 -15 -34q-13 -15 -32 -15q-13 0 -21 5q-8 6 -12 13q-6 9 -7 19h-53q4 -22 15 -40q9 -14 26 -27q18 -12 47 -12q27 0 46 8q20 8 29 16q12 11 18 24q3 -14 13 -24q6 -8 23 -16q16 -8 39 -8t42 8q17 7 29 19q12 11 23 28q8 -13 25 -28q14 -12 29 -19
q18 -8 39 -8zM423 304q12 0 22 -7q11 -7 18 -15q11 -10 18 -21q-7 -12 -18 -21q-9 -9 -18 -14q-10 -7 -22 -7q-22 0 -34 12t-12 30q0 19 12 31t34 12zM598 304q22 0 34 -12t12 -31q0 -18 -12 -30t-34 -12q-11 0 -21 7q-12 7 -19 14q-10 9 -18 21q8 11 18 21q5 5 19 15
q10 7 21 7z" />
    <glyph glyph-name="circleaboutme" unicode="circleaboutme" 
d="M425 720q87 0 164 -33q76 -33 133 -90t90 -133t33 -164q0 -86 -33 -163t-90 -134t-133 -90q-77 -33 -164 -33t-163 33q-77 33 -134 90t-90 134t-33 163q0 88 33 164t90 133t134 90q76 33 163 33zM687 291v10q0 51 -27 80t-69 29q-43 0 -72 -29q-27 -30 -27 -82
q0 -51 27 -80q27 -28 74 -28q37 0 61 18q23 17 32 49l-37 5q-8 -22 -22 -33q-13 -10 -34 -10q-27 0 -44 18q-18 18 -20 53h158zM450 196v143q0 36 -17 53q-17 18 -49 18q-40 0 -65 -37q-6 18 -21 27q-16 10 -39 10q-22 0 -38 -10q-17 -9 -27 -24v29h-32v-209h36v108
q0 29 6 44q6 16 19 23q14 8 28 8q20 0 29 -12q8 -14 8 -35v-136h36v121q0 32 15 47t38 15q12 0 21 -6q9 -7 13 -15q3 -9 3 -30v-132h36zM591 381q27 0 45 -21q11 -14 13 -40h-118q2 28 18 44q20 17 42 17z" />
    <glyph glyph-name="circleaddme" unicode="circleaddme" 
d="M425 720q87 0 163 -33q75 -32 133 -89q57 -57 90 -133q33 -77 33 -164t-33 -163t-90 -133t-133 -90t-163 -33t-163 33q-78 34 -133 90q-57 57 -90 133t-33 163t33 164q33 76 90 133q56 56 133 89q76 33 163 33zM477 511h-105v-157h-157v-105h157v-157h105v157h157v105
h-157v157z" />
    <glyph glyph-name="circleamazon" unicode="circleama&#x7a;on" 
d="M424 719q86 0 163 -33q75 -32 133 -89q57 -57 90 -133t33 -163t-33 -163t-90 -133t-133 -90q-77 -33 -163 -33t-163 33t-132 90q-57 57 -90 133t-33 163t33 163t90 133q56 56 132 89q77 33 163 33zM465 459q5 -8 7 -20v-22v-8l-20 -2q-8 0 -22 -2q-16 -1 -33 -6
q-18 -3 -30 -10q-26 -12 -43 -36q-17 -25 -17 -59q0 -46 24 -68q23 -22 59 -22q20 0 40 5q9 3 27 13q14 10 26 24l13 -19q3 -5 19 -19q8 -3 14 1q12 12 21 19t21 19q4 3 4 7l-2 4t-1 4q-8 12 -14 23q-7 10 -7 31v91q0 21 -2 55q-1 24 -22 45q-15 15 -41 23q-24 6 -44 6h-12
q-18 -2 -36 -6t-35 -15t-27 -27q-11 -15 -16 -41q-2 -7 2 -8q2 -2 6 -4l55 -7q8 2 9 11q5 18 16 26q14 9 26 10h4q21 0 31 -16zM388 304q0 24 13 36q12 13 29 18q15 4 42 4v-12q0 -22 -1 -32q-2 -15 -10 -29q-9 -23 -31 -27l-4 -1h-4q-16 0 -25 12t-9 31zM686 168v3
q0 4 -2 10q-6 6 -25 7q-25 2 -45 -5q-13 -5 -23 -12q-5 -2 -3 -5q0 -3 4 -3q14 2 22 3q18 2 28 1q12 -1 17 -6q3 -3 2 -12q-3 -17 -4 -19l-6 -20q-6 -14 -7 -16q-2 -5 1 -6t6 2q19 17 26 39q7 24 9 39zM636 133q8 5 3 11t-12 3l-6 -3q-3 -1 -7 -3q-48 -18 -92 -27
q-46 -9 -92 -9q-73 0 -137 19q-69 20 -122 52q-5 4 -7 -1q-2 -3 2 -7q51 -48 117 -75t141 -27q49 0 98 13q50 14 92 39q3 3 11 7q1 1 5 3.5t6 4.5z" />
    <glyph glyph-name="circleaol" unicode="circleaol" 
d="M424 717q86 0 163 -33q75 -32 133 -89q57 -57 90 -133t33 -163t-33 -163t-90 -133t-133 -90q-77 -33 -163 -33t-163 33t-132 90q-57 57 -90 133t-33 163t33 163t90 133q56 56 132 89q77 33 163 33zM482 534q-26 0 -44 -18q-19 -19 -19 -45t19 -44q18 -18 44 -18t46 18
q18 18 18 44q0 25 -18 45q-20 18 -46 18zM620 110l-4 8q-53 101 -146 147l-2 1l-1 1l-2 1q-2 2 -2 3q1 4 4 7q1 1 3 1h8l18 -3q5 -1 18 -1q22 0 43 7q18 5 50 20l8 5l-28 60l-9 -4q-12 -5 -25 -9q-15 -4 -34 -4q-21 0 -38 6l-4 2l-1 3q-1 1 -1 3q0 3 -1 4v16l-8 1
q-12 3 -32 12l-5 3l-5 -2q-33 -20 -49 -50q-16 -31 -21 -86l-3 -19l-2 -8q-9 -19 -25 -37q-12 -14 -30 -26q-16 -11 -29 -17q-14 -5 -26 -9l-11 -3l30 -80l9 3q31 7 57 20q22 10 40 25q19 16 29 28l23 28l7 10q2 2 4 2l4 -2q30 -14 47 -25q26 -18 35 -26q17 -17 23 -25
l13 -20l5 -9z" />
    <glyph glyph-name="circleappstorealt" unicode="circleappstorealt" 
d="M424 720q86 0 163 -33q76 -33 133 -90t90 -133t33 -163t-33 -163t-90 -133q-58 -57 -133 -89q-77 -33 -163 -33t-163 33q-76 33 -132 89q-57 57 -90 133t-33 163t33 163t90 133q55 57 132 90t163 33zM424 40q54 0 102 21q48 20 83 56q36 34 57 83q20 48 20 101t-20 102
q-21 47 -56 84q-37 35 -84 56q-49 20 -102 20t-101 -20q-48 -21 -83 -56q-37 -37 -56 -84q-21 -48 -21 -102q0 -55 21 -101q20 -48 56 -83q35 -36 83 -56q47 -21 101 -21zM424 537q48 0 92 -18q44 -19 75 -51q32 -32 50 -75q19 -42 19 -92t-19 -91q-18 -43 -50 -75t-75 -50
q-42 -19 -92 -19t-92 19q-42 18 -74 50q-32 31 -51 75q-18 42 -18 91t18 92q19 43 51 75q31 31 74 51q44 18 92 18zM477 458h-105v-183h-78l130 -131l131 131h-78v183z" />
    <glyph glyph-name="circleappstore" unicode="circleappstore" 
d="M424 718q86 0 163 -33q75 -32 133 -89q57 -57 90 -133q33 -77 33 -163t-33 -163q-33 -76 -90 -133t-133 -90q-77 -33 -163 -33t-163 33t-132 90q-57 57 -90 133q-33 77 -33 163t33 163q33 76 90 133q56 56 132 89q77 33 163 33zM549 231q10 -5 14 -4q3 1 11 5q4 1 13 10
q8 8 3 19l-15 27q-12 22 -27 51l-30 57q-6 11 -15.5 26.5t-11.5 19.5q-11 16 -24 39l-23 40q-9 15 -20 30q-9 11 -13 10q-6 -3 -2 -21q4 -16 14 -40q15 -37 19 -46l17 -37q1 -2 7.5 -17t11.5 -27l27 -61q5 -12 15 -32.5t11 -22.5q14 -25 18 -26zM231 169l31 -17q5 -3 9 -2
q6 2 7 6l143 250q3 5 2 9q-2 6 -6 7l-31 18q-12 5 -16 -5l-144 -249q-4 -10 5 -17zM163 343v-84q0 -12 12 -12h53l66 105h-119q-12 0 -12 -9zM686 259v84q0 5 -3 7q-6 2 -9 2h-105l53 -105h52q5 0 8 3q4 4 4 9zM425 352l-66 -105h142l-44 105h-32zM571 195l18 -29
q8 -11 18 -5l13 8q4 1 6 7q1 5 -1 11l-15 28q-1 4 -7 6q-5 2 -10 0l-18 -9q-4 -1 -6 -7q-2 -5 2 -10zM658 88q2 29 -2 44q-5 16 -13 23q-10 9 -30 -2q-1 -1 -7 -11q-5 -9 5 -22q3 -5 13 -11l14 -7q5 -2 13 -6q6 -4 7 -8zM212 98l40 27q5 3 5 7q-2 5 -5 6l-31 18
q-11 4 -12 -6l-5 -47q-2 -5 2 -7q1 -1 6 2z" />
    <glyph glyph-name="circleapple" unicode="circleapple" 
d="M425 720q87 0 163 -33q75 -32 133 -89q57 -57 90 -133q33 -77 33 -164t-33 -163t-90 -133t-133 -90t-163 -33t-163 33q-78 34 -133 90q-57 57 -90 133t-33 163t33 164q33 76 90 133q56 56 133 89q76 33 163 33zM450 501q-13 -14 -20 -33q-8 -20 -6 -40q21 -2 39 8
q19 10 33 26q12 13 20 34q7 17 5 41q-21 -2 -38 -11q-20 -11 -33 -25zM588 124q19 29 25 45l8 22q-19 8 -32 21q-10 9 -22 29q-10 19 -10 46q0 20 8 38q9 20 17 28q10 12 18 17q8 6 9 6q-11 15 -24 24q-11 9 -25 14q-20 6 -23 7q-14 2 -17 2q-12 1 -27 -2q-11 -3 -26 -8
l-22 -8q-9 -4 -17 -4q-15 0 -35 10q-22 11 -45 11q-33 -2 -57 -17q-25 -15 -42 -42q-16 -26 -19 -60q-3 -32 3 -64q5 -32 18 -62q14 -31 28 -52q17 -25 34 -41q19 -20 42 -18q12 0 21 3l16 6q6 3 18 7q10 3 24 3t23 -3l18 -7l18 -6q9 -3 21 -3q26 2 42 18q20 21 32 40z" />
    <glyph glyph-name="circlebebo" unicode="circlebebo" 
d="M425 721q87 0 164 -33q76 -33 133 -90t90 -133q33 -77 33 -164t-33 -163q-33 -77 -90 -134t-133 -90q-77 -33 -164 -33t-163 33q-77 33 -134 90t-90 134q-33 76 -33 163t33 164q33 76 90 133t134 90q76 33 163 33zM428 65h46q37 0 73 14q33 13 59 36q27 24 40 54
q15 31 15 67q0 33 -11 66q-10 32 -30 54q-21 24 -45 37q-25 13 -54 13h-93q-21 0 -34 -10t-13 -29t13 -29q14 -11 34 -11h93q17 0 32 -22q15 -23 15 -56q0 -34 -28 -56q-28 -23 -66 -23h-46q-38 0 -61 24q-21 22 -21 61v237q0 19 -16 32t-36 13t-36 -13q-17 -14 -17 -32
v-237q0 -37 15 -72q13 -33 40 -60q26 -28 59 -42q33 -16 73 -16z" />
    <glyph glyph-name="circlebehance" unicode="circlebehance" 
d="M425 719q87 0 163 -33q75 -32 133 -89q57 -57 90 -133t33 -164q0 -86 -33 -163q-33 -76 -90 -133t-133 -90t-163 -33t-163 33q-78 34 -133 90q-57 57 -90 133q-33 77 -33 163q0 88 33 164t90 133q56 56 133 89q76 33 163 33zM412 188q13 22 13 50q0 26 -11 46
q-12 19 -34 28q15 8 22 18q14 17 14 46q0 28 -14 48q-21 33 -74 33h-139v-314h130q14 0 21 1t19 3q19 5 33 16q12 11 20 25zM608 457h-105v-52h105v52zM347 338l-14 -8q-7 -4 -17 -4h-48v79h41q9 0 19 -2l15 -5q15 -8 15 -31q0 -21 -11 -29zM660 266l-1 14v11q-4 25 -16 44
q-9 14 -16 20q-9 9 -18 13q-24 11 -47 11q-43 0 -71 -31q-27 -30 -27 -88q0 -60 30 -89q29 -26 70 -26q49 0 74 34q8 10 13 19q6 12 7 24h-53q-1 -15 -5 -15l-6 -3q-3 -3 -13 -9q-7 -4 -16 -4q-16 0 -28 9q-11 8 -15 18t-6 30h144v18zM562 326q19 0 31 -12q6 -6 9 -13
q3 -6 5 -27h-90q1 19 5 26q3 5 9 13q12 13 31 13zM346 272q9 -5 14 -11q4 -7 4 -19q0 -30 -19 -40q-11 -6 -29 -6h-48v78h49l17 1q8 0 12 -3z" />
    <glyph glyph-name="circlebing" unicode="circlebing" 
d="M425 719q87 0 163 -33q75 -32 133 -89q57 -57 90 -133t33 -164q0 -86 -33 -163q-33 -76 -90 -133t-133 -90t-163 -33t-163 33t-133 90t-90 133q-33 77 -33 163q0 88 33 164t90 133q58 57 133 89q76 33 163 33zM425 65q51 0 91 13q46 14 75 35q32 23 50 53q19 29 19 65
q0 35 -19 64q-18 31 -50 54q-31 23 -75 36q-40 13 -91 13q-14 0 -40 -2q-16 -1 -38 -8t-38 -16q-18 -10 -41 -25v189h-79v-309h1q2 -36 20 -63q19 -29 51 -52q31 -22 74 -34q40 -13 90 -13zM425 342q31 0 58 -9q28 -7 48 -23t32 -36t12 -43t-12 -43t-32 -35q-19 -15 -48 -24
q-27 -9 -58 -9t-59 9t-47 24q-20 15 -32 35t-12 43t12 43t32 36t47 23q28 9 59 9zM425 160q21 0 39 6q17 6 31 15q14 11 21 23q8 14 8 29q0 14 -8 28t-21 23q-13 10 -31 16t-39 6t-39 -6q-20 -7 -32 -16q-13 -9 -21 -23q-7 -13 -7 -28q0 -16 7 -29q7 -12 21 -23
q13 -9 32 -15q18 -6 39 -6z" />
    <glyph glyph-name="circleblip" unicode="circleblip" 
d="M425 720q87 0 163 -33q75 -32 133 -89q57 -57 90 -133q33 -77 33 -164t-33 -163t-90 -133t-133 -90t-163 -33t-163 33t-133 90t-90 133t-33 163t33 164q33 76 90 133q58 57 133 89q76 33 163 33zM575 92h85q0 90 -35 172q-34 79 -95 142q-62 62 -142 96q-82 35 -173 35
v-85q75 0 140 -28t114 -78t78 -114q28 -65 28 -140zM425 92h85q0 59 -23 113q-24 54 -64 94q-41 41 -94 63q-53 24 -114 24v-85q42 0 81 -15q40 -17 68 -45t45 -68q16 -38 16 -81zM215 144l-26 -26l53 -52l26 26h78l-131 131v-79z" />
    <glyph glyph-name="circleblogger" unicode="circleblogger" 
d="M424 716q86 0 163 -33q75 -32 133 -89q57 -58 89 -133q33 -77 33 -162q0 -87 -33 -163q-32 -75 -89 -133q-58 -57 -133 -89q-78 -32 -163 -32q-84 0 -162 32q-76 33 -132 89q-57 57 -90 133t-33 163q0 85 33 162q33 76 90 133q56 56 132 89t162 33zM683 352l-7 5
q-3 3 -11 3h-19q-3 0 -10 0.5t-10 1.5q-10 2 -14 5q-7 7 -8 16l-4 24q-2 13 -3 21l-3 13q-2 6 -3 8l-4 9q-7 16 -21 30t-30 24q-18 12 -33 17q-16 7 -31 9h-104q-31 0 -58 -12q-26 -10 -47 -31q-21 -20 -32 -47q-12 -27 -12 -58v-173q0 -30 12 -57q10 -26 32 -48
q20 -20 47 -32q28 -11 58 -11h170q30 0 58 11q28 12 47 33q20 20 32 47t12 57l1 120l-1 6zM452 361h-83q-11 0 -19 8q-9 7 -9 20q0 11 9 19q8 9 19 9h83q12 0 20 -9q8 -8 8 -19q0 -12 -8 -20t-20 -8zM369 247h168q12 0 20 -8t8 -20q0 -10 -8 -20q-8 -8 -20 -8h-168
q-11 0 -19 8q-9 9 -9 20q0 13 9 20q8 8 19 8z" />
    <glyph glyph-name="circlecoroflot" unicode="circlecoroflot" 
d="M425 718q87 0 163 -33q75 -32 133 -89q57 -58 89 -133q33 -77 33 -163t-33 -162q-32 -75 -89 -133q-57 -57 -133 -90t-163 -33t-163 33t-132 90q-57 57 -90 133t-33 162t33 163q33 76 90 133q56 56 132 89t163 33zM226 456q-3 -15 18 -17q21 -1 51 0q13 1 27 -8
q13 -10 22 -29q11 -20 15 -46q6 -30 5 -61q14 5 30 6q0 9 -3 28q-1 15 -10 43q-8 24 -21 47q-15 26 -35 40q11 1 29 -2t37 -15q21 -13 43 -35t48 -62q9 5 19 6q-9 16 -28 40q-20 27 -43 47q-26 22 -57 36q-30 13 -65 4q2 12 0 24q-2 14 -5 19q-3 8 -9 11t-15 -2
q-11 -6 -14 -11q-2 -6 -2 -11l2 -13q2 -10 1 -16q-2 -9 -8 -11q-4 -3 -12 -3q-9 0 -13 -1q-6 -1 -7 -8zM533 140q18 1 35 9q19 9 29 20q12 12 20 30q7 15 7 36q0 40 -28 68t-68 28q-24 0 -43 -10q-18 -10 -33 -28q38 -14 61 -47q24 -33 24 -75q0 -19 -4 -31zM406 68
q19 0 40 8q18 7 33 22t22 33q8 21 8 40t-8 40q-7 18 -22 33t-33 22q-21 8 -40 8t-40 -8q-18 -7 -33 -22t-22 -33q-8 -21 -8 -40t8 -40q7 -18 22 -33t33 -22q21 -8 40 -8zM375 233q10 0 16 -6q7 -7 7 -17q0 -9 -7 -15q-6 -7 -16 -7q-9 0 -16 7q-6 6 -6 15q0 10 6 17q7 6 16 6
z" />
    <glyph glyph-name="circledaytum" unicode="circledaytum" 
d="M424 717q86 0 163 -33q75 -32 133 -89q57 -58 89 -133q33 -76 33 -162t-33 -163q-32 -75 -89 -133q-58 -57 -133 -89q-78 -32 -163 -32q-84 0 -162 32q-76 33 -132 89q-57 57 -90 133q-33 77 -33 163t33 162t90 133q56 56 132 89t162 33zM216 482h443v53h-443v-53z
M607 39h52v417h-52v-417zM450 39h53v365h-53v-365zM294 39h52v261h-52v-261zM529 39h52v261h-52v-261zM372 39h52v209h-52v-209zM216 39h52v156h-52v-156z" />
    <glyph glyph-name="circledelicious" unicode="circledelicious" 
d="M425 720q87 0 164 -33q76 -33 133 -90q57 -58 89 -133q33 -76 33 -164q0 -86 -33 -163q-33 -76 -89 -134q-57 -57 -133 -90q-77 -33 -164 -33t-163 33q-77 33 -134 90t-90 134t-33 163q0 88 33 164t90 133t134 90q76 33 163 33zM425 300h-210v-210h210v210h210v210h-210
v-210z" />
    <glyph glyph-name="circledesignbump" unicode="circledesignbump" 
d="M425 720q87 0 164 -33q76 -33 133 -90t90 -133t33 -164q0 -86 -33 -163t-90 -134t-133 -90q-77 -33 -164 -33t-163 33q-77 33 -134 90t-90 134t-33 163q0 88 33 164t90 133t134 90q76 33 163 33zM399 379l105 -105h-105v-105l105 105v158h52l-105 105l-105 -105h53v-53z
M320 405l-105 -105h52v-236h105v236h53zM425 143h52v-79h105v79h53l-105 105zM399 64h52v53h-52v-53z" />
    <glyph glyph-name="circledesignfloat" unicode="circledesignfloat" 
d="M425 720q87 0 163 -33q75 -32 133 -89q57 -57 90 -133q33 -77 33 -164t-33 -163t-90 -133t-133 -90t-163 -33t-163 33t-133 90t-90 133t-33 163t33 164q33 76 90 133q58 57 133 89q76 33 163 33zM425 66q50 0 92 19q42 18 74 50q31 31 51 75q18 42 18 91t-18 92
q-20 43 -51 75q-31 31 -74 51q-43 18 -92 18t-92 -18q-43 -19 -75 -51t-50 -75q-19 -42 -19 -92t19 -91q18 -43 50 -75t75 -50q42 -19 92 -19zM425 513q45 0 83 -16q38 -17 67 -46t46 -67q16 -38 16 -83q0 -46 -16 -82q-16 -38 -46 -68q-28 -28 -67 -45q-40 -17 -83 -17
t-82 17q-40 17 -68 45t-45 68q-17 39 -17 82t17 83q17 39 45 67q30 30 68 46q36 16 82 16zM373 429v51q-58 -12 -87 -53q-28 -39 -40 -100h52q10 39 33 65q24 27 42 37zM552 327h52q-12 60 -53 101q-40 40 -100 52v-51q38 -10 65 -37q26 -26 36 -65zM317 301q0 -23 9 -42
t24 -34q14 -15 34 -22q20 -9 41 -9q23 0 42 9q18 7 34 23q14 14 23 34q8 21 8 41q0 21 -8 42q-9 19 -23 35q-17 15 -34 23q-21 8 -42 8q-20 0 -41 -8q-20 -9 -34 -23q-15 -15 -24 -35q-9 -19 -9 -42zM425 385q35 0 59 -25q24 -24 24 -59t-24 -59t-59 -24t-59 24
q-25 24 -25 59t25 59q24 25 59 25zM451 174v-52q31 7 55 15q27 11 45 25q21 17 34 36q13 20 19 51h-52q-4 -19 -14 -32t-22 -20q-18 -10 -29 -13zM373 174l-21 10q-7 3 -21 13q-12 8 -19 20q-10 13 -14 32h-52q12 -59 40 -87t87 -40v52z" />
    <glyph glyph-name="circledeviantart" unicode="circledeviantart" 
d="M425 718q87 0 163 -33t133 -90t90 -133t33 -163t-33 -163q-33 -77 -90 -134t-133 -90t-163 -33t-163 33q-77 33 -134 90t-90 134q-33 76 -33 163t33 163t90 133t134 90q76 33 163 33zM465 229l216 62q-27 35 -68 56t-97 31q-60 11 -147 -4h-4l-23 46l-67 -8l27 -56
q-24 -9 -45 -25q-20 -18 -28 -31q-11 -17 -15 -32q-3 -11 -5 -33q-2 -39 14 -76l217 62l-59 121q42 11 76 8q35 -3 62 -12q30 -10 58 -28l-74 -20l-21 40q-10 1 -32 3q-17 0 -35 -3zM354 250l-72 -19q-5 14 -3 28q1 11 11 27q9 14 32 30z" />
    <glyph glyph-name="circlediggalt" unicode="circlediggalt" 
d="M424 718q86 0 163 -33q75 -32 133 -89q57 -57 90 -133q33 -77 33 -163t-33 -163q-33 -76 -90 -133t-133 -90q-77 -33 -163 -33t-163 33t-132 90q-57 57 -90 133q-33 77 -33 163t33 163q33 76 90 133q56 56 132 89q77 33 163 33zM241 378h-78v-183h131v262h-53v-79z
M320 404h52v53h-52v-53zM320 195h52v183h-52v-183zM398 195h79v-26h-79v-52h131v261h-131v-183zM555 195h78v-26h-78v-52h131v261h-131v-183zM241 247h-26v79h26v-79zM450 326h27v-79h-27v79zM607 326h26v-79h-26v79z" />
    <glyph glyph-name="circledigg" unicode="circledigg" 
d="M424 719q86 0 163 -33q75 -32 133 -89q57 -57 90 -133t33 -163t-33 -163t-90 -133t-133 -90q-77 -33 -163 -33t-163 33t-132 90q-57 57 -90 133t-33 163t33 163t90 133q56 56 132 89q77 33 163 33zM607 510h-183v-109h-26v3q-28 22 -41 31q-18 11 -39 21q-19 10 -37 10
q-19 0 -39 -10q-26 -14 -38 -21q-18 -12 -41 -31v-156h104v-26q-15 -2 -28 -6q-11 -4 -25 -14q-10 -9 -18 -21q-7 -10 -7 -24v-49q0 -6 5 -11t12 -5h140q7 0 12 5t5 11v49q0 26 -21 44q-21 19 -48 21v26h108v-156h231v156h53v153h-79v109zM477 458h78v-79h-78v79zM215 301
v84q21 17 37 27q20 11 29 11q8 0 27 -11q17 -9 38 -27v-84h-131zM633 301h-52v-157h-52v78h-22v-78h-57v157h-52v52h26v-26h183v30h26v-56zM259 179h35q11 0 18 -7q8 -6 8 -15v-22h-87v22q0 9 7 15q7 7 19 7z" />
    <glyph glyph-name="circledribble" unicode="circledribble" 
d="M424 718q86 0 163 -33q75 -32 133 -89q57 -57 90 -133q33 -77 33 -163t-33 -163q-33 -76 -90 -133t-133 -90q-77 -33 -163 -33t-163 33t-132 90q-57 57 -90 133q-33 77 -33 163t33 163q33 76 90 133q56 56 132 89q77 33 163 33zM424 64q50 0 92 19q43 18 75 50
q31 31 51 75q18 44 18 92t-18 92q-20 43 -51 74q-31 32 -75 51q-44 18 -92 18t-91 -18q-43 -19 -75 -51t-50 -74q-19 -42 -19 -92t19 -92q18 -43 50 -75t75 -50q42 -19 91 -19zM561 440q-26 -22 -53 -38q-23 -15 -56 -31q-15 29 -36 61q-13 19 -43 57q22 7 51 7q38 0 74 -14
q34 -15 63 -42zM415 356q-77 -27 -159 -27h-13q-9 0 -12 1q8 47 34 84q27 38 69 60q47 -55 81 -118zM469 336q65 30 117 74q34 -49 34 -109q-38 9 -74 9q-35 0 -64 -7l-6 17q-5 13 -7 16zM432 321l12 -28q-49 -16 -93 -49q-41 -32 -71 -77q-48 54 -52 124l15 -1h13
q93 0 176 31zM495 266q32 5 51 5q39 0 70 -10q-7 -40 -32 -75q-23 -34 -60 -55q-8 72 -29 135zM310 140q25 42 64 71q37 30 83 45q11 -36 18 -70q5 -24 11 -72q-27 -10 -62 -10q-63 0 -114 36z" />
    <glyph glyph-name="circledrupal" unicode="circledrupal" 
d="M425 719q87 0 163 -33q75 -32 133 -89q57 -57 90 -133t33 -164q0 -86 -33 -163q-33 -76 -90 -133t-133 -90t-163 -33t-163 33q-78 34 -133 90q-57 57 -90 133q-33 77 -33 163q0 88 33 164t90 133q56 56 133 89q76 33 163 33zM427 65q41 0 80 14q37 13 66 41q29 26 45 63
q16 35 16 81q0 44 -15 79q-13 31 -32 55q-15 18 -35 35q-15 11 -23 15q-16 9 -35 18q-19 8 -35 18q-12 9 -25 23q-14 14 -26 29q-2 -24 -9 -34q-7 -11 -15 -19q-20 -15 -31 -20l-28 -15q-6 -3 -24 -15t-37 -34q-18 -21 -34 -54q-15 -33 -15 -77t18 -81q16 -36 47 -64
q28 -26 67 -42q36 -16 80 -16zM382 429q-18 -18 -27 -25q-13 -10 -40 -26q-24 -14 -37 -16t-14 -1l-3 4q-3 3 2 11q7 13 20 24q7 7 23 19q14 10 21 14l14 7l17 9q6 3 29 18q6 5 16 17q6 9 9 32l4 -15q1 -7 0 -16q-2 -9 -6 -13l-8 -8l-14 -7q-3 -3 0 -3q6 -2 6 -6l-2 -6
q-2 -4 -10 -13zM380 280q19 0 38 -8q15 -7 32 -17l27 -18q12 -9 22 -9t21 7l24 16l24 15q11 7 20 7q17 0 23 -13q6 -14 6 -25t-3 -27q-4 -16 -12 -28t-14 -17q-9 -5 -17 -4q-6 0 -15 9l-19 18q-7 6 -19 18q-11 8 -18 8q-9 0 -25 -8l-33 -19q-24 -14 -37 -19q-19 -9 -36 -9
q-20 0 -29 3q-6 1 -16 7q-22 15 -20 44q0 27 22 48t54 21zM461 142l-8 -6q-4 -2 -5 1q-4 5 3 12l10 8q3 3 11 7q8 2 10 2h10h11q6 -2 9 -4q5 -2 7 -7l4 -9q2 -6 -4 -9q-2 -2 -3 -1l-4 6q-2 4 -6 9q-4 3 -16 3t-17 -3zM526 120q4 3 7 -2v-3q0 -1 -2 -5l-16 -9q-16 -9 -33 -10
q-18 -1 -40 0q-23 2 -38 15q-4 2 -2 5q0 2 2 4q4 4 7 4q2 0 3 -1q8 -6 19 -9q9 -4 34 -4q20 0 37 5q11 3 22 10z" />
    <glyph glyph-name="circleebay" unicode="circleebay" 
d="M811 464q33 -76 33 -164q0 -86 -33 -163q-33 -76 -90 -133t-133 -90t-163 -33t-163 33t-133 90t-90 133q-33 77 -33 163q0 88 33 164t90 133q58 57 133 89q76 33 163 33t163 -33q75 -32 133 -89q57 -57 90 -133zM739 431h-64l-49 -101l-46 101h-69l12 -22l-10 1h-12
q-31 0 -45 -11q-19 -10 -19 -41h48q0 10 3 18q2 8 16 8q13 0 16 -7t3 -18v-13q-26 0 -39 -1q-18 -1 -32 -12q-11 11 -32 11q-26 0 -39 -19h-1v88h-48v-79q25 -10 33 -29q6 -17 4 -41h-37v70q-3 1 -11 3l-15 4q-26 6 -67 6q-43 0 -69 -6q-25 -6 -39 -17q-12 -9 -17 -24
q-3 -14 -3 -28q0 -20 4 -33q5 -15 18 -25t38 -16q28 -5 68 -5q15 0 37 2l30 4q15 3 26 9v-35h46v18h1q12 -22 41 -22q15 0 24 6q10 7 14 15q6 14 7 21l3 24q3 -1 12 -1q30 0 45 26h1l2 -23h45l-2 16v16v45l20 -39v-83h63v83zM563 389q8 -18 8 -36v-39l-48 95q32 -5 40 -20z
M434 288q0 32 18 45q13 -13 15 -35q1 -15 1 -40v-23q-18 4 -26 20q-8 14 -8 33zM280 298v-11h-80l1 10q0 7 4 12q3 4 11 9q8 3 23 3q16 0 25 -3q8 -4 12 -9q2 -3 4 -11zM507 319h16q0 -10 1 -16q0 -8 -2 -18q-1 -7 -7 -15q-5 -6 -16 -6q-12 0 -15 9q-3 7 -3 17q0 11 3 17
t9 9q4 1 14 3zM400 315q16 0 18 -15q2 -22 2 -42q0 -32 -3 -46t-17 -14q-13 0 -16 14q-4 12 -4 46q0 26 3 42q1 15 17 15zM200 250v14h132v-17h-55q0 -11 -7 -18q-8 -9 -31 -9q-14 0 -22 5t-12 11q-3 4 -5 14zM332 208v39h35q-2 -24 -35 -39z" />
    <glyph glyph-name="circleemail" unicode="circleemail" 
d="M425 721q87 0 164 -33q76 -33 133 -90t90 -133q33 -77 33 -164t-33 -163q-33 -77 -90 -134t-133 -90q-77 -33 -164 -33t-163 33q-77 33 -134 90t-90 134q-33 76 -33 163t33 164q33 76 90 133t134 90q76 33 163 33zM189 450l236 -168l236 168v61h-472v-61zM189 372v-180
l126 90zM661 192v180l-126 -90zM425 203l-83 59l-153 -110v-61h472v61l-154 110z" />
    <glyph glyph-name="circleemberapp" unicode="circleemberapp" 
d="M811 463q33 -77 33 -163t-33 -163t-90 -134t-133 -90t-164 -33q-86 0 -163 33q-76 33 -133 90t-90 134t-33 163t33 163q33 76 90 133t133 90q77 33 163 33q88 0 164 -33t133 -90t90 -133zM628 230q8 40 6 75q-2 40 -5 54l-3 16q1 -5 -1 -16q-4 -10 -7 -15q-8 -14 -10 -16
q-5 35 -32 73q-25 34 -59 67q-42 39 -82 68q-1 -16 -18 -34q-18 -18 -42 -39l-51 -44q-25 -21 -46 -50q-16 -23 -24 -45q-6 -19 -10 -41q-1 -4 -4 -31q-1 -13 -4 -14q-8 -2 -14 2q-3 1 -7 5q18 -62 46 -96q27 -36 57 -54q30 -20 58 -24q25 -5 47 -7q68 1 112 28q42 25 64 61
q21 34 29 77zM593 278l18 23q0 -14 -1 -21q-2 -14 -2 -21q0 -29 -9 -58q-11 -29 -30 -54q-24 -30 -58 -46q-35 -17 -83 -18q-57 3 -99 30t-62 80q0 6 -7 12q-7 7 -10 15l3 3q0 1 2 3h-1q4 4 6 13l2 19q1 14 8 45q4 26 25 55q17 23 40 43q29 27 44 39l38 33q18 18 27 31
q15 -12 43 -36q21 -19 46 -45q20 -23 37 -49q16 -26 17 -48zM594 211q10 28 13 42l-14 -17l-6 49q-1 22 -17 48q-17 26 -37 49q-25 26 -46 45q-28 24 -43 36q-9 -13 -27 -31q-15 -15 -38 -33l-44 -40q-23 -20 -40 -43q-21 -27 -25 -54q-7 -31 -8 -45q-1 -1 -1 -6
q52 -98 163 -103q100 3 146 64q15 18 24 39z" />
    <glyph glyph-name="circleetsy" unicode="circleetsy" 
d="M424 720q88 0 164 -33q75 -32 134 -90q57 -57 90 -133t33 -164q0 -86 -33 -163t-90 -134q-58 -58 -134 -91t-164 -33q-86 0 -163 33q-78 34 -134 91q-57 57 -90 134t-33 163q0 88 33 164t90 133t134 90t163 33zM620 195l-24 -41q-10 -18 -22 -32q-6 -6 -18 -16
q-8 -6 -18 -9q-13 -4 -25 -5q-20 -2 -36 -2h-83q-21 0 -29 5q-9 4 -12 13q0 1 -1 3.5t-2 5.5l-2 6q-2 14 -2 28v149h116q30 0 45 -9q14 -8 21 -22q5 -10 11 -48h17v184h-17q-1 -16 -7 -37q-4 -17 -14 -27q-6 -5 -22 -11q-12 -4 -34 -4h-116v184h142q39 0 51 -5q20 -8 28 -22
t16 -52h15l-6 105h-378v-26h18q19 0 28 -1q13 -1 19 -9q6 -6 10 -17q4 -12 4 -38v-289q0 -20 -3 -31l-5 -17q-1 -6 -8 -9q-8 -3 -12 -7q-8 -5 -16 -3q-6 1 -17 1h-18v-27h378l42 132h-14z" />
    <glyph glyph-name="circlefacebook" unicode="circlefacebook" 
d="M424 718q88 0 164 -33t133 -90t90 -133t33 -163t-33 -163q-33 -77 -90 -134t-133 -90t-164 -33q-86 0 -163 33q-76 33 -133 90t-90 134q-33 76 -33 163t33 163t90 133t133 90q77 33 163 33zM582 535h-89q-25 0 -48 -9q-21 -8 -38 -24q-18 -16 -26 -34q-9 -20 -9 -38v-53
h-79v-104h79v-210h105v210h78v104h-78v27q0 12 10 19q8 7 16 7h79v105z" />
    <glyph glyph-name="circlefeedburner" unicode="circlefeedburner" 
d="M425 720q87 0 164 -33q76 -33 133 -90t90 -133t33 -164q0 -86 -33 -163t-90 -134t-133 -90q-77 -33 -164 -33t-163 33q-77 33 -134 90t-90 134t-33 163q0 88 33 164t90 133t134 90q76 33 163 33zM384 558q-25 -17 -47 -48q-25 -36 -41 -68q-19 -40 -29 -78
q-11 -42 -11 -75q0 -50 12 -89q12 -40 34 -68q20 -27 50 -43q28 -16 63 -16q33 0 65 15q29 12 56 38q24 24 39 54t15 62q0 36 -9 63q-9 25 -24 45q-16 20 -34 33q-26 18 -39 26q6 -31 0 -57q-5 -23 -20 -41q-13 -15 -34 -22q-22 -6 -45 1q23 40 29 66q6 27 3 48
q-5 21 -13 36q-10 16 -18 33q-9 19 -10 37q-3 19 8 48zM415 106q-33 0 -62 17t-43 49q-15 32 -11 75q3 41 35 95q-6 -29 -1 -56t16 -45q9 -17 28 -29q17 -11 33 -11q38 -2 62 32q24 33 34 80q31 -23 40 -59q8 -36 -4 -67q-12 -33 -44 -56q-31 -23 -83 -25zM425 43q46 0 92 8
q40 7 75 22q30 13 51 32q18 19 18 40q0 18 -14 35q-13 16 -39 30q-9 -30 -28 -54q-18 -23 -45 -44q-26 -19 -56 -29q-33 -11 -63 -11q-61 0 -105 37q-46 38 -65 103q-25 -13 -42 -31q-15 -17 -15 -36q0 -21 19 -40q18 -19 50 -32q35 -15 75 -22q46 -8 92 -8z" />
    <glyph glyph-name="circleflickr" unicode="circleflickr" 
d="M424 718q86 0 163 -33q75 -32 133 -89q57 -57 90 -133q33 -77 33 -163t-33 -163q-33 -76 -90 -133t-133 -90q-77 -33 -163 -33t-163 33t-132 90q-57 57 -90 133q-33 77 -33 163t33 163q33 76 90 133q56 56 132 89q77 33 163 33zM555 195q20 0 41 8q19 7 33 23
q14 14 23 33q8 21 8 41t-8 41q-9 19 -23 33q-15 15 -33 22q-21 8 -41 8t-41 -8q-18 -7 -33 -22q-16 -14 -23 -33q-8 -21 -8 -41t8 -41q7 -19 23 -33q14 -16 33 -23q21 -8 41 -8zM294 195q19 0 40 8q18 7 34 23q15 15 22 33q8 21 8 41t-8 41q-7 18 -22 33q-17 16 -34 22
q-21 8 -40 8q-20 0 -41 -8q-18 -7 -33 -22q-16 -14 -23 -33q-8 -21 -8 -41t8 -41q7 -19 23 -33q14 -16 33 -23q21 -8 41 -8z" />
    <glyph glyph-name="circlefoodspotting" unicode="circlefoodspotting" 
d="M424 718q86 0 163 -33q75 -32 133 -89q57 -57 90 -133q33 -77 33 -163t-33 -163q-33 -76 -90 -133t-133 -90q-77 -33 -163 -33t-163 33t-132 90q-57 57 -90 133q-33 77 -33 163t33 163q33 76 90 133q56 56 132 89q77 33 163 33zM660 300v157q0 21 -15 37q-17 15 -38 15
h-52l-26 52h-105l-26 -52h-52q-22 0 -37 -15q-15 -16 -15 -37v-157q0 -22 15 -37t37 -15h261q21 0 38 15q15 15 15 37zM241 509h-52v-261h52v261zM477 483q21 0 40 -9q17 -6 34 -22q15 -15 22 -33q8 -21 8 -41t-8 -41q-7 -18 -22 -33q-17 -16 -34 -22q-21 -8 -40 -8
q-20 0 -41 8q-18 7 -33 22q-16 14 -23 33q-8 21 -8 41t8 41q7 19 23 33q15 15 33 22q20 9 41 9zM477 326q22 0 37 15t15 37t-15 37q-15 16 -37 16t-37 -16q-16 -15 -16 -37t16 -37q15 -15 37 -15zM200 41h28v65h58v27h-58v36h68v26h-96v-154zM622 195v-55q-12 15 -29 15
q-19 0 -31 -15q-12 -14 -12 -43q0 -28 12 -43q13 -16 30 -16q9 0 17 5q9 5 15 14v-16h24v154h-26zM402 55q14 16 14 42t-14 42q-15 16 -38 16q-17 0 -27 -7q-12 -8 -18 -21q-7 -15 -7 -29q0 -17 7 -32q6 -14 19 -21t27 -7q22 0 37 17zM520 55q15 17 15 42t-15 42
q-13 16 -37 16q-17 0 -27 -7q-12 -8 -18 -21q-7 -13 -7 -29q0 -19 7 -32q6 -14 19 -21t26 -7q23 0 37 17zM600 133q8 0 16 -9q6 -9 6 -28t-7 -26q-6 -8 -15 -8q-12 0 -18 11q-5 12 -5 26q0 18 7 25q6 9 16 9zM364 131q10 0 18 -9q7 -7 7 -25q0 -19 -7 -26q-8 -9 -18 -9
t-17 9q-7 7 -7 26q0 18 7 25q7 9 17 9zM483 131q11 0 18 -9q7 -10 7 -25q0 -16 -7 -26q-7 -9 -18 -9t-17 9q-8 11 -8 26q0 14 8 25q6 9 17 9z" />
    <glyph glyph-name="circleforrst" unicode="circleforrst" 
d="M424 717q86 0 163 -33q75 -32 133 -89q57 -57 90 -133t33 -163t-33 -163t-90 -133t-133 -90q-77 -33 -163 -33t-163 33t-132 90q-57 57 -90 133t-33 163t33 163t90 133q56 56 132 89q77 33 163 33zM209 63h194v107l-65 22v21l65 -21v85h43v-42l43 21v-21l-43 -22v-43
l86 43v-21l-86 -43v-86h194l-216 471z" />
    <glyph glyph-name="circlefoursquare" unicode="circlefoursquare" 
d="M424 718q86 0 163 -33q75 -32 133 -89q57 -57 90 -133q33 -77 33 -163t-33 -163q-33 -76 -90 -133t-133 -90q-77 -33 -163 -33t-163 33t-132 90q-57 57 -90 133q-33 77 -33 163t33 163q33 76 90 133q56 56 132 89q77 33 163 33zM489 332l-64 67l-27 -28q-10 34 -39 55
q-26 22 -62 22q-23 0 -43 -9q-19 -9 -34 -25q-15 -17 -22 -36q-9 -20 -9 -43t9 -43q7 -19 22 -36q12 -15 34 -25q19 -10 41 -10l130 -137l150 158l-16 16l101 80v177l-18 -19zM629 350l-206 -189l-92 98l-8 -3q-13 -6 -26 -6q-33 0 -57 25q-23 26 -23 60t23 59q24 25 57 25
q17 0 30 -7q14 -6 25 -18q11 -11 17 -27q7 -14 7 -32q0 -16 -6 -31l-2 -6l55 -83l206 224v-89z" />
    <glyph glyph-name="circlefriendsfeed" unicode="circlefriendsfeed" 
d="M424 719q86 0 163 -33q75 -32 133 -89q57 -57 90 -133t33 -163t-33 -163t-90 -133t-133 -90q-77 -33 -163 -33t-163 33t-132 90q-57 57 -90 133t-33 163t33 163t90 133q56 56 132 89q77 33 163 33zM617 483h-69q-26 0 -49 -15q-24 -16 -37 -38v53h-69q-21 0 -39 -9
q-20 -9 -33 -25q-15 -19 -22 -36q-8 -22 -8 -45v-45h-76v-76h76v-183h76v183h78v-183h76v183h76v76h-76v45q0 18 9 28q7 10 18 10h69v77zM393 406h59q-4 -12 -5 -18q-2 -12 -2 -20v-45h-78v45q0 18 9 28q7 10 17 10z" />
    <glyph glyph-name="circlefriendstar" unicode="circlefriendstar" 
d="M424 717q86 0 163 -33q75 -32 133 -89q57 -57 90 -133t33 -163t-33 -163t-90 -133t-133 -90q-77 -33 -163 -33t-163 33t-132 90q-57 57 -90 133t-33 163t33 163t90 133q56 56 132 89q77 33 163 33zM484 364q-1 -14 2 -41q5 -25 14 -34q5 -5 11 -5q36 0 36 57q0 14 -4 25
q-2 8 -8 22q-4 10 -12 16q-7 6 -14 6h-3q-19 -3 -22 -46zM396 352q-4 -16 -3 -34q3 -18 12 -30q4 -6 8 -10q3 -3 13 -5h4q18 0 25 16q7 17 9 36q0 15 -6 28q-6 14 -14 22t-16 8t-16 -4t-16 -27zM657 278q5 30 2 50q-3 21 -12 32q-7 9 -19 9h-2q-22 -1 -30 -19
q-7 -15 -13 -48q-3 -17 -9 -38q-5 -20 -20 -43q-15 -21 -36 -34q-22 -13 -56 -12q-35 1 -55 13q-18 11 -26 26q-10 16 -11 32q-3 17 -9 32l-3 9q0 1 -1 4t-2 4q-3 9 -14 25t-22 26q-16 14 -29 20q-18 8 -35 8h-66v-49h48q11 0 27 -15q16 -13 22 -39q17 -77 59 -116
q41 -39 104 -39h5q51 2 87 19q37 19 62 44q25 26 38 53t16 46z" />
    <glyph glyph-name="circlegdgt" unicode="circlegdgt" 
d="M424 718q86 0 163 -33q75 -32 133 -89q57 -57 90 -133q33 -77 33 -163t-33 -163q-33 -76 -90 -133t-133 -90q-77 -33 -163 -33t-163 33t-132 90q-57 57 -90 133q-33 77 -33 163t33 163q33 76 90 133q56 56 132 89q77 33 163 33zM555 509l-26 26h-288l-26 -26v-261l26 -27
h236v-78h-236v-52l26 -27h262l26 27v130l78 131v157l-78 -154v154zM477 300h-183v157h183v-157z" />
    <glyph glyph-name="circlegithub" unicode="circlegithub" 
d="M424 718q86 0 163 -33q75 -32 133 -89q57 -57 90 -133q33 -77 33 -163t-33 -163q-33 -76 -90 -133t-133 -90q-77 -33 -163 -33t-163 33t-132 90q-57 57 -90 133q-33 77 -33 163t33 163q33 76 90 133q56 56 132 89q77 33 163 33zM411 34q31 0 56 9t45 24q21 16 31 35
q12 20 12 43t-12 42q-10 19 -31 35q-20 15 -45 24t-56 9h-6q-2 -1 -5 -1q-5 13 -5 24q0 10 1 16q2 8 3 8h4q26 0 46 10q22 9 38 25q18 18 26 38q10 20 10 45q0 13 -4 25q-4 13 -12 19l42 23v78l-86 -47q-29 20 -63 20q-25 0 -46 -9q-22 -11 -38 -26q-16 -16 -25 -37
q-9 -22 -9 -46q0 -28 12 -51q11 -22 32 -40q-11 -27 -11 -51q0 -12 3 -23q1 -9 7 -23q-25 -15 -42 -38q-16 -22 -16 -49q0 -23 12 -43q10 -19 31 -35q20 -15 45 -24t56 -9zM403 365q-24 0 -40 16t-16 39t16 39t40 16q23 0 39 -16q17 -17 17 -39t-17 -39q-16 -16 -39 -16z
M411 187q27 0 45 -12q19 -13 19 -30q0 -18 -19 -30q-17 -13 -45 -13q-26 0 -45 13q-19 12 -19 30q0 17 19 30q20 12 45 12z" />
    <glyph glyph-name="circlegithubalt" unicode="circlegithubalt" 
d="M425 719q87 0 163 -33q75 -32 133 -89q57 -57 90 -133t33 -164q0 -86 -33 -163q-33 -76 -90 -133t-133 -90t-163 -33t-163 33t-133 90t-90 133q-33 77 -33 163q0 88 33 164t90 133q58 57 133 89q76 33 163 33zM694 159q21 43 21 115q0 83 -47 138q9 28 9 58q0 37 -17 76
q-35 0 -66 -14q-26 -14 -30 -17q-6 -4 -18 -12.5t-17 -12.5q-45 12 -97 12q-28 0 -55 -3q-38 -7 -52 -10q-36 29 -66 43q-31 14 -65 14q-18 -36 -18 -76q0 -30 9 -59q-47 -56 -47 -137q0 -72 22 -115q17 -36 49 -55q35 -21 70 -30q28 -8 53 -11l27 -3q9 -1 24 -1q7 -1 23 -1
h57q18 0 27 1l28 3q9 1 31 5q37 6 59 16q25 10 49 31t37 45zM549 313q41 0 65 -29q24 -30 24 -71q0 -31 -12 -53q-10 -21 -28 -36q-16 -14 -42 -21q-30 -9 -49 -10q-30 -2 -51 -2h-59q-21 0 -51 2q-19 1 -49 10q-25 7 -42 21q-18 15 -28 36q-11 24 -11 53q0 41 24 71
q24 29 65 29q2 0 24 -2l43 -5q8 -1 26 -3q9 -1 29 -1q19 0 28 1q18 2 26 3l43 5q22 2 25 2zM341 158q16 19 19 41q2 24 -4 42q-4 15 -15 27t-25 12t-26 -12q-16 -20 -17 -41q-3 -21 2 -42q4 -13 16 -27q11 -12 25 -12t25 12zM563 158q16 19 19 41q2 25 -5 42q-5 17 -14 27
q-11 12 -25 12t-26 -12q-16 -20 -17 -41q-3 -21 2 -42q4 -13 16 -27q11 -12 25 -12t25 12z" />
    <glyph glyph-name="circlegooglebuzz" unicode="circlegooglebu&#x7a;&#x7a;" 
d="M424 717q86 0 163 -33q75 -32 133 -89q57 -57 90 -133t33 -163t-33 -163t-90 -133t-133 -90q-77 -33 -163 -33t-163 33t-132 90q-57 57 -90 133t-33 163t33 163t90 133q56 56 132 89q77 33 163 33zM424 508q-62 0 -115 -24q-55 -24 -86 -66l134 -128l201 185
q-27 16 -63 25q-37 8 -71 8zM454 342l149 -141q57 53 57 121q0 39 -20 76q-22 37 -58 62zM337 272l-129 122q-19 -31 -19 -72q0 -36 17 -68q18 -35 47 -59zM424 136q44 0 85 12q41 14 72 36l-147 140l-165 -152l-1 -2q-7 -16 -15 -28q-12 -16 -23 -23l14 -2q5 -1 19 -1
q48 0 86 26l6 3l4 -1q17 -4 33 -6q20 -2 32 -2z" />
    <glyph glyph-name="circlegoogleplus" unicode="circlegoogleplus" 
d="M425 719q87 0 163 -33q75 -32 133 -89q57 -57 90 -133t33 -164q0 -86 -33 -163q-33 -76 -90 -133t-133 -90t-163 -33t-163 33t-133 90t-90 133q-33 77 -33 163q0 88 33 164t90 133q58 57 133 89q76 33 163 33zM620 560h-41v-81h-81v-40h81v-82h41v82h81v40h-81v81z
M451 74q45 39 45 89q0 33 -15 54q-14 21 -33 37l-33 28q-15 12 -15 27q0 18 16 31q10 9 30 31q12 12 19 29t7 42q0 26 -13 53q-12 26 -35 40h43l43 25h-139q-29 0 -59 -6q-44 -11 -74 -45q-30 -35 -30 -79q0 -48 33 -78q34 -31 81 -31h11l12 1q-1 -1 -1 -3q-1 -3 -1 -4
l-3 -7q-2 -4 -2 -13q0 -22 20 -47q-49 -2 -97 -16q-26 -8 -46 -23q-19 -15 -30 -35q-12 -22 -12 -43q0 -26 14 -46q13 -19 36 -31q24 -13 47 -17q28 -5 48 -5q85 0 133 42zM413 410q0 -31 -14 -51q-13 -19 -45 -19q-20 0 -37 12q-19 16 -28 31q-12 22 -17 40q-6 23 -6 40
q0 30 16 53q16 22 46 22q22 0 38 -13q17 -14 26 -33q10 -18 16 -42q5 -23 5 -40zM441 171q3 -3 5 -11q5 -12 5 -24q0 -22 -9 -35q-9 -14 -23 -23q-14 -7 -32 -12q-16 -4 -36 -4q-42 0 -79 19q-20 12 -29 26q-11 17 -11 39q0 30 18 47t43 25q20 7 35 8q16 3 33 3l9 -1h7l9 -7
q4 -1 7 -4l4 -3l10 -7l6 -5l4 -4l3 -2l6 -6l8 -9q4 -6 7 -10z" />
    <glyph glyph-name="circlegoogle" unicode="circlegoogle" 
d="M425 719q87 0 163 -33q75 -32 133 -89q57 -57 90 -133t33 -164q0 -86 -33 -163q-33 -76 -90 -133t-133 -90t-163 -33t-163 33t-133 90t-90 133q-33 77 -33 163q0 88 33 164t90 133q58 57 133 89q76 33 163 33zM528 73q45 39 45 90q0 33 -15 54q-12 17 -32 37
q-26 21 -33 28q-15 12 -15 27q0 17 15 31q10 9 31 30q10 10 18 29q7 17 7 42q0 13 -3 27q-6 18 -10 27q-12 25 -35 39h43l43 26h-139q-9 0 -29 -2q-10 -1 -30 -5q-44 -9 -74 -45q-30 -34 -30 -79q0 -48 33 -78q34 -31 81 -31h11q7 0 12 1l-2 -6q-2 -6 -3 -7q-2 -10 -2 -14
q0 -22 20 -47q-48 -2 -97 -16q-26 -8 -46 -23q-19 -15 -30 -35q-12 -23 -12 -42q0 -27 14 -47t36 -30q24 -13 47 -17q28 -5 48 -5q83 0 133 41zM487 409q0 -32 -13 -51t-45 -19q-21 0 -37 13q-19 14 -28 31q-12 22 -17 41q-6 21 -6 39q0 33 16 52q16 22 46 22q22 0 38 -13
q15 -12 26 -33q20 -43 20 -82zM515 171q4 -6 6 -11q0 -1 1.5 -5t2.5 -6q1 -4 1 -13q0 -22 -9 -35q-9 -15 -23 -23q-13 -8 -32 -13q-16 -4 -36 -4q-18 0 -40 5q-24 5 -39 14q-19 11 -29 27q-12 17 -12 39q0 29 18 47q19 18 44 25q33 10 68 10q13 0 16 -1l9 -6l11 -8l9 -7
q3 -2 6.5 -4.5t4.5 -3.5l8 -8q6 -4 9 -9q1 -4 6 -10z" />
    <glyph glyph-name="circleresearchgate" unicode="circleresearchgate" 
d="M425 719q87 0 163 -33q75 -32 133 -89q57 -57 90 -133t33 -164q0 -86 -33 -163q-33 -76 -90 -133t-133 -90t-163 -33t-163 33q-78 34 -133 90q-57 57 -90 133q-33 77 -33 163q0 88 33 164t90 133q56 56 133 89q76 33 163 33zM577 377q4 -6 4 -16h57q0 49 -22 71
q-18 26 -72 26q-32 0 -51 -10q-16 -7 -33 -29q-10 -20 -16 -48q-3 -20 -3 -69q0 -51 3 -71q0 -23 13 -51q11 -25 30 -33q15 -10 45 -10q16 0 39 10q11 3 26 23v-26h44v165h-100v-45h43v-33q0 -16 -3 -22q-2 -2 -5.5 -7t-4.5 -6q-2 -3 -7.5 -5.5t-6.5 -4.5q-3 -3 -13 -3
q-13 0 -22 10q-8 9 -13 22q-2 6 -3.5 19t-2.5 20v48q0 61 9 85q11 26 32 26q10 0 16 -6l11 -11q6 -12 6 -19zM202 451v-307h61v130h36q14 0 26 -10q10 -10 10 -30l3 -57v-20q0 -7 6 -13h68q-9 4 -13 20v38q-4 7 -4 23v17q-5 31 -12 38q-11 11 -36 16q28 4 39 27q13 17 13 51
q0 39 -23 58q-19 19 -58 19h-116zM263 315v92h29q46 0 46 -43q0 -27 -13 -35q-16 -14 -36 -14h-26z" />
    <glyph glyph-name="circlegoogletalk" unicode="circlegoogletalk" 
d="M424 719q86 0 163 -33q75 -32 133 -89q57 -57 90 -133t33 -163t-33 -163t-90 -133t-133 -90q-77 -33 -163 -33t-163 33t-132 90q-57 57 -90 133t-33 163t33 163t90 133q56 56 132 89q77 33 163 33zM543 181q62 22 104 68q39 43 39 99q0 38 -21 73q-19 34 -56 60
q-33 24 -83 40q-48 15 -102 15q-55 0 -102 -16q-49 -17 -83 -43q-35 -26 -56 -62q-20 -35 -20 -74q0 -35 16 -64q18 -32 41 -54q25 -24 58 -41q32 -16 63 -24q-8 -22 -24 -47q-18 -27 -44 -44q47 -5 86 4q37 8 72 29q37 22 62 70q-13 -17 -36 -34q-21 -15 -48 -26t-70 -16
q14 19 21 31l15 26q5 9 13 25q-28 7 -58 18q-25 10 -51 26q-26 18 -42 34q-18 19 -28 41l-4 20q-2 14 -2 21q0 37 17 69q17 33 45 55q27 23 70 37q39 13 89 13q48 0 89 -12q44 -15 71 -35q31 -23 47 -54t16 -69q0 -52 -25 -93t-79 -66zM402 488h-6q35 -4 71 -19
q32 -13 57 -35q25 -24 38 -49q13 -27 13 -58q0 -38 -20 -70q-22 -33 -56 -55q51 19 82 55q30 35 30 79q0 31 -16 59t-45 49q-30 20 -66 32q-39 12 -82 12z" />
    <glyph glyph-name="circlegowallapin" unicode="circlegowallapin" 
d="M424 717q86 0 163 -33q75 -32 133 -89q57 -57 90 -133t33 -163t-33 -163t-90 -133t-133 -90q-77 -33 -163 -33t-163 33t-132 90q-57 57 -90 133t-33 163t33 163t90 133q56 56 132 89q77 33 163 33zM424 60l37 144q28 6 53 22t42 37q17 23 27 49t10 57q0 36 -13 66
q-13 29 -37 53t-53 37q-30 13 -66 13t-65 -13q-30 -13 -54 -37q-22 -22 -36 -53q-13 -30 -13 -66q0 -31 10 -57q11 -27 28 -49q15 -21 41 -37q23 -16 52 -22zM424 495q28 0 49 -10q24 -11 41 -27q16 -16 27 -40q10 -21 10 -49t-10 -49q-11 -24 -27 -40q-17 -16 -41 -27
q-21 -10 -49 -10t-49 10q-24 11 -40 27t-27 40q-10 21 -10 49t10 49q11 24 27 40t40 27q21 10 49 10zM424 299q29 0 50 21q20 20 20 49q0 28 -20 50q-22 20 -50 20q-29 0 -49 -20q-20 -22 -20 -50q0 -29 20 -49q19 -21 49 -21z" />
    <glyph glyph-name="circlegowalla" unicode="circlegowalla" 
d="M425 717q87 0 163 -33q75 -32 133 -89q57 -58 89 -133q33 -76 33 -163t-33 -163q-32 -75 -89 -133q-57 -57 -133 -90t-163 -33t-163 33t-133 90t-90 133t-33 163t33 163t90 133q58 57 133 89q76 33 163 33zM679 79q6 13 7 26l-9 8q-1 1 -5 4t-5 5l-8 7q-3 2 -8 7
q0 8 -1 12l-2 12q-19 97 -84 151q-67 55 -186 74v5l7 48q2 16 4 50q0 24 -3 45q-5 22 -14 34q-11 15 -31 17h-4q-18 0 -34 -13q-18 -15 -28 -55q-14 10 -22 14q-12 6 -26 6q-19 0 -38 -12q-19 -11 -20 -33q0 -17 10 -34q9 -18 24 -36q12 -15 32 -33q12 -12 32 -28
q-5 -3 -28 -22q-17 -14 -32 -29q-15 -14 -28 -33q-12 -16 -15 -34q-5 -26 10 -45q15 -17 39 -17q8 0 20 3q11 3 28 12q17 12 33 28q18 19 38 47q4 -11 2 -30q-1 -15 -19 -29l-11 -7q-35 -26 -56 -45q-23 -20 -23 -49q0 -17 11 -28q10 -10 29 -10q13 0 22 4q10 4 13 15
q5 17 5 32q10 -2 16 -3q5 -1 17 -3q-4 -20 -4 -50q0 -29 7 -53h25q-8 24 -8 52q0 30 4 50q5 -1 18 1q27 5 39 24q7 13 3 30q-5 17 -25 17q-12 0 -26 -8q-15 -9 -23 -26l-3 -5q-2 -4 -3 -7l-17 3q-6 1 -16 3l-15 3l-15 3q4 4 18 14l21 15l11 8q15 11 23 28q7 14 7 31t-4 30
q-5 15 -9 23l-9 19l-12 -18q-21 -34 -39 -54q-20 -20 -33 -30q-15 -11 -25 -12q-10 -3 -15 -3q-13 0 -20 9q-7 6 -5 23q3 16 16 32q9 11 30 32q12 12 34 28l27 20l16 11l-16 10q-22 16 -35 28q-20 18 -32 33q-14 16 -24 32t-10 27q0 9 7 13q19 12 36 6q13 -4 33 -22
q-2 -20 -2 -26l-1 -15q0 -20 10 -36q11 -17 30 -17q7 0 14 3q10 4 15 11q1 2 4 11q6 27 -33 66l-11 11l5 21q3 11 9 22q4 10 12 16t17 5t14 -8q8 -11 9 -29q3 -20 2 -41q-2 -30 -4 -46l-6 -41l-4 -30l12 -2q118 -16 181 -67q63 -50 81 -140l-7 3l-6 2q-21 6 -36 8
q-17 4 -39 4q-66 0 -89 -47q-12 -23 -17 -56q-3 -31 4 -55h25q-7 19 -5 48q3 28 15 52q15 33 67 33q20 0 36 -4q22 -3 33 -7q11 -3 22 -13q-2 -30 -14 -47q-11 -17 -27 -28q-13 -9 -28 -14l-13 -3l-26 -5l14 -12h41q24 10 46 30q23 23 29 60l1 -1h1l13 -13q10 -8 15 -11z
M292 446v18q16 -16 21 -27t3 -14q0 -3 -4 -4h-3q-1 -1 -2 -1q-7 0 -11 9q-4 8 -4 19zM398 154q-7 -10 -22 -13h-7l1 2q5 11 14 16q7 4 13 4h2q2 -5 -1 -9zM277 152v-31q0 -11 -2 -21l-3 -2q-1 -1 -7 -1q-16 0 -16 13q0 10 8 21q9 12 20 21z" />
    <glyph glyph-name="circlegrooveshark" unicode="circlegrooveshark" 
d="M424 717q86 0 163 -33q75 -32 133 -89q57 -57 90 -133t33 -163t-33 -163t-90 -133t-133 -90q-77 -33 -163 -33t-163 33t-132 90q-57 57 -90 133t-33 163t33 163t90 133q56 56 132 89q77 33 163 33zM424 37q54 0 102 21q48 20 83 56q36 34 57 83q20 49 20 102t-20 102
q-21 46 -56 83q-37 35 -84 56q-49 20 -102 20t-101 -20q-48 -21 -83 -56q-36 -36 -56 -83q-21 -48 -21 -102t21 -102q20 -48 56 -83q35 -36 83 -56q47 -21 101 -21zM424 534q50 0 92 -19q43 -18 75 -50t50 -75q19 -41 19 -91q0 -30 -7 -57q-8 -31 -20 -51q-18 12 -36 33
q-5 8 -16 22t-17 22q-10 15 -28 41q-14 23 -19 28q-34 38 -76 70q-36 27 -92 44q-1 -29 0 -57q1 -26 -2 -55q-1 -26 -11 -50q-9 -24 -30 -42q-11 -9 -22 -14q-8 -4 -26 -10q-8 -3 -28 -5q-18 -2 -26 -1q-15 39 -15 82q0 49 18 92q20 43 51 74t74 51q44 18 92 18z" />
    <glyph glyph-name="circleheart" unicode="circleheart" 
d="M424 718q86 0 163 -33q75 -32 133 -89q57 -57 90 -133q33 -77 33 -163t-33 -163q-33 -76 -90 -133t-133 -90q-77 -33 -163 -33t-163 33t-132 90q-57 57 -90 133q-33 77 -33 163t33 163q33 76 90 133q56 56 132 89q77 33 163 33zM431 91q15 0 41 15q21 12 53 41t56 58
q26 31 46 69q21 37 28 71q9 36 0 68q-17 51 -50 73q-31 21 -70 23q-30 0 -51 -12q-21 -14 -33 -28q-10 -12 -19 -27q-6 -13 -8 -13t-8 13q-6 12 -18 27q-11 14 -33 28q-19 12 -50 12q-38 0 -72 -22t-50 -74q-9 -33 1 -68q9 -37 30 -71q21 -36 51 -69q25 -30 59 -58
q28 -25 55 -41q25 -15 42 -15z" />
    <glyph glyph-name="circlehyves" unicode="circlehyves" 
d="M424 718q86 0 163 -33q75 -32 133 -89q57 -57 90 -133q33 -77 33 -163t-33 -163q-33 -76 -90 -133t-133 -90q-77 -33 -163 -33t-163 33t-132 90q-57 57 -90 133q-33 77 -33 163t33 163q33 76 90 133q56 56 132 89q77 33 163 33zM617 123q4 5 4 12q-2 8 -4 13q-3 6 -7 10
t-9 6q-6 2 -11 1q-8 -1 -11 2q-2 2 -2 15v215v41q-2 23 6 32q3 2 7 4l11 4q5 3 10 5q3 2 5 6q2 5 0 13q-1 5 -5 15q-6 10 -9 13q-7 5 -10 5h-33l-39 -7q-18 -3 -36 -11q-6 -2 -10 -6q-5 -3 -6 -7q-5 -17 5 -27q11 -11 21 -15q3 -1 11 -3q8 0 11 -3q4 -4 3 -16l-2 -20
q-2 -26 -2 -37q-1 -14 2 -39l3 -19q2 -11 -5 -16q-1 -1 -7 -3l-12 -1l-13 -1l-11 -1q-27 -3 -54 -8l-50 -10q-6 -2 -10 -3q-5 -1 -11 1q-3 1 -4 10l-2 14q-1 29 0 51q2 30 2 50v18q0 8 2 12q2 3 8 5l12 3q2 0 6 2t6 2q5 2 8 6q2 6 2 12t-2 12q-5 12 -14 17q-8 5 -21 7
q-8 1 -26 -1q-10 -1 -30 -5q-25 -5 -40 -10q-18 -4 -26 -19v-9q4 -10 11 -17q5 -6 14 -11q3 -1 13 -3q8 0 9 -3q2 -4 2 -16v-21q0 -25 2 -59q1 -17 1 -58l2 -57q2 -38 4 -56l2 -21q1 -10 -2 -15q-1 -1 -5 -3l-7 -1q-6 -1 -16 -7q-8 -4 -10 -13q-2 -10 8 -20q12 -12 20 -13
q8 -2 11 -2l13 1q10 1 27 3q16 2 29 6q18 6 25 10q11 8 12 16q1 10 -7 20q-8 9 -15 12q-3 2 -12 0q-8 -1 -12 4q-2 6 -1 11v13q-1 10 -3 29q-1 19 3 26t17 10l19 5q26 9 41 10l45 7l10 1q5 1 15 1q8 2 14 0q7 0 9 -2q1 -1 1 -10v-12l-1 -14q0 -7 1 -11q0 -6 2 -26
q2 -14 -3 -19q-4 -3 -12 -3q-6 0 -12 -2q-14 -8 -15 -15q-1 -12 12 -25q12 -12 26 -14q22 -2 43 4q26 7 37 13l13 5q7 1 9 5z" />
    <glyph glyph-name="circleicondock" unicode="circleicondock" 
d="M424 718q86 0 163 -33q75 -32 133 -89q57 -57 90 -133q33 -77 33 -163t-33 -163q-33 -76 -90 -133t-133 -90q-77 -33 -163 -33t-163 33t-132 90q-57 57 -90 133q-33 77 -33 163t33 163q33 76 90 133q56 56 132 89q77 33 163 33zM651 226l8 75q1 13 -6 21q-8 8 -20 8h-4
l-77 -7q-16 -1 -19 -10q-1 -1 -1 -5q1 -2 6 -7q14 -13 27 -18l7 -3l-4 -6q-4 -6 -14 -13l-61 -52l-7 -5q-4 -2 -7 -2q-11 0 -11 17v149l3 1q21 13 33 33t12 44q0 19 -7 34q-9 19 -20 29q-11 11 -29 19q-15 7 -36 7t-36 -7q-16 -7 -29 -19q-11 -11 -19 -29t-8 -34
q0 -24 14 -46t36 -32l3 -2v-150q0 -17 -11 -17q-8 0 -14 6l-66 56q-10 9 -13 13l-5 6l8 3q14 5 27 18q7 7 4 12q-2 9 -18 10l-78 7h-3q-12 0 -20 -8q-9 -9 -7 -21l8 -75q3 -18 13 -18l5 1q2 0 5 4q7 6 12 14q7 11 7 12l2 7l7 -4l6 -5l8 -8l140 -154q9 -11 22 -11q14 0 23 11
l140 154q8 9 14 13l6 4l3 -7q0 -1 7 -12q5 -7 11 -14q4 -4 7 -4l4 -1q4 0 8 4q3 4 4 14zM424 500q23 0 39 -16q17 -17 17 -38q0 -22 -17 -39q-17 -15 -39 -15t-39 15q-16 16 -16 39q0 22 16 38t39 16z" />
    <glyph glyph-name="circleicq" unicode="circleicq" 
d="M424 718q86 0 163 -33q75 -32 133 -89q57 -57 90 -133q33 -77 33 -163t-33 -163q-33 -76 -90 -133t-133 -90q-77 -33 -163 -33t-163 33t-132 90q-57 57 -90 133q-33 77 -33 163t33 163q33 76 90 133q56 56 132 89q77 33 163 33zM656 219q9 31 -6 58l-3 5l-8 11
q-3 4 -11 10q-4 4 -11 6l-11 6q15 7 27 17q12 12 16 24q4 10 1 20t-3 19v1q-13 9 -19 17q-4 5 -18 10q-10 2 -16 2q-11 0 -16 -1l-23 -5l8 17q9 33 -7 61l-2 3q-14 24 -46 32q-31 9 -59 -6q-12 -7 -26 -19q-13 -12 -13 -27v-5l-3 4l-7 12q-16 25 -41 31q-21 5 -40 -4
q-20 -14 -26 -41q-5 -32 11 -56l4 -7l-16 5q-29 8 -58 -8q-28 -13 -40 -43q-11 -29 3 -53q6 -9 7 -10q5 -5 8 -7q12 -12 31 -15l4 -1l-10 -9q-13 -12 -18 -27q-5 -21 5 -36q4 -7 12 -13l9 -6q6 -2 11 -2q23 -6 48 1l-13 -19l-3 -9q-10 -30 5 -59l16 -20q12 -11 30 -15
q31 -9 61 5q28 15 37 46v4q19 -23 39 -27q22 -6 39 5q18 11 24 32q4 21 0 46q9 -7 21 -10q32 -10 60 4q27 15 36 46zM437 438v33q6 20 25 30q20 11 39 3q20 -4 30 -22q6 -9 6 -23l-2 -14q-6 -14 -10 -20l-61 -73q-8 6 -20 11zM333 427l-4 7q-5 9 -6 18q-3 7 -1 17
q1 18 13 25q6 4 16 0q17 -4 30 -28l5 -10q1 -3 3 -11l14 -79l-10 -3zM552 388l8 3q20 8 36 5q18 -2 24 -14l3 -9l-2 -7q-7 -18 -31 -28q-11 -5 -23 -6l-83 -10l-1 5l-2 2l3 3zM255 310l-7 1q-17 3 -26 18q-7 13 -1 29q8 20 26 28q19 10 38 6l19 -8l59 -42q-10 -13 -11 -20z
M464 297q0 -20 -13 -32q-14 -13 -31 -13q-19 0 -32 13q-13 12 -13 32q0 18 13 31q14 12 32 12q19 0 31 -12q13 -13 13 -31zM590 289l6 -1q8 -2 14 -6q5 -3 11 -13q10 -10 10 -29l-2 -13q-5 -20 -23 -29q-19 -10 -37 -3q-5 1 -11 5q-3 1 -8 6l-71 58l5 9l2 8l77 7zM354 270
l2 -5q-10 -8 -14 -12q-5 -6 -11 -11l-21 -17l-5 -3q-17 -9 -35 -7q-15 1 -22 10l-2 7l1 6q8 17 28 27q11 6 20 8l55 10zM502 190l3 -6q5 -9 8 -17q1 -7 0 -18q-1 -17 -13 -24q-5 -4 -16 -2q-20 5 -30 29l-8 22l-11 58l12 4l9 4l28 -28zM383 239l10 -5q6 -2 11 -2
q1 -11 3 -35q3 -18 3 -38v-33q-7 -19 -25 -27q-17 -10 -37 -5q-20 6 -30 22l-4 11q-2 8 -2 12l4 15q2 10 10 19z" />
    <glyph glyph-name="circleidentica" unicode="circleidentica" 
d="M424 718q86 0 163 -33q75 -32 133 -89q57 -57 90 -133q33 -77 33 -163t-33 -163q-33 -76 -90 -133t-133 -90q-77 -33 -163 -33t-163 33t-132 90q-57 57 -90 133q-33 77 -33 163t33 163q33 76 90 133q56 56 132 89q77 33 163 33zM557 72l22 69q25 14 39 38q15 24 15 53
q0 20 -8 41q-7 18 -22 33q-16 16 -31 22q-19 8 -39 8l-3 -1h-1q4 15 4 38q0 33 -12 61q-11 27 -32 49q-19 21 -48 33t-59 12t-59 -12q-27 -12 -48 -33q-21 -22 -32 -49q-12 -28 -12 -61q0 -32 13 -62l-29 -115l107 35q30 -13 60 -13q27 0 51 9q2 -36 24 -61q22 -26 54 -34z
M468 311q-13 -11 -18 -20q-14 -11 -30 -18q-15 -7 -35 -7q-22 0 -46 11l-71 -29l22 85q-7 18 -7 37q0 20 8 41q7 18 22 33t33 22q19 8 39 8q19 0 40 -8q17 -7 32 -22q13 -14 21 -33q8 -21 8 -41q0 -16 -5 -31q-3 -10 -13 -28zM533 288q22 0 37 -15q15 -17 15 -39
q0 -15 -8 -28q-7 -12 -19 -19l-15 -40l-20 34q-18 4 -31 19q-12 14 -12 34q0 16 9 29l5 6q4 4 6 7q15 12 33 12z" />
    <glyph glyph-name="circleimessage" unicode="circleimessage" 
d="M424 716q86 0 163 -33q75 -32 133 -89q57 -57 90 -133q33 -77 33 -163t-33 -163q-33 -76 -90 -133t-133 -90q-77 -33 -163 -33t-163 33t-132 90q-57 57 -90 133q-33 77 -33 163t33 163q33 76 90 133q56 56 132 89q77 33 163 33zM424 99q50 0 92 16q45 17 75 43
q32 29 51 65q18 37 18 80q0 41 -18 79q-20 38 -51 65q-30 27 -75 44q-42 16 -92 16t-91 -16q-45 -17 -75 -44q-32 -27 -50 -65q-19 -37 -19 -79q0 -50 26 -94q25 -43 71 -72q-3 -17 -18 -31q-17 -13 -36 -14q16 -3 34 -3q47 0 79 22q37 -12 79 -12z" />
    <glyph glyph-name="circleitunes" unicode="circleitunes" 
d="M424 719q86 0 163 -33q75 -32 133 -89q57 -57 90 -133t33 -163t-33 -163t-90 -133t-133 -90q-77 -33 -163 -33t-163 33t-132 90q-57 57 -90 133t-33 163t33 163t90 133q56 56 132 89q77 33 163 33zM424 39q54 0 102 21q48 20 83 56q36 34 57 83q20 49 20 102t-20 102
q-21 46 -56 83q-37 35 -84 56q-49 20 -102 20t-101 -20q-48 -21 -83 -56q-36 -36 -56 -83q-21 -48 -21 -102t21 -102q20 -48 56 -83q35 -36 83 -56q47 -21 101 -21zM424 536q48 0 92 -18q44 -20 75 -51q32 -32 50 -74q19 -42 19 -92t-19 -92q-18 -43 -50 -75t-75 -50
q-42 -19 -92 -19t-92 19q-42 18 -74 50t-51 75q-18 43 -18 92t18 92q20 43 51 74t74 51q44 18 92 18zM346 421v-180q0 1 -9 3q-10 0 -14 -1q-18 -1 -32 -17q-11 -16 -10 -35q2 -20 15 -32t33 -10q17 1 30 16q13 13 12 31h1v165l131 30v-125q0 2 -9 2q-8 2 -14 0
q-18 -1 -32 -17q-12 -14 -10 -35q1 -18 16 -31q13 -12 33 -10q17 1 30 16q12 13 12 31v236l-184 -37h1z" />
    <glyph glyph-name="circlelastfm" unicode="circlelastfm" 
d="M424 717q86 0 163 -33q75 -32 133 -89q57 -57 90 -133t33 -163t-33 -163t-90 -133t-133 -90q-77 -33 -163 -33t-163 33t-132 90q-57 57 -90 133t-33 163t33 163t90 133q56 56 132 89q77 33 163 33zM566 160q40 0 67 24q27 22 27 58q0 34 -18 51q-18 18 -54 28
q-33 11 -45 16q-17 8 -17 30q0 15 10 25t28 10q24 0 40 -22l30 15q-23 41 -68 41q-34 0 -56 -20q-20 -20 -20 -51q0 -32 20 -49q21 -16 63 -30q18 -6 36 -16q13 -7 13 -27t-17 -34q-17 -13 -42 -12q-27 2 -38 14q-12 16 -20 35l-16 36l-15 33l-10 25l-5 13q-18 42 -52 64
q-32 22 -78 22q-28 0 -55 -11q-24 -10 -44 -30t-30 -45q-11 -27 -11 -54q0 -28 11 -55q10 -24 30 -44t44 -30q27 -11 55 -11q31 0 61 14q27 13 48 37l-18 42q-13 -24 -38 -40q-24 -15 -53 -15q-19 0 -40 8q-17 7 -32 22t-22 32q-8 21 -8 40q0 20 8 39q7 18 22 33t32 22
q21 8 40 8q31 0 57 -17q25 -16 36 -44l45 -102l5 -11q14 -33 36 -49q21 -18 58 -18z" />
    <glyph glyph-name="circlelinkedin" unicode="circlelinkedin" 
d="M424 716q86 0 163 -33q75 -32 133 -89q57 -57 90 -133q33 -77 33 -163t-33 -163q-33 -76 -90 -133t-133 -90q-77 -33 -163 -33t-163 33t-132 90q-57 57 -90 133q-33 77 -33 163t33 163q33 76 90 133q56 56 132 89q77 33 163 33zM241 429q21 0 38 15q15 15 15 37t-15 37
q-17 15 -38 15q-22 0 -37 -15t-15 -37t15 -37t37 -15zM189 62h105v340h-105v-340zM660 62v197q0 36 -20 71q-19 33 -52 52q-27 15 -67 17q-37 1 -71 -13v16h-104v-340h104v208l44 21q7 4 22 4q13 0 21 -5q6 -3 12 -13q6 -11 6 -18v-197h105z" />
    <glyph glyph-name="circlemeetup" unicode="circlemeetup" 
d="M424 718q86 0 163 -33q75 -32 133 -89q57 -57 90 -133q33 -77 33 -163t-33 -163q-33 -76 -90 -133t-133 -90q-77 -33 -163 -33t-163 33t-132 90q-57 57 -90 133q-33 77 -33 163t33 163q33 76 90 133q56 56 132 89q77 33 163 33zM499 285l13 2q6 0 9 3q-5 3 -9 9l-7 8
q-6 4 -10 5q-2 0 -2 -5l-1 -4q-2 -3 -4 -3h-3v1q1 7 1 22l-2 24q-1 12 -1 36q-1 16 2 33l-10 10q-7 4 -18 4q-3 0 -3 1q-6 -18 -4 -41l3 -44q1 -9 3 -25q1 -9 -1 -23q-7 0 -9 1h-7q-6 0 -9 -3q-2 -2 -2 -9q3 -2 12 -4q4 -1 14 -1l7 -1l1 -14v-13l2 -18v-21h7q3 1 14 1v15
q-1 5 -1 14v19q-1 9 0 19q6 2 15 2zM268 233h3q-6 22 -9 34l-7 34l-10 44q-3 17 -13 40h-4q-7 0 -10 1l-4 1h-5h-4q-12 -16 -18 -41l-11 -49q-4 6 -6 12l-6 12q-2 3 -5 10t-5 11q-6 10 -12 18h-6q-16 0 -25 -4v-21q-1 -27 0 -51q2 -26 7 -46q1 -1 5 -1q7 0 15 3l10 5v13
l-2 11v6q-1 2 1 7q9 -12 17 -26q1 -3 5 -9l5 -8h5l6 1h5q3 1 12 1l3 -1q3 6 5 21v23q0 15 1 22q2 12 6 19q5 -25 12 -48q10 -32 17 -49q4 0 7 1l7 2q4 2 8 2zM730 277q7 13 8 30q2 19 -8 40q-10 7 -19 10q-12 2 -17 2q-19 0 -34 -18q-8 -9 -12 -22q-7 -20 -8 -26
q-2 -9 -4 -27l-3 -22q-1 -1 -3 -1q-5 -1 -8 -4q9 -10 10 -23l4 -29q2 -16 3 -23q2 -14 5 -19q1 -1 10 -1h7q8 0 10 -1q-6 17 -7 33q-3 17 -1 46q21 4 40 20q18 15 27 35zM404 221q19 0 29 10q-2 6 -10 8q-6 -11 -19 -11t-22 12q-8 11 -2 25l10 -2q3 -1 10 -1q4 0 14 2
q-2 11 0 20q0 6 2 18l3 15l1 16q-13 10 -28 12q-39 -30 -36 -94q2 -14 17 -22q16 -8 31 -8zM704 291q-5 -15 -15 -25t-25 -15q5 24 12 47q6 23 23 39l1 2l1 -2q7 -13 7 -25q-2 -15 -4 -21zM319 218q9 0 20 3q9 1 18 5q-3 6 -10 6q-3 0 -13 -2q-6 -3 -12 -3q-2 0 -3 1
q-8 0 -11 7q-8 14 -2 35l12 -2q4 -1 14 -1h9q4 15 3 34q-1 16 -5 31q-2 0 -8 2q-7 3 -15 3h-3q-14 -1 -24 -19t-11 -36q-2 -18 3 -36q4 -18 21 -26l8 -1q3 -1 9 -1zM595 246l6 9q4 7 10 21q4 9 2 27l-10 8q-5 4 -12 4h-4l-1 -7v-21l-3 -21q-3 -10 -8 -17q-5 -8 -14 -11
q-2 14 -2 24l-2 24v20l-3 2l-2 1l-2 1l-9 5q-5 1 -12 3q-5 -68 13 -87q8 -8 20 -8q8 0 17 3l3 4q6 10 13 16zM392 275h-4q-6 0 -7 3q2 10 3 14l4 11q0 1 1.5 4.5t2.5 5.5l2 4l1 -4q2 -10 2 -19q-2 -14 -5 -19zM316 282h-5q-1 1 -4 1h-3v2q3 16 12 28q0 -3 1 -8t2 -8
q0 -10 -1 -14z" />
    <glyph glyph-name="circlemetacafe" unicode="circlemetacafe" 
d="M424 718q86 0 163 -33q75 -32 133 -89q57 -57 90 -133q33 -77 33 -163t-33 -163q-33 -76 -90 -133t-133 -90q-77 -33 -163 -33t-163 33t-132 90q-57 57 -90 133q-33 77 -33 163t33 163q33 76 90 133q56 56 132 89q77 33 163 33zM465 82l12 38q2 5 3.5 11t3 9t1.5 5
l-22 16q-20 15 -34 26l-45 34h125q2 0 8 18l14 40q13 43 17 59q4 -16 17 -59l13 -40q8 -18 9 -18h66l-105 314l-85 -255h-274zM574 202l-26 80l-27 -80h-85l69 -52l-26 -86l69 54l69 -54l-26 86l69 52h-86z" />
    <glyph glyph-name="circlemixx" unicode="circlemixx" 
d="M424 719q86 0 163 -33q75 -32 133 -89q57 -57 90 -133t33 -163t-33 -163t-90 -133t-133 -90q-77 -33 -163 -33t-163 33t-132 90q-57 57 -90 133t-33 163t33 163t90 133q56 56 132 89q77 33 163 33zM297 544q-6 -14 -2 -27l94 -227q5 -16 12 -23q6 -8 8 -8l7 3q3 3 4 9
q2 8 -3 25l-57 240q-3 12 -12 19q-8 7 -20 7q-8 0 -11 -1q-14 -5 -20 -17zM419 39q56 0 104 22q47 22 85 60q36 38 57 88q21 49 21 107q0 29 -8 63q1 -3 1 -11v-11q0 -59 -21 -110q-23 -53 -58 -90q-38 -38 -86 -60q-51 -23 -106 -23q-40 0 -78 12q-39 12 -69 34
q-31 21 -57 51q-23 27 -41 66q12 -44 37 -79q25 -38 58 -62q34 -27 75 -42t86 -15zM527 320q-13 -27 -40 -54t-63 -40q-32 -14 -63 -15t-58 6q20 -11 39 -17q20 -6 43 -6q31 0 55 10q26 10 45 27q18 15 31 40q11 24 11 49zM430 146q-57 -8 -107 6q-49 13 -88 46
q28 -36 74 -57q43 -21 97 -21q38 0 72 12q32 10 62 32q28 20 48 48q19 26 28 60q-25 -48 -73 -82q-51 -35 -113 -44z" />
    <glyph glyph-name="circlemobileme" unicode="circlemobileme" 
d="M424 718q86 0 163 -33q75 -32 133 -89q57 -57 90 -133q33 -77 33 -163t-33 -163q-33 -76 -90 -133t-133 -90q-77 -33 -163 -33t-163 33t-132 90q-57 57 -90 133q-33 77 -33 163t33 163q33 76 90 133q56 56 132 89q77 33 163 33zM250 143h349q17 0 34 9q16 10 28 25
q10 14 18 32q7 17 7 33q0 31 -20 46q-18 14 -42 22q4 11 4 29q0 24 -9 45q-10 21 -27 38q-15 15 -39 26q-23 9 -49 9q-42 0 -74 -23q-33 -24 -45 -60q-21 26 -53 26q-31 0 -52 -24t-21 -58v-5q-3 1 -13 1q-14 0 -26 -4q-16 -5 -27 -13q-13 -9 -21 -23q-9 -14 -9 -32
q0 -19 7 -36q8 -20 19 -32q11 -14 27 -23q18 -8 34 -8z" />
    <glyph glyph-name="circlemrwong" unicode="circlemrwong" 
d="M424 718q86 0 163 -33q75 -32 133 -89q57 -57 90 -133q33 -77 33 -163t-33 -163q-33 -76 -90 -133t-133 -90q-77 -33 -163 -33t-163 33t-132 90q-57 57 -90 133q-33 77 -33 163t33 163q33 76 90 133q56 56 132 89q77 33 163 33zM566 104q2 32 -1 48q-3 20 -9 30
q-7 12 -14 16l-16 11q-11 6 -29 7q-14 1 -44 3v37q0 5 -0.5 14t-1.5 13l10 1l9 3q21 6 32 24q8 18 10 39q1 3 1 15v25l30 1h18h14q3 1 8 1t8 1l12 4q5 3 5 8q-2 11 -10 12l-23 4h-22l-40 1q0 20 -1 30l-1 29q0 4 -0.5 12t-1.5 12q-1 3 -4 14q-8 14 -17 7q-9 -8 -9 -17l1 -32
v-55h-96l2 38q0 5 0.5 15t1.5 14q2 27 -4 35q-8 10 -15 11q-8 2 -11 -7q-4 -9 -6 -20q-2 -6 -2 -30q0 -35 1 -55h-47q-20 1 -39 -1q-5 0 -10 -5q-3 -3 -5 -11t-1 -12q2 -5 5 -6t15 -1h24q19 0 30 1q10 1 30 1l4 -35q2 -19 4 -28q4 -21 23 -32q19 -10 38 -11v-64h-33
q-34 -2 -52 -17q-21 -16 -25 -31q-2 -5 -4 -20l-3 -24q-1 -9 -1 -29q0 -17 5 -25t10 -8q6 0 11 8q4 7 3 24q-3 41 11 63t25 23q4 1 21 1h32q1 -22 1 -61q0 -31 -1 -36q0 -8 5 -13q4 -4 10 -3q7 2 11 8q5 7 5 19v85h28q8 -1 19 -1q17 -2 26 -19q8 -17 10 -61q0 -18 5 -28
q5 -9 9 -8q6 0 10 10q5 11 6 28zM479 345q0 -9 -9 -17q-9 -6 -21 -9q-16 -2 -25 -1q-15 2 -23 7q-9 4 -12 23q-3 12 -5 41h43q17 1 53 1v-27q-1 -8 -1 -18zM622 226l13 -3q5 -1 13 -3q3 0 9 2q3 2 3 9q-1 7 -9 13q-7 6 -21 13q-18 8 -28 12l-30 12q-28 12 -40 12
q-11 0 -16 -11q-2 -8 1 -12q1 -3 7 -7q5 -4 11 -5l10 -2l15 -6l22 -10q16 -6 23 -9q4 -2 17 -5zM246 255l-45 -19q-8 -11 -11 -19q-2 -8 2 -12q3 -5 20 0q29 8 37 11q20 8 38 16q19 10 34 19q13 9 24 22q8 10 7 14q-3 4 -10 3q-13 -3 -18 -4q-10 -3 -18 -6l-25 -10
q-11 -5 -35 -15z" />
    <glyph glyph-name="circlemsn" unicode="circlemsn" 
d="M424 718q86 0 163 -33q75 -32 133 -89q57 -57 90 -133q33 -77 33 -163t-33 -163q-33 -76 -90 -133t-133 -90q-77 -33 -163 -33t-163 33t-132 90q-57 57 -90 133q-33 77 -33 163t33 163q33 76 90 133q56 56 132 89q77 33 163 33zM696 415q1 37 -6 68q-8 33 -24 49
q-15 16 -37 16q-1 0 -15 -2q-22 -4 -52 -25q-30 -20 -58 -46q-28 -27 -51 -60t-32 -63l2 -3l1 -1q0 -2 1 -2q41 21 89 21q23 0 51 -5q26 -6 47 -16q23 -11 37 -23q15 -12 23 -30q12 31 17 60q6 43 7 62zM251 273q19 -26 32 -39q18 -18 31 -27q-3 21 0 43t17 42q16 23 30 32
q16 10 27 11v3q-20 21 -38 34q-22 17 -42 29q-11 7 -37 21q-31 16 -40 19q-21 10 -37 14q-18 6 -30 6q-10 0 -10 -2q-1 -1 -1 -11q-1 -8 8 -30q7 -20 29 -56q18 -31 61 -89zM421 247q17 -43 37 -73q17 -25 25 -29v8q-1 15 -6 46q-4 29 -21 67q-15 35 -24 53q-3 6 -6.5 12.5
t-7 12.5t-5.5 9q-10 14 -11 15l-4 4l-3 2v-2q-1 0 -1 -2q-1 -1 -1 -6v-1q-1 -4 0 -10l1 -12q2 -17 9 -41q6 -25 18 -53zM431 334q13 -23 16 -30q7 -16 15 -36q6 -14 8 -21l6 -19q3 -2 25 -13q19 -9 59 -9h14q10 0 15 1q26 5 45 22q18 19 31 47l-2 6l-2 5q-6 14 -21 26
q-14 11 -35 21t-43 14q-24 6 -48 6q-45 0 -83 -20zM342 285q-15 -23 -16 -44q-2 -23 3 -45q20 -14 35 -18q17 -5 26 -5q8 0 12 2q10 3 18 12q10 12 13 19l-9 18q-3 6 -9 20q-18 44 -24 78q-9 -1 -23 -10q-12 -7 -26 -27zM622 104q6 6 20 29q10 15 18 37q7 19 10 43
q3 22 0 43q-14 -26 -33 -42q-18 -15 -46 -20l-16 -2h-15q-28 0 -48 6q-22 7 -31 12q8 -40 8 -55q17 -24 33 -36q30 -21 40 -27q16 -9 27 -9q5 0 13 3q5 3 20 18zM459 52q3 1 6 11q4 11 5 22l4 27q2 14 0 25q-1 1 -1 8q-15 13 -33 48q-5 -9 -14 -18q-8 -9 -19 -13
q-6 -2 -17 -2q-24 0 -56 17q9 -27 22 -42l19 -23q11 -14 25 -28q11 -11 28 -23q13 -10 27 -10q3 0 4 1z" />
    <glyph glyph-name="circlemyspace" unicode="circlemyspace" 
d="M424 718q86 0 163 -33q75 -32 133 -89q57 -57 90 -133q33 -77 33 -163t-33 -163q-33 -76 -90 -133t-133 -90q-77 -33 -163 -33t-163 33t-132 90q-57 57 -90 133q-33 77 -33 163t33 163q33 76 90 133q56 56 132 89q77 33 163 33zM506 535q-29 0 -50 -21q-21 -20 -21 -49
t21 -50t50 -21t50 21q20 22 20 50q0 29 -20 49q-21 21 -50 21zM369 519q-23 0 -38 -16q-16 -16 -16 -38q0 -23 16 -39q15 -16 38 -16t39 16q15 16 15 39q0 21 -15 38q-16 16 -39 16zM265 506q-17 0 -29 -12t-12 -29t12 -29q12 -13 29 -13t29 13q12 12 12 29t-12 29t-29 12z
M607 91v180q0 19 -8 38q-7 17 -21 30q-13 13 -32 21q-17 7 -38 7q-22 0 -37 -7q-17 -7 -31 -21q-8 24 -26 38q-20 15 -44 15q-18 0 -31 -7q-14 -7 -25 -18q-5 17 -17 27q-13 10 -32 10t-35 -14q-15 -15 -15 -36v-80h79v-79h104v-104h209z" />
    <glyph glyph-name="circlenewsvine" unicode="circlenewsvine" 
d="M424 719q86 0 163 -33q75 -32 133 -89q57 -57 90 -133t33 -163t-33 -163t-90 -133t-133 -90q-77 -33 -163 -33t-163 33t-132 90q-57 57 -90 133t-33 163t33 163t90 133q56 56 132 89q77 33 163 33zM450 367l62 45q12 -5 19 -5q15 0 26 11q10 10 10 26q0 15 -11 26t-26 11
t-26 -11t-11 -26l2 -5l-45 -33v156h-52v-82l-45 33q2 6 2 7q0 15 -11 26t-26 11t-26 -11t-11 -26q0 -16 11 -27q10 -10 26 -10q10 0 17 4l63 -46v-103l-45 33q0 1 1 3t1 3q0 15 -11 26t-26 11t-26 -11t-11 -26t11 -26t26 -11q9 0 17 5l63 -47v-109l-44 33l1 3v3q0 15 -11 26
t-26 11t-26 -11t-11 -26q0 -16 11 -27q10 -10 26 -10q9 0 17 5l63 -47v-110h52v37l62 45q8 -6 19 -6q15 0 26 11q10 10 10 26q0 15 -11 26t-26 11t-26 -11t-11 -26q0 -2 2 -4l-45 -33v110l62 45q8 -6 19 -6q15 0 26 11q10 10 10 26q0 15 -11 26t-26 11t-26 -11t-11 -26
q0 -2 2 -4l-45 -33v103z" />
    <glyph glyph-name="circlepaypal" unicode="circlepaypal" 
d="M424 718q86 0 163 -33q75 -32 133 -89q57 -57 90 -133q33 -77 33 -163t-33 -163q-33 -76 -90 -133t-133 -90q-77 -33 -163 -33t-163 33t-132 90q-57 57 -90 133q-33 77 -33 163t33 163q33 76 90 133q56 56 132 89q77 33 163 33zM346 263h91q34 0 61 10q29 11 53 30
q25 22 40 46q17 27 24 60q7 37 0 65q-7 27 -25 48q-17 19 -42 28q-23 10 -48 10h-216l-95 -421h126zM392 486h61q22 0 34 -16q13 -16 10 -38q-9 4 -18 4h-62l-16 -74h-37zM656 352q8 36 1 60q-8 26 -22 43q8 -17 9 -35q1 -19 -3 -44q-7 -31 -25 -62q-16 -28 -40 -49
q-22 -20 -52 -33q-30 -11 -62 -11h-90l-31 -132h-106l-5 -25h126l31 133h90q32 0 62 11q30 13 52 33q24 21 40 49q18 31 25 62zM432 411h60q-10 -21 -28 -34q-20 -15 -40 -15h-2z" />
    <glyph glyph-name="circlephotobucket" unicode="circlephotobucket" 
d="M424 719q86 0 163 -33q75 -32 133 -89q57 -57 90 -133t33 -163t-33 -163t-90 -133t-133 -90q-77 -33 -163 -33t-163 33t-132 90q-57 57 -90 133t-33 163t33 163t90 133q56 56 132 89q77 33 163 33zM686 170v262q0 12 -7 19t-19 7h-142q-17 11 -44 19q-22 7 -50 7t-49 -7
q-27 -8 -44 -19h-37q0 11 -8 19q-7 7 -19 7h-52q-11 0 -18 -7q-8 -8 -8 -19q-11 0 -18 -7q-8 -8 -8 -19v-262q0 -10 8 -18t18 -8h142q41 -26 93 -26q53 0 94 26h142q11 0 19 8q7 7 7 18zM511 432q32 -23 51 -56q19 -34 19 -75q0 -42 -19 -76t-51 -55l-9 -6q-2 0 -5 -2t-4 -2
l-1 -1q-1 0 -2 -1q-6 -3 -20 -7q-6 -3 -20 -5h-5l-10 -2h-11h-10q-2 0 -5.5 0.5t-5.5 1.5h-5q-14 3 -19 5h-1l-9 3q-1 0 -5 2t-5 2l-4 2l-9 4q-2 1 -4 3t-4 3q-32 21 -51 55q-20 35 -20 76q0 40 20 75q19 33 51 56l8 4l9 6h3q0 1 1 1q17 7 19 8h1l7 1q7 2 12 3q1 1 5 1l11 1
q3 1 10 1l11 -1q7 0 10 -1q4 0 5 -1l10 -2q4 0 10 -2l20 -8l2 -1h1l9 -5q6 -4 9 -5zM189 432h108q-26 -26 -41 -59q-15 -35 -15 -72t15 -72q14 -32 41 -59h-108v262zM529 301h26q0 28 -10 51q-10 22 -28 42q-20 18 -42 28q-23 10 -51 10v-27q20 0 41 -8q18 -7 33 -22
q14 -14 23 -33q8 -21 8 -41zM660 170h-108q27 27 41 59q14 36 14 72t-14 72q-15 33 -41 59h108v-262z" />
    <glyph glyph-name="circlepicasa" unicode="circlepicasa" 
d="M425 719q87 0 163 -33q75 -32 133 -89q57 -58 89 -133q33 -76 33 -163t-33 -163q-32 -75 -89 -133q-57 -57 -133 -90t-163 -33t-163 33t-133 90t-90 133t-33 163t33 163t90 133q58 57 133 89q76 33 163 33zM422 562q-44 0 -90 -17l17 -15q28 -25 37 -33l47 -42
q7 -6 23 -20.5t24 -21.5q28 -26 35 -33q14 -14 14 -16v175q-20 11 -49 17q-28 6 -58 6zM163 300q0 -37 10 -68l20 18q17 16 42 39l55 50q9 8 27 24.5t27 24.5l42 39q5 4 9 8t7 6l2 2l-2 2q-2 2 -6.5 5.5t-8.5 7.5l-33 30q-18 16 -33 30l-16 15q-67 -35 -104 -96
q-38 -62 -38 -137zM555 222h116q8 21 11 40q2 26 2 42q0 70 -34 126q-34 57 -95 94v-302zM294 76v226q-22 -21 -53 -48l-37 -34l-9 -9t-7 -6l-2 -2q17 -41 43 -71q26 -33 65 -56zM400 39h48q71 8 125 43q56 36 86 114h-339v-135q40 -18 80 -22z" />
    <glyph glyph-name="circlepinterest" unicode="circlepinterest" 
d="M425 719q87 0 163 -33q75 -32 133 -89q57 -58 89 -133q33 -76 33 -163t-33 -163q-32 -75 -89 -133q-57 -57 -133 -90t-163 -33t-163 33t-133 90t-90 133t-33 163t33 163t90 133q58 57 133 89q76 33 163 33zM557 211q18 15 30 36q14 21 21 46q8 28 11 51q3 25 0 49
q-3 27 -16 51t-34 43q-19 17 -48 32q-26 13 -57 16q-46 4 -89 -6q-40 -10 -75 -34q-33 -25 -52 -59q-20 -35 -20 -79q0 -43 15 -68q16 -27 53 -40q13 12 13 23q1 9 -4 21q-4 9 -12 22q-6 9 -8 25q-4 37 15 71q18 34 49 54q31 21 71 25q38 4 80 -19q19 -10 30 -31
q12 -24 16 -46q4 -21 2 -53q-3 -29 -12 -51q-12 -26 -26 -40q-17 -17 -38 -21q-14 -3 -28 0q-16 5 -21 10q-16 15 -13 34q2 15 11 41l15 45q6 23 -3 44q-7 18 -23 21q-14 5 -28 -3q-15 -8 -25 -21q-12 -14 -15 -30q-2 -17 3 -34q5 -18 5 -32q0 -16 -5 -39q-1 -6 -11 -42
l-14 -42q-6 -19 -9 -38q-4 -33 -4 -38q-1 -24 3 -39l-1 -1h33q17 30 29 68q12 39 21 75q6 6 7 -2q3 -6 8 -10q15 -12 36 -15q23 -2 42 1q20 3 41 11q19 7 31 18z" />
    <glyph glyph-name="circlepodcast" unicode="circlepodcast" 
d="M425 718q87 0 163 -33q75 -32 133 -89q57 -58 89 -133q33 -77 33 -163t-33 -163q-32 -75 -89 -133q-57 -57 -133 -90t-163 -33t-163 33t-133 90t-90 133q-33 77 -33 163t33 163q33 76 90 133q58 57 133 89q76 33 163 33zM685 280v10q0 51 -21 96q-20 44 -56 77
q-35 34 -83 53q-45 19 -101 19q-55 0 -102 -19q-46 -19 -83 -53q-35 -33 -56 -77q-20 -46 -20 -96v-10q1 49 23 87q22 39 56 64q36 26 82 39q45 13 100 13q54 0 99 -13q48 -14 82 -39t56 -64q23 -37 24 -87zM589 281l1 5v4q0 33 -13 62q-14 32 -35 54q-24 24 -53 37
q-31 14 -64 14q-34 0 -65 -14q-29 -13 -53 -37q-23 -24 -36 -54q-13 -29 -13 -62l1 -4v-5q1 29 16 53q13 22 36 39q24 16 52 23q30 8 62 8t62 -8q27 -7 51 -23q22 -17 36 -39q13 -22 15 -53zM372 308q0 -20 15 -34q15 -15 37 -15t37 15q15 14 15 34t-15 34q-16 14 -37 14
t-37 -14q-15 -14 -15 -34zM424 64q33 0 55 28t22 84q0 28 -6 43q-8 15 -17 22q-9 6 -25 8q-9 1 -29 1t-29 -1q-15 -2 -24 -8q-11 -8 -17 -22q-7 -14 -7 -43q0 -55 23 -84q22 -28 54 -28z" />
    <glyph glyph-name="circleposterous" unicode="circleposterous" 
d="M425 719q87 0 163 -33q75 -32 133 -89q57 -58 89 -133q33 -76 33 -163t-33 -163q-32 -75 -89 -133q-57 -57 -133 -90t-163 -33t-163 33t-133 90t-90 133t-33 163t33 163t90 133q58 57 133 89q76 33 163 33zM457 173q31 0 62 12t54 37q24 24 39 62t15 90q0 41 -11 77
q-11 33 -33 59q-21 24 -50 38q-30 14 -64 14q-90 0 -132 -71l-3 -2h-5l-4 65h-54l2 -56q1 -19 1 -64v-395h61v190l1 4h6l1 -2q16 -27 47 -42q29 -16 67 -16zM447 515q52 0 85 -40q32 -41 32 -105q0 -68 -32 -109q-33 -41 -87 -41q-38 0 -67 23q-29 22 -40 61q-3 12 -3 29v66
q0 13 4 28q10 39 40 64q30 24 68 24z" />
    <glyph glyph-name="circleqik" unicode="circleqik" 
d="M425 718q87 0 163 -33q75 -32 133 -89q57 -58 89 -133q33 -77 33 -163t-33 -163q-32 -75 -89 -133q-57 -57 -133 -90t-163 -33t-163 33t-133 90t-90 133q-33 77 -33 163t33 163q33 76 90 133q58 57 133 89q76 33 163 33zM446 381q10 4 17 13q7 7 2 22q-3 11 -19 15h-11
q-13 -5 -24 -12q-9 -8 -5 -24q3 -12 16 -15q12 -4 24 1zM587 299l15 15l22 21q4 3 11 10t11 10q4 4 8.5 9t5.5 6q-17 -2 -34 0t-28 -3q-4 -1 -9 -6l-9 -7q-2 -2 -7 -8t-8 -8l-15 -16q-2 -2 -4 -4.5t-3 -3.5l-8 -8q1 8 7 42q4 24 6 44q1 22 -14 27t-39 3q-1 0 -1 -2l-6 -42
l-9 -54l-8 -50q-4 -20 -4 -28q-2 -11 3 -17q4 -6 12 -9t17 -3l21 -1q5 18 6 37q2 19 6 35q1 -1 4.5 -6.5t5.5 -9.5l10 -18l11 -17q6 -11 12 -15q7 -5 19 -7q9 -1 20 2q9 3 17 9q7 6 9 15q-13 3 -20 9q-9 7 -13 15q-4 5 -10 17q-1 2 -10 17zM360 236l6 33q4 22 5 33
q1 34 -15 52q-17 18 -47 20q-35 2 -56 -7q-25 -12 -37 -26q-10 -11 -18 -26q-7 -15 -9 -35q-2 -32 19 -51q22 -21 59 -17l9 2q2 0 4 1l4 2q5 1 11 7q3 3 9 7l-3 -20q-2 -14 -1 -20q2 -10 7 -15q4 -7 17 -7h26l6 35q0 6 2 16t2 16zM446 267l7 52l3 18q1 9 -3 16q-4 9 -19 11
q-9 1 -31 1q-1 0 -1 -2l-7 -49q-1 -8 -3.5 -26t-4.5 -27q-2 -12 -2 -19q-1 -10 3 -16q4 -7 20 -9q15 -1 30 0q2 9 4.5 26.5t3.5 23.5zM283 333q5 1 12 0q6 -2 10 -4q7 -4 9 -14q2 -13 1 -20q-1 -8 -7 -20q-4 -10 -11 -15q-6 -4 -17 -6q-11 -1 -21 5q-9 5 -10 15q-2 9 0 20
q1 7 7 19q5 10 10 14q6 4 17 6z" />
    <glyph glyph-name="circlequora" unicode="circlequora" 
d="M425 718q87 0 163 -33q75 -32 133 -89q57 -58 89 -133q33 -77 33 -163t-33 -163q-32 -75 -89 -133q-57 -57 -133 -90t-163 -33t-163 33t-133 90t-90 133q-33 77 -33 163t33 163q33 76 90 133q58 57 133 89q76 33 163 33zM589 74v37q-9 -2 -16 2q-8 3 -19 11t-21 22
q44 29 71 75q28 47 30 102q1 43 -14 83q-16 40 -43 67q-28 30 -65 46q-36 16 -80 16q-45 0 -83 -16q-37 -17 -67 -46q-29 -29 -47 -67q-17 -38 -19 -83q-2 -46 13 -82q16 -41 43 -68q27 -28 65 -45q39 -17 80 -17q31 0 60 9q9 -15 22 -31q13 -17 30 -21q15 -5 29 -3
q16 1 31 9zM434 483q22 0 41 -12q20 -14 33 -34q14 -21 21 -49q8 -32 7 -61q-2 -36 -12 -64q-10 -29 -27 -52q-15 22 -32 30q-17 7 -30 9q-15 1 -33 -5v-37q9 2 13 1q9 -3 11 -4q7 -4 13 -12l5 -8q4 -6 5 -9q-17 -5 -26 -5q-23 0 -42 13q-19 12 -33 33q-15 23 -22 50
q-8 29 -6 60q2 35 10 61q11 29 25 49q16 20 36 34q19 12 43 12z" />
    <glyph glyph-name="circlereddit" unicode="circlereddit" 
d="M425 717q87 0 163 -33q75 -32 133 -89q57 -58 89 -133q33 -76 33 -163t-33 -163q-32 -75 -89 -133q-57 -57 -133 -90t-163 -33t-163 33t-133 90t-90 133t-33 163t33 163t90 133q58 57 133 89q76 33 163 33zM633 251q18 8 28 24q11 17 11 36q0 29 -19 48t-48 19
q-13 0 -27 -6q-12 -6 -21 -15q-33 19 -62 28q-34 10 -74 12l13 92l65 -15v-2q0 -27 18 -45q18 -19 44 -19t44 19q17 19 17 45q0 25 -17 45q-18 18 -44 18q-19 0 -35 -11q-14 -10 -22 -28l-77 18q-4 1 -9 -2q-4 -1 -4 -7l-16 -108q-42 -2 -73 -11q-35 -10 -63 -27
q-19 19 -45 19q-28 0 -47 -19q-20 -20 -20 -48q0 -18 9 -33q9 -14 23 -24q-3 -10 -3 -23q0 -35 18 -65t49 -52q32 -23 73 -36q39 -13 88 -13t89 13q40 14 72 36q31 22 49 52t18 65v10q-1 1 -1 5t-1 5zM561 434q-15 0 -26 11t-11 27q0 15 11 26t26 11q14 0 25 -11t11 -26
q0 -16 -11 -27t-25 -11zM407 362q42 0 76 -10t62 -28q27 -18 42 -42q16 -23 16 -51t-16 -50q-15 -24 -42 -42q-24 -17 -62 -28q-34 -10 -76 -10q-43 0 -77 10q-37 11 -62 28q-26 18 -42 42q-15 23 -15 50t15 51q16 24 42 42q30 18 62 28q34 10 77 10zM240 344
q-36 -28 -50 -64q-15 14 -15 31t13 29q12 12 29 12q12 0 23 -8zM605 352q18 0 30 -12t12 -29q0 -25 -21 -35q-14 37 -48 65q11 11 27 11zM299 270q0 -12 9 -21q8 -9 20 -9q13 0 22 9q8 10 8 21q0 12 -8 22q-9 9 -22 9q-12 0 -20 -9q-9 -9 -9 -22zM492 240q13 0 22 9
q8 10 8 21q0 12 -8 22q-9 9 -22 9q-12 0 -20 -9q-9 -9 -9 -22q0 -12 9 -21q8 -9 20 -9zM505 166q9 9 0 18t-18 0t-29 -15t-48 -6t-48 6t-29 15t-18 0t0 -18q13 -14 40 -22t55 -8t55 8q25 8 40 22z" />
    <glyph glyph-name="circleretweet" unicode="circleretweet" 
d="M425 718q87 0 163 -33q75 -32 133 -89q57 -58 89 -133q33 -77 33 -163t-33 -163q-32 -75 -89 -133q-57 -57 -133 -90t-163 -33t-163 33t-133 90t-90 133q-33 77 -33 163t33 163q33 76 90 133q58 57 133 89q76 33 163 33zM346 221v105h79l-131 131l-131 -131h79v-157
q0 -10 8 -18t18 -8h235l-78 78h-79zM608 274v160q0 11 -8 17t-19 6h-235l79 -79h78v-104h-78l130 -131l131 131h-78z" />
    <glyph glyph-name="circlerss" unicode="circlerss" 
d="M425 719q87 0 163 -33q75 -32 133 -89q57 -58 89 -133q33 -76 33 -163t-33 -163q-32 -75 -89 -133q-57 -57 -133 -90t-163 -33t-163 33t-133 90t-90 133t-33 163t33 163t90 133q58 57 133 89q76 33 163 33zM562 65h98q0 99 -37 183q-38 87 -101 150t-150 101
q-84 37 -183 37v-98q76 0 145 -29q67 -30 119 -80q50 -52 80 -119q29 -69 29 -145zM381 65h96q0 62 -22 113t-62 91t-91 62t-113 22v-96q41 0 75 -15q35 -15 61 -41t41 -61q15 -34 15 -75zM242 65q21 0 37 16q15 15 15 37q0 20 -15 37q-17 15 -37 15q-22 0 -37 -15
q-16 -16 -16 -37q0 -22 16 -37q15 -16 37 -16z" />
    <glyph glyph-name="circlescribd" unicode="circlescribd" 
d="M425 717q87 0 163 -33q75 -32 133 -89q57 -58 89 -133q33 -76 33 -163t-33 -163q-32 -75 -89 -133q-57 -57 -133 -90t-163 -33t-163 33t-133 90t-90 133t-33 163t33 163t90 133q58 57 133 89q76 33 163 33zM485 89l6 7q4 4 6 7q-14 23 -14 51q0 26 10 46q9 20 26 34v3
q-7 22 -24 43q-19 23 -40 37q-22 16 -68 36q-29 13 -38 19q-7 4 -25 17q-18 17 -18 38q0 25 21 41q21 15 55 15q23 0 42 -8q-5 -13 -5 -22q0 -23 16 -38q15 -16 37 -16t37 16q15 15 15 38t-18 40q-24 27 -55 40q-40 17 -75 17q-56 0 -96 -36q-39 -36 -39 -86q0 -23 7 -40
l9 -18q3 -7 13 -19q14 -17 36 -32q1 -1 25 -14q17 -9 34 -16q19 -7 33 -15q19 -10 23 -14q15 -11 29 -31q12 -19 12 -39q0 -32 -23 -53t-56 -21q-48 0 -79 37q16 16 16 39q0 22 -15 39q-15 15 -37 15t-37 -15q-16 -16 -16 -39q0 -8 3 -14l-2 -1q24 -62 68 -97
q44 -32 101 -32q56 0 100 41zM573 92q27 0 43 18q18 18 18 44t-18 45q-16 18 -43 18q-25 0 -43 -18q-17 -20 -17 -45t17 -44q18 -18 43 -18z" />
    <glyph glyph-name="circlesharethis" unicode="circlesharethis" 
d="M425 717q87 0 163 -33q75 -32 133 -89q57 -58 89 -133q33 -76 33 -163t-33 -163q-32 -75 -89 -133q-57 -57 -133 -90t-163 -33t-163 33t-133 90t-90 133t-33 163t33 163t90 133q58 57 133 89q76 33 163 33zM355 304l168 84q11 -9 25 -14q14 -6 29 -6q35 0 59 24t24 59
t-24 59t-59 24t-59 -24t-24 -59v-5l-168 -84q-10 9 -24 15q-15 5 -30 5q-35 0 -59 -24t-24 -59t24 -59t59 -24q31 0 54 20l168 -85v-4q0 -35 24 -59q24 -25 59 -25t59 25q24 24 24 59q0 33 -24 59q-24 24 -59 24q-14 0 -29 -5q-16 -7 -25 -15l-168 84v10z" />
    <glyph glyph-name="circleskype" unicode="circleskype" 
d="M425 717q87 0 163 -33q75 -32 133 -89q57 -58 89 -133q33 -76 33 -163t-33 -163q-32 -75 -89 -133q-57 -57 -133 -90t-163 -33t-163 33t-133 90t-90 133t-33 163t33 163t90 133q58 57 133 89q76 33 163 33zM452 64q34 1 71 19q35 18 56 41q22 25 31 56q8 33 -5 63t-36 50
q-23 19 -54 31q-38 13 -63 19l-68 15q-33 7 -43 25q-10 16 -2 34q7 16 29 29q21 12 48 12t48 -12q26 -18 37 -27l29 -25q13 -12 25 -10q13 2 22 11q9 8 14 23q3 12 -2 30q-6 17 -25 33q-35 30 -76 43q-45 14 -108 8q-24 -1 -48 -11q-21 -9 -43 -26q-18 -15 -31 -41
q-13 -24 -16 -57t13 -56q16 -25 40 -41q24 -17 57 -28q32 -10 60 -15q20 -3 43 -9q22 -7 37 -18q14 -10 19 -26q3 -15 -14 -35q-16 -19 -36 -23q-21 -5 -41 -3q-23 3 -38 10q-15 5 -25 11q-9 6 -16 15q-3 3 -9 10t-9 10q-14 12 -22 17q-12 8 -26 6q-15 -2 -25 -10
q-10 -10 -13 -24q-3 -15 3 -32q7 -18 24 -34q18 -16 34 -27q15 -11 39 -19q25 -8 50 -11t65 -1z" />
    <glyph glyph-name="circleslashdot" unicode="circleslashdot" 
d="M425 717q87 0 163 -33q75 -32 133 -89q57 -58 89 -133q33 -76 33 -163t-33 -163q-32 -75 -89 -133q-57 -57 -133 -90t-163 -33t-163 33t-133 90t-90 133t-33 163t33 163t90 133q58 57 133 89q76 33 163 33zM242 90h104l183 418h-104zM542 90q28 0 47 19t19 46t-19 46
t-47 19q-27 0 -46 -19t-19 -46t19 -46t46 -19z" />
    <glyph glyph-name="circleslideshare" unicode="circleslideshare" 
d="M425 717q87 0 163 -33q75 -32 133 -89q57 -58 89 -133q33 -76 33 -163t-33 -163q-32 -75 -89 -133q-57 -57 -133 -90t-163 -33t-163 33t-133 90t-90 133t-33 163t33 163t90 133q58 57 133 89q76 33 163 33zM351 456q-22 0 -39 -17t-17 -42q0 -24 17 -41t39 -17
q23 0 40 17q16 16 16 41q0 26 -16 42q-17 17 -40 17zM504 456q-22 0 -39 -17t-17 -42q0 -24 17 -41t39 -17q23 0 40 17q16 16 16 41q0 26 -16 42q-17 17 -40 17zM678 332q8 18 8 22l-2 8q0 2 -3 2q-6 0 -17 -11q-7 -9 -21 -16q-22 -10 -33 -14q-9 -4 -32 -11q-17 -5 -19 -5
h-83q-16 0 -31 -4q-16 -4 -16 -12v-14l-6 5q-6 6 -20 16q-11 6 -28 6h-11q-22 0 -54 3q-27 3 -54 8q-13 3 -26 12l-29 17q-3 2 -10.5 6.5t-10.5 6.5q-12 5 -15 5l-1 -1q-3 -8 1 -15q7 -12 15 -22l5 -5q7 -9 22 -17q16 -11 31 -18q22 -11 28 -13l12 -5l1 -1v-94q0 -10 9 -22
t22 -22q10 -9 26 -16q13 -7 24 -7q20 0 34 11t14 21v90l3 -2q7 -4 18 -6v-82q0 -5 4 -12q3 -7 11 -15q11 -9 23 -13q15 -6 36 -6t35 11q15 11 22 26q8 15 11 27q3 14 3 17v87l1 1l14 7q8 4 13 6q24 11 44 24q20 14 32 36z" />
    <glyph glyph-name="circlesmugmug" unicode="circlesmugmug" 
d="M425 717q87 0 163 -33q75 -32 133 -89q57 -58 89 -133q33 -76 33 -163t-33 -163q-32 -75 -89 -133q-57 -57 -133 -90t-163 -33t-163 33t-133 90t-90 133t-33 163t33 163t90 133q58 57 133 89q76 33 163 33zM348 509q-21 0 -34 -10q-14 -11 -14 -26q0 -13 14 -24t34 -11
t34 11q13 10 13 24q0 16 -13 26t-34 10zM560 509q-20 0 -33 -10q-14 -11 -14 -26q0 -13 14 -24t33 -11q20 0 34 11q13 10 13 24q0 16 -13 26t-34 10zM398 37q54 0 93 19q43 20 74 48q33 32 55 65q25 40 37 68q14 31 22 58q7 24 7 34q0 13 -6 21q-4 6 -12 11q-7 4 -17 6h-403
q-4 -2 -7 -4l-8 -8q-2 -2 -8 -14q-23 -43 -27 -96q-5 -54 14 -99q18 -46 63 -78q44 -31 123 -31zM265 143q-12 20 -17 43q-5 28 -4 48q2 26 7 46q8 24 16 40h370q-1 -4 -11 -34q-6 -17 -22 -48q-17 -32 -32 -54q-20 -28 -45 -50q-26 -23 -58 -36q-33 -14 -71 -14
q-10 0 -36 2q-18 3 -36 9q-17 7 -34 18q-16 12 -27 30z" />
    <glyph glyph-name="circlesoundcloud" unicode="circlesoundcloud" 
d="M425 717q87 0 163 -33q75 -32 133 -89q57 -58 89 -133q33 -76 33 -163t-33 -163q-32 -75 -89 -133q-57 -57 -133 -90t-163 -33t-163 33t-133 90t-90 133t-33 163t33 163t90 133q58 57 133 89q76 33 163 33zM414 190h207q31 1 48 20q15 18 15 43t-17 44q-18 18 -45 18
q-9 0 -24 -5q-5 42 -36 70t-74 28q-23 0 -40 -7q-19 -7 -34 -21v-190zM360 368l-7 2h-7h-4q-1 -1 -4 -1v-179h22v178zM403 190v180q-1 -3 -5 -7l-5 -6q-9 5 -22 9v-176h32zM316 190v175q-6 -1 -11 -5l-11 -6v-164h22zM273 190v144q-13 -16 -18 -39l-2 2q-1 0 -2 1v-108h22z
M224 304h-8q-2 0 -5 -1t-4 -1v-110l9 -1q2 -1 8 -1h5v114h-5zM186 204v87q-21 -18 -21 -44q0 -27 21 -43z" />
    <glyph glyph-name="circlespotify" unicode="circlespotify" 
d="M425 717q87 0 163 -33q75 -32 133 -89q57 -58 89 -133q33 -76 33 -163t-33 -163q-32 -75 -89 -133q-57 -57 -133 -90t-163 -33t-163 33t-133 90t-90 133t-33 163t33 163t90 133q58 57 133 89q76 33 163 33zM194 496q-14 -9 -14 -24q0 -12 9 -20q7 -9 20 -9l3 1h3
q43 17 99 29q47 10 104 10q56 0 105 -10q56 -12 97 -29h4q1 -1 3 -1q13 0 20 9q8 8 8 20q0 18 -16 24q-57 22 -106 31q-58 11 -115 11q-58 0 -116 -11q-50 -9 -108 -31zM418 391q50 0 94 -10q48 -11 87 -28h3q0 -1 2 -1q4 0 9 3q3 1 7 5l3 12q0 10 -6 14q-52 22 -95 31
q-52 11 -104 11q-51 0 -103 -11q-45 -9 -96 -31q-7 -7 -7 -14l4 -11q5 -8 15 -8q6 0 7 1q84 37 180 37zM591 275q5 8 0 16t-10 9q-36 19 -78 28q-43 8 -85 8q-91 0 -166 -37l-7 -7q-4 -6 0 -16q5 -11 10 -12q4 -1 10 1q72 34 153 34q37 0 77 -8q37 -9 72 -24q17 -8 24 8z
M572 59h45q19 0 38 8q20 9 31 19q-19 37 -45 64q-28 30 -60 50q-37 21 -73 32q-41 11 -81 11q-43 0 -84 -12q-40 -12 -74 -34q-38 -25 -62 -53q-29 -34 -44 -68q26 -17 55 -17h64q26 35 63 54q38 20 82 20q45 0 83 -20t62 -54z" />
    <glyph glyph-name="circlesquidoo" unicode="circlesquidoo" 
d="M425 717q87 0 163 -33q75 -32 133 -89q57 -58 89 -133q33 -76 33 -163t-33 -163q-32 -75 -89 -133q-57 -57 -133 -90t-163 -33t-163 33t-133 90t-90 133t-33 163t33 163t90 133q58 57 133 89q76 33 163 33zM524 63q25 0 51 14t47 38t31 55q10 29 5 67q-4 34 -22 57
q-16 21 -37 32q-21 10 -41 15l-20 2.5t-13 1.5q-25 1 -21 24q5 23 25 58q8 14 9 29q2 19 -2 31q-4 13 -15 27q-11 13 -26 18h-54q14 0 26 -12q13 -15 19 -27q7 -15 3 -31q-6 -16 -16 -29q-12 -17 -30 -30q-2 11 -7 24q-6 16 -19 35q-11 15 -35 38q-20 18 -54 32h-42
q-4 0 -6 1t-7 1q17 -17 34 -27l31 -19q16 -9 25 -25q7 -15 12 -34q3 -13 5 -40q-15 0 -28 4q-16 4 -31 9q-15 4 -39 14q-16 7 -25 19q-9 11 -14 25q-6 14 -9 28l-9 30q-10 -8 -14 -13q-8 -10 -11 -15q2 -5 6 -17l5 -21q10 -40 31 -64q22 -27 44 -43q23 -18 58 -31
q-14 -3 -52 -10q-22 -4 -45 -6q-21 -3 -40 -1q-8 2 -12 4q-6 1 -6 6v-55q29 -8 66 -6l72 4q27 1 37 -9t13 -26q2 -22 2 -35q0 -21 7 -36q20 -48 55 -64q36 -17 83 -17zM554 301q17 -6 31 -18q13 -13 20 -29q6 -14 8 -36q0 -20 -7 -38q-8 -21 -20 -34q-14 -16 -29 -24
q-18 -10 -34 -11q-18 -3 -36 3q-17 6 -31 18q-11 10 -20 29q-6 14 -8 35q-2 20 6 39q8 21 20 34q14 16 29 24q17 9 35 12q19 2 36 -4zM542 164q17 0 29 13q11 13 11 30q0 14 -8 27q-9 10 -23 15q-3 -15 -12 -21q-7 -5 -15 -5q-9 -1 -18 0q-3 -7 -3 -16q0 -17 11 -30
q10 -13 28 -13z" />
    <glyph glyph-name="circlestackoverflow" unicode="circlestackoverflow" 
d="M425 717q87 0 163 -33q75 -32 133 -89q57 -58 89 -133q33 -76 33 -163t-33 -163q-32 -75 -89 -133q-57 -57 -133 -90t-163 -33t-163 33t-133 90t-90 133t-33 163t33 163t90 133q58 57 133 89q76 33 163 33zM578 588l88 -190l47 22l-88 190zM476 515l128 -165l41 32
l-128 165zM588 329l-163 132l-33 -40l163 -132zM544 265l-188 92l-23 -47l188 -92zM555 37h-313v236h-53v-288h419v288h-53v-236zM515 193l-204 47l-12 -51l204 -47zM503 116h-209v-53h209v53z" />
    <glyph glyph-name="circlestar" unicode="circlestar" 
d="M425 717q87 0 163 -33q75 -32 133 -89q57 -58 89 -133q33 -76 33 -163t-33 -163q-32 -75 -89 -133q-57 -57 -133 -90t-163 -33t-163 33t-133 90t-90 133t-33 163t33 163t90 133q58 57 133 89q76 33 163 33zM646 342l1 1q18 20 11 35q-8 15 -34 15h-116l-56 116
q-10 25 -28 25q-17 0 -27 -25l-56 -116h-116q-27 0 -35 -15q-6 -15 12 -35l1 -1l89 -108l-45 -131q-9 -26 2 -35q10 -10 36 2l140 70l139 -70q26 -12 36 -2q11 9 2 35l-45 131z" />
    <glyph glyph-name="circlestumbleupon" unicode="circlestumbleupon" 
d="M425 717q87 0 163 -33q75 -32 133 -89q57 -58 89 -133q33 -76 33 -163t-33 -163q-32 -75 -89 -133q-57 -57 -133 -90t-163 -33t-163 33t-133 90t-90 133t-33 163t33 163t90 133q58 57 133 89q76 33 163 33zM608 482v-262q-1 -4 -10 -15q-10 -9 -14 -11h-34q-4 2 -12 9
q-7 7 -9 13v121q0 9 -3 26t-13 31q-9 13 -31 25q-20 11 -54 11h-146q-19 0 -35 -10q-17 -9 -27 -24q-11 -13 -18 -31q-7 -15 -7 -32t7 -30q5 -11 15 -22q6 -7 20 -17l18 -12l65 -25q9 -7 13 -15q6 -10 7 -13l-4 -4q-1 -1 -5 -1h-168v-78h168q17 0 34 6q15 8 27 18
q10 10 19 26q7 14 7 31q0 25 -17 54q-16 28 -43 44l-65 26q-4 2 -13 8l-6 6q1 3 5 9l5 7h144q9 0 17 -2l4 -1q0 -2 1 -4q1 -1 1 -7v-121q0 -18 9 -36q7 -17 23 -33q14 -14 32 -23q18 -8 35 -8h34q19 0 36 10q18 9 33 24q15 14 24 33q9 18 9 36v263h-78z" />
    <glyph glyph-name="circletechnorati" unicode="circletechnorati" 
d="M425 717q87 0 163 -33q75 -32 133 -89q57 -58 89 -133q33 -76 33 -163t-33 -163q-32 -75 -89 -133q-57 -57 -133 -90t-163 -33t-163 33t-133 90t-90 133t-33 163t33 163t90 133q58 57 133 89q76 33 163 33zM451 157q50 0 92 16q44 17 74 43q32 27 51 64q18 38 18 79
t-18 79q-20 36 -51 63q-30 26 -74 43q-42 16 -92 16t-92 -16q-45 -17 -75 -43q-32 -28 -50 -63q-19 -37 -19 -79q0 -38 17 -74q17 -35 45 -62l-17 -133l111 79q37 -12 80 -12zM451 471q30 0 57 -9q27 -10 46 -24q18 -14 31 -35q11 -22 11 -44q0 -23 -11 -43q-12 -22 -31 -36
t-46 -24q-27 -9 -57 -9t-57 9q-26 9 -46 24q-21 16 -31 36q-12 20 -12 43t12 44q10 19 31 35q20 15 46 24q27 9 57 9z" />
    <glyph glyph-name="circletumblr" unicode="circletumblr" 
d="M425 717q87 0 163 -33q75 -32 133 -89q57 -58 89 -133q33 -76 33 -163t-33 -163q-32 -75 -89 -133q-57 -57 -133 -90t-163 -33t-163 33t-133 90t-90 133t-33 163t33 163t90 133q58 57 133 89q76 33 163 33zM581 89v74q-38 -23 -75 -23q-20 0 -37 9q-13 7 -18 21
q-2 9 -1 18q1 8 1 33v130h104v79h-104v104h-76q-5 -37 -17 -60q-13 -24 -34 -40q-10 -9 -26 -15l-30 -11v-57h78v-175q0 -26 3 -45t20 -36q9 -9 20 -13q8 -5 24 -10q18 -6 26 -7q14 -2 28 -2q31 0 56 6q12 3 28 8q13 5 30 12z" />
    <glyph glyph-name="circletwitterbird" unicode="circletwitterbird" 
d="M424 718q86 0 163 -33q75 -32 133 -89q57 -57 90 -133q33 -77 33 -163t-33 -163q-33 -76 -90 -133t-133 -90q-77 -33 -163 -33t-163 33t-132 90q-57 57 -90 133q-33 77 -33 163t33 163q33 76 90 133q56 56 132 89q77 33 163 33zM632 377v13q30 24 51 53q-9 -4 -29 -10
q-14 -5 -30 -6q16 10 28 25q12 14 17 31q-20 -10 -31 -14q-15 -7 -33 -10q-14 14 -33 23q-20 9 -42 9q-19 0 -40 -8q-17 -7 -32 -22q-14 -13 -21 -33q-8 -19 -8 -39v-12q0 -2 0.5 -5.5t1.5 -5.5q-64 3 -117 31q-55 29 -92 75q-14 -23 -14 -51q0 -27 12 -49q14 -22 33 -36
q-25 1 -46 13v-1q0 -37 23 -66q23 -26 59 -34l-14 -3q-4 -1 -13 -1h-10q-2 0 -5 1t-4 1q11 -32 35 -50q26 -20 60 -20q-25 -21 -59 -33q-33 -11 -67 -11l-13 1q-8 0 -12 1q33 -22 73 -34t83 -12q70 0 124 27q53 25 90 68q36 39 56 93q19 50 19 101z" />
    <glyph glyph-name="circletwitter" unicode="circletwitter" 
d="M425 717q87 0 163 -33q75 -32 133 -89q57 -58 89 -133q33 -76 33 -163t-33 -163q-32 -75 -89 -133q-57 -57 -133 -90t-163 -33t-163 33t-133 90t-90 133t-33 163t33 163t90 133q58 57 133 89q76 33 163 33zM555 168h-157q-20 0 -36 16t-16 36v79h209q21 0 37 16t16 36
t-16 36t-37 16h-209v79q0 20 -16 36t-36 16t-36 -16t-16 -36v-262q0 -38 14 -69q15 -32 35 -49q21 -18 50 -29q27 -10 57 -10h157q20 0 37 17q16 16 16 36t-16 36t-37 16z" />
    <glyph glyph-name="circleviddler" unicode="circleviddler" 
d="M425 717q87 0 163 -33q75 -32 133 -89q57 -58 89 -133q33 -76 33 -163t-33 -163q-32 -75 -89 -133q-57 -57 -133 -90t-163 -33t-163 33t-133 90t-90 133t-33 163t33 163t90 133q58 57 133 89q76 33 163 33zM455 273h91q24 0 44 9q22 9 36 25q16 14 25 36q9 21 9 46t-9 46
t-25 37q-14 16 -36 25q-20 9 -44 9q-19 0 -40 -8q-17 -8 -34 -23q-14 -14 -25 -33q-10 -18 -13 -39h-4q-3 21 -13 39q-11 19 -25 33q-17 15 -34 23q-21 8 -40 8q-24 0 -46 -9q-26 -12 -40 -26q-18 -16 -28 -37q-11 -24 -11 -47q0 -25 9 -45q7 -19 22 -36q13 -15 32 -24
q18 -9 38 -9h26v-47l-131 37v-159l131 41v-55h191zM318 421q14 0 23 -10q9 -11 9 -24t-9 -24q-9 -10 -23 -10t-23 10q-9 11 -9 24t9 24q9 10 23 10zM548 421q14 0 24 -10q9 -11 9 -24t-9 -24q-10 -10 -24 -10q-13 0 -23 10q-9 11 -9 24t9 24q10 10 23 10z" />
    <glyph glyph-name="circlevimeo" unicode="circlevimeo" 
d="M425 717q87 0 163 -33q75 -32 133 -89q57 -58 89 -133q33 -76 33 -163t-33 -163q-32 -75 -89 -133q-57 -57 -133 -90t-163 -33t-163 33t-133 90t-90 133t-33 163t33 163t90 133q58 57 133 89q76 33 163 33zM657 388q7 33 -4 57q-11 21 -31 30t-46 6q-27 -3 -50 -16
q-25 -14 -43 -35q-19 -22 -24 -54q20 12 35 11q15 -2 23 -11q8 -12 7 -27q0 -17 -10 -34q-17 -33 -38 -59q-16 -22 -28 -22q-10 0 -19 23q-10 31 -19 67q-5 19 -10 50q-5 30 -12 53q-7 25 -21 40t-37 11q-20 -4 -48 -22q-27 -19 -45 -34q-24 -20 -48 -47l19 -24q12 9 22 13
q9 4 18 6q8 2 13 -4q4 -6 9 -20l14 -39q2 -5 5 -14.5t5.5 -17.5t5.5 -16l16 -50q11 -35 14 -43q9 -24 11 -27q8 -14 16 -23q12 -12 23 -18t28 -8q15 -2 32 9t49 37q30 24 66 65q34 37 63 86q28 48 39 101z" />
    <glyph glyph-name="circlevirb" unicode="circlevirb" 
d="M425 717q87 0 163 -33q75 -32 133 -89q57 -58 89 -133q33 -76 33 -163t-33 -163q-32 -75 -89 -133q-57 -57 -133 -90t-163 -33t-163 33t-133 90t-90 133t-33 163t33 163t90 133q58 57 133 89q76 33 163 33zM372 247l-82 235h-101l131 -366h105l130 366h-104zM634 377
q22 0 37 15q15 16 15 38q0 21 -15 36q-15 16 -37 16t-37 -16q-16 -15 -16 -36q0 -22 16 -38q15 -15 37 -15z" />
    <glyph glyph-name="circlewww" unicode="circlewww" 
d="M425 717q87 0 163 -33q75 -32 133 -89q57 -58 89 -133q33 -76 33 -163t-33 -163q-32 -75 -89 -133q-57 -57 -133 -90t-163 -33t-163 33t-133 90t-90 133t-33 163t33 163t90 133q58 57 133 89q76 33 163 33zM636 150q24 33 24 83q0 18 -5 38q-6 18 -15 32q-7 14 -23 25
q-13 9 -32 16l56 115v23h-153l-62 -223l-63 223h-45l21 -73l-42 -150l-63 223h-45l104 -347h4l64 226l65 -226h4l89 306h77l-73 -114v-8h30q16 0 29 -8q12 -10 19 -20q6 -7 11 -25q3 -16 3 -33q0 -29 -13 -51q-12 -21 -31 -21q-17 0 -29 12q-13 12 -21 32l-35 -15
q10 -34 33 -54q22 -20 52 -20q40 0 65 34z" />
    <glyph glyph-name="circlewikipedia" unicode="circlewikipedia" 
d="M425 717q87 0 163 -33q75 -32 133 -89q57 -58 89 -133q33 -76 33 -163t-33 -163q-32 -75 -89 -133q-57 -57 -133 -90t-163 -33t-163 33t-133 90t-90 133t-33 163t33 163t90 133q58 57 133 89q76 33 163 33zM577 482l-2 -1v-11q0 -1 2 -3q1 -1 3 -1l9 -1q6 0 12 -2
q2 -1 6 -5q7 -4 2 -21l-96 -251l-3 1l-61 137l1 1v2v1l50 102l9 15l5 10q4 7 8 8q3 1 14 3q5 0 5 4v11l-1 1h-88l-2 -1v-11q0 -1 2 -3q1 -1 3 -1l4 -1q15 0 18 -5q2 -4 3 -7q0 -4 -5 -16l-39 -84l-34 78q-8 21 -9 26q-1 3 2 5t10 3l7 1q4 0 4 4v11l-2 1h-93l-2 -1v-11
q0 -4 7 -4q2 0 5 -0.5t5 -1.5t6 -5q4 -6 7 -11l9 -21q1 -1 1 -2q1 -2 1 -3l3 -7q1 -1 2 -4t2 -5l36 -78l3 -7q0 -1 2 -4t2 -5l4 -10l-53 -116l-3 1q-36 82 -44 103l-17 42l-8 20t-9 22l-16 37q-1 2 -11 29q-3 10 -3 15q0 10 16 10l12 1q5 0 5 4v10l-1 1h-118l-1 -1v-11
q0 -3 7 -3q18 -1 24 -7q3 -3 14 -27q10 -30 27 -69l34 -80q5 -13 17 -40t17 -41l28 -69q6 -16 14 -18q4 -1 9 4t10 15l13 26q2 5 7.5 17t8.5 19l17 38q3 8 9 22t7 16l15 -38q3 -6 8 -19t8 -19l15 -35q3 -9 11 -27q7 -16 17 -18q4 -1 8 3.5t8 14.5l14 34q5 13 17 43l19 49
q3 6 9.5 23.5t10.5 26.5l48 120q6 19 16 26q12 9 32 10q4 0 4 4v11l-1 1h-108z" />
    <glyph glyph-name="circlewindows" unicode="circlewindows" 
d="M425 717q87 0 163 -33q75 -32 133 -89q57 -58 89 -133q33 -76 33 -163t-33 -163q-32 -75 -89 -133q-57 -57 -133 -90t-163 -33t-163 33t-133 90t-90 133t-33 163t33 163t90 133q58 57 133 89q76 33 163 33zM285 490l-40 -142q41 16 79 16q25 0 47 -8q22 -10 36 -19
l43 145l-22 12q-14 7 -28 10q-13 4 -35 4q-24 -2 -37 -5q-25 -6 -43 -13zM619 302l41 140q-40 -15 -79 -15q-31 0 -55 8q-22 9 -38 20l-42 -145q40 -28 91 -28q42 0 80 19v1h2zM266 170q28 0 49 -9q18 -7 37 -19l11 34q8 28 12 43l12 41q1 5 8 29l-8 5q-7 5 -8 5
q-36 17 -64 17q-6 0 -8 -1q-19 -1 -36 -6q-16 -3 -28 -8l-6 -2l-7 -2l-41 -143q41 16 77 16zM564 110l39 138q-38 -13 -76 -13q-33 0 -57 8q-22 9 -38 20l-42 -144l15 -8q9 -5 21 -9q16 -6 25 -9q13 -3 25 -3q37 0 88 20z" />
    <glyph glyph-name="circlewordpress" unicode="circlewordpress" 
d="M425 717q87 0 163 -33q75 -32 133 -89q57 -58 89 -133q33 -76 33 -163t-33 -163q-32 -75 -89 -133q-57 -57 -133 -90t-163 -33t-163 33t-133 90t-90 133t-33 163t33 163t90 133q58 57 133 89q76 33 163 33zM542 182l24 79q17 48 17 76q0 22 -6 37q-6 17 -13 28
q-6 9 -16 27q-7 13 -7 28t11 29q10 13 28 13h1q1 -1 2 -1q-34 30 -72 46q-39 16 -86 16q-62 0 -114 -29q-51 -29 -83 -77h35q14 0 21 1l22 2q3 0 7 -2q3 -3 3 -6t-2 -7q-1 -4 -7 -4q-5 0 -8 -1q-14 -2 -19 -2l86 -255l52 155l-37 100l-9 1q-5 0 -8 1t-8 1q-6 0 -7 3
q-2 4 -2 7q1 3 3 7q4 2 8 2l22 -2q6 -1 20 -1h39q14 0 21 1l22 2q5 0 7 -2q3 -3 3 -6q1 -3 -1 -7q-1 -4 -7 -4q-5 0 -8 -1q-14 -2 -19 -2zM615 329l-72 -207q54 31 85 83q32 55 32 120q0 29 -8 59q-8 28 -21 54l1 -12q1 -4 1 -12q0 -20 -4 -39q-6 -27 -14 -46zM189 325
q0 -35 9 -67q10 -32 27 -60q17 -26 42 -49q26 -23 55 -36l-112 308q-9 -20 -16 -47q-5 -25 -5 -49zM425 90q43 0 78 13q-2 2 -2 3l-72 198l-71 -205q32 -9 67 -9z" />
    <glyph glyph-name="circlexing" unicode="circlexing" 
d="M425 717q87 0 163 -33q75 -32 133 -89q57 -58 89 -133q33 -76 33 -163t-33 -163q-32 -75 -89 -133q-57 -57 -133 -90t-163 -33t-163 33t-133 90t-90 133t-33 163t33 163t90 133q58 57 133 89q76 33 163 33zM529 534l-157 -287l105 -184h104l-104 184l157 287h-105z
M320 430h-105l53 -104l-79 -132h105l78 132z" />
    <glyph glyph-name="circleyahoobuzz" unicode="circleyahoobu&#x7a;&#x7a;" 
d="M425 717q87 0 163 -33q75 -32 133 -89q57 -58 89 -133q33 -76 33 -163t-33 -163q-32 -75 -89 -133q-57 -57 -133 -90t-163 -33t-163 33t-133 90t-90 133t-33 163t33 163t90 133q58 57 133 89q76 33 163 33zM451 63q34 0 61 13q27 11 50 33q21 22 34 50q12 29 12 61
t-12 61q-15 31 -35 50q-21 21 -50 33q-27 13 -60 13h-53v-78h53q32 0 55 -23t23 -56q0 -32 -23 -55t-55 -23q-33 0 -56 23t-23 55v314h-78v-314q0 -34 13 -61q11 -27 33 -50q21 -21 50 -33q27 -13 61 -13z" />
    <glyph glyph-name="circleyahoo" unicode="circleyahoo" 
d="M425 717q87 0 163 -33q75 -32 133 -89q57 -58 89 -133q33 -76 33 -163t-33 -163q-32 -75 -89 -133q-57 -57 -133 -90t-163 -33t-163 33t-133 90t-90 133t-33 163t33 163t90 133q58 57 133 89q76 33 163 33zM584 399l5 2q4 2 7 2h38l6 8l20 19h-209l8 -27h56l-94 -89
l-19 27q-3 4 -24 35l-27 39q-5 8 -14 23t-11 18h72v17l1 6h-1v3h-235v-26h69q11 -11 31 -38l44 -57q27 -37 40 -56q19 -29 19 -30v-20q1 -10 1 -32l-1 -30q0 -14 -2 -16q-5 -5 -14 -6q-6 -1 -20 -3q-7 -1 -20 -1h-13l-4 -24h53h31q10 1 23 1h72l31 -1h18l1 25q-3 1 -15 1
h-45q-11 0 -13 1q0 1 -2 20l-1 33v32q0 15 1 17q3 10 22 30q20 20 44 41q30 26 45 38q21 16 26 18zM686 357l-12 1q-4 1 -11 1.5t-11 0.5l-22 3l-13 2l1 -158l31 -3zM613 182v-37l16 -2l17 -1l5 37h-18z" />
    <glyph glyph-name="circleyelp" unicode="circleyelp" 
d="M425 717q87 0 163 -33q75 -32 133 -89q57 -58 89 -133q33 -76 33 -163t-33 -163q-32 -75 -89 -133q-57 -57 -133 -90t-163 -33t-163 33t-133 90t-90 133t-33 163t33 163t90 133q58 57 133 89q76 33 163 33zM303 521q-11 -8 -16 -15q-4 -6 -3 -10q0 -5 3 -8l6 -8l89 -145
q5 -9 14 -13q8 -6 15 -5q6 1 11 10q4 7 4 18l-1 169q0 22 -30 28q-5 1 -19 1q-16 -2 -25 -3q-15 -3 -26 -7q-13 -4 -22 -12zM505 276l88 17q11 1 13 14q2 12 0 20l-7 12q-1 1 -4.5 7t-5.5 10q-12 15 -13 16l-12 12q-11 8 -20 8t-17 -8l-51 -60q-7 -8 -8 -18q-2 -10 3 -18
q4 -7 15 -10q7 -4 19 -2zM243 219q1 -11 12 -18q9 -6 18 -2l90 31q9 4 17 12q6 6 8 16q2 9 -5 16q-6 8 -15 12l-95 37q-8 4 -19 -4q-10 -8 -11 -21t-1 -35l-1 -27q0 -11 2 -17zM603 165q4 12 -1 23q-6 10 -15 12l-79 23q-14 2 -19 2q-9 0 -13 -3t-3 -12q0 -7 5 -17l50 -90
q2 -5 8 -7q3 -1 11 -1q4 0 12 2q5 3 8 8l16 24l12 20q7 12 8 16zM428 78l2 105q1 9 -4 18q-4 6 -12 8q-8 0 -16 -4t-15 -13l-63 -75q-7 -7 -4 -21q2 -14 12 -18l66 -22q8 -4 22 4q12 8 12 18z" />
    <glyph glyph-name="circleyoutube" unicode="circleyoutube" 
d="M425 717q87 0 163 -33q75 -32 133 -89q57 -58 89 -133q33 -76 33 -163t-33 -163q-32 -75 -89 -133q-57 -57 -133 -90t-163 -33t-163 33t-133 90t-90 133t-33 163t33 163t90 133q58 57 133 89q76 33 163 33zM314 534l-26 -97h-3l-28 97h-43l51 -146v-96h43v100l50 142h-44
zM416 288q28 0 41 13q15 12 15 36v92q0 19 -15 33q-13 13 -39 13t-41 -12q-16 -12 -16 -33v-93q0 -23 15 -36q13 -13 40 -13zM530 290q10 0 22 5q9 4 22 17v-20h38v179h-38v-136q-7 -7 -12 -10q-6 -3 -10 -3q-6 0 -8 3q-3 3 -3 9v137h-38v-150q0 -16 7 -23q5 -8 20 -8z
M416 444q7 0 13 -3q4 -4 4 -10v-97q0 -8 -4 -11q-4 -4 -13 -4q-8 0 -11 4q-5 3 -5 11v97q0 5 5 10q5 3 11 3zM189 256h40v-188h38v188h40v32h-118v-32zM542 101v90q0 21 -9 31q-7 10 -24 10q-9 0 -16 -4q-8 -3 -14 -11v71h-35v-220h35v12q3 -4 7 -7l7 -4q7 -3 18 -3
q15 0 23 9q8 11 8 26zM660 145v41q0 24 -13 36q-12 12 -36 12t-37 -13q-14 -14 -14 -35v-72q0 -24 13 -37q14 -14 36 -14q25 0 38 13q13 12 13 38v8h-35v-7q0 -15 -3 -19q-4 -4 -12 -4q-10 0 -12 5q-3 5 -3 18v30h65zM385 230v-123q-2 -3 -5 -5l-6 -4q-6 -3 -9 -3q-5 0 -7 2
t-2 9v124h-34v-136q0 -14 6 -21q6 -8 17 -8q9 0 20 6q10 5 20 15v-18h34v162h-34zM493 206q7 0 10 -4q4 -4 4 -12v-84q0 -8 -3 -11q-3 -4 -9 -4q-2 0 -8 2q-5 2 -8 6v101q3 3 7 5q1 1 7 1zM610 206q8 0 11 -5q4 -4 4 -14v-17h-30v17q0 9 3 14q5 5 12 5z" />
    <glyph glyph-name="circleinstagram" unicode="circleinstagram" 
d="M424 717q86 0 163 -33q75 -32 133 -89q57 -57 90 -133t33 -163t-33 -163t-90 -133t-133 -90q-77 -33 -163 -33t-163 33t-132 90q-57 57 -90 133t-33 163t33 163t90 133q56 56 132 89q77 33 163 33zM658 115v366q0 23 -16 39t-39 16h-366q-23 0 -39 -16t-16 -39v-366
q0 -23 16 -39t39 -16h366q23 0 39 16t16 39zM530 481h55q8 0 13 -5q5 -7 5 -14v-55q0 -8 -5 -13t-13 -5h-55q-7 0 -14 5q-5 5 -5 13v55q0 8 6 14q5 5 13 5zM420 206q-21 0 -36 7q-16 7 -29 20q-11 11 -19 29q-7 15 -7 36t7 36q7 16 19 29q13 12 29 19q15 7 36 7q38 0 64 -26
q27 -27 27 -65q0 -21 -7 -36q-9 -19 -20 -29q-10 -11 -29 -20q-15 -7 -35 -7zM566 298q0 12 -1 19q-2 12 -3 17h41v-201q0 -8 -5 -13t-13 -5h-330q-8 0 -13 5t-5 13v201h41q-1 -5 -3 -17q-1 -7 -1 -19q0 -29 11 -57q13 -29 31 -47q21 -21 47 -31q27 -12 57 -12t57 12
q25 10 46 31t31 47q12 27 12 57z" />
    <glyph glyph-name="roundedfivehundredpx" unicode="roundedfivehundredpx" 
d="M215 717h419q45 0 81 -16q39 -17 67 -45t45 -67q16 -36 16 -81v-418q0 -44 -16 -82q-17 -39 -45 -67q-25 -25 -67 -45q-36 -16 -81 -16h-419q-45 0 -81 16q-40 19 -66 45q-28 28 -45 67q-17 40 -17 82v418q0 42 17 81t45 67t66 45q36 16 81 16zM605 168q44 0 63 28
q18 27 18 63q0 37 -18 64q-20 27 -63 27q-23 0 -40 -9q-18 -12 -29 -21q-14 -14 -24 -30q-12 19 -23 30q-9 9 -28 21q-18 9 -42 9q-23 0 -39 -8q-16 -10 -23 -19q-9 -10 -14 -27q-5 14 -15 24q-8 10 -21 17t-34 7q-13 0 -22 -3l-17 -6q-10 -6 -13 -9l12 55h104v49h-139
l-29 -146h52q5 8 10 12q3 3 13 9q8 3 18 3q22 0 32 -15q9 -15 9 -34q0 -18 -15 -33t-32 -15q-14 0 -21 6q-9 5 -13 12q-6 10 -7 18h-52q4 -22 15 -40q9 -14 26 -27q16 -12 46 -12q28 0 47 8q20 9 28 16q11 10 18 25q5 -17 14 -25q6 -8 23 -16q16 -8 39 -8t42 8q17 8 28 19
q12 11 23 28q10 -15 24 -28q14 -12 29 -19q18 -8 40 -8zM425 302q12 0 22 -7q11 -7 18 -15q11 -10 18 -21q-7 -12 -18 -21q-9 -9 -18 -14q-10 -7 -22 -7q-23 0 -35 12t-12 30q0 19 12 31t35 12zM599 302q22 0 34 -12t12 -31q0 -18 -12 -30t-34 -12q-11 0 -21 7q-12 7 -19 14
q-11 9 -18 21q7 11 18 21q5 5 19 15q10 7 21 7z" />
    <glyph glyph-name="roundedaboutme" unicode="roundedaboutme" 
d="M215 717h419q45 0 81 -16q39 -17 67 -45t45 -67q16 -36 16 -81v-418q0 -44 -16 -82q-17 -39 -45 -67q-25 -25 -67 -45q-36 -16 -81 -16h-419q-45 0 -81 16q-40 19 -66 45q-28 28 -45 67q-17 40 -17 82v418q0 42 17 81t45 67t66 45q36 16 81 16zM686 290v9q0 51 -27 80
t-69 29q-44 0 -71 -29q-28 -28 -28 -82q0 -51 27 -79t74 -28q37 0 60 17q24 18 33 50l-37 5q-9 -23 -22 -33t-34 -10q-26 0 -44 18q-18 17 -20 53h158zM450 194v144q0 33 -17 53q-17 17 -49 17q-40 0 -65 -37q-6 18 -21 27q-13 10 -39 10q-22 0 -38 -10q-16 -8 -26 -24v29
h-32v-209h36v109q0 28 6 43q5 14 18 23q13 8 28 8q20 0 29 -12q9 -11 9 -35v-136h36v122q0 33 14 47q17 14 37 14q13 0 22 -6q9 -5 13 -15q3 -9 3 -30v-132h36zM590 379q27 0 45 -21q11 -14 13 -39h-118q1 27 19 43q17 17 41 17z" />
    <glyph glyph-name="roundedaddme" unicode="roundedaddme" 
d="M215 717h419q45 0 81 -16q39 -17 67 -45t45 -67q16 -36 16 -81v-418q0 -44 -16 -82q-17 -39 -45 -67q-25 -25 -67 -45q-36 -16 -81 -16h-419q-45 0 -81 16q-40 19 -66 45q-28 28 -45 67q-17 40 -17 82v418q0 42 17 81t45 67t66 45q36 16 81 16zM477 508h-105v-157h-157
v-104h157v-157h105v157h157v104h-157v157z" />
    <glyph glyph-name="roundedamazon" unicode="roundedama&#x7a;on" 
d="M215 717h419q45 0 81 -16q39 -17 67 -45t45 -67q16 -36 16 -81v-418q0 -44 -16 -82q-17 -39 -45 -67q-25 -25 -67 -45q-36 -16 -81 -16h-419q-45 0 -81 16q-40 19 -66 45q-28 28 -45 67q-17 40 -17 82v418q0 42 17 81t45 67t66 45q36 16 81 16zM465 457q5 -8 7 -20v-22
v-8l-20 -2q-8 0 -22 -2q-16 -1 -33 -6q-18 -3 -30 -10q-26 -12 -43 -36q-17 -25 -17 -59q0 -46 25 -68q23 -22 59 -22q19 0 39 5q28 9 53 37l13 -19q3 -5 19 -19q8 -3 14 1q9 9 22 19q9 7 21 19q5 5 1 15q-3 4 -8 11t-7 11q-7 11 -7 32v91q0 20 -2 54q-1 25 -22 46
q-16 16 -41 22q-22 7 -44 7h-12q-17 -1 -37 -6q-17 -4 -34 -15q-16 -11 -26 -27q-11 -15 -16 -41q-2 -7 1 -8q2 -2 6 -4l55 -7q9 2 10 11q3 18 15 25q14 9 26 10h4q9 0 18 -3q9 -5 13 -12zM389 302q0 24 12 36q12 13 29 18l21 3q7 1 21 1v-12q0 -22 -1 -32q-2 -14 -9 -29
q-10 -22 -32 -27l-3 -1h-4q-17 0 -25 12q-9 12 -9 31zM686 166v3q0 4 -2 10q-6 6 -25 7q-25 2 -45 -5q-12 -4 -23 -12q-5 -2 -3 -5q0 -3 4 -3l11 1q2 1 5.5 1.5t5.5 0.5q18 2 28 1q14 -1 18 -6q3 -3 2 -12q-1 -5 -5 -19l-6 -20q-3 -7 -7 -17q-1 -4 1 -5t7 2q18 16 25 39
q7 24 9 39zM636 131q8 5 3 11t-12 3l-6 -3q-3 -1 -7 -3q-48 -18 -92 -27q-46 -9 -92 -9q-73 0 -137 19q-69 20 -122 52q-5 4 -7 -1q-2 -3 2 -7q50 -47 117 -76q66 -27 141 -27q50 0 98 13q47 13 92 40l12 7q6 4 10 8z" />
    <glyph glyph-name="roundedaol" unicode="roundedaol" 
d="M215 717h419q45 0 81 -16q39 -17 67 -45t45 -67q16 -36 16 -81v-418q0 -44 -16 -82q-17 -39 -45 -67q-25 -25 -67 -45q-36 -16 -81 -16h-419q-45 0 -81 16q-40 19 -66 45q-28 28 -45 67q-17 40 -17 82v418q0 42 17 81t45 67t66 45q36 16 81 16zM483 534q-25 0 -45 -18
q-19 -19 -19 -45t19 -44q20 -18 45 -18q27 0 46 18q18 18 18 44q0 25 -18 45q-19 18 -46 18zM621 110l-5 8q-49 100 -145 147l-2 1h-1l-2 2q-3 2 -3 3q1 4 4 7q1 1 3 1h8l18 -3q6 -1 18 -1q22 0 43 7q18 5 50 20l8 5l-27 60l-9 -4q-9 -4 -26 -9q-15 -4 -34 -4q-20 0 -38 6
l-4 2l-1 3q-1 1 -1 3q0 3 -1 4v16l-8 1q-15 3 -31 12l-5 3l-5 -2q-33 -20 -49 -50q-18 -34 -22 -86l-3 -19l-2 -8q-9 -19 -25 -37q-11 -13 -29 -26q-19 -12 -30 -17q-14 -5 -26 -9l-11 -3l30 -80l9 3q31 7 57 20q24 13 40 26q18 15 29 27l23 28l7 10q2 2 4 2l4 -2
q30 -14 47 -25q26 -18 35 -26q17 -17 23 -25l13 -20l5 -9z" />
    <glyph glyph-name="roundedappstorealt" unicode="roundedappstorealt" 
d="M215 717h419q45 0 81 -16q39 -17 67 -45t45 -67q16 -36 16 -81v-418q0 -44 -16 -82q-17 -39 -45 -67q-25 -25 -67 -45q-36 -16 -81 -16h-419q-45 0 -81 16q-40 19 -66 45q-28 28 -45 67q-17 40 -17 82v418q0 42 17 81t45 67t66 45q36 16 81 16zM425 37q55 0 101 21
q48 20 83 56q36 34 57 83q20 49 20 102t-20 102q-21 46 -56 83q-37 35 -83 56q-49 20 -102 20t-102 -20q-48 -21 -83 -56q-36 -36 -56 -83q-21 -48 -21 -102t21 -102q20 -48 56 -83q35 -36 83 -56q48 -21 102 -21zM425 534q47 0 91 -18q44 -20 75 -51q32 -32 50 -74
q19 -42 19 -92t-19 -92q-18 -43 -50 -75t-75 -50q-42 -19 -91 -19q-50 0 -92 19q-43 18 -75 50t-51 75q-18 43 -18 92t18 92q20 43 51 74q32 31 75 51q43 18 92 18zM477 456h-105v-183h-78l131 -131l130 131h-78v183z" />
    <glyph glyph-name="roundedappstore" unicode="roundedappstore" 
d="M215 717h419q45 0 81 -16q39 -17 67 -45t45 -67q16 -36 16 -81v-418q0 -44 -16 -82q-17 -39 -45 -67q-25 -25 -67 -45q-36 -16 -81 -16h-419q-45 0 -81 16q-40 19 -66 45q-28 28 -45 67q-17 40 -17 82v418q0 42 17 81t45 67t66 45q36 16 81 16zM549 230q10 -5 14 -4
q3 1 11 5q5 1 14 10q7 7 2 19l-15 27q-12 23 -27 51l-30 57q-6 11 -15.5 26.5t-11.5 19.5q-14 21 -23 39l-24 40q-8 15 -20 31q-9 10 -13 9q-6 -3 -1 -21q6 -24 13 -40q9 -22 20 -46l16 -37q1 -2 7.5 -17t11.5 -27q18 -40 28 -61l26 -55q12 -24 17 -26zM231 168l31 -17
q10 -7 16 4l144 250q2 6 1 9q-2 6 -6 7l-31 18q-6 2 -9 1q-6 -2 -7 -6l-143 -249q-7 -9 4 -17zM163 342v-85q0 -10 12 -10h53l66 104h-119q-12 0 -12 -9zM686 257v85q0 9 -12 9h-105l53 -104h52q12 0 12 10zM426 351l-67 -104h142l-44 104h-31zM571 194l18 -29q7 -10 19 -5
l12 8q5 2 7 7q1 6 -2 11l-15 28q-1 4 -7 6q-5 2 -10 0l-18 -9q-4 -1 -6 -7q-2 -5 2 -10zM658 87q2 29 -2 44q-3 16 -13 23q-10 9 -30 -2q-1 -1 -7 -11q-5 -9 5 -22q3 -5 13 -11l14 -7q5 -2 13 -6q6 -4 7 -8zM212 97l40 27q10 7 0 13l-31 18q-11 5 -12 -6l-5 -47q-1 -4 2 -6
q1 -1 6 1z" />
    <glyph glyph-name="roundedapple" unicode="roundedapple" 
d="M215 717h419q45 0 81 -16q39 -17 67 -45t45 -67q16 -36 16 -81v-418q0 -44 -16 -82q-17 -39 -45 -67q-25 -25 -67 -45q-36 -16 -81 -16h-419q-45 0 -81 16q-40 19 -66 45q-28 28 -45 67q-17 40 -17 82v418q0 42 17 81t45 67t66 45q36 16 81 16zM450 498q-13 -15 -21 -32
q-8 -21 -5 -40q21 -2 39 8t32 25q13 15 21 35q7 19 4 40q-20 -2 -37 -11q-20 -11 -33 -25zM587 122q19 29 25 45l9 22l-10 5q-9 4 -23 16q-10 9 -22 29q-10 17 -10 45q0 21 8 39q9 20 17 28q13 13 18 16l9 7q-10 14 -23 24q-16 11 -26 14q-12 5 -22 6q-14 2 -17 2
q-12 1 -27 -2q-18 -4 -26 -7l-22 -8q-9 -4 -17 -4q-7 0 -16 3l-19 7q-5 2 -22 7q-11 3 -23 3q-32 0 -57 -16q-26 -17 -42 -43t-19 -59q-3 -32 3 -65q5 -32 18 -62q15 -31 28 -51q3 -3 8 -11t7 -11q12 -14 18 -20q16 -11 20 -13q12 -5 23 -4q13 0 20 3l17 6q6 3 18 7
q10 3 24 3t23 -3l18 -7l18 -6q9 -3 21 -3q25 2 41 19q18 18 32 39z" />
    <glyph glyph-name="roundedbebo" unicode="roundedbebo" 
d="M215 717h419q45 0 81 -16q39 -17 67 -45t45 -67q16 -36 16 -81v-418q0 -44 -16 -82q-17 -39 -45 -67q-25 -25 -67 -45q-36 -16 -81 -16h-419q-45 0 -81 16q-40 19 -66 45q-28 28 -45 67q-17 40 -17 82v418q0 42 17 81t45 67t66 45q36 16 81 16zM427 63h47q39 0 72 13
q32 13 60 37q25 22 40 54q14 33 14 66q0 34 -11 67q-11 32 -30 54q-20 23 -44 36q-25 13 -55 13h-93q-19 0 -32 -10q-14 -11 -14 -29t14 -29q13 -10 32 -10h93q17 0 32 -22q15 -23 15 -56q0 -18 -7 -31t-20 -25q-15 -11 -30 -17q-16 -6 -36 -6h-47q-37 0 -60 24
q-21 22 -21 61v235q0 20 -16 33t-36 13t-36 -13t-16 -33v-235q0 -37 15 -72q13 -35 39 -60q26 -28 59 -42q33 -16 72 -16z" />
    <glyph glyph-name="roundedbehance" unicode="roundedbehance" 
d="M215 717h419q45 0 81 -16q39 -17 67 -45t45 -67q16 -36 16 -81v-418q0 -44 -16 -82q-17 -39 -45 -67q-25 -25 -67 -45q-36 -16 -81 -16h-419q-45 0 -81 16q-40 19 -66 45q-28 28 -45 67q-17 40 -17 82v418q0 42 17 81t45 67t66 45q36 16 81 16zM403 173l9 14q13 22 13 50
q0 27 -12 46q-11 18 -33 27q15 8 22 18q13 16 13 46q0 29 -13 48q-22 33 -74 34h-139v-314h130q14 0 21 1t19 3q16 4 32 16q7 4 12 11zM608 456h-105v-53h105v53zM347 336q-4 -3 -14 -7q-7 -4 -17 -4h-48v78h41q9 0 19 -2q5 -1 15 -5q7 -3 12 -11q3 -7 3 -19q0 -22 -11 -30z
M516 247h144q-1 6 -1 17l-1 14v11q-2 15 -6 25t-10 20q-13 22 -34 33q-19 10 -46 10q-44 0 -71 -30q-27 -31 -27 -89q0 -61 30 -88t70 -27q23 0 41 9q20 9 33 25q10 14 13 20q4 9 6 23h-53q-2 -14 -5 -14l-2 -2q-2 -1 -3 -2q-8 -6 -13 -8q-7 -4 -16 -4q-17 0 -29 9
q-9 6 -14 17q-4 10 -6 31zM562 325q18 0 30 -12q7 -6 10 -13q2 -6 4 -27h-89q1 19 5 26l9 13q10 13 31 13zM346 271q8 -4 13 -11q5 -8 5 -20q0 -29 -19 -39q-11 -7 -29 -7h-48v79h65q7 0 13 -2z" />
    <glyph glyph-name="roundedbing" unicode="roundedbing" 
d="M215 717h419q45 0 81 -16q39 -17 67 -45t45 -67q16 -36 16 -81v-418q0 -44 -16 -82q-17 -39 -45 -67q-25 -25 -67 -45q-36 -16 -81 -16h-419q-45 0 -81 16q-40 19 -66 45q-28 28 -45 67q-17 40 -17 82v418q0 42 17 81t45 67t66 45q36 16 81 16zM425 63q49 0 91 13
q44 14 75 36q32 23 50 53q19 29 19 65q0 35 -19 64q-17 29 -50 53q-31 23 -75 36q-42 13 -91 13q-14 0 -40 -2q-16 -1 -38 -8t-38 -16q-18 -10 -41 -25v189h-79v-309h1q2 -35 20 -62q19 -29 51 -52q30 -21 74 -35q40 -13 90 -13zM425 341q31 0 58 -9q28 -9 47 -24
q20 -15 32 -35q12 -19 12 -43q0 -23 -12 -44q-12 -20 -32 -35q-19 -15 -47 -24q-29 -8 -58 -8t-59 8q-28 9 -47 24q-20 15 -32 35q-12 21 -12 44q0 24 12 43q12 20 32 35q19 15 47 24t59 9zM425 159q18 0 38 5q18 6 31 16q16 13 22 23q8 14 8 28q0 31 -29 52t-70 21
q-43 0 -71 -21q-29 -21 -29 -52q0 -14 8 -28q7 -12 21 -23q12 -9 32 -16q20 -5 39 -5z" />
    <glyph glyph-name="roundedblip" unicode="roundedblip" 
d="M215 717h419q45 0 81 -16q39 -17 67 -45t45 -67q16 -36 16 -81v-418q0 -44 -16 -82q-17 -39 -45 -67q-25 -25 -67 -45q-36 -16 -81 -16h-419q-45 0 -81 16q-40 19 -66 45q-28 28 -45 67q-17 40 -17 82v418q0 42 17 81t45 67t66 45q36 16 81 16zM575 90h85q0 90 -35 172
q-34 80 -96 142q-63 61 -142 95q-82 35 -172 35v-85q75 0 140 -28q64 -28 114 -77q49 -50 78 -114q28 -65 28 -140zM424 90h85q0 59 -23 113q-24 54 -64 94q-40 41 -93 63q-54 24 -114 24v-85q43 0 81 -16q40 -17 68 -45t45 -67q15 -39 15 -81zM215 142l-26 -26l53 -53
l26 27h78l-131 130v-78z" />
    <glyph glyph-name="roundedblogger" unicode="roundedblogger" 
d="M215 717h419q45 0 81 -16q39 -17 67 -45t45 -67q16 -36 16 -81v-418q0 -44 -16 -82q-17 -39 -45 -67q-25 -25 -67 -45q-36 -16 -81 -16h-419q-45 0 -81 16q-40 19 -66 45q-28 28 -45 67q-17 40 -17 82v418q0 42 17 81t45 67t66 45q36 16 81 16zM684 352l-7 5q-3 3 -12 3
h-19q-4 0 -10 1t-10 1q-10 2 -13 5q-6 5 -8 16l-4 24q-2 16 -3 22l-3 13l-4 8l-4 8q-7 16 -21 30q-12 14 -30 25q-18 12 -33 17q-16 7 -31 9h-104q-31 0 -58 -12t-47 -32q-21 -19 -33 -47q-12 -27 -12 -58v-173q0 -31 12 -58t33 -48q20 -20 47 -32q28 -11 58 -11h171
q30 0 58 11q28 12 47 33q20 20 32 47t12 58l1 120l-1 7zM452 361h-82q-11 0 -21 8q-8 10 -8 20q0 12 8 20q10 8 21 8h82q12 0 20 -8q9 -7 9 -20q0 -11 -9 -20q-8 -8 -20 -8zM370 247h168q11 0 19 -8q9 -7 9 -20q0 -11 -9 -20q-8 -8 -19 -8h-168q-11 0 -21 8q-8 10 -8 20
q0 12 8 20q10 8 21 8z" />
    <glyph glyph-name="roundedcoroflot" unicode="roundedcoroflot" 
d="M215 717h419q45 0 81 -16q39 -17 67 -45t45 -67q16 -36 16 -81v-418q0 -44 -16 -82q-17 -39 -45 -67q-25 -25 -67 -45q-36 -16 -81 -16h-419q-45 0 -81 16q-40 19 -66 45q-28 28 -45 67q-17 40 -17 82v418q0 42 17 81t45 67t66 45q36 16 81 16zM225 454q-1 -8 3.5 -12
t14.5 -5q24 -2 51 1q14 2 27 -9q13 -10 22 -29q10 -18 16 -46q5 -32 4 -61q17 6 31 7l-4 27q-2 21 -9 43q-9 28 -20 46q-14 25 -36 41q11 1 29 -2q17 -2 37 -14q21 -13 43 -35t48 -62l10 3l9 3q-9 15 -27 39q-19 25 -44 47q-26 23 -56 36t-66 5q2 12 0 23q-2 15 -4 20
q-5 9 -10 11q-7 3 -16 -2t-13 -11q-3 -5 -2 -11l2 -13q1 -7 0 -16q-2 -11 -7 -12q-8 -2 -12 -2q-9 0 -13 -1q-6 -1 -8 -9zM533 138q18 1 35 9q16 7 29 20q12 12 20 30q7 15 7 36q0 40 -28 68t-68 28q-24 0 -43 -10q-19 -11 -33 -27q39 -14 61 -48q24 -33 24 -75
q0 -19 -4 -31zM406 66q19 0 40 8q18 7 33 22t22 33q8 21 8 40t-8 40q-7 18 -22 33t-33 22q-21 8 -40 8t-40 -8q-17 -6 -34 -22q-15 -15 -22 -33q-8 -21 -8 -40t8 -40q7 -18 22 -33q17 -16 34 -22q21 -8 40 -8zM375 231q9 0 15 -7q7 -6 7 -15q0 -10 -7 -17q-6 -6 -15 -6
t-17 6q-6 8 -6 17t6 15q7 7 17 7z" />
    <glyph glyph-name="roundeddaytum" unicode="roundeddaytum" 
d="M215 717h419q45 0 81 -16q39 -17 67 -45t45 -67q16 -36 16 -81v-418q0 -44 -16 -82q-17 -39 -45 -67q-25 -25 -67 -45q-36 -16 -81 -16h-419q-45 0 -81 16q-40 19 -66 45q-28 28 -45 67q-17 40 -17 82v418q0 42 17 81t45 67t66 45q36 16 81 16zM215 482h445v52h-445v-52z
M608 37h52v419h-52v-419zM451 37h52v366h-52v-366zM294 37h52v262h-52v-262zM529 37h52v262h-52v-262zM372 37h53v210h-53v-210zM215 37h53v157h-53v-157z" />
    <glyph glyph-name="roundeddelicious" unicode="roundeddelicious" 
d="M215 717h419q45 0 81 -16q39 -17 67 -45t45 -67q16 -36 16 -81v-418q0 -44 -16 -82q-17 -39 -45 -67q-25 -25 -67 -45q-36 -16 -81 -16h-419q-45 0 -81 16q-40 19 -66 45q-28 28 -45 67q-17 40 -17 82v418q0 42 17 81t45 67t66 45q36 16 81 16zM425 299h-210v-209h210
v209h209v209h-209v-209z" />
    <glyph glyph-name="roundeddesignbump" unicode="roundeddesignbump" 
d="M215 717h419q45 0 81 -16q39 -17 67 -45t45 -67q16 -36 16 -81v-418q0 -44 -16 -82q-17 -39 -45 -67q-25 -25 -67 -45q-36 -16 -81 -16h-419q-45 0 -81 16q-40 19 -66 45q-28 28 -45 67q-17 40 -17 82v418q0 42 17 81t45 67t66 45q36 16 81 16zM398 377l105 -104h-105
v-105l105 105v157h52l-104 104l-105 -104h52v-53zM320 403l-105 -104h53v-236h104v236h53zM425 142h52v-79h104v79h53l-105 105zM398 63h53v53h-53v-53z" />
    <glyph glyph-name="roundeddesignfloat" unicode="roundeddesignfloat" 
d="M215 717h419q45 0 81 -16q39 -17 67 -45t45 -67q16 -36 16 -81v-418q0 -44 -16 -82q-17 -39 -45 -67q-25 -25 -67 -45q-36 -16 -81 -16h-419q-45 0 -81 16q-40 19 -66 45q-28 28 -45 67q-17 40 -17 82v418q0 42 17 81t45 67t66 45q36 16 81 16zM425 63q49 0 91 19
q43 18 75 50q31 32 51 75q18 43 18 92t-18 92q-20 43 -51 74t-75 51q-44 18 -91 18q-49 0 -92 -18q-43 -20 -75 -51q-32 -32 -50 -74q-19 -42 -19 -92t19 -92q18 -43 50 -75t75 -50q42 -19 92 -19zM425 511q44 0 82 -16q37 -17 67 -46t46 -67t16 -83q0 -46 -16 -82
q-16 -38 -46 -68q-28 -28 -67 -45q-40 -17 -82 -17q-43 0 -82 17q-40 17 -68 45t-45 68q-17 39 -17 82t17 83q17 39 45 67q30 30 68 46q36 16 82 16zM552 325h52q-14 61 -53 100t-100 53v-52q80 -21 101 -101zM372 426v52q-59 -14 -86 -54q-28 -39 -40 -99h51q10 38 33 64
q24 27 42 37zM317 299q0 -23 9 -42q6 -17 22 -34q17 -15 34 -23q21 -8 43 -8q20 0 41 8q20 9 34 23q16 16 23 34q9 19 9 42q0 21 -9 41q-8 20 -23 34q-14 15 -34 23q-20 9 -41 9q-23 0 -43 -9q-18 -7 -34 -23q-14 -14 -23 -34q-8 -21 -8 -41zM425 382q35 0 59 -24t24 -59
t-24 -60q-24 -24 -59 -24q-18 0 -33 6q-16 8 -26 18q-12 12 -18 27q-7 15 -7 33t7 32q6 16 18 26q10 12 26 18q14 7 33 7zM372 172l-21 10q-11 4 -21 12q-9 6 -19 20q-10 15 -14 33h-51q6 -32 16 -51q9 -21 24 -36q14 -14 36 -25q21 -9 50 -15v52zM451 172v-52q31 7 55 15
q27 11 45 25q19 15 33 36q14 22 20 51h-52q-4 -18 -14 -33q-12 -14 -22 -20q-14 -8 -29 -12z" />
    <glyph glyph-name="roundeddeviantart" unicode="roundeddeviantart" 
d="M215 717h419q45 0 81 -16q39 -17 67 -45t45 -67q16 -36 16 -81v-418q0 -44 -16 -82q-17 -39 -45 -67q-25 -25 -67 -45q-36 -16 -81 -16h-419q-45 0 -81 16q-40 19 -66 45q-28 28 -45 67q-17 40 -17 82v418q0 42 17 81t45 67t66 45q36 16 81 16zM476 233l216 62
q-27 35 -68 56t-97 31q-60 11 -147 -4h-4l-22 46l-67 -8l27 -56q-24 -9 -45 -25q-19 -15 -28 -30q-11 -17 -15 -32q-3 -11 -5 -33q-2 -39 14 -76l216 62l-59 120q42 11 75 8q35 -3 62 -12t58 -28l-73 -19l-21 39q-10 1 -32 3q-15 1 -35 -2zM365 255l-72 -20q-6 14 -3 28
q1 11 11 27q9 14 32 30z" />
    <glyph glyph-name="roundeddiggalt" unicode="roundeddiggalt" 
d="M215 717h419q45 0 81 -16q39 -17 67 -45t45 -67q16 -36 16 -81v-418q0 -44 -16 -82q-17 -39 -45 -67q-25 -25 -67 -45q-36 -16 -81 -16h-419q-45 0 -81 16q-40 19 -66 45q-28 28 -45 67q-17 40 -17 82v418q0 42 17 81t45 67t66 45q36 16 81 16zM242 377h-79v-183h131v262
h-52v-79zM320 403h52v53h-52v-53zM320 194h52v183h-52v-183zM398 194h79v-26h-79v-52h131v261h-131v-183zM555 194h79v-26h-79v-52h131v261h-131v-183zM242 247h-27v78h27v-78zM451 325h26v-78h-26v78zM608 325h26v-78h-26v78z" />
    <glyph glyph-name="roundeddigg" unicode="roundeddigg" 
d="M215 717h419q45 0 81 -16q39 -17 67 -45t45 -67q16 -36 16 -81v-418q0 -44 -16 -82q-17 -39 -45 -67q-25 -25 -67 -45q-36 -16 -81 -16h-419q-45 0 -81 16q-40 19 -66 45q-28 28 -45 67q-17 40 -17 82v418q0 42 17 81t45 67t66 45q36 16 81 16zM608 508h-183v-109h-27v3
q-28 22 -41 31q-18 11 -39 21q-19 10 -37 10q-19 0 -39 -10q-26 -14 -38 -21q-18 -12 -41 -31v-155h105v-27q-16 -2 -28 -7q-13 -4 -26 -14q-10 -7 -18 -20q-7 -10 -7 -24v-49q0 -7 5 -12q4 -4 13 -4h139q17 0 17 16v49q0 26 -21 44q-21 19 -48 21v27h109v-157h231v157h52
v152h-78v109zM477 456h78v-79h-78v79zM215 299v84q21 17 37 27q20 11 29 11q8 0 27 -11q17 -9 38 -27v-84h-131zM634 299h-53v-157h-52v78h-22v-78h-56v157h-53v52h27v-26h183v30h26v-56zM259 177h35q11 0 18 -7q8 -6 8 -15v-22h-87v22q0 9 7 15q7 7 19 7z" />
    <glyph glyph-name="roundeddribble" unicode="roundeddribble" 
d="M215 717h419q45 0 81 -16q39 -17 67 -45t45 -67q16 -36 16 -81v-418q0 -44 -16 -82q-17 -39 -45 -67q-25 -25 -67 -45q-36 -16 -81 -16h-419q-45 0 -81 16q-40 19 -66 45q-28 28 -45 67q-17 40 -17 82v418q0 42 17 81t45 67t66 45q36 16 81 16zM425 63q49 0 91 19
q43 18 75 50q31 32 51 75q18 43 18 92q0 47 -18 91q-20 44 -51 75t-75 51q-44 18 -91 18q-49 0 -92 -18q-43 -20 -75 -51q-32 -32 -50 -75q-19 -42 -19 -91q0 -50 19 -92q18 -43 50 -75t75 -50q42 -19 92 -19zM561 439q-26 -22 -53 -38q-23 -15 -56 -31q-15 29 -36 61
q-20 29 -42 57q16 4 25 5q16 2 26 2q37 0 73 -14q34 -15 63 -42zM415 355q-77 -27 -159 -27h-13q-9 0 -12 1q8 48 35 84q27 37 69 60q44 -53 80 -118zM469 334q30 13 61 33q31 21 56 42q18 -26 26 -52q8 -29 9 -57q-37 9 -75 9q-20 0 -31 -1q-17 -2 -33 -6l-6 16
q-5 13 -7 16zM439 306l5 -14q-48 -16 -92 -49q-42 -32 -71 -77q-49 52 -52 124l14 -1h13q42 0 90 8q49 8 86 23q4 -7 7 -14zM496 265q32 5 50 5q38 0 71 -10q-7 -40 -32 -75q-25 -34 -61 -55q-6 46 -11 69q-9 43 -17 66zM311 139q25 42 63 72q38 29 83 44q23 -71 29 -142
q-27 -10 -61 -10q-65 0 -114 36z" />
    <glyph glyph-name="roundeddrupal" unicode="roundeddrupal" 
d="M215 717h419q45 0 81 -16q39 -17 67 -45t45 -67q16 -36 16 -81v-418q0 -44 -16 -82q-17 -39 -45 -67q-25 -25 -67 -45q-36 -16 -81 -16h-419q-45 0 -81 16q-40 19 -66 45q-28 28 -45 67q-17 40 -17 82v418q0 42 17 81t45 67t66 45q36 16 81 16zM426 63q41 0 80 14
q36 15 66 41q28 26 45 63q17 39 17 82q0 44 -14 78q-14 32 -33 55q-21 24 -36 35l-22 16q-22 12 -36 17q-19 8 -35 18q-9 7 -24 23l-27 29q-1 -22 -8 -35q-7 -11 -15 -18q-20 -15 -31 -20l-28 -14q-6 -3 -24 -15q-18 -13 -37 -34q-18 -21 -34 -54q-15 -33 -15 -77
q0 -43 18 -81q16 -37 46 -65q28 -26 67 -42q36 -16 80 -16zM382 428q-13 -14 -28 -26q-16 -13 -39 -26q-28 -15 -38 -16q-12 -2 -13 -1l-3 4q-3 4 2 12q6 11 20 23q12 12 23 19q14 10 21 13q10 7 14 8l17 9q11 6 28 18q7 5 17 17q6 9 9 32q4 -12 4 -31q-2 -9 -6 -13l-8 -7
q-1 -1 -7 -5l-7 -3q-4 -1 0 -3q6 -2 6 -5q0 -1 -2 -7q-1 -3 -10 -12zM380 279q19 0 38 -8q22 -12 32 -18l26 -18q13 -8 23 -8t21 7l24 15l24 15q10 7 19 7q17 0 24 -13q6 -14 6 -24q0 -13 -4 -28q-4 -16 -12 -28t-14 -16q-9 -5 -17 -4q-5 0 -15 8l-18 18q-13 13 -20 18
q-11 9 -18 9q-10 0 -25 -9l-32 -19q-16 -9 -37 -19q-21 -8 -36 -8q-19 0 -29 2q-6 2 -16 8q-22 13 -20 44q0 13 6 25q5 12 17 22q10 10 24 16q13 6 29 6zM461 141q-11 -9 -14 -5q-3 5 4 11l10 9q4 4 11 6q6 3 10 3h9h11q8 -3 10 -4q3 -2 7 -8l4 -8q2 -8 -4 -9q-3 -2 -7 5
q-1 3 -6 8q-4 3 -16 3t-17 -3q-4 -2 -12 -8zM526 118q6 4 6 -1q2 -5 -1 -8l-16 -9q-16 -9 -33 -10q-19 -1 -41 0q-21 1 -38 15q-2 2 -2 5q0 2 2 4q5 3 7 3q3 0 4 -1q8 -5 19 -9q9 -4 34 -4q20 0 37 5q11 3 22 10z" />
    <glyph glyph-name="roundedebay" unicode="roundedebay" 
d="M827 589q16 -36 16 -81v-418q0 -44 -16 -82q-17 -39 -45 -67q-25 -25 -67 -45q-36 -16 -81 -16h-419q-45 0 -81 16q-40 19 -66 45q-28 28 -45 67q-17 40 -17 82v418q0 42 17 81t45 67t66 45q36 16 81 16h419q45 0 81 -16q39 -17 67 -45t45 -67zM738 430h-64l-49 -102
l-45 102h-69l11 -23q-3 1 -11 1h-11q-10 0 -26 -2q-12 -3 -19 -9q-18 -11 -18 -41h48q0 8 2 18q3 8 16 8q14 0 17 -7t3 -18v-13q-14 1 -40 -1q-19 -1 -31 -12q-4 3 -14 9q-8 3 -18 3q-26 0 -39 -19h-1v88h-48v-80q-6 4 -12 5l-14 3q-4 0 -14 1.5t-16 2.5q-11 1 -37 1
q-43 0 -69 -6t-39 -16q-12 -9 -17 -24q-3 -13 -3 -29q0 -19 4 -31q5 -15 17 -25q14 -11 39 -17t68 -6q14 0 36 2q14 1 31 5q11 3 26 8v39h35q-2 -24 -34 -38l-1 -1v-34h46v18h1q10 -22 40 -22q15 0 24 6q11 6 15 16q6 12 7 21q1 7 3 23q2 -1 11 -1q30 0 45 26h1l2 -23h46
l-2 16q-1 5 -1 16v44l20 -39v-82h64v82zM562 387q8 -16 8 -35v-40l-48 95q32 -5 40 -20zM332 262v70q26 -11 32 -29q6 -17 4 -41h-36zM466 296q2 -30 2 -40v-22q-20 5 -27 19q-8 14 -8 34q0 31 19 44q13 -14 14 -35zM279 296l1 -11h-80v11q2 8 4 11q4 5 12 9q7 4 23 4
q17 0 24 -3q9 -5 12 -9q4 -5 4 -12zM493 314q8 2 13 3l17 1v-16q0 -7 -2 -19q-2 -10 -7 -15q-4 -6 -15 -6q-12 0 -15 9t-3 18q0 11 3 17q3 7 9 8zM400 314q17 0 18 -16q2 -22 2 -41q0 -34 -4 -46q-3 -14 -16 -14q-12 0 -17 14q-3 13 -3 46q0 19 2 41q3 16 18 16zM200 248v14
h132v-17h-55q0 -11 -7 -18q-8 -9 -31 -9q-14 0 -22 5t-12 11q-3 4 -5 14z" />
    <glyph glyph-name="roundedemail" unicode="roundedemail" 
d="M215 717h419q45 0 81 -16q39 -17 67 -45t45 -67q16 -36 16 -81v-418q0 -44 -16 -82q-17 -39 -45 -67q-25 -25 -67 -45q-36 -16 -81 -16h-419q-45 0 -81 16q-40 19 -66 45q-28 28 -45 67q-17 40 -17 82v418q0 42 17 81t45 67t66 45q36 16 81 16zM189 447l236 -168l235 168
v61h-471v-61zM189 369v-180l126 90zM660 189v180l-126 -90zM425 201l-83 59l-153 -110v-60h471v60l-153 110z" />
    <glyph glyph-name="roundedemberapp" unicode="roundedemberapp" 
d="M215 717h419q45 0 81 -16q39 -17 67 -45t45 -67q16 -36 16 -81v-418q0 -44 -16 -82q-17 -39 -45 -67q-25 -25 -67 -45q-36 -16 -81 -16h-419q-45 0 -81 16q-40 19 -66 45q-28 28 -45 67q-17 40 -17 82v418q0 42 17 81t45 67t66 45q36 16 81 16zM424 63q67 1 111 28
q42 25 64 61q22 35 28 77q7 38 7 75q-2 40 -5 55l-4 15q2 -9 -1 -16q-2 -8 -6 -15q-8 -14 -10 -16q-4 34 -32 72q-25 34 -59 67q-42 39 -82 68q-1 -16 -19 -34q-17 -18 -41 -38l-51 -44q-25 -21 -46 -50q-15 -21 -23 -44q-7 -20 -10 -42q-1 -4 -4 -31q-1 -13 -5 -14
q-6 -3 -14 2q-4 1 -7 6q18 -62 46 -97q27 -36 57 -54q30 -19 59 -24q25 -5 47 -7zM593 277l18 23q0 -13 -1 -20q-2 -14 -2 -22q0 -30 -10 -57q-10 -29 -30 -54q-22 -29 -57 -46t-83 -18q-57 1 -98 29q-43 29 -62 80q0 7 -7 13q-9 9 -11 14l3 3q0 1 2 3v1q5 5 5 12q1 5 3 19
q1 6 7 45q4 26 25 55q19 25 39 43l45 39q23 18 38 33q18 18 27 31q15 -12 43 -36q24 -21 45 -45q22 -25 36 -49q16 -25 19 -48zM570 171q15 20 23 39q10 28 13 42l-13 -16l-6 48q-3 22 -18 48q-17 26 -37 49q-21 24 -45 45q-3 2 -19 15.5t-24 19.5q-10 -15 -27 -30
q-15 -15 -38 -33l-44 -39q-25 -23 -40 -44q-21 -27 -25 -53q-7 -33 -8 -46q0 -4 -1 -5q55 -99 163 -104q100 3 146 64z" />
    <glyph glyph-name="roundedetsy" unicode="roundedetsy" 
d="M215 717h419q45 0 81 -16q39 -17 67 -45t45 -67q16 -36 16 -81v-418q0 -44 -16 -82q-17 -39 -45 -67q-25 -25 -67 -45q-36 -16 -81 -16h-419q-45 0 -81 16q-40 19 -66 45q-28 28 -45 67q-17 40 -17 82v418q0 42 17 81t45 67t66 45q36 16 81 16zM619 194l-22 -40
q-12 -19 -23 -32q-6 -6 -18 -16q-9 -6 -18 -9q-13 -4 -25 -5q-20 -2 -36 -2h-82q-22 0 -30 5q-9 4 -12 13q-3 10 -4 14q-3 10 -3 29v148h116q30 0 45 -9q15 -8 21 -21q3 -6 6 -18q4 -25 4 -31h17v183h-17q-2 -20 -6 -38q-5 -18 -15 -25q-15 -15 -55 -15h-116v183h142
q36 0 51 -5q17 -7 27 -22q4 -7 9 -20q2 -4 8 -31h14l-5 104h-377v-26h18q19 0 28 -1q13 -1 19 -9q6 -6 10 -18q4 -11 4 -37v-287q0 -20 -3 -31l-6 -17q-1 -6 -8 -9l-12 -6q-9 -5 -16 -4q-5 1 -16 1h-18v-27h377l42 131h-15z" />
    <glyph glyph-name="roundedfacebook" unicode="roundedfacebook" 
d="M215 717h419q45 0 81 -16q39 -17 67 -45t45 -67q16 -36 16 -81v-418q0 -44 -16 -82q-17 -39 -45 -67q-25 -25 -67 -45q-36 -16 -81 -16h-419q-45 0 -81 16q-40 19 -66 45q-28 28 -45 67q-17 40 -17 82v418q0 42 17 81t45 67t66 45q36 16 81 16zM581 534h-88q-25 0 -48 -9
q-19 -8 -38 -23q-16 -15 -25 -34q-10 -19 -10 -38v-53h-78v-104h78v-210h105v210h78v104h-78v26q0 13 10 20q8 7 16 7h78v104z" />
    <glyph glyph-name="roundedfeedburner" unicode="roundedfeedburner" 
d="M215 717h419q45 0 81 -16q39 -17 67 -45t45 -67q16 -36 16 -81v-418q0 -44 -16 -82q-17 -39 -45 -67q-25 -25 -67 -45q-36 -16 -81 -16h-419q-45 0 -81 16q-40 19 -66 45q-28 28 -45 67q-17 40 -17 82v418q0 42 17 81t45 67t66 45q36 16 81 16zM383 555q-22 -15 -46 -47
q-25 -36 -41 -68q-19 -40 -29 -78q-11 -42 -11 -75q0 -50 13 -88q12 -39 33 -68q20 -27 50 -43q28 -16 63 -16q33 0 64 15q29 12 56 38q24 24 39 54t15 62q0 37 -9 62t-24 45q-14 20 -33 33q-26 18 -40 26q6 -30 1 -56q-5 -23 -20 -41q-14 -16 -35 -22q-22 -6 -45 1
q23 40 29 66t3 47q-5 21 -13 36q-12 22 -17 33q-9 19 -10 37q-3 20 7 47zM415 106q-32 -1 -62 16t-43 48q-15 32 -11 75q5 43 36 96q-7 -28 -2 -56q5 -27 16 -45q10 -18 27 -29t33 -11q38 -2 62 32q24 33 34 79q31 -24 40 -58q8 -36 -4 -67q-12 -34 -43 -56t-83 -24zM425 42
q45 0 91 8q40 7 75 22q30 13 51 32q18 20 18 40q0 18 -14 35t-39 30q-9 -28 -28 -53q-18 -23 -45 -44q-25 -19 -56 -30q-33 -11 -63 -11q-61 2 -104 37q-45 39 -64 103q-25 -13 -42 -31q-16 -16 -16 -36q0 -21 19 -40q18 -18 50 -32q35 -15 75 -22q46 -8 92 -8z" />
    <glyph glyph-name="roundedflickr" unicode="roundedflickr" 
d="M215 717h419q45 0 81 -16q39 -17 67 -45t45 -67q16 -36 16 -81v-418q0 -44 -16 -82q-17 -39 -45 -67q-25 -25 -67 -45q-36 -16 -81 -16h-419q-45 0 -81 16q-40 19 -66 45q-28 28 -45 67q-17 40 -17 82v418q0 42 17 81t45 67t66 45q36 16 81 16zM555 194q20 0 41 8
q19 7 33 23q14 14 23 33q8 21 8 41t-8 41q-9 19 -23 33q-15 15 -33 22q-21 8 -41 8q-19 0 -40 -8q-18 -7 -33 -22q-16 -14 -23 -33q-8 -21 -8 -41t8 -41q7 -19 23 -33q14 -16 33 -23q21 -8 40 -8zM294 194q20 0 41 8q19 7 33 23q15 15 22 33q8 21 8 41q0 44 -30 74t-74 30
q-20 0 -41 -8q-18 -7 -33 -22q-16 -14 -23 -33q-8 -21 -8 -41t8 -41q7 -19 23 -33q14 -16 33 -23q21 -8 41 -8z" />
    <glyph glyph-name="roundedfoodspotting" unicode="roundedfoodspotting" 
d="M215 717h419q45 0 81 -16q39 -17 67 -45t45 -67q16 -36 16 -81v-418q0 -44 -16 -82q-17 -39 -45 -67q-25 -25 -67 -45q-36 -16 -81 -16h-419q-45 0 -81 16q-40 19 -66 45q-28 28 -45 67q-17 40 -17 82v418q0 42 17 81t45 67t66 45q36 16 81 16zM660 299v157q0 20 -15 37
q-17 15 -37 15h-53l-26 52h-104l-27 -52h-52q-22 0 -37 -15q-15 -17 -15 -37v-157q0 -22 15 -37t37 -15h262q20 0 37 15q15 15 15 37zM242 508h-53v-261h53v261zM477 482q21 0 41 -9q18 -7 33 -22t22 -33q8 -21 8 -41q0 -44 -30 -74t-74 -30q-20 0 -41 8q-18 7 -33 22
q-16 14 -23 33q-8 21 -8 41t8 41q7 19 23 33q15 15 33 22q20 9 41 9zM477 325q22 0 37 15t15 37t-15 37q-15 16 -37 16t-37 -16q-15 -15 -15 -37t15 -37t37 -15zM622 194v-55q-12 15 -29 15q-19 0 -31 -15q-12 -13 -12 -43t13 -43q12 -16 29 -16q9 0 17 5q9 5 15 14v-16h25
v154h-27zM200 40h29v65h58v27h-58v36h67v26h-96v-154zM402 54q15 16 15 42t-15 42t-37 16q-17 0 -27 -7q-13 -7 -19 -21t-6 -29q0 -19 6 -32q6 -14 19 -21q15 -7 27 -7q22 0 37 17zM521 54q14 17 14 42t-14 42q-15 16 -38 16q-17 0 -27 -7q-12 -7 -18 -21q-7 -15 -7 -29
q0 -7 2 -17q1 -5 5 -15q6 -14 19 -21t26 -7q23 0 38 17zM600 132q10 0 16 -9t6 -28q0 -17 -6 -26q-8 -8 -16 -8q-12 0 -18 11q-5 12 -5 26q0 17 7 25q6 9 16 9zM365 130q9 0 17 -9q7 -7 7 -25q0 -19 -7 -26q-8 -9 -17 -9q-11 0 -18 9q-7 7 -7 26q0 18 7 25q7 9 18 9z
M483 130q11 0 18 -9q7 -7 7 -25q0 -19 -7 -26q-7 -9 -18 -9t-17 9q-7 7 -7 26q0 18 7 25q6 9 17 9z" />
    <glyph glyph-name="roundedforrst" unicode="roundedforrst" 
d="M215 717h419q45 0 81 -16q39 -17 67 -45t45 -67q16 -36 16 -81v-418q0 -44 -16 -82q-17 -39 -45 -67q-25 -25 -67 -45q-36 -16 -81 -16h-419q-45 0 -81 16q-40 19 -66 45q-28 28 -45 67q-17 40 -17 82v418q0 42 17 81t45 67t66 45q36 16 81 16zM209 63h194v107l-65 22v21
l65 -21v85h43v-42l43 21v-21l-43 -22v-43l86 43v-21l-86 -43v-86h194l-215 471z" />
    <glyph glyph-name="roundedfoursquare" unicode="roundedfoursquare" 
d="M215 717h419q45 0 81 -16q39 -17 67 -45t45 -67q16 -36 16 -81v-418q0 -44 -16 -82q-17 -39 -45 -67q-25 -25 -67 -45q-36 -16 -81 -16h-419q-45 0 -81 16q-40 19 -66 45q-28 28 -45 67q-17 40 -17 82v418q0 42 17 81t45 67t66 45q36 16 81 16zM490 331l-65 67l-27 -28
q-10 34 -39 55q-26 22 -62 22q-23 0 -43 -9q-19 -9 -34 -25q-15 -17 -22 -36q-9 -19 -9 -43t9 -43q7 -20 23 -36q13 -16 33 -25q19 -10 41 -10l130 -137l150 158l-15 16l100 80v177l-17 -19zM331 257l-8 -2q-13 -6 -26 -6q-34 0 -56 25q-23 26 -23 60t23 59q22 25 56 25
q17 0 30 -7q14 -6 25 -18q11 -11 17 -27q7 -14 7 -32q0 -16 -6 -31l-2 -6l55 -83l206 224v-89l-206 -189z" />
    <glyph glyph-name="roundedfriendsfeed" unicode="roundedfriendsfeed" 
d="M215 717h419q45 0 81 -16q39 -17 67 -45t45 -67q16 -36 16 -81v-418q0 -44 -16 -82q-17 -39 -45 -67q-25 -25 -67 -45q-36 -16 -81 -16h-419q-45 0 -81 16q-40 19 -66 45q-28 28 -45 67q-17 40 -17 82v418q0 42 17 81t45 67t66 45q36 16 81 16zM617 481h-69
q-26 0 -49 -15q-24 -16 -37 -38v53h-69q-21 0 -39 -9q-20 -9 -33 -25q-15 -19 -22 -36q-8 -22 -8 -45v-45h-76v-76h76v-183h76v183h79v-183h76v183h76v76h-76v45q0 18 9 28q7 10 17 10h69v77zM393 404h59q-6 -18 -6 -38v-45h-79v45q0 18 9 28q7 10 17 10z" />
    <glyph glyph-name="roundedfriendstar" unicode="roundedfriendstar" 
d="M215 717h419q45 0 81 -16q39 -17 67 -45t45 -67q16 -36 16 -81v-418q0 -44 -16 -82q-17 -39 -45 -67q-25 -25 -67 -45q-36 -16 -81 -16h-419q-45 0 -81 16q-40 19 -66 45q-28 28 -45 67q-17 40 -17 82v418q0 42 17 81t45 67t66 45q36 16 81 16zM484 364v-19q0 -3 1 -11
t2 -11q1 -9 5 -20q5 -10 9 -14q5 -5 10 -5h1q35 0 35 57q0 14 -4 25q-2 8 -8 22q-4 10 -12 16q-7 6 -14 6h-2q-20 -3 -23 -46zM396 352q-5 -17 -2 -34t11 -30q2 -3 8 -9q4 -4 13 -6h4q18 0 25 16q7 17 9 36q0 15 -6 29q-6 13 -14 21t-16 8t-16 -4q-9 -5 -16 -27zM657 278
q5 30 2 50q-3 21 -12 32q-7 9 -18 9h-3q-22 -1 -30 -18q-6 -14 -13 -49q-3 -13 -9 -37q-6 -23 -20 -43q-14 -22 -36 -35t-56 -12q-35 1 -55 13q-18 10 -27 26q-8 16 -11 32q-1 16 -8 32l-3 9q0 1 -1 4t-2 4q-4 11 -14 26q-9 13 -22 25q-16 14 -29 20q-18 8 -35 8h-66v-49h48
q10 0 27 -14q18 -16 22 -40q16 -76 58 -116q42 -39 105 -39h5q52 2 87 20q36 17 61 44q24 24 38 53t17 45z" />
    <glyph glyph-name="roundedgdgt" unicode="roundedgdgt" 
d="M215 717h419q45 0 81 -16q39 -17 67 -45t45 -67q16 -36 16 -81v-418q0 -44 -16 -82q-17 -39 -45 -67q-25 -25 -67 -45q-36 -16 -81 -16h-419q-45 0 -81 16q-40 19 -66 45q-28 28 -45 67q-17 40 -17 82v418q0 42 17 81t45 67t66 45q36 16 81 16zM555 508l-26 26h-287
l-27 -26v-261l27 -27h235v-78h-235v-52l26 -27h261l26 27v130l79 131v157l-79 -154v154zM477 299h-183v157h183v-157z" />
    <glyph glyph-name="roundedgithub" unicode="roundedgithub" 
d="M215 717h419q45 0 81 -16q39 -17 67 -45t45 -67q16 -36 16 -81v-418q0 -44 -16 -82q-17 -39 -45 -67q-25 -25 -67 -45q-36 -16 -81 -16h-419q-45 0 -81 16q-40 19 -66 45q-28 28 -45 67q-17 40 -17 82v418q0 42 17 81t45 67t66 45q36 16 81 16zM411 33q31 0 56 9
q27 10 46 24q18 14 31 35q11 20 11 43q0 22 -11 42q-10 19 -31 35q-19 15 -45 24t-56 9h-6q-2 -1 -6 -1q-2 5 -3 12q-1 4 -1 12q0 10 1 16q2 8 3 8h4q26 0 46 10q22 9 38 25t26 38q9 21 9 45q0 13 -4 25t-11 19l41 23v78l-86 -47q-13 10 -29 15q-17 5 -34 5q-25 0 -46 -9
q-22 -10 -38 -26t-25 -37q-9 -23 -9 -46q0 -29 13 -51q11 -22 32 -40q-12 -24 -12 -51q0 -9 2 -23q3 -10 8 -23q-25 -15 -42 -38q-15 -23 -15 -49q0 -23 11 -43q10 -19 31 -35q20 -15 45 -24t56 -9zM404 364q-23 0 -39 16q-17 17 -17 39t17 39q16 16 39 16t39 -16t16 -39
t-16 -39t-39 -16zM412 186q26 0 45 -12q18 -14 18 -30q0 -18 -18 -30q-19 -13 -45 -13q-28 0 -45 13q-19 12 -19 30q0 17 19 30q18 12 45 12z" />
    <glyph glyph-name="roundedgithubalt" unicode="roundedgithubalt" 
d="M215 723h419q45 0 81 -16q39 -17 67 -45t45 -67q16 -36 16 -81v-418q0 -44 -16 -82q-17 -39 -45 -67q-29 -29 -67 -44q-35 -17 -81 -17h-419q-46 0 -81 17q-37 15 -66 44q-28 28 -45 67q-17 40 -17 82v418q0 42 17 81t45 67t66 45q36 16 81 16zM694 170q21 44 21 115
q0 82 -47 138q9 29 9 58q0 40 -18 76q-39 0 -65 -13q-31 -14 -65 -42q-28 6 -47 8q-24 3 -50 3q-56 0 -107 -12q-37 29 -66 42q-28 14 -66 14q-18 -36 -18 -76q0 -11 2 -29q3 -12 8 -29q-47 -55 -47 -138q0 -71 21 -115q17 -35 50 -55q33 -21 69 -30q28 -8 53 -11l28 -3
q9 -1 24 -1q7 -1 23 -1h56q19 0 28 1l28 3q9 1 31 5q37 6 59 16q25 10 49 31t37 45zM524 327l24 1q42 0 65 -29q24 -29 24 -71q0 -28 -11 -52q-11 -23 -28 -37q-16 -12 -42 -20q-30 -9 -49 -10q-23 -3 -52 -3h-58q-29 0 -52 3q-18 1 -48 10q-26 8 -42 20q-16 13 -29 37
q-11 24 -11 52q0 42 24 71q23 29 65 29q14 0 25 -1q19 -2 43 -6q16 -2 25 -3t29 -1q19 0 28 1l27 3q24 4 43 6zM340 174q16 17 19 40q2 24 -4 43q-5 16 -14 26q-11 12 -26 12t-25 -12q-17 -18 -18 -40q-3 -22 3 -43q4 -12 16 -26q11 -12 24 -12q15 0 25 12zM562 174
q16 17 19 40q2 24 -4 43q-5 16 -14 26q-11 12 -26 12t-25 -12q-17 -18 -18 -40q-3 -22 3 -43q4 -12 16 -26q11 -12 24 -12q15 0 25 12z" />
    <glyph glyph-name="roundedgooglebuzz" unicode="roundedgooglebu&#x7a;&#x7a;" 
d="M215 717h419q45 0 81 -16q39 -17 67 -45t45 -67q16 -36 16 -81v-418q0 -44 -16 -82q-17 -39 -45 -67q-25 -25 -67 -45q-36 -16 -81 -16h-419q-45 0 -81 16q-40 19 -66 45q-28 28 -45 67q-17 40 -17 82v418q0 42 17 81t45 67t66 45q36 16 81 16zM425 508q-63 0 -116 -24
q-55 -24 -86 -66l134 -128l201 185q-27 16 -63 25q-37 8 -70 8zM455 342l148 -141q57 53 57 121q0 39 -20 76q-19 36 -58 62zM189 322q0 -74 65 -127l83 77l-129 122q-19 -34 -19 -72zM425 136q89 0 157 48l-148 140l-164 -152l-1 -2q-12 -22 -17 -28q-10 -15 -22 -23l14 -2
q5 -1 19 -1q48 0 86 26l6 3l5 -1q37 -8 65 -8z" />
    <glyph glyph-name="roundedgoogleplus" unicode="roundedgoogleplus" 
d="M215 708h419q45 0 81 -16q39 -17 67 -45t45 -67q16 -36 16 -81v-418q0 -44 -16 -82q-17 -39 -45 -67t-67 -45q-36 -16 -81 -16h-419q-45 0 -81 16q-38 17 -66 45t-45 67q-17 40 -17 82v418q0 42 17 81t45 67q28 29 66 45q36 16 81 16zM448 73q45 39 45 90q0 33 -15 54
q-12 17 -32 37l-33 28q-15 12 -15 27q0 17 15 31q10 9 31 30q10 10 18 29q7 17 7 42q0 13 -3 27q-6 18 -10 27q-12 25 -35 39h43l43 26h-139q-9 0 -29 -2q-10 -1 -30 -5q-44 -9 -74 -45q-30 -34 -30 -79q0 -48 33 -78q34 -31 81 -31h11l12 1l-2 -6l-3 -7q-2 -10 -2 -14
q0 -22 20 -47q-48 -2 -97 -16q-26 -8 -46 -23q-19 -15 -30 -35q-12 -23 -12 -42q0 -27 14 -47q13 -19 36 -31q27 -12 47 -16q28 -5 48 -5q83 0 133 41zM617 560h-41v-82h-81v-40h81v-81h41v81h81v40h-81v82zM407 409q0 -32 -13 -51t-45 -19q-21 0 -37 13q-19 14 -28 31
q-12 22 -17 41q-6 21 -6 39q0 33 16 52q16 22 46 22q22 0 38 -13q15 -12 26 -33q20 -43 20 -82zM429 181l6 -10q4 -6 6 -11l4 -11q1 -4 1 -13q0 -22 -9 -35q-9 -15 -23 -23q-13 -8 -32 -13q-16 -4 -36 -4q-18 0 -40 5q-24 5 -39 14q-19 11 -29 27q-12 17 -12 39q0 29 18 47
q19 18 44 25q33 10 68 10q13 0 16 -1l9 -6l11 -8l9 -7l11 -8l8 -8q6 -4 9 -9z" />
    <glyph glyph-name="roundedgoogle" unicode="roundedgoogle" 
d="M215 708h419q45 0 81 -16q39 -17 67 -45t45 -67q16 -36 16 -81v-418q0 -44 -16 -82q-17 -39 -45 -67t-67 -45q-36 -16 -81 -16h-419q-45 0 -81 16q-38 17 -66 45t-45 67q-17 40 -17 82v418q0 42 17 81t45 67q28 29 66 45q36 16 81 16zM528 73q45 39 45 90q0 33 -15 54
q-12 17 -32 37q-26 21 -33 28q-15 12 -15 27q0 17 15 31q10 9 31 30q10 10 18 29q7 17 7 42q0 13 -3 27q-6 18 -10 27q-12 25 -35 39h43l43 26h-139q-9 0 -29 -2q-10 -1 -30 -5q-44 -9 -74 -45q-30 -34 -30 -79q0 -48 33 -78q34 -31 81 -31h11q7 0 12 1l-2 -6q-2 -6 -3 -7
q-2 -10 -2 -14q0 -22 20 -47q-48 -2 -97 -16q-26 -8 -46 -23q-19 -15 -30 -35q-12 -23 -12 -42q0 -27 14 -47t36 -30q24 -13 47 -17q28 -5 48 -5q83 0 133 41zM487 409q0 -32 -13 -51t-45 -19q-21 0 -37 13q-19 14 -28 31q-12 22 -17 41q-6 21 -6 39q0 33 16 52q16 22 46 22
q22 0 38 -13q15 -12 26 -33q20 -43 20 -82zM515 171q4 -6 6 -11q0 -1 1.5 -5t2.5 -6q1 -4 1 -13q0 -22 -9 -35q-9 -15 -23 -23q-13 -8 -32 -13q-16 -4 -36 -4q-18 0 -40 5q-24 5 -39 14q-19 11 -29 27q-12 17 -12 39q0 29 18 47q19 18 44 25q33 10 68 10q13 0 16 -1l9 -6
l11 -8l9 -7q3 -2 6.5 -4.5t4.5 -3.5l8 -8q6 -4 9 -9q1 -4 6 -10z" />
    <glyph glyph-name="roundedresearchgate" unicode="roundedresearchgate" 
d="M215 717h419q45 0 81 -16q39 -17 67 -45t45 -67q16 -36 16 -81v-418q0 -45 -16 -81q-17 -40 -45 -68q-25 -25 -67 -45q-36 -16 -81 -16h-419q-45 0 -81 16q-40 19 -66 45q-28 28 -45 68q-17 39 -17 81v418q0 42 17 81t45 67t66 45q36 16 81 16zM577 377q4 -6 4 -16h57
q0 49 -22 71q-18 26 -72 26q-32 0 -51 -10q-16 -7 -33 -29q-10 -20 -16 -48q-3 -20 -3 -69q0 -51 3 -71q0 -23 13 -51q11 -25 30 -33q15 -10 45 -10q16 0 39 10q11 3 26 23v-26h44v165h-100v-45h43v-33q0 -16 -3 -22q-2 -2 -5.5 -7t-4.5 -6q-2 -3 -7.5 -5.5t-6.5 -4.5
q-3 -3 -13 -3q-13 0 -22 10q-8 9 -13 22q-2 6 -3.5 19t-2.5 20v48q0 61 9 85q11 26 32 26q10 0 16 -6l11 -11q6 -12 6 -19zM202 451v-307h61v130h36q14 0 26 -10q10 -10 10 -30l3 -57v-20q0 -7 6 -13h68q-9 4 -13 20v38q-4 7 -4 23v17q-5 31 -12 38q-11 11 -36 16
q28 4 39 27q13 17 13 51q0 39 -23 58q-19 19 -58 19h-116zM263 315v92h29q46 0 46 -43q0 -27 -13 -35q-16 -14 -36 -14h-26z" />
    <glyph glyph-name="roundedgoogletalk" unicode="roundedgoogletalk" 
d="M215 717h419q45 0 81 -16q39 -17 67 -45t45 -67q16 -36 16 -81v-418q0 -44 -16 -82q-17 -39 -45 -67q-25 -25 -67 -45q-36 -16 -81 -16h-419q-45 0 -81 16q-40 19 -66 45q-28 28 -45 67q-17 40 -17 82v418q0 42 17 81t45 67t66 45q36 16 81 16zM544 179q61 22 103 67
q39 45 39 100q0 38 -21 73q-18 32 -56 59q-35 26 -83 41q-46 15 -101 15t-102 -16q-48 -16 -84 -42q-35 -27 -56 -62q-20 -37 -20 -75q0 -35 16 -64q18 -32 41 -54q25 -24 58 -41q32 -16 63 -24q-8 -22 -24 -47q-18 -27 -44 -44q48 -5 87 4q34 7 72 30q39 23 61 69
q-13 -17 -36 -34q-21 -15 -48 -26t-70 -16q14 19 21 31l15 26q5 9 13 25q-59 13 -109 45q-49 30 -69 74q-4 15 -5 20q-2 14 -2 21q0 37 17 69q17 33 45 55q27 23 70 37q39 13 89 13t90 -12q44 -15 71 -35q30 -24 46 -54q16 -31 16 -69q0 -52 -25 -93q-26 -42 -78 -66z
M403 486h-7q35 -4 71 -19q33 -13 57 -36q25 -22 38 -49q13 -26 13 -57q0 -38 -20 -70q-22 -33 -56 -55q50 19 82 54q31 35 31 80q0 31 -16 59q-16 29 -45 48q-28 20 -67 33q-38 12 -81 12z" />
    <glyph glyph-name="roundedgowallapin" unicode="roundedgowallapin" 
d="M215 717h419q45 0 81 -16q39 -17 67 -45t45 -67q16 -36 16 -81v-418q0 -44 -16 -82q-17 -39 -45 -67q-25 -25 -67 -45q-36 -16 -81 -16h-419q-45 0 -81 16q-40 19 -66 45q-28 28 -45 67q-17 40 -17 82v418q0 42 17 81t45 67t66 45q36 16 81 16zM425 60l36 144q28 6 53 22
t42 37q17 23 27 49t10 57q0 36 -13 66q-14 31 -36 53q-24 24 -53 37q-30 13 -66 13t-66 -13t-54 -37q-22 -22 -36 -53q-13 -30 -13 -66q0 -31 10 -57q11 -27 28 -49q15 -21 41 -37q23 -16 53 -22zM425 495q28 0 49 -10q24 -11 40 -27t27 -40q10 -21 10 -49t-10 -49
q-11 -24 -27 -40t-40 -27q-21 -10 -49 -10t-49 10q-25 11 -41 27t-27 40q-10 21 -10 49t10 49q11 24 27 40t41 27q21 10 49 10zM425 299q29 0 49 21q20 20 20 49q0 28 -20 50q-20 20 -49 20t-49 -20q-21 -21 -21 -50t21 -49q20 -21 49 -21z" />
    <glyph glyph-name="roundedgowalla" unicode="roundedgowalla" 
d="M215 717h419q45 0 81 -16q39 -17 67 -45t45 -67q16 -36 16 -81v-418q0 -44 -16 -82q-17 -39 -45 -67q-25 -25 -67 -45q-36 -16 -81 -16h-419q-45 0 -81 16q-40 19 -66 45q-28 28 -45 67q-17 40 -17 82v418q0 42 17 81t45 67t66 45q36 16 81 16zM679 79q6 13 7 26l-9 8
q-1 1 -5 4t-5 5l-8 7q-3 2 -8 7q0 8 -1 12l-2 12q-19 97 -84 151q-67 55 -186 74v5l7 48q2 16 4 50q0 24 -3 45q-5 22 -14 34q-11 15 -31 17h-4q-18 0 -34 -13q-18 -15 -28 -55q-14 10 -22 14q-12 6 -26 6q-19 0 -38 -12q-19 -11 -20 -33q0 -17 10 -34q9 -18 24 -36
q12 -15 32 -33q12 -12 32 -28q-5 -3 -28 -22q-17 -14 -32 -29q-15 -14 -28 -33q-12 -16 -15 -34q-5 -26 10 -45q15 -17 39 -17q8 0 20 3q11 3 28 12q17 12 33 28q18 19 38 47q4 -11 2 -30q-1 -15 -19 -29l-11 -7q-35 -26 -56 -45q-23 -20 -23 -49q0 -17 11 -28
q10 -10 29 -10q13 0 22 4q10 4 13 15q5 17 5 32q10 -2 16 -3q5 -1 17 -3q-4 -20 -4 -50q0 -29 7 -53h25q-8 24 -8 51q0 31 4 51q5 -1 18 1q27 5 39 24q7 13 3 30q-5 17 -25 17q-12 0 -26 -8q-15 -9 -23 -26l-3 -5q-2 -4 -3 -7l-17 3q-6 1 -16 3l-15 3l-15 3q4 4 18 14l21 15
l11 8q15 11 23 28q7 14 7 31t-4 30q-5 15 -9 23l-9 19l-12 -18q-21 -34 -39 -54q-20 -20 -33 -30q-15 -11 -25 -12q-10 -3 -15 -3q-13 0 -20 9q-7 6 -5 23q3 16 16 32q9 11 30 32q12 12 34 28l27 20l16 11l-16 10q-22 16 -35 28q-20 18 -32 33q-14 16 -24 32t-10 27
q0 9 7 13q19 12 36 6q13 -4 33 -22q-2 -20 -2 -26l-1 -15q0 -20 10 -36q11 -17 30 -17q7 0 14 3q10 4 15 11q1 2 4 11q6 27 -33 66l-11 11l5 21q3 11 9 22q4 10 12 16t17 5t14 -8q8 -11 9 -29q3 -20 2 -41q-2 -30 -4 -46l-6 -41l-4 -30l12 -2q118 -16 181 -67
q63 -50 81 -140l-7 3l-6 2q-21 6 -36 8q-17 4 -39 4q-66 0 -89 -47q-12 -23 -17 -56q-3 -31 4 -55h25q-7 19 -5 48q3 28 15 52q15 33 67 33q20 0 36 -4q22 -3 33 -7q11 -3 22 -13q-2 -30 -14 -47q-11 -17 -27 -28q-13 -9 -28 -14l-13 -3l-26 -5l14 -12h41q24 10 46 30
q23 23 29 60l1 -1h1l13 -13q10 -8 15 -11zM292 446v17q16 -17 21 -27q4 -10 3 -13q0 -3 -4 -4h-3q-1 -1 -2 -1q-7 0 -11 9q-4 8 -4 19zM398 154q-7 -10 -22 -13h-7l1 2q5 11 14 16q7 4 13 4h2q2 -5 -1 -9zM277 152v-31q0 -11 -2 -21l-3 -2q-1 -1 -7 -1q-16 0 -16 13
q0 10 8 21q9 12 20 21z" />
    <glyph glyph-name="roundedgrooveshark" unicode="roundedgrooveshark" 
d="M215 717h419q45 0 81 -16q39 -17 67 -45t45 -67q16 -36 16 -81v-418q0 -44 -16 -82q-17 -39 -45 -67q-25 -25 -67 -45q-36 -16 -81 -16h-419q-45 0 -81 16q-40 19 -66 45q-28 28 -45 67q-17 40 -17 82v418q0 42 17 81t45 67t66 45q36 16 81 16zM425 37q55 0 101 21
q48 20 83 56q36 34 57 83q20 49 20 102t-20 102q-21 46 -56 83q-37 35 -83 56q-49 20 -102 20t-102 -20q-48 -21 -83 -56q-36 -36 -56 -83q-21 -48 -21 -102t21 -102q20 -48 56 -83q35 -36 83 -56q48 -21 102 -21zM425 534q49 0 91 -19q43 -18 75 -50t50 -75q19 -41 19 -91
q0 -30 -7 -57q-8 -31 -20 -51q-18 12 -36 33q-5 8 -16 22t-17 22q-10 15 -28 41q-14 23 -19 28q-34 38 -76 70q-36 27 -92 44q-1 -29 0 -57q1 -26 -2 -55q-1 -26 -11 -50q-9 -23 -29 -42q-11 -9 -22 -14q-9 -4 -27 -10q-8 -3 -28 -5q-18 -2 -26 -1q-4 11 -11 40q-4 17 -4 42
q0 49 18 92q20 43 51 74q32 31 75 51q43 18 92 18z" />
    <glyph glyph-name="roundedheart" unicode="roundedheart" 
d="M215 717h419q45 0 81 -16q39 -17 67 -45t45 -67q16 -36 16 -81v-418q0 -44 -16 -82q-17 -39 -45 -67q-25 -25 -67 -45q-36 -16 -81 -16h-419q-45 0 -81 16q-40 19 -66 45q-28 28 -45 67q-17 40 -17 82v418q0 42 17 81t45 67t66 45q36 16 81 16zM431 90q15 0 41 15
q21 12 53 41t56 58q26 31 46 69q21 37 28 71q9 36 0 68q-15 51 -49 73q-33 21 -70 23q-30 0 -51 -12q-21 -14 -33 -28q-10 -11 -20 -27q-6 -13 -8 -13t-8 13q-6 12 -18 27q-11 14 -33 28q-19 12 -50 12q-38 0 -72 -22t-49 -74q-11 -32 0 -68q10 -38 31 -71q20 -34 50 -69
q25 -30 59 -58q28 -25 55 -41q25 -15 42 -15z" />
    <glyph glyph-name="roundedhyves" unicode="roundedhyves" 
d="M215 717h419q45 0 81 -16q39 -17 67 -45t45 -67q16 -36 16 -81v-418q0 -44 -16 -82q-17 -39 -45 -67q-25 -25 -67 -45q-36 -16 -81 -16h-419q-45 0 -81 16q-40 19 -66 45q-28 28 -45 67q-17 40 -17 82v418q0 42 17 81t45 67t66 45q36 16 81 16zM618 122q8 10 0 24t-17 17
q-4 1 -11 0q-8 0 -11 3q-2 2 -1 15v21v194q0 26 -1 41q-2 23 6 32q3 3 8 4l11 4q5 3 10 5q3 2 5 6q1 3 -1 13q-1 5 -5 15q-6 10 -9 13q-7 5 -10 5h-33l-39 -7q-17 -3 -35 -11q-6 -2 -10 -6q-6 -4 -7 -7q-5 -17 5 -27q11 -10 21 -15q6 -2 11 -3q8 0 11 -3q4 -4 3 -16l-2 -20
q-2 -26 -2 -37q0 -9 2 -39l2 -19q2 -12 -4 -16q-1 -1 -8 -3l-12 -1l-13 -1l-10 -1q-6 -1 -15.5 -2.5t-13.5 -1.5q-16 -2 -24 -4l-24 -5l-27 -5l-10 -3q-5 -1 -11 1q-4 2 -5 10l-1 14q-1 28 0 51q2 30 2 50v18q0 8 2 12q2 3 7 5l12 3l12 4q6 1 9 6t2 12q0 6 -2 12
q-5 12 -14 17q-8 5 -21 7q-8 1 -27 -1q-9 -1 -29 -5q-25 -5 -40 -10q-18 -4 -26 -19v-9q4 -9 10 -17q7 -7 15 -11q5 -1 12 -3q9 0 10 -3q3 -3 2 -16v-21q0 -42 1 -59q2 -34 2 -58l2 -57q2 -38 4 -56q2 -12 2 -21q1 -10 -2 -15q-2 -2 -6 -3l-5 -1q-5 -1 -17 -7q-8 -4 -10 -13
q-2 -10 9 -21q9 -11 19 -12q8 -2 11 -2l13 1q10 2 27 3q15 1 30 6q18 6 25 10q9 7 11 16q2 11 -6 20q-7 8 -16 12q-3 1 -12 0q-8 -1 -12 4q-2 6 -1 11v13q0 8 -1 13l-1 16q-1 9 0 16q0 6 2 10q4 7 17 10l19 5q26 9 41 10l45 7q6 0 11 1l15 1q7 1 14 0q6 0 8 -2t2 -10l-1 -12
v-25q0 -6 2 -26q2 -14 -3 -19q-4 -3 -11 -3q-6 0 -12 -2q-14 -7 -16 -15q-1 -12 12 -25q12 -12 26 -14q22 -2 43 4q26 7 37 13l14 5q7 1 9 5z" />
    </font>
</defs>
</svg>
