<?xml version="1.0" encoding="UTF-8" standalone="no"?><svg xmlns="http://www.w3.org/2000/svg" xmlns:xlink="http://www.w3.org/1999/xlink" clip-rule="evenodd" stroke-miterlimit="10" viewBox="0 0 192 169"><desc>SVG generated by Keynote</desc><defs></defs><g transform="matrix(1.00, 0.00, -0.00, -1.00, 0.0, 169.0)"><image xlink:href="ED1F9819422A4DB1D0F1F81DE54E60D5.png" width="186.00" height="163.00" transform="matrix(1.00, 0.00, -0.00, -1.00, 4.4, 164.6)" opacity="0.90"></image><path d="M 22.1 139.1 L 23.2 134.8 C 25.3 124.0 26.5 109.4 21.6 98.1 C 11.8 75.9 -14.8 32.9 10.9 8.8 C 32.0 -11.0 52.8 5.9 69.1 27.3 C 86.4 50.0 105.5 47.7 116.3 48.0 C 126.6 48.3 136.2 46.3 144.6 43.4 L 148.5 41.2 " fill="none" stroke="#95D25F" stroke-width="9.00" transform="matrix(1.00, 0.00, 0.00, -1.00, 9.3, 159.3)"></path><path d="M 162.4 100.7 L 184.1 133.0 L 145.3 131.0 Z M 162.4 100.7 " fill="#95D25F"></path><path d="M 11.8 14.0 L 33.0 26.4 L 45.5 5.1 Z M 11.8 14.0 " fill="#95D25F"></path></g></svg>