<?xml version="1.0" encoding="UTF-8" standalone="no"?><svg xmlns="http://www.w3.org/2000/svg" xmlns:xlink="http://www.w3.org/1999/xlink" clip-rule="evenodd" stroke-miterlimit="10" viewBox="0 0 1280 720"><desc>SVG generated by Keynote</desc><defs></defs><g transform="matrix(1.00, 0.00, -0.00, -1.00, 0.0, 720.0)"><g><clipPath id="clip0x7fe008426c00"><path d="M 0.0 720.0 L 1280.0 720.0 L 1280.0 0.0 L 0.0 0.0 Z M 0.0 720.0 "></path></clipPath><g clip-path="url(#clip0x7fe008426c00)"><image xlink:href="../../F70249D0-1089-46AB-B2F4-0AC6C6ADA60D/assets/47297D0B68A5EDE64084E8699645709A.jpeg" width="1024.00" height="768.00" transform="matrix(1.25, 0.00, -0.00, -1.25, 0.0, 840.0)"></image></g></g><image xlink:href="../../F70249D0-1089-46AB-B2F4-0AC6C6ADA60D/assets/E1481400D83B5463371A2DC766F68B6B.png" width="1460.00" height="301.00" transform="matrix(1.00, 0.00, -0.00, -1.00, -90.0, 811.0)" opacity="0.90"></image><g><clipPath id="clip0x7fe00663f140"><path d="M 0.0 721.0 L 1280.0 721.0 L 1280.0 600.0 L 0.0 600.0 Z M 0.0 721.0 "></path></clipPath><g clip-path="url(#clip0x7fe00663f140)"><image xlink:href="../../F70249D0-1089-46AB-B2F4-0AC6C6ADA60D/assets/07DF2D3527432983BA0804A4D6BE2172.png" width="1280.00" height="117.00" transform="matrix(1.16, 0.00, -0.00, -1.00, -100.0, 720.0)"></image></g></g><g><clipPath id="clip0x7fe00874ae50"><path d="M 1199.0 704.0 L 1264.0 704.0 L 1264.0 640.0 L 1199.0 640.0 Z M 1199.0 704.0 "></path></clipPath><g clip-path="url(#clip0x7fe00874ae50)"><image xlink:href="../../F70249D0-1089-46AB-B2F4-0AC6C6ADA60D/assets/6C8289717C816EE4C01D217FAD1E53AE.png" width="340.00" height="172.00" transform="matrix(0.32, 0.00, -0.00, -0.32, 1204.0, 701.0)"></image></g></g><text xml:space="preserve" font-family="HelveticaNeue-UltraLight,Helvetica Neue" font-size="20.0" fill="#1A1A1A" transform="matrix(1.00, 0.00, -0.00, -1.00, 391.6, 9.8)">T</text><text xml:space="preserve" font-family="HelveticaNeue-UltraLight,Helvetica Neue" font-size="20.0" fill="#1A1A1A" transform="matrix(1.00, 0.00, -0.00, -1.00, 401.6, 9.8)">h</text><text xml:space="preserve" font-family="HelveticaNeue-UltraLight,Helvetica Neue" font-size="20.0" fill="#1A1A1A" transform="matrix(1.00, 0.00, -0.00, -1.00, 411.6, 9.8)">o</text><text xml:space="preserve" font-family="HelveticaNeue-UltraLight,Helvetica Neue" font-size="20.0" fill="#1A1A1A" transform="matrix(1.00, 0.00, -0.00, -1.00, 422.0, 9.8)">m</text><text xml:space="preserve" font-family="HelveticaNeue-UltraLight,Helvetica Neue" font-size="20.0" fill="#1A1A1A" transform="matrix(1.00, 0.00, -0.00, -1.00, 437.6, 9.8)">a</text><text xml:space="preserve" font-family="HelveticaNeue-UltraLight,Helvetica Neue" font-size="20.0" fill="#1A1A1A" transform="matrix(1.00, 0.00, -0.00, -1.00, 447.2, 9.8)">s</text><text xml:space="preserve" font-family="HelveticaNeue-UltraLight,Helvetica Neue" font-size="20.0" fill="#1A1A1A" transform="matrix(1.00, 0.00, -0.00, -1.00, 456.5, 9.8)"> </text><text xml:space="preserve" font-family="HelveticaNeue-UltraLight,Helvetica Neue" font-size="20.0" fill="#1A1A1A" transform="matrix(1.00, 0.00, -0.00, -1.00, 462.0, 9.8)">H</text><text xml:space="preserve" font-family="HelveticaNeue-UltraLight,Helvetica Neue" font-size="20.0" fill="#1A1A1A" transform="matrix(1.00, 0.00, -0.00, -1.00, 475.0, 9.8)">ö</text><text xml:space="preserve" font-family="HelveticaNeue-UltraLight,Helvetica Neue" font-size="20.0" fill="#1A1A1A" transform="matrix(1.00, 0.00, -0.00, -1.00, 485.4, 9.8)">l</text><text xml:space="preserve" font-family="HelveticaNeue-UltraLight,Helvetica Neue" font-size="20.0" fill="#1A1A1A" transform="matrix(1.00, 0.00, -0.00, -1.00, 488.0, 9.8)">l</text><text xml:space="preserve" font-family="HelveticaNeue-UltraLight,Helvetica Neue" font-size="20.0" fill="#1A1A1A" transform="matrix(1.00, 0.00, -0.00, -1.00, 490.6, 9.8)">t</text><text xml:space="preserve" font-family="HelveticaNeue-UltraLight,Helvetica Neue" font-size="20.0" fill="#1A1A1A" transform="matrix(1.00, 0.00, -0.00, -1.00, 495.4, 9.8)"> </text><text xml:space="preserve" font-family="HelveticaNeue-UltraLight,Helvetica Neue" font-size="20.0" fill="#1A1A1A" transform="matrix(1.00, 0.00, -0.00, -1.00, 500.9, 9.8)"> </text><text xml:space="preserve" font-family="HelveticaNeue-UltraLight,Helvetica Neue" font-size="20.0" fill="#1A1A1A" transform="matrix(1.00, 0.00, -0.00, -1.00, 506.5, 9.8)">/</text><text xml:space="preserve" font-family="HelveticaNeue-UltraLight,Helvetica Neue" font-size="20.0" fill="#1A1A1A" transform="matrix(1.00, 0.00, -0.00, -1.00, 513.2, 9.8)">/</text><text xml:space="preserve" font-family="HelveticaNeue-UltraLight,Helvetica Neue" font-size="20.0" fill="#1A1A1A" transform="matrix(1.00, 0.00, -0.00, -1.00, 519.8, 9.8)"> </text><text xml:space="preserve" font-family="HelveticaNeue-UltraLight,Helvetica Neue" font-size="20.0" fill="#1A1A1A" transform="matrix(1.00, 0.00, -0.00, -1.00, 525.4, 9.8)"> </text><text xml:space="preserve" font-family="HelveticaNeue-UltraLight,Helvetica Neue" font-size="20.0" fill="#1A1A1A" transform="matrix(1.00, 0.00, -0.00, -1.00, 530.9, 9.8)">O</text><text xml:space="preserve" font-family="HelveticaNeue-UltraLight,Helvetica Neue" font-size="20.0" fill="#1A1A1A" transform="matrix(1.00, 0.00, -0.00, -1.00, 545.4, 9.8)">v</text><text xml:space="preserve" font-family="HelveticaNeue-UltraLight,Helvetica Neue" font-size="20.0" fill="#1A1A1A" transform="matrix(1.00, 0.00, -0.00, -1.00, 553.5, 9.8)">i</text><text xml:space="preserve" font-family="HelveticaNeue-UltraLight,Helvetica Neue" font-size="20.0" fill="#1A1A1A" transform="matrix(1.00, 0.00, -0.00, -1.00, 556.1, 9.8)">s</text><text xml:space="preserve" font-family="HelveticaNeue-UltraLight,Helvetica Neue" font-size="20.0" fill="#1A1A1A" transform="matrix(1.00, 0.00, -0.00, -1.00, 565.4, 9.8)">:</text><text xml:space="preserve" font-family="HelveticaNeue-UltraLight,Helvetica Neue" font-size="20.0" fill="#1A1A1A" transform="matrix(1.00, 0.00, -0.00, -1.00, 570.9, 9.8)"> </text><text xml:space="preserve" font-family="HelveticaNeue-UltraLight,Helvetica Neue" font-size="20.0" fill="#1A1A1A" transform="matrix(1.00, 0.00, -0.00, -1.00, 576.5, 9.8)">A</text><text xml:space="preserve" font-family="HelveticaNeue-UltraLight,Helvetica Neue" font-size="20.0" fill="#1A1A1A" transform="matrix(1.00, 0.00, -0.00, -1.00, 588.0, 9.8)"> </text><text xml:space="preserve" font-family="HelveticaNeue-UltraLight,Helvetica Neue" font-size="20.0" fill="#1A1A1A" transform="matrix(1.00, 0.00, -0.00, -1.00, 593.5, 9.8)">F</text><text xml:space="preserve" font-family="HelveticaNeue-UltraLight,Helvetica Neue" font-size="20.0" fill="#1A1A1A" transform="matrix(1.00, 0.00, -0.00, -1.00, 603.2, 9.8)">r</text><text xml:space="preserve" font-family="HelveticaNeue-UltraLight,Helvetica Neue" font-size="20.0" fill="#1A1A1A" transform="matrix(1.00, 0.00, -0.00, -1.00, 608.3, 9.8)">a</text><text xml:space="preserve" font-family="HelveticaNeue-UltraLight,Helvetica Neue" font-size="20.0" fill="#1A1A1A" transform="matrix(1.00, 0.00, -0.00, -1.00, 618.0, 9.8)">m</text><text xml:space="preserve" font-family="HelveticaNeue-UltraLight,Helvetica Neue" font-size="20.0" fill="#1A1A1A" transform="matrix(1.00, 0.00, -0.00, -1.00, 633.5, 9.8)">e</text><text xml:space="preserve" font-family="HelveticaNeue-UltraLight,Helvetica Neue" font-size="20.0" fill="#1A1A1A" transform="matrix(1.00, 0.00, -0.00, -1.00, 643.5, 9.8)">w</text><text xml:space="preserve" font-family="HelveticaNeue-UltraLight,Helvetica Neue" font-size="20.0" fill="#1A1A1A" transform="matrix(1.00, 0.00, -0.00, -1.00, 657.2, 9.8)">o</text><text xml:space="preserve" font-family="HelveticaNeue-UltraLight,Helvetica Neue" font-size="20.0" fill="#1A1A1A" transform="matrix(1.00, 0.00, -0.00, -1.00, 667.6, 9.8)">r</text><text xml:space="preserve" font-family="HelveticaNeue-UltraLight,Helvetica Neue" font-size="20.0" fill="#1A1A1A" transform="matrix(1.00, 0.00, -0.00, -1.00, 672.8, 9.8)">k</text><text xml:space="preserve" font-family="HelveticaNeue-UltraLight,Helvetica Neue" font-size="20.0" fill="#1A1A1A" transform="matrix(1.00, 0.00, -0.00, -1.00, 681.7, 9.8)"> </text><text xml:space="preserve" font-family="HelveticaNeue-UltraLight,Helvetica Neue" font-size="20.0" fill="#1A1A1A" transform="matrix(1.00, 0.00, -0.00, -1.00, 687.2, 9.8)">f</text><text xml:space="preserve" font-family="HelveticaNeue-UltraLight,Helvetica Neue" font-size="20.0" fill="#1A1A1A" transform="matrix(1.00, 0.00, -0.00, -1.00, 691.3, 9.8)">o</text><text xml:space="preserve" font-family="HelveticaNeue-UltraLight,Helvetica Neue" font-size="20.0" fill="#1A1A1A" transform="matrix(1.00, 0.00, -0.00, -1.00, 701.7, 9.8)">r</text><text xml:space="preserve" font-family="HelveticaNeue-UltraLight,Helvetica Neue" font-size="20.0" fill="#1A1A1A" transform="matrix(1.00, 0.00, -0.00, -1.00, 706.9, 9.8)"> </text><text xml:space="preserve" font-family="HelveticaNeue-UltraLight,Helvetica Neue" font-size="20.0" fill="#1A1A1A" transform="matrix(1.00, 0.00, -0.00, -1.00, 712.4, 9.8)">V</text><text xml:space="preserve" font-family="HelveticaNeue-UltraLight,Helvetica Neue" font-size="20.0" fill="#1A1A1A" transform="matrix(1.00, 0.00, -0.00, -1.00, 723.2, 9.8)">i</text><text xml:space="preserve" font-family="HelveticaNeue-UltraLight,Helvetica Neue" font-size="20.0" fill="#1A1A1A" transform="matrix(1.00, 0.00, -0.00, -1.00, 725.8, 9.8)">s</text><text xml:space="preserve" font-family="HelveticaNeue-UltraLight,Helvetica Neue" font-size="20.0" fill="#1A1A1A" transform="matrix(1.00, 0.00, -0.00, -1.00, 735.0, 9.8)">u</text><text xml:space="preserve" font-family="HelveticaNeue-UltraLight,Helvetica Neue" font-size="20.0" fill="#1A1A1A" transform="matrix(1.00, 0.00, -0.00, -1.00, 745.0, 9.8)">a</text><text xml:space="preserve" font-family="HelveticaNeue-UltraLight,Helvetica Neue" font-size="20.0" fill="#1A1A1A" transform="matrix(1.00, 0.00, -0.00, -1.00, 754.7, 9.8)">l</text><text xml:space="preserve" font-family="HelveticaNeue-UltraLight,Helvetica Neue" font-size="20.0" fill="#1A1A1A" transform="matrix(1.00, 0.00, -0.00, -1.00, 757.3, 9.8)"> </text><text xml:space="preserve" font-family="HelveticaNeue-UltraLight,Helvetica Neue" font-size="20.0" fill="#1A1A1A" transform="matrix(1.00, 0.00, -0.00, -1.00, 762.8, 9.8)">A</text><text xml:space="preserve" font-family="HelveticaNeue-UltraLight,Helvetica Neue" font-size="20.0" fill="#1A1A1A" transform="matrix(1.00, 0.00, -0.00, -1.00, 774.3, 9.8)">n</text><text xml:space="preserve" font-family="HelveticaNeue-UltraLight,Helvetica Neue" font-size="20.0" fill="#1A1A1A" transform="matrix(1.00, 0.00, -0.00, -1.00, 784.3, 9.8)">a</text><text xml:space="preserve" font-family="HelveticaNeue-UltraLight,Helvetica Neue" font-size="20.0" fill="#1A1A1A" transform="matrix(1.00, 0.00, -0.00, -1.00, 793.9, 9.8)">l</text><text xml:space="preserve" font-family="HelveticaNeue-UltraLight,Helvetica Neue" font-size="20.0" fill="#1A1A1A" transform="matrix(1.00, 0.00, -0.00, -1.00, 796.5, 9.8)">y</text><text xml:space="preserve" font-family="HelveticaNeue-UltraLight,Helvetica Neue" font-size="20.0" fill="#1A1A1A" transform="matrix(1.00, 0.00, -0.00, -1.00, 804.7, 9.8)">s</text><text xml:space="preserve" font-family="HelveticaNeue-UltraLight,Helvetica Neue" font-size="20.0" fill="#1A1A1A" transform="matrix(1.00, 0.00, -0.00, -1.00, 813.9, 9.8)">i</text><text xml:space="preserve" font-family="HelveticaNeue-UltraLight,Helvetica Neue" font-size="20.0" fill="#1A1A1A" transform="matrix(1.00, 0.00, -0.00, -1.00, 816.5, 9.8)">s</text><text xml:space="preserve" font-family="HelveticaNeue-UltraLight,Helvetica Neue" font-size="20.0" fill="#1A1A1A" transform="matrix(1.00, 0.00, -0.00, -1.00, 825.8, 9.8)"> </text><text xml:space="preserve" font-family="HelveticaNeue-UltraLight,Helvetica Neue" font-size="20.0" fill="#1A1A1A" transform="matrix(1.00, 0.00, -0.00, -1.00, 831.4, 9.8)">o</text><text xml:space="preserve" font-family="HelveticaNeue-UltraLight,Helvetica Neue" font-size="20.0" fill="#1A1A1A" transform="matrix(1.00, 0.00, -0.00, -1.00, 841.7, 9.8)">f</text><text xml:space="preserve" font-family="HelveticaNeue-UltraLight,Helvetica Neue" font-size="20.0" fill="#1A1A1A" transform="matrix(1.00, 0.00, -0.00, -1.00, 845.8, 9.8)"> </text><text xml:space="preserve" font-family="HelveticaNeue-UltraLight,Helvetica Neue" font-size="20.0" fill="#1A1A1A" transform="matrix(1.00, 0.00, -0.00, -1.00, 851.4, 9.8)">O</text><text xml:space="preserve" font-family="HelveticaNeue-UltraLight,Helvetica Neue" font-size="20.0" fill="#1A1A1A" transform="matrix(1.00, 0.00, -0.00, -1.00, 865.8, 9.8)">c</text><text xml:space="preserve" font-family="HelveticaNeue-UltraLight,Helvetica Neue" font-size="20.0" fill="#1A1A1A" transform="matrix(1.00, 0.00, -0.00, -1.00, 875.8, 9.8)">e</text><text xml:space="preserve" font-family="HelveticaNeue-UltraLight,Helvetica Neue" font-size="20.0" fill="#1A1A1A" transform="matrix(1.00, 0.00, -0.00, -1.00, 885.8, 9.8)">a</text><text xml:space="preserve" font-family="HelveticaNeue-UltraLight,Helvetica Neue" font-size="20.0" fill="#1A1A1A" transform="matrix(1.00, 0.00, -0.00, -1.00, 895.4, 9.8)">n</text><text xml:space="preserve" font-family="HelveticaNeue-UltraLight,Helvetica Neue" font-size="20.0" fill="#1A1A1A" transform="matrix(1.00, 0.00, -0.00, -1.00, 905.4, 9.8)"> </text><text xml:space="preserve" font-family="HelveticaNeue-UltraLight,Helvetica Neue" font-size="20.0" fill="#1A1A1A" transform="matrix(1.00, 0.00, -0.00, -1.00, 911.0, 9.8)">F</text><text xml:space="preserve" font-family="HelveticaNeue-UltraLight,Helvetica Neue" font-size="20.0" fill="#1A1A1A" transform="matrix(1.00, 0.00, -0.00, -1.00, 920.6, 9.8)">o</text><text xml:space="preserve" font-family="HelveticaNeue-UltraLight,Helvetica Neue" font-size="20.0" fill="#1A1A1A" transform="matrix(1.00, 0.00, -0.00, -1.00, 931.0, 9.8)">r</text><text xml:space="preserve" font-family="HelveticaNeue-UltraLight,Helvetica Neue" font-size="20.0" fill="#1A1A1A" transform="matrix(1.00, 0.00, -0.00, -1.00, 936.2, 9.8)">e</text><text xml:space="preserve" font-family="HelveticaNeue-UltraLight,Helvetica Neue" font-size="20.0" fill="#1A1A1A" transform="matrix(1.00, 0.00, -0.00, -1.00, 946.2, 9.8)">c</text><text xml:space="preserve" font-family="HelveticaNeue-UltraLight,Helvetica Neue" font-size="20.0" fill="#1A1A1A" transform="matrix(1.00, 0.00, -0.00, -1.00, 956.2, 9.8)">a</text><text xml:space="preserve" font-family="HelveticaNeue-UltraLight,Helvetica Neue" font-size="20.0" fill="#1A1A1A" transform="matrix(1.00, 0.00, -0.00, -1.00, 965.8, 9.8)">s</text><text xml:space="preserve" font-family="HelveticaNeue-UltraLight,Helvetica Neue" font-size="20.0" fill="#1A1A1A" transform="matrix(1.00, 0.00, -0.00, -1.00, 975.0, 9.8)">t</text><text xml:space="preserve" font-family="HelveticaNeue-UltraLight,Helvetica Neue" font-size="20.0" fill="#1A1A1A" transform="matrix(1.00, 0.00, -0.00, -1.00, 979.9, 9.8)"> </text><text xml:space="preserve" font-family="HelveticaNeue-UltraLight,Helvetica Neue" font-size="20.0" fill="#1A1A1A" transform="matrix(1.00, 0.00, -0.00, -1.00, 985.4, 9.8)">E</text><text xml:space="preserve" font-family="HelveticaNeue-UltraLight,Helvetica Neue" font-size="20.0" fill="#1A1A1A" transform="matrix(1.00, 0.00, -0.00, -1.00, 996.2, 9.8)">n</text><text xml:space="preserve" font-family="HelveticaNeue-UltraLight,Helvetica Neue" font-size="20.0" fill="#1A1A1A" transform="matrix(1.00, 0.00, -0.00, -1.00, 1006.2, 9.8)">s</text><text xml:space="preserve" font-family="HelveticaNeue-UltraLight,Helvetica Neue" font-size="20.0" fill="#1A1A1A" transform="matrix(1.00, 0.00, -0.00, -1.00, 1015.4, 9.8)">e</text><text xml:space="preserve" font-family="HelveticaNeue-UltraLight,Helvetica Neue" font-size="20.0" fill="#1A1A1A" transform="matrix(1.00, 0.00, -0.00, -1.00, 1025.4, 9.8)">m</text><text xml:space="preserve" font-family="HelveticaNeue-UltraLight,Helvetica Neue" font-size="20.0" fill="#1A1A1A" transform="matrix(1.00, 0.00, -0.00, -1.00, 1041.0, 9.8)">b</text><text xml:space="preserve" font-family="HelveticaNeue-UltraLight,Helvetica Neue" font-size="20.0" fill="#1A1A1A" transform="matrix(1.00, 0.00, -0.00, -1.00, 1051.7, 9.8)">l</text><text xml:space="preserve" font-family="HelveticaNeue-UltraLight,Helvetica Neue" font-size="20.0" fill="#1A1A1A" transform="matrix(1.00, 0.00, -0.00, -1.00, 1054.3, 9.8)">e</text><text xml:space="preserve" font-family="HelveticaNeue-UltraLight,Helvetica Neue" font-size="20.0" fill="#1A1A1A" transform="matrix(1.00, 0.00, -0.00, -1.00, 1064.3, 9.8)">s</text><text xml:space="preserve" font-family="HelveticaNeue-UltraLight,Helvetica Neue" font-size="20.0" fill="#1A1A1A" transform="matrix(1.00, 0.00, -0.00, -1.00, 1073.6, 9.8)"> </text><text xml:space="preserve" font-family="HelveticaNeue-UltraLight,Helvetica Neue" font-size="20.0" fill="#1A1A1A" transform="matrix(1.00, 0.00, -0.00, -1.00, 1079.1, 9.8)"> </text><text xml:space="preserve" font-family="HelveticaNeue-UltraLight,Helvetica Neue" font-size="20.0" fill="#1A1A1A" transform="matrix(1.00, 0.00, -0.00, -1.00, 1084.7, 9.8)">/</text><text xml:space="preserve" font-family="HelveticaNeue-UltraLight,Helvetica Neue" font-size="20.0" fill="#1A1A1A" transform="matrix(1.00, 0.00, -0.00, -1.00, 1091.4, 9.8)">/</text><text xml:space="preserve" font-family="HelveticaNeue-UltraLight,Helvetica Neue" font-size="20.0" fill="#1A1A1A" transform="matrix(1.00, 0.00, -0.00, -1.00, 1098.0, 9.8)"> </text><text xml:space="preserve" font-family="HelveticaNeue-UltraLight,Helvetica Neue" font-size="20.0" fill="#1A1A1A" transform="matrix(1.00, 0.00, -0.00, -1.00, 1103.6, 9.8)">1</text><text xml:space="preserve" font-family="HelveticaNeue-UltraLight,Helvetica Neue" font-size="20.0" fill="#1A1A1A" transform="matrix(1.00, 0.00, -0.00, -1.00, 1114.7, 9.8)">3</text><text xml:space="preserve" font-family="HelveticaNeue-UltraLight,Helvetica Neue" font-size="20.0" fill="#1A1A1A" transform="matrix(1.00, 0.00, -0.00, -1.00, 1125.8, 9.8)">t</text><text xml:space="preserve" font-family="HelveticaNeue-UltraLight,Helvetica Neue" font-size="20.0" fill="#1A1A1A" transform="matrix(1.00, 0.00, -0.00, -1.00, 1130.6, 9.8)">h</text><text xml:space="preserve" font-family="HelveticaNeue-UltraLight,Helvetica Neue" font-size="20.0" fill="#1A1A1A" transform="matrix(1.00, 0.00, -0.00, -1.00, 1140.6, 9.8)"> </text><text xml:space="preserve" font-family="HelveticaNeue-UltraLight,Helvetica Neue" font-size="20.0" fill="#1A1A1A" transform="matrix(1.00, 0.00, -0.00, -1.00, 1146.2, 9.8)">J</text><text xml:space="preserve" font-family="HelveticaNeue-UltraLight,Helvetica Neue" font-size="20.0" fill="#1A1A1A" transform="matrix(1.00, 0.00, -0.00, -1.00, 1155.5, 9.8)">a</text><text xml:space="preserve" font-family="HelveticaNeue-UltraLight,Helvetica Neue" font-size="20.0" fill="#1A1A1A" transform="matrix(1.00, 0.00, -0.00, -1.00, 1165.1, 9.8)">n</text><text xml:space="preserve" font-family="HelveticaNeue-UltraLight,Helvetica Neue" font-size="20.0" fill="#1A1A1A" transform="matrix(1.00, 0.00, -0.00, -1.00, 1175.1, 9.8)"> </text><text xml:space="preserve" font-family="HelveticaNeue-UltraLight,Helvetica Neue" font-size="20.0" fill="#1A1A1A" transform="matrix(1.00, 0.00, -0.00, -1.00, 1180.6, 9.8)">2</text><text xml:space="preserve" font-family="HelveticaNeue-UltraLight,Helvetica Neue" font-size="20.0" fill="#1A1A1A" transform="matrix(1.00, 0.00, -0.00, -1.00, 1191.8, 9.8)">0</text><text xml:space="preserve" font-family="HelveticaNeue-UltraLight,Helvetica Neue" font-size="20.0" fill="#1A1A1A" transform="matrix(1.00, 0.00, -0.00, -1.00, 1202.9, 9.8)">1</text><text xml:space="preserve" font-family="HelveticaNeue-UltraLight,Helvetica Neue" font-size="20.0" fill="#1A1A1A" transform="matrix(1.00, 0.00, -0.00, -1.00, 1214.0, 9.8)">5</text><text xml:space="preserve" font-family="HelveticaNeue-UltraLight,Helvetica Neue" font-size="20.0" fill="#1A1A1A" transform="matrix(1.00, 0.00, -0.00, -1.00, 1225.1, 9.8)"> </text><text xml:space="preserve" font-family="HelveticaNeue-UltraLight,Helvetica Neue" font-size="20.0" fill="#1A1A1A" transform="matrix(1.00, 0.00, -0.00, -1.00, 1230.7, 9.8)">/</text><text xml:space="preserve" font-family="HelveticaNeue-UltraLight,Helvetica Neue" font-size="20.0" fill="#1A1A1A" transform="matrix(1.00, 0.00, -0.00, -1.00, 1237.3, 9.8)">/</text><text xml:space="preserve" font-family="HelveticaNeue-UltraLight,Helvetica Neue" font-size="20.0" fill="#1A1A1A" transform="matrix(1.00, 0.00, -0.00, -1.00, 1244.0, 9.8)"> </text><text xml:space="preserve" font-family="HelveticaNeue-UltraLight,Helvetica Neue" font-size="20.0" fill="#1A1A1A" transform="matrix(1.00, 0.00, -0.00, -1.00, 1249.6, 9.8)"> </text><text xml:space="preserve" font-family="HelveticaNeue-UltraLight,Helvetica Neue" font-size="20.0" fill="#1A1A1A" transform="matrix(1.00, 0.00, -0.00, -1.00, 1255.1, 9.8)"> </text><g><clipPath id="clip0x7fe0082e7db0"><path d="M 0.0 760.0 L 1280.0 760.0 L 1280.0 -40.0 L 0.0 -40.0 Z M 0.0 760.0 "></path></clipPath><g clip-path="url(#clip0x7fe0082e7db0)"><image xlink:href="../../4BF6E09A-E29B-4527-A1AF-C153D0C3F81D/assets/3442FAD39FFBC720E6E532721789E149.png" width="1280.00" height="800.00" transform="matrix(1.00, 0.00, -0.00, -1.00, 0.0, 760.0)"></image></g></g><text xml:space="preserve" font-family="HelveticaNeue-UltraLight,Helvetica Neue" font-size="20.4" fill="#282828" transform="matrix(1.00, 0.00, -0.00, -1.00, 96.6, 600.5)">•</text><text xml:space="preserve" font-family="HelveticaNeue-UltraLight,Helvetica Neue" font-size="34.0" fill="#282828" transform="matrix(1.00, 0.00, -0.00, -1.00, 120.6, 595.6)">P</text><text xml:space="preserve" font-family="HelveticaNeue-UltraLight,Helvetica Neue" font-size="34.0" fill="#282828" transform="matrix(1.00, 0.00, -0.00, -1.00, 140.1, 595.6)">l</text><text xml:space="preserve" font-family="HelveticaNeue-UltraLight,Helvetica Neue" font-size="34.0" fill="#282828" transform="matrix(1.00, 0.00, -0.00, -1.00, 144.5, 595.6)">a</text><text xml:space="preserve" font-family="HelveticaNeue-UltraLight,Helvetica Neue" font-size="34.0" fill="#282828" transform="matrix(1.00, 0.00, -0.00, -1.00, 160.9, 595.6)">n</text><text xml:space="preserve" font-family="HelveticaNeue-UltraLight,Helvetica Neue" font-size="34.0" fill="#282828" transform="matrix(1.00, 0.00, -0.00, -1.00, 177.9, 595.6)"> </text><text xml:space="preserve" font-family="HelveticaNeue-UltraLight,Helvetica Neue" font-size="34.0" fill="#282828" transform="matrix(1.00, 0.00, -0.00, -1.00, 187.3, 595.6)">g</text><text xml:space="preserve" font-family="HelveticaNeue-UltraLight,Helvetica Neue" font-size="34.0" fill="#282828" transform="matrix(1.00, 0.00, -0.00, -1.00, 205.0, 595.6)">l</text><text xml:space="preserve" font-family="HelveticaNeue-UltraLight,Helvetica Neue" font-size="34.0" fill="#282828" transform="matrix(1.00, 0.00, -0.00, -1.00, 209.4, 595.6)">i</text><text xml:space="preserve" font-family="HelveticaNeue-UltraLight,Helvetica Neue" font-size="34.0" fill="#282828" transform="matrix(1.00, 0.00, -0.00, -1.00, 213.8, 595.6)">d</text><text xml:space="preserve" font-family="HelveticaNeue-UltraLight,Helvetica Neue" font-size="34.0" fill="#282828" transform="matrix(1.00, 0.00, -0.00, -1.00, 232.1, 595.6)">e</text><text xml:space="preserve" font-family="HelveticaNeue-UltraLight,Helvetica Neue" font-size="34.0" fill="#282828" transform="matrix(1.00, 0.00, -0.00, -1.00, 249.1, 595.6)">r</text><text xml:space="preserve" font-family="HelveticaNeue-UltraLight,Helvetica Neue" font-size="34.0" fill="#282828" transform="matrix(1.00, 0.00, -0.00, -1.00, 257.9, 595.6)"> </text><text xml:space="preserve" font-family="HelveticaNeue-UltraLight,Helvetica Neue" font-size="34.0" fill="#282828" transform="matrix(1.00, 0.00, -0.00, -1.00, 267.3, 595.6)">p</text><text xml:space="preserve" font-family="HelveticaNeue-UltraLight,Helvetica Neue" font-size="34.0" fill="#282828" transform="matrix(1.00, 0.00, -0.00, -1.00, 285.6, 595.6)">a</text><text xml:space="preserve" font-family="HelveticaNeue-UltraLight,Helvetica Neue" font-size="34.0" fill="#282828" transform="matrix(1.00, 0.00, -0.00, -1.00, 302.0, 595.6)">t</text><text xml:space="preserve" font-family="HelveticaNeue-UltraLight,Helvetica Neue" font-size="34.0" fill="#282828" transform="matrix(1.00, 0.00, -0.00, -1.00, 310.2, 595.6)">h</text><text xml:space="preserve" font-family="HelveticaNeue-UltraLight,Helvetica Neue" font-size="34.0" fill="#282828" transform="matrix(1.00, 0.00, -0.00, -1.00, 327.2, 595.6)"> </text><text xml:space="preserve" font-family="HelveticaNeue-UltraLight,Helvetica Neue" font-size="20.4" fill="#282828" transform="matrix(1.00, 0.00, -0.00, -1.00, 126.6, 524.5)">•</text><text xml:space="preserve" font-family="HelveticaNeue-UltraLight,Helvetica Neue" font-size="34.0" fill="#282828" transform="matrix(1.00, 0.00, -0.00, -1.00, 150.6, 519.6)">T</text><text xml:space="preserve" font-family="HelveticaNeue-UltraLight,Helvetica Neue" font-size="34.0" fill="#282828" transform="matrix(1.00, 0.00, -0.00, -1.00, 166.8, 519.6)">i</text><text xml:space="preserve" font-family="HelveticaNeue-UltraLight,Helvetica Neue" font-size="34.0" fill="#282828" transform="matrix(1.00, 0.00, -0.00, -1.00, 171.2, 519.6)">m</text><text xml:space="preserve" font-family="HelveticaNeue-UltraLight,Helvetica Neue" font-size="34.0" fill="#282828" transform="matrix(1.00, 0.00, -0.00, -1.00, 197.6, 519.6)">e</text><text xml:space="preserve" font-family="HelveticaNeue-UltraLight,Helvetica Neue" font-size="34.0" fill="#282828" transform="matrix(1.00, 0.00, -0.00, -1.00, 214.6, 519.6)"> </text><text xml:space="preserve" font-family="HelveticaNeue-UltraLight,Helvetica Neue" font-size="34.0" fill="#282828" transform="matrix(1.00, 0.00, -0.00, -1.00, 224.1, 519.6)">s</text><text xml:space="preserve" font-family="HelveticaNeue-UltraLight,Helvetica Neue" font-size="34.0" fill="#282828" transform="matrix(1.00, 0.00, -0.00, -1.00, 239.8, 519.6)">e</text><text xml:space="preserve" font-family="HelveticaNeue-UltraLight,Helvetica Neue" font-size="34.0" fill="#282828" transform="matrix(1.00, 0.00, -0.00, -1.00, 256.8, 519.6)">r</text><text xml:space="preserve" font-family="HelveticaNeue-UltraLight,Helvetica Neue" font-size="34.0" fill="#282828" transform="matrix(1.00, 0.00, -0.00, -1.00, 265.6, 519.6)">i</text><text xml:space="preserve" font-family="HelveticaNeue-UltraLight,Helvetica Neue" font-size="34.0" fill="#282828" transform="matrix(1.00, 0.00, -0.00, -1.00, 270.0, 519.6)">e</text><text xml:space="preserve" font-family="HelveticaNeue-UltraLight,Helvetica Neue" font-size="34.0" fill="#282828" transform="matrix(1.00, 0.00, -0.00, -1.00, 287.0, 519.6)">s</text><text xml:space="preserve" font-family="HelveticaNeue-UltraLight,Helvetica Neue" font-size="34.0" fill="#282828" transform="matrix(1.00, 0.00, -0.00, -1.00, 302.8, 519.6)"> </text><text xml:space="preserve" font-family="HelveticaNeue-UltraLight,Helvetica Neue" font-size="34.0" fill="#282828" transform="matrix(1.00, 0.00, -0.00, -1.00, 312.2, 519.6)">v</text><text xml:space="preserve" font-family="HelveticaNeue-UltraLight,Helvetica Neue" font-size="34.0" fill="#282828" transform="matrix(1.00, 0.00, -0.00, -1.00, 326.1, 519.6)">i</text><text xml:space="preserve" font-family="HelveticaNeue-UltraLight,Helvetica Neue" font-size="34.0" fill="#282828" transform="matrix(1.00, 0.00, -0.00, -1.00, 330.5, 519.6)">e</text><text xml:space="preserve" font-family="HelveticaNeue-UltraLight,Helvetica Neue" font-size="34.0" fill="#282828" transform="matrix(1.00, 0.00, -0.00, -1.00, 347.5, 519.6)">w</text><text xml:space="preserve" font-family="HelveticaNeue-UltraLight,Helvetica Neue" font-size="34.0" fill="#282828" transform="matrix(1.00, 0.00, -0.00, -1.00, 370.8, 519.6)"> </text><text xml:space="preserve" font-family="HelveticaNeue-UltraLight,Helvetica Neue" font-size="34.0" fill="#282828" transform="matrix(1.00, 0.00, -0.00, -1.00, 380.2, 519.6)">+</text><text xml:space="preserve" font-family="HelveticaNeue-UltraLight,Helvetica Neue" font-size="34.0" fill="#282828" transform="matrix(1.00, 0.00, -0.00, -1.00, 400.6, 519.6)"> </text><text xml:space="preserve" font-family="HelveticaNeue-UltraLight,Helvetica Neue" font-size="34.0" fill="#282828" transform="matrix(1.00, 0.00, -0.00, -1.00, 410.1, 519.6)">l</text><text xml:space="preserve" font-family="HelveticaNeue-UltraLight,Helvetica Neue" font-size="34.0" fill="#282828" transform="matrix(1.00, 0.00, -0.00, -1.00, 414.5, 519.6)">a</text><text xml:space="preserve" font-family="HelveticaNeue-UltraLight,Helvetica Neue" font-size="34.0" fill="#282828" transform="matrix(1.00, 0.00, -0.00, -1.00, 430.9, 519.6)">t</text><text xml:space="preserve" font-family="HelveticaNeue-UltraLight,Helvetica Neue" font-size="34.0" fill="#282828" transform="matrix(1.00, 0.00, -0.00, -1.00, 439.1, 519.6)">e</text><text xml:space="preserve" font-family="HelveticaNeue-UltraLight,Helvetica Neue" font-size="34.0" fill="#282828" transform="matrix(1.00, 0.00, -0.00, -1.00, 456.1, 519.6)">r</text><text xml:space="preserve" font-family="HelveticaNeue-UltraLight,Helvetica Neue" font-size="34.0" fill="#282828" transform="matrix(1.00, 0.00, -0.00, -1.00, 464.9, 519.6)">a</text><text xml:space="preserve" font-family="HelveticaNeue-UltraLight,Helvetica Neue" font-size="34.0" fill="#282828" transform="matrix(1.00, 0.00, -0.00, -1.00, 481.2, 519.6)">l</text><text xml:space="preserve" font-family="HelveticaNeue-UltraLight,Helvetica Neue" font-size="34.0" fill="#282828" transform="matrix(1.00, 0.00, -0.00, -1.00, 485.6, 519.6)"> </text><text xml:space="preserve" font-family="HelveticaNeue-UltraLight,Helvetica Neue" font-size="34.0" fill="#282828" transform="matrix(1.00, 0.00, -0.00, -1.00, 495.1, 519.6)">v</text><text xml:space="preserve" font-family="HelveticaNeue-UltraLight,Helvetica Neue" font-size="34.0" fill="#282828" transform="matrix(1.00, 0.00, -0.00, -1.00, 508.9, 519.6)">a</text><text xml:space="preserve" font-family="HelveticaNeue-UltraLight,Helvetica Neue" font-size="34.0" fill="#282828" transform="matrix(1.00, 0.00, -0.00, -1.00, 525.3, 519.6)">r</text><text xml:space="preserve" font-family="HelveticaNeue-UltraLight,Helvetica Neue" font-size="34.0" fill="#282828" transform="matrix(1.00, 0.00, -0.00, -1.00, 534.1, 519.6)">i</text><text xml:space="preserve" font-family="HelveticaNeue-UltraLight,Helvetica Neue" font-size="34.0" fill="#282828" transform="matrix(1.00, 0.00, -0.00, -1.00, 538.5, 519.6)">a</text><text xml:space="preserve" font-family="HelveticaNeue-UltraLight,Helvetica Neue" font-size="34.0" fill="#282828" transform="matrix(1.00, 0.00, -0.00, -1.00, 554.9, 519.6)">t</text><text xml:space="preserve" font-family="HelveticaNeue-UltraLight,Helvetica Neue" font-size="34.0" fill="#282828" transform="matrix(1.00, 0.00, -0.00, -1.00, 563.1, 519.6)">i</text><text xml:space="preserve" font-family="HelveticaNeue-UltraLight,Helvetica Neue" font-size="34.0" fill="#282828" transform="matrix(1.00, 0.00, -0.00, -1.00, 567.5, 519.6)">o</text><text xml:space="preserve" font-family="HelveticaNeue-UltraLight,Helvetica Neue" font-size="34.0" fill="#282828" transform="matrix(1.00, 0.00, -0.00, -1.00, 585.1, 519.6)">n</text><text xml:space="preserve" font-family="HelveticaNeue-UltraLight,Helvetica Neue" font-size="34.0" fill="#282828" transform="matrix(1.00, 0.00, -0.00, -1.00, 602.1, 519.6)"> </text><text xml:space="preserve" font-family="HelveticaNeue-UltraLight,Helvetica Neue" font-size="20.4" fill="#282828" transform="matrix(1.00, 0.00, -0.00, -1.00, 96.6, 448.5)">•</text><text xml:space="preserve" font-family="HelveticaNeue-UltraLight,Helvetica Neue" font-size="34.0" fill="#282828" transform="matrix(1.00, 0.00, -0.00, -1.00, 120.6, 443.6)">I</text><text xml:space="preserve" font-family="HelveticaNeue-UltraLight,Helvetica Neue" font-size="34.0" fill="#282828" transform="matrix(1.00, 0.00, -0.00, -1.00, 125.0, 443.6)">n</text><text xml:space="preserve" font-family="HelveticaNeue-UltraLight,Helvetica Neue" font-size="34.0" fill="#282828" transform="matrix(1.00, 0.00, -0.00, -1.00, 142.0, 443.6)">t</text><text xml:space="preserve" font-family="HelveticaNeue-UltraLight,Helvetica Neue" font-size="34.0" fill="#282828" transform="matrix(1.00, 0.00, -0.00, -1.00, 150.1, 443.6)">e</text><text xml:space="preserve" font-family="HelveticaNeue-UltraLight,Helvetica Neue" font-size="34.0" fill="#282828" transform="matrix(1.00, 0.00, -0.00, -1.00, 167.1, 443.6)">r</text><text xml:space="preserve" font-family="HelveticaNeue-UltraLight,Helvetica Neue" font-size="34.0" fill="#282828" transform="matrix(1.00, 0.00, -0.00, -1.00, 176.0, 443.6)">a</text><text xml:space="preserve" font-family="HelveticaNeue-UltraLight,Helvetica Neue" font-size="34.0" fill="#282828" transform="matrix(1.00, 0.00, -0.00, -1.00, 192.3, 443.6)">c</text><text xml:space="preserve" font-family="HelveticaNeue-UltraLight,Helvetica Neue" font-size="34.0" fill="#282828" transform="matrix(1.00, 0.00, -0.00, -1.00, 209.3, 443.6)">t</text><text xml:space="preserve" font-family="HelveticaNeue-UltraLight,Helvetica Neue" font-size="34.0" fill="#282828" transform="matrix(1.00, 0.00, -0.00, -1.00, 217.5, 443.6)">i</text><text xml:space="preserve" font-family="HelveticaNeue-UltraLight,Helvetica Neue" font-size="34.0" fill="#282828" transform="matrix(1.00, 0.00, -0.00, -1.00, 221.9, 443.6)">v</text><text xml:space="preserve" font-family="HelveticaNeue-UltraLight,Helvetica Neue" font-size="34.0" fill="#282828" transform="matrix(1.00, 0.00, -0.00, -1.00, 235.8, 443.6)">e</text><text xml:space="preserve" font-family="HelveticaNeue-UltraLight,Helvetica Neue" font-size="34.0" fill="#282828" transform="matrix(1.00, 0.00, -0.00, -1.00, 252.8, 443.6)"> </text><text xml:space="preserve" font-family="HelveticaNeue-UltraLight,Helvetica Neue" font-size="34.0" fill="#282828" transform="matrix(1.00, 0.00, -0.00, -1.00, 262.2, 443.6)">p</text><text xml:space="preserve" font-family="HelveticaNeue-UltraLight,Helvetica Neue" font-size="34.0" fill="#282828" transform="matrix(1.00, 0.00, -0.00, -1.00, 280.5, 443.6)">a</text><text xml:space="preserve" font-family="HelveticaNeue-UltraLight,Helvetica Neue" font-size="34.0" fill="#282828" transform="matrix(1.00, 0.00, -0.00, -1.00, 296.8, 443.6)">t</text><text xml:space="preserve" font-family="HelveticaNeue-UltraLight,Helvetica Neue" font-size="34.0" fill="#282828" transform="matrix(1.00, 0.00, -0.00, -1.00, 305.0, 443.6)">h</text><text xml:space="preserve" font-family="HelveticaNeue-UltraLight,Helvetica Neue" font-size="34.0" fill="#282828" transform="matrix(1.00, 0.00, -0.00, -1.00, 322.0, 443.6)"> </text><text xml:space="preserve" font-family="HelveticaNeue-UltraLight,Helvetica Neue" font-size="34.0" fill="#282828" transform="matrix(1.00, 0.00, -0.00, -1.00, 331.5, 443.6)">e</text><text xml:space="preserve" font-family="HelveticaNeue-UltraLight,Helvetica Neue" font-size="34.0" fill="#282828" transform="matrix(1.00, 0.00, -0.00, -1.00, 348.5, 443.6)">d</text><text xml:space="preserve" font-family="HelveticaNeue-UltraLight,Helvetica Neue" font-size="34.0" fill="#282828" transform="matrix(1.00, 0.00, -0.00, -1.00, 366.7, 443.6)">i</text><text xml:space="preserve" font-family="HelveticaNeue-UltraLight,Helvetica Neue" font-size="34.0" fill="#282828" transform="matrix(1.00, 0.00, -0.00, -1.00, 371.1, 443.6)">t</text><text xml:space="preserve" font-family="HelveticaNeue-UltraLight,Helvetica Neue" font-size="34.0" fill="#282828" transform="matrix(1.00, 0.00, -0.00, -1.00, 379.3, 443.6)">i</text><text xml:space="preserve" font-family="HelveticaNeue-UltraLight,Helvetica Neue" font-size="34.0" fill="#282828" transform="matrix(1.00, 0.00, -0.00, -1.00, 383.8, 443.6)">n</text><text xml:space="preserve" font-family="HelveticaNeue-UltraLight,Helvetica Neue" font-size="34.0" fill="#282828" transform="matrix(1.00, 0.00, -0.00, -1.00, 400.8, 443.6)">g</text><text xml:space="preserve" font-family="HelveticaNeue-UltraLight,Helvetica Neue" font-size="20.0" fill="#282828" transform="matrix(1.00, 0.00, -0.00, -1.00, 1253.5, 9.8)">1</text><text xml:space="preserve" font-family="HelveticaNeue-UltraLight,Helvetica Neue" font-size="20.0" fill="#282828" transform="matrix(1.00, 0.00, -0.00, -1.00, 1264.6, 9.8)">2</text><path d="M 592.1 0.0 L 591.1 0.0 L 0.0 3.9 " fill="none" stroke="#525252" stroke-width="2.00" transform="matrix(1.00, -0.01, -0.01, -1.00, 126.5, 55.2)"></path><path d="M 715.2 46.5 L 724.8 51.3 L 715.2 56.1 L 717.6 51.3 Z M 715.2 46.5 " fill="#525252"></path><text xml:space="preserve" font-family="HelveticaNeue-Light,Helvetica Neue" font-size="25.0" fill="#525252" transform="matrix(1.00, 0.00, -0.00, -1.00, 346.4, 19.2)">t</text><text xml:space="preserve" font-family="HelveticaNeue-Light,Helvetica Neue" font-size="25.0" fill="#525252" transform="matrix(1.00, 0.00, -0.00, -1.00, 353.8, 19.2)">i</text><text xml:space="preserve" font-family="HelveticaNeue-Light,Helvetica Neue" font-size="25.0" fill="#525252" transform="matrix(1.00, 0.00, -0.00, -1.00, 358.4, 19.2)">m</text><text xml:space="preserve" font-family="HelveticaNeue-Light,Helvetica Neue" font-size="25.0" fill="#525252" transform="matrix(1.00, 0.00, -0.00, -1.00, 379.2, 19.2)">e</text><text xml:space="preserve" font-family="HelveticaNeue-Light,Helvetica Neue" font-size="25.0" fill="#525252" transform="matrix(1.00, 0.00, -0.00, -1.00, 392.2, 19.2)"> </text><text xml:space="preserve" font-family="HelveticaNeue-Light,Helvetica Neue" font-size="25.0" fill="#525252" transform="matrix(1.00, 0.00, -0.00, -1.00, 399.1, 19.2)">+</text><text xml:space="preserve" font-family="HelveticaNeue-Light,Helvetica Neue" font-size="25.0" fill="#525252" transform="matrix(1.00, 0.00, -0.00, -1.00, 414.1, 19.2)"> </text><text xml:space="preserve" font-family="HelveticaNeue-Light,Helvetica Neue" font-size="25.0" fill="#525252" transform="matrix(1.00, 0.00, -0.00, -1.00, 421.1, 19.2)">p</text><text xml:space="preserve" font-family="HelveticaNeue-Light,Helvetica Neue" font-size="25.0" fill="#525252" transform="matrix(1.00, 0.00, -0.00, -1.00, 435.4, 19.2)">o</text><text xml:space="preserve" font-family="HelveticaNeue-Light,Helvetica Neue" font-size="25.0" fill="#525252" transform="matrix(1.00, 0.00, -0.00, -1.00, 449.3, 19.2)">s</text><text xml:space="preserve" font-family="HelveticaNeue-Light,Helvetica Neue" font-size="25.0" fill="#525252" transform="matrix(1.00, 0.00, -0.00, -1.00, 461.4, 19.2)">i</text><text xml:space="preserve" font-family="HelveticaNeue-Light,Helvetica Neue" font-size="25.0" fill="#525252" transform="matrix(1.00, 0.00, -0.00, -1.00, 466.0, 19.2)">t</text><text xml:space="preserve" font-family="HelveticaNeue-Light,Helvetica Neue" font-size="25.0" fill="#525252" transform="matrix(1.00, 0.00, -0.00, -1.00, 473.4, 19.2)">i</text><text xml:space="preserve" font-family="HelveticaNeue-Light,Helvetica Neue" font-size="25.0" fill="#525252" transform="matrix(1.00, 0.00, -0.00, -1.00, 478.0, 19.2)">o</text><text xml:space="preserve" font-family="HelveticaNeue-Light,Helvetica Neue" font-size="25.0" fill="#525252" transform="matrix(1.00, 0.00, -0.00, -1.00, 491.9, 19.2)">n</text><path d="M 731.0 373.0 L 804.0 373.0 L 804.0 37.0 L 731.0 37.0 Z M 731.0 373.0 " fill="#DBDBDB"></path></g></svg>